<?xml version="1.0" encoding="utf-8"?>
<!-- Generated by IcoMoon.io -->
<!DOCTYPE svg PUBLIC "-//W3C//DTD SVG 1.1//EN" "http://www.w3.org/Graphics/SVG/1.1/DTD/svg11.dtd">
<svg version="1.1" xmlns="http://www.w3.org/2000/svg" xmlns:xlink="http://www.w3.org/1999/xlink" width="66" height="64" viewBox="0 0 66 64">
<g id="icomoon-ignore">
	<line stroke-width="1" x1="" y1="" x2="" y2="" stroke="#449FDB" opacity=""></line>
</g>
	<path d="M62 0h-58c-1.644 0-4 2.356-4 4v56c0 1.644 2.356 4 4 4h58c1.644 0 4-2.356 4-4v-56c0-1.644-2.356-4-4-4zM64 60c-0.012 0.568-1.432 1.988-2 2h-58c-0.568-0.012-1.988-1.432-2-2v-56c0.012-0.568 1.432-1.988 2-2h58c0.568 0.012 1.988 1.432 2 2v56zM33 11c-2.206 0-4 1.794-4 4s1.794 4 4 4 4-1.794 4-4-1.794-4-4-4zM33 17c-1.102 0-2-0.898-2-2s0.898-2 2-2 2 0.898 2 2-0.898 2-2 2zM49 43c-2.206 0-4 1.794-4 4s1.794 4 4 4 4-1.794 4-4-1.794-4-4-4zM49 49c-1.102 0-2-0.898-2-2s0.898-2 2-2 2 0.898 2 2-0.898 2-2 2zM17 33c-2.206 0-4 1.794-4 4s1.794 4 4 4 4-1.794 4-4-1.794-4-4-4zM17 39c-1.102 0-2-0.898-2-2s0.898-2 2-2 2 0.898 2 2-0.898 2-2 2zM17 30c0.552 0 1-0.448 1-1v-18c0-0.552-0.448-1-1-1s-1 0.448-1 1v18c0 0.552 0.448 1 1 1zM17 44c-0.552 0-1 0.448-1 1v6c0 0.552 0.448 1 1 1s1-0.448 1-1v-6c0-0.552-0.448-1-1-1zM33 22c-0.552 0-1 0.448-1 1v28c0 0.552 0.448 1 1 1s1-0.448 1-1v-28c0-0.552-0.448-1-1-1zM49 40c0.552 0 1-0.448 1-1v-28c0-0.552-0.448-1-1-1s-1 0.448-1 1v28c0 0.552 0.448 1 1 1z" fill="#555555"></path>
</svg>
