<?xml version="1.0" encoding="utf-8"?>
<!-- Generated by IcoMoon.io -->
<!DOCTYPE svg PUBLIC "-//W3C//DTD SVG 1.1//EN" "http://www.w3.org/Graphics/SVG/1.1/DTD/svg11.dtd">
<svg version="1.1" xmlns="http://www.w3.org/2000/svg" xmlns:xlink="http://www.w3.org/1999/xlink" width="60" height="64" viewBox="0 0 60 64">
<g id="icomoon-ignore">
	<line stroke-width="1" x1="" y1="" x2="" y2="" stroke="#449FDB" opacity=""></line>
</g>
	<path d="M30 4c-15.44 0-28 12.56-28 28s12.56 28 28 28 28-12.56 28-28-12.56-28-28-28zM30 58c-14.336 0-26-11.664-26-26s11.664-26 26-26 26 11.664 26 26-11.664 26-26 26zM15 0c-8.272 0-15 6.728-15 15v2.124c0 0.552 0.448 1 1 1s1-0.446 1-1v-2.124c0-7.168 5.832-13 13-13h1.75c0.552 0 1-0.448 1-1s-0.448-1-1-1h-1.75zM44.75 0h-1.75c-0.552 0-1 0.448-1 1s0.448 1 1 1h1.75c7.168 0 13 5.832 13 13v2.124c0 0.552 0.448 1 1 1s1-0.448 1-1v-2.124c0-8.272-6.728-15-15-15zM30 32.586v-13.948c0-0.552-0.448-1-1-1s-1 0.448-1 1v14.362c0 0.266 0.106 0.52 0.292 0.708l9.828 9.828c0.196 0.196 0.452 0.292 0.708 0.292s0.512-0.098 0.708-0.292c0.39-0.39 0.39-1.024 0-1.414l-9.536-9.536zM3.8 63.6l6-8c0.33-0.442 0.24-1.068-0.202-1.4-0.44-0.328-1.066-0.24-1.4 0.202l-6 8c-0.33 0.442-0.24 1.068 0.202 1.4 0.18 0.134 0.392 0.198 0.6 0.198 0.302 0 0.604-0.138 0.8-0.4zM51.8 54.4c-0.334-0.444-0.958-0.53-1.4-0.202-0.442 0.332-0.532 0.958-0.202 1.4l6 8c0.198 0.262 0.498 0.4 0.8 0.4 0.208 0 0.42-0.064 0.6-0.2 0.442-0.332 0.532-0.958 0.202-1.4l-6-7.998z" fill="#555555"></path>
</svg>
