<?xml version="1.0" encoding="utf-8"?>
<!-- Generated by IcoMoon.io -->
<!DOCTYPE svg PUBLIC "-//W3C//DTD SVG 1.1//EN" "http://www.w3.org/Graphics/SVG/1.1/DTD/svg11.dtd">
<svg version="1.1" xmlns="http://www.w3.org/2000/svg" xmlns:xlink="http://www.w3.org/1999/xlink" width="70" height="64" viewBox="0 0 70 64">
<g id="icomoon-ignore">
	<line stroke-width="1" x1="" y1="" x2="" y2="" stroke="#449FDB" opacity=""></line>
</g>
	<path d="M1.624 37.792l4.376-4.378v1.586c0 15.178 13.822 29 29 29s29-13.822 29-29v-1.544l4.418 4.418c0.196 0.196 0.452 0.292 0.708 0.292s0.512-0.098 0.708-0.292c0.39-0.39 0.39-1.024 0-1.414l-6.036-6.036c-0.184-0.25-0.464-0.424-0.798-0.424-0.090 0-0.168 0.028-0.252 0.050-0.184 0.038-0.362 0.108-0.498 0.242l-6.084 6.084c-0.39 0.39-0.39 1.024 0 1.414s1.024 0.39 1.414 0l4.42-4.418v1.628c0 13.796-12.27 26.354-26 26.944v-37.944h17c0.552 0 1-0.448 1-1s-0.448-1-1-1h-17v-8.102c3.384-0.49 6-3.382 6-6.898 0-3.86-3.14-7-7-7s-7 3.14-7 7c0 3.516 2.616 6.408 6 6.898v8.102h-17c-0.552 0-1 0.448-1 1s0.448 1 1 1h17v37.944c-13.73-0.59-26-13.148-26-26.944v-1.586l4.46 4.46c0.196 0.196 0.452 0.292 0.708 0.292s0.512-0.098 0.708-0.292c0.39-0.39 0.39-1.024 0-1.414l-6.166-6.164c-0.182-0.184-0.434-0.296-0.71-0.296s-0.528 0.112-0.708 0.294l-6.082 6.082c-0.39 0.39-0.39 1.024 0 1.414s1.024 0.392 1.414 0.002zM35 2c2.756 0 5 2.242 5 5s-2.244 5-5 5-5-2.242-5-5 2.244-5 5-5z" fill="#555555"></path>
</svg>
