<?xml version="1.0" encoding="utf-8"?>
<!-- Generated by IcoMoon.io -->
<!DOCTYPE svg PUBLIC "-//W3C//DTD SVG 1.1//EN" "http://www.w3.org/Graphics/SVG/1.1/DTD/svg11.dtd">
<svg version="1.1" xmlns="http://www.w3.org/2000/svg" xmlns:xlink="http://www.w3.org/1999/xlink" width="64" height="64" viewBox="0 0 64 64">
<g id="icomoon-ignore">
	<line stroke-width="1" x1="" y1="" x2="" y2="" stroke="#449FDB" opacity=""></line>
</g>
	<path d="M32 64c17.644 0 32-14.356 32-32s-14.356-32-32-32-32 14.356-32 32 14.356 32 32 32zM15.42 7.020c-1.754 4.728-2.626 9.618-2.492 14.574 0.1 3.596 0.714 7.198 1.834 10.71 0.87 2.72 2.006 5.31 3.382 7.696 0.22 0.384 0.45 0.762 0.682 1.136 0.19 0.304 0.516 0.472 0.85 0.472 0.182 0 0.364-0.048 0.528-0.15 0.468-0.292 0.614-0.908 0.322-1.376-0.22-0.356-0.438-0.716-0.65-1.082-1.302-2.262-2.382-4.718-3.208-7.302-1.062-3.334-1.646-6.752-1.74-10.158-0.142-5.216 0.832-10.366 2.946-15.428 0.098-0.24 0.202-0.476 0.306-0.712 4.14-2.16 8.834-3.4 13.82-3.4 4.786 0 9.296 1.154 13.314 3.156-4.96 0.846-9.618 2.534-13.838 5.126-3.062 1.878-5.876 4.214-8.358 6.942-1.924 2.11-3.598 4.392-4.974 6.776-0.222 0.384-0.438 0.772-0.644 1.162-0.26 0.488-0.074 1.094 0.414 1.352 0.148 0.080 0.31 0.118 0.468 0.118 0.358 0 0.704-0.194 0.882-0.532 0.196-0.368 0.398-0.734 0.61-1.1 1.304-2.262 2.894-4.424 4.72-6.43 2.358-2.588 5.026-4.802 7.928-6.586 4.45-2.73 9.396-4.462 14.708-5.144 0.292-0.040 0.586-0.072 0.88-0.106 7.834 5.014 13.176 13.552 13.794 23.372-3.212-3.87-7.002-7.060-11.356-9.418-3.164-1.714-6.594-2.982-10.194-3.768-3.24-0.71-6.504-1.012-9.686-0.896-0.55 0.022-0.982 0.484-0.962 1.038 0.020 0.54 0.462 0.962 1 0.962 0.012 0 0.024 0 0.038 0 2.992-0.112 6.108 0.176 9.186 0.85 3.414 0.746 6.668 1.95 9.666 3.572 4.59 2.488 8.562 5.906 11.916 10.302 0.144 0.186 0.282 0.376 0.422 0.564-0.43 9.868-5.616 18.516-13.354 23.668 1.754-4.728 2.626-9.618 2.492-14.574-0.1-3.596-0.714-7.198-1.834-10.71-0.87-2.72-2.006-5.31-3.382-7.696-0.22-0.384-0.45-0.762-0.682-1.136-0.292-0.47-0.91-0.61-1.376-0.322-0.468 0.292-0.614 0.908-0.322 1.376 0.22 0.356 0.438 0.716 0.65 1.082 1.302 2.262 2.382 4.718 3.208 7.302 1.062 3.334 1.646 6.752 1.74 10.158 0.142 5.214-0.832 10.366-2.946 15.428-0.1 0.238-0.202 0.476-0.306 0.712-4.142 2.16-8.836 3.4-13.822 3.4-4.786 0-9.296-1.154-13.314-3.156 4.958-0.846 9.618-2.534 13.838-5.126 3.066-1.882 5.878-4.218 8.358-6.942 1.926-2.112 3.6-4.392 4.974-6.778 0.222-0.384 0.438-0.772 0.644-1.162 0.26-0.488 0.074-1.094-0.414-1.352-0.484-0.26-1.094-0.072-1.352 0.414-0.196 0.368-0.398 0.734-0.61 1.1-1.304 2.262-2.894 4.424-4.722 6.43-2.352 2.586-5.020 4.8-7.926 6.586-4.45 2.73-9.396 4.462-14.708 5.144-0.292 0.040-0.586 0.072-0.88 0.106-7.834-5.014-13.176-13.552-13.794-23.372 3.212 3.87 7.002 7.060 11.356 9.418 3.164 1.714 6.594 2.982 10.194 3.768 2.79 0.614 5.6 0.922 8.356 0.922 0.446 0 0.886-0.008 1.33-0.024 0.55-0.022 0.982-0.484 0.962-1.038-0.020-0.55-0.41-1.010-1.038-0.962-2.988 0.114-6.108-0.176-9.186-0.85-3.414-0.746-6.668-1.95-9.666-3.572-4.59-2.488-8.562-5.906-11.916-10.302-0.144-0.186-0.282-0.376-0.422-0.564 0.432-9.868 5.62-18.516 13.356-23.668z" fill="#555555"></path>
</svg>
