<?xml version="1.0" encoding="utf-8"?>
<!-- Generated by IcoMoon.io -->
<!DOCTYPE svg PUBLIC "-//W3C//DTD SVG 1.1//EN" "http://www.w3.org/Graphics/SVG/1.1/DTD/svg11.dtd">
<svg version="1.1" xmlns="http://www.w3.org/2000/svg" xmlns:xlink="http://www.w3.org/1999/xlink" width="64" height="64" viewBox="0 0 64 64">
<g id="icomoon-ignore">
	<line stroke-width="1" x1="" y1="" x2="" y2="" stroke="#449FDB" opacity=""></line>
</g>
	<path d="M37.972 32.942c0.328 0.036 0.654 0.052 0.98 0.052 2.432 0 4.764-0.962 6.516-2.714l14.81-14.81c1.732-1.732 2.698-4.028 2.712-6.462 0.018-2.44-0.918-4.728-2.632-6.444-1.7-1.7-3.96-2.634-6.376-2.634-0.022 0-0.042 0-0.066 0-2.434 0.016-4.728 0.98-6.46 2.712l-14.81 14.81c-2.19 2.19-3.138 5.298-2.538 8.314 0.116 0.58 0.692 0.958 1.258 0.838 0.58-0.116 0.956-0.678 0.84-1.256-0.462-2.314 0.268-4.702 1.952-6.384l14.81-14.81c1.332-1.334 3.096-2.074 4.964-2.086 1.95 0 3.61 0.7 4.916 2.006s2.020 3.054 2.008 4.916c-0.014 1.87-0.754 3.632-2.088 4.964l-14.81 14.81c-1.528 1.526-3.626 2.266-5.758 2.048-0.57-0.066-1.114 0.362-1.176 0.95-0.064 0.592 0.362 1.118 0.948 1.18zM30.28 46.546c2.296-2.296 3.216-5.538 2.458-8.668-0.138-0.574-0.702-0.932-1.292-0.788-0.574 0.138-0.926 0.716-0.788 1.29 0.582 2.402-0.126 4.888-1.892 6.656l-14.81 14.81c-1.332 1.334-3.096 2.074-4.964 2.086-1.918 0.010-3.61-0.698-4.916-2.006-1.306-1.306-2.020-3.052-2.006-4.916 0.012-1.87 0.754-3.632 2.086-4.966l14.81-14.81c1.542-1.542 3.644-2.288 5.812-2.042 0.576 0.044 1.118-0.354 1.184-0.942 0.066-0.586-0.354-1.116-0.942-1.184-2.808-0.316-5.56 0.648-7.566 2.654l-14.81 14.81c-1.732 1.732-2.696 4.028-2.712 6.462-0.018 2.44 0.918 4.728 2.632 6.444 1.7 1.7 3.96 2.634 6.376 2.634 0.022 0 0.042 0 0.066 0 2.434-0.016 4.728-0.98 6.46-2.712l14.814-14.812zM45.468 17.744c-0.418-0.418-1.094-0.418-1.512 0l-27 27c-0.418 0.416-0.418 1.094 0 1.512 0.208 0.208 0.482 0.314 0.756 0.314s0.546-0.104 0.756-0.314l27-27c0.418-0.418 0.418-1.094 0-1.512z" fill="#555555"></path>
</svg>
