<?xml version="1.0" encoding="utf-8"?>
<!-- Generated by IcoMoon.io -->
<!DOCTYPE svg PUBLIC "-//W3C//DTD SVG 1.1//EN" "http://www.w3.org/Graphics/SVG/1.1/DTD/svg11.dtd">
<svg version="1.1" xmlns="http://www.w3.org/2000/svg" xmlns:xlink="http://www.w3.org/1999/xlink" width="64" height="64" viewBox="0 0 64 64">
<g id="icomoon-ignore">
	<line stroke-width="1" x1="" y1="" x2="" y2="" stroke="#449FDB" opacity=""></line>
</g>
	<path d="M62.83 21.172l-20-20c-0.992-0.992-2.43-1.39-3.792-1.054-0.718 0.176-1.36 0.546-1.868 1.054-0.454 0.454-0.796 1.016-0.992 1.644-0.906 2.938-2.472 5.492-4.79 7.808-3.096 3.094-7.128 5.438-11.394 7.916-4.528 2.624-9.206 5.344-13.040 9.176-3.258 3.262-5.476 6.89-6.776 11.102-0.438 1.422-0.056 2.96 0.992 4.012l20 20c0.992 0.992 2.43 1.39 3.792 1.054 0.718-0.18 1.36-0.546 1.868-1.054 0.454-0.454 0.796-1.016 0.992-1.648 0.908-2.938 2.474-5.492 4.794-7.808 3.094-3.094 7.124-5.434 11.394-7.91 4.524-2.628 9.204-5.348 13.036-9.18 3.258-3.258 5.476-6.89 6.778-11.102 0.436-1.42 0.052-2.964-0.994-4.010zM24 60c-6.624-6.624-13.376-13.378-20-20 5.684-18.402 30.32-17.598 36-36 6.624 6.622 13.378 13.376 20.004 20-5.686 18.398-30.322 17.598-36.004 36zM39.124 29.8c-0.652-0.546-1.308-0.918-1.968-1.102-0.656-0.184-1.312-0.258-1.976-0.21-0.656 0.050-1.328 0.2-2 0.458-0.672 0.262-1.348 0.546-2.028 0.876-1.074-1.234-2.148-2.454-3.222-3.586 0.484-0.438 0.954-0.66 1.406-0.676 0.454-0.020 0.89 0.028 1.304 0.132 0.422 0.106 0.808 0.196 1.164 0.266 0.36 0.070 0.672-0.008 0.946-0.238 0.29-0.25 0.45-0.574 0.472-0.964 0.020-0.394-0.128-0.778-0.458-1.152-0.422-0.484-0.93-0.778-1.54-0.886-0.602-0.106-1.218-0.098-1.86 0.042-0.632 0.144-1.234 0.382-1.804 0.718s-1.028 0.68-1.368 1.016c-0.13-0.124-0.26-0.246-0.39-0.368-0.144-0.132-0.324-0.204-0.54-0.2-0.218 0-0.398 0.094-0.546 0.266-0.144 0.168-0.21 0.364-0.184 0.57 0.020 0.214 0.106 0.378 0.254 0.504 0.13 0.11 0.26 0.218 0.39 0.332-0.512 0.618-0.934 1.3-1.266 2.020-0.336 0.722-0.536 1.438-0.61 2.132-0.078 0.7-0.004 1.34 0.21 1.934 0.214 0.598 0.61 1.106 1.188 1.586 0.942 0.782 2.050 1.114 3.336 1.040 1.282-0.078 2.664-0.46 4.15-1.258 1.18 1.364 2.364 2.718 3.546 3.976-0.5 0.422-0.938 0.664-1.324 0.742-0.386 0.082-0.73 0.074-1.042-0.020-0.312-0.098-0.602-0.238-0.868-0.418-0.266-0.184-0.528-0.34-0.79-0.468-0.258-0.128-0.524-0.2-0.796-0.204s-0.562 0.128-0.882 0.402c-0.328 0.286-0.492 0.618-0.492 0.992 0 0.372 0.172 0.75 0.508 1.132 0.34 0.382 0.782 0.704 1.316 0.958s1.138 0.414 1.802 0.458c0.664 0.046 1.364-0.054 2.102-0.328 0.742-0.27 1.476-0.758 2.2-1.484 0.348 0.34 0.7 0.664 1.050 0.976 0.148 0.128 0.328 0.192 0.546 0.176 0.21-0.008 0.394-0.106 0.54-0.282 0.148-0.18 0.21-0.378 0.188-0.586-0.020-0.21-0.106-0.372-0.25-0.488-0.352-0.282-0.704-0.578-1.054-0.89 0.598-0.734 1.078-1.508 1.434-2.274 0.356-0.77 0.566-1.512 0.636-2.2 0.070-0.692-0.012-1.316-0.238-1.882-0.224-0.574-0.622-1.066-1.192-1.54zM27.942 31.156c-0.566 0.024-1.060-0.164-1.492-0.582-0.184-0.176-0.312-0.39-0.39-0.644-0.082-0.254-0.11-0.532-0.078-0.836 0.028-0.3 0.118-0.614 0.274-0.93 0.148-0.316 0.368-0.632 0.648-0.938 1.014 1.008 2.026 2.114 3.040 3.258-0.768 0.422-1.436 0.648-2.002 0.672zM37.376 35.16c-0.18 0.332-0.386 0.628-0.628 0.886-1.122-1.132-2.242-2.376-3.36-3.652 0.286-0.128 0.586-0.262 0.91-0.398s0.648-0.226 0.972-0.282c0.332-0.050 0.66-0.036 0.988 0.042 0.324 0.082 0.632 0.258 0.918 0.536 0.282 0.282 0.46 0.574 0.532 0.89 0.078 0.32 0.082 0.644 0.028 0.976-0.058 0.334-0.176 0.666-0.36 1.002zM29.434 44.36c0.394-0.318 0.974-0.302 1.336 0.066 0.392 0.39 0.392 1.028 0 1.418-0.032 0.032-0.066 0.054-0.102 0.082l0.004 0.004c-1.266 0.962-2.306 1.828-3.428 2.95-1.014 1.012-1.93 2.078-2.722 3.16l-1.278 1.75c-0.040 0.072-0.088 0.138-0.148 0.2-0.392 0.39-1.030 0.39-1.42 0-0.34-0.34-0.382-0.864-0.132-1.254l-0.004-0.004 1.368-1.868c0.854-1.168 1.836-2.312 2.922-3.398 1.13-1.134 2.35-2.146 3.6-3.106h0.004zM36.756 15.43c1.012-1.012 1.926-2.074 2.72-3.162l1.328-1.82c0.048-0.086 0.102-0.172 0.176-0.246 0.394-0.394 1.032-0.394 1.426 0 0.374 0.376 0.39 0.97 0.050 1.368l0.004 0.004-1.368 1.876c-0.856 1.168-1.836 2.308-2.922 3.394-1.13 1.13-2.348 2.146-3.598 3.106l-0.008-0.004c-0.398 0.366-1.016 0.358-1.398-0.028-0.394-0.394-0.394-1.036 0-1.43 0.070-0.074 0.152-0.126 0.234-0.172 1.176-0.898 2.31-1.84 3.356-2.886z" fill="#555555"></path>
</svg>
