<?xml version="1.0" encoding="utf-8"?>
<!-- Generated by IcoMoon.io -->
<!DOCTYPE svg PUBLIC "-//W3C//DTD SVG 1.1//EN" "http://www.w3.org/Graphics/SVG/1.1/DTD/svg11.dtd">
<svg version="1.1" xmlns="http://www.w3.org/2000/svg" xmlns:xlink="http://www.w3.org/1999/xlink" width="72" height="64" viewBox="0 0 72 64">
<g id="icomoon-ignore">
	<line stroke-width="1" x1="" y1="" x2="" y2="" stroke="#449FDB" opacity=""></line>
</g>
	<path d="M52 21v40c0 0.352 0.072 0.686 0.184 1h-6.368c0.112-0.314 0.184-0.648 0.184-1v-58c0-1.654-1.346-3-3-3h-14c-1.654 0-3 1.346-3 3v58c0 0.352 0.072 0.686 0.184 1h-6.368c0.112-0.314 0.184-0.648 0.184-1v-22c0-1.654-1.346-3-3-3h-14c-1.654 0-3 1.346-3 3v22c0 1.654 1.346 3 3 3h66c1.654 0 3-1.346 3-3v-40c0-1.654-1.346-3-3-3h-14c-1.654 0-3 1.346-3 3zM10 62h-7c-0.55 0-1-0.448-1-1v-22c0-0.552 0.45-1 1-1h14c0.55 0 1 0.448 1 1v22c0 0.552-0.45 1-1 1h-7zM29 62c-0.55 0-1-0.448-1-1v-58c0-0.552 0.45-1 1-1h14c0.55 0 1 0.448 1 1v58c0 0.552-0.45 1-1 1h-14zM70 21v40c0 0.552-0.45 1-1 1h-14c-0.55 0-1-0.448-1-1v-40c0-0.552 0.45-1 1-1h14c0.55 0 1 0.448 1 1z" fill="#555555"></path>
</svg>
