<?xml version="1.0" encoding="utf-8"?>
<!-- Generated by IcoMoon.io -->
<!DOCTYPE svg PUBLIC "-//W3C//DTD SVG 1.1//EN" "http://www.w3.org/Graphics/SVG/1.1/DTD/svg11.dtd">
<svg version="1.1" xmlns="http://www.w3.org/2000/svg" xmlns:xlink="http://www.w3.org/1999/xlink" width="84" height="64" viewBox="0 0 84 64">
<g id="icomoon-ignore">
	<line stroke-width="1" x1="" y1="" x2="" y2="" stroke="#449FDB" opacity=""></line>
</g>
	<path d="M79 28h-74c-0.308 0-0.6 0.142-0.79 0.384s-0.256 0.558-0.182 0.858l8.012 32.034c0.192 0.674 0.782 2.724 2.96 2.724h54c2.186 0 2.77-2.052 2.97-2.758l8-32c0.074-0.298 0.008-0.616-0.182-0.858-0.188-0.242-0.48-0.384-0.788-0.384zM70.040 60.726c-0.364 1.274-0.74 1.274-1.040 1.274h-54c-0.298 0-0.672 0-1.030-1.242l-7.688-30.758h71.438l-7.68 30.726zM37 56c0.552 0 1-0.448 1-1v-18c0-0.552-0.448-1-1-1s-1 0.448-1 1v18c0 0.552 0.448 1 1 1zM22.998 56c0.038 0 0.074-0.002 0.114-0.006 0.548-0.062 0.944-0.556 0.882-1.104l-2-18c-0.060-0.55-0.54-0.938-1.106-0.884-0.548 0.062-0.944 0.556-0.882 1.104l2 18c0.056 0.512 0.49 0.89 0.992 0.89zM49 56c0.552 0 1-0.448 1-1v-18c0-0.552-0.448-1-1-1s-1 0.448-1 1v18c0 0.552 0.448 1 1 1zM60.888 55.994c0.040 0.004 0.076 0.006 0.114 0.006 0.502 0 0.936-0.378 0.992-0.89l2-18c0.060-0.548-0.334-1.042-0.882-1.104-0.574-0.056-1.044 0.334-1.106 0.884l-2 18c-0.060 0.548 0.334 1.042 0.882 1.104zM69 24c0.232 0 0.464-0.080 0.654-0.244 0.418-0.362 0.462-0.992 0.102-1.41l-19-22c-0.362-0.42-0.992-0.462-1.41-0.104-0.418 0.362-0.462 0.992-0.102 1.41l19 22c0.198 0.23 0.476 0.348 0.756 0.348zM35.632 0.226c-0.426-0.346-1.056-0.288-1.406 0.142l-18 22c-0.35 0.426-0.288 1.056 0.14 1.408 0.186 0.15 0.412 0.224 0.634 0.224 0.29 0 0.576-0.124 0.774-0.368l18-22c0.35-0.426 0.286-1.056-0.142-1.406zM83 20h-8c-0.552 0-1 0.448-1 1s0.448 1 1 1h8c0.552 0 1-0.448 1-1s-0.448-1-1-1zM27 22h32c0.552 0 1-0.448 1-1s-0.448-1-1-1h-32c-0.552 0-1 0.448-1 1s0.448 1 1 1zM1 22h10c0.552 0 1-0.448 1-1s-0.448-1-1-1h-10c-0.552 0-1 0.448-1 1s0.448 1 1 1z" fill="#555555"></path>
</svg>
