<?xml version="1.0" encoding="utf-8"?>
<!-- Generated by IcoMoon.io -->
<!DOCTYPE svg PUBLIC "-//W3C//DTD SVG 1.1//EN" "http://www.w3.org/Graphics/SVG/1.1/DTD/svg11.dtd">
<svg version="1.1" xmlns="http://www.w3.org/2000/svg" xmlns:xlink="http://www.w3.org/1999/xlink" width="54" height="64" viewBox="0 0 54 64">
<g id="icomoon-ignore">
	<line stroke-width="1" x1="" y1="" x2="" y2="" stroke="#449FDB" opacity=""></line>
</g>
	<path d="M35 2c0.552 0 1-0.448 1-1s-0.448-1-1-1h-18c-0.552 0-1 0.448-1 1s0.448 1 1 1h18zM1.98 55.27c-2.148 3.022-1.908 4.996-1.328 6.12 0.614 1.19 2.214 2.61 6.348 2.61h40c4.134 0 5.734-1.42 6.348-2.612 0.58-1.124 0.82-3.098-1.296-6.068l-12.438-19.9-0.176-0.248c-0.894-1.276-5.438-9.128-5.438-15.672v-14.5c0-0.552-0.448-1-1-1h-14c-0.552 0-1 0.448-1 1v14.5c0 6.982-4.93 15.914-4.986 16.010l-11.034 19.76zM51.572 60.47c-0.502 0.974-2.168 1.53-4.572 1.53h-40c-2.404 0-4.070-0.556-4.572-1.53-0.458-0.888-0.040-2.324 1.24-4.132l9.998-17.896 0.014 0.008c1.82 1.050 3.702 2.136 7.438 2.136s5.62-1.084 7.438-2.132c1.666-0.96 3.238-1.868 6.44-1.868 1.214 0 2.266 0.15 3.234 0.42l12.16 19.424c1.222 1.716 1.64 3.152 1.182 4.040zM20 19.5v-13.5h12v13.5c0 5.68 3.032 12.084 4.808 15.204-0.58-0.066-1.17-0.118-1.81-0.118-3.738 0-5.62 1.084-7.438 2.132-1.666 0.96-3.238 1.868-6.44 1.868s-4.774-0.908-6.438-1.868l-0.038-0.022 0.092-0.164c0.050-0.080 5.264-9.372 5.264-17.032z" fill="#555555"></path>
</svg>
