<?xml version="1.0" encoding="utf-8"?>
<!-- Generated by IcoMoon.io -->
<!DOCTYPE svg PUBLIC "-//W3C//DTD SVG 1.1//EN" "http://www.w3.org/Graphics/SVG/1.1/DTD/svg11.dtd">
<svg version="1.1" xmlns="http://www.w3.org/2000/svg" xmlns:xlink="http://www.w3.org/1999/xlink" width="112" height="64" viewBox="0 0 112 64">
<g id="icomoon-ignore">
	<line stroke-width="1" x1="" y1="" x2="" y2="" stroke="#449FDB" opacity=""></line>
</g>
	<path d="M91 22c-3.848 0-7.446 1.058-10.552 2.872l-13.602-20.872h19.198c-0.026 0.996-0.258 2.662-1.398 3.972-1.174 1.346-3.072 2.028-5.646 2.028-0.552 0-1 0.448-1 1s0.448 1 1 1c3.178 0 5.584-0.912 7.152-2.712 2.326-2.672 1.86-6.272 1.838-6.424-0.068-0.494-0.49-0.864-0.99-0.864h-22c-0.368 0-0.706 0.202-0.878 0.524-0.176 0.322-0.16 0.714 0.042 1.024l5.662 8.688h-31.73l-6.166-10.236h11.070c0.552 0 1-0.448 1-1s-0.448-1-1-1h-18c-0.552 0-1 0.448-1 1s0.448 1 1 1h4.628c0.020 0.046 0.024 0.096 0.050 0.14l6.824 11.324-6.108 10.78c-2.83-1.422-6.014-2.244-9.394-2.244-11.58 0-21 9.42-21 21s9.42 21 21 21c11.176 0 20.314-8.782 20.84-20h22.16c0.058 1.158-0.192 2.736-1.288 3.978-1.184 1.342-3.106 2.022-5.712 2.022-0.552 0-1 0.448-1 1s0.448 1 1 1c3.216 0 5.648-0.914 7.228-2.716 2.284-2.608 1.854-6.072 1.836-6.218-0.066-0.498-0.49-0.87-0.992-0.87h-7.856l14.094-27.68 7.46 11.448c-5.3 3.814-8.77 10.020-8.77 17.036 0 11.58 9.42 21 21 21s21-9.42 21-21-9.42-21-21-21zM69.21 14l-13.696 27.136-16.212-27.136h29.908zM37.686 15.43l16.13 26.766h-11.856c-0.272-7.15-4.124-13.384-9.824-16.968l5.55-9.798zM39.96 42.196h-17.438l8.628-15.23c5.096 3.238 8.538 8.824 8.81 15.23zM21 62c-10.476 0-19-8.524-19-19s8.524-19 19-19c3.020 0 5.868 0.728 8.408 1.986l-9.472 16.716c-0.176 0.308-0.174 0.688 0.006 0.996 0.178 0.306 0.508 0.496 0.864 0.3h19.134c-0.622 10.116-8.866 18.002-18.94 18.002zM91 62c-10.476 0-19-8.524-19-19 0-6.314 3.108-11.904 7.864-15.36l10.494 16.102c0.192 0.292 0.512 0.454 0.838 0.454 0.188 0 0.376-0.052 0.546-0.162 0.46-0.3 0.592-0.922 0.292-1.384l-10.494-16.102c2.79-1.612 6.014-2.548 9.46-2.548 10.476 0 19 8.524 19 19s-8.524 19-19 19z" fill="#555555"></path>
</svg>
