<?xml version="1.0" encoding="utf-8"?>
<!-- Generated by IcoMoon.io -->
<!DOCTYPE svg PUBLIC "-//W3C//DTD SVG 1.1//EN" "http://www.w3.org/Graphics/SVG/1.1/DTD/svg11.dtd">
<svg version="1.1" xmlns="http://www.w3.org/2000/svg" xmlns:xlink="http://www.w3.org/1999/xlink" width="84" height="64" viewBox="0 0 84 64">
<g id="icomoon-ignore">
	<line stroke-width="1" x1="" y1="" x2="" y2="" stroke="#449FDB" opacity=""></line>
</g>
	<path d="M75 2h-32c-0.794 0-1.48 0.272-2 0.724-0.52-0.452-1.206-0.724-2-0.724h-32c-1.738 0-3 1.262-3 3v56c0 1.738 1.262 3 3 3h32c0.794 0 1.48-0.272 2-0.724 0.52 0.452 1.206 0.724 2 0.724h32c1.738 0 3-1.262 3-3v-56c0-1.738-1.262-3-3-3zM39 62h-32c-0.626 0-1-0.374-1-1v-56c0-0.626 0.374-1 1-1h32c0.626 0 1 0.374 1 1v56c0 0.626-0.374 1-1 1zM76 61c0 0.626-0.374 1-1 1h-32c-0.626 0-1-0.374-1-1v-56c0-0.626 0.374-1 1-1h32c0.626 0 1 0.374 1 1v56zM81 6c-0.552 0-1 0.448-1 1v52c0 0.552 0.448 1 1 1s1-0.448 1-1v-52c0-0.552-0.448-1-1-1zM1 60c0.552 0 1-0.448 1-1v-52c0-0.552-0.448-1-1-1s-1 0.448-1 1v52c0 0.552 0.448 1 1 1zM35 20h-24c-0.552 0-1 0.448-1 1s0.448 1 1 1h24c0.552 0 1-0.448 1-1s-0.448-1-1-1zM35 28h-24c-0.552 0-1 0.448-1 1s0.448 1 1 1h24c0.552 0 1-0.448 1-1s-0.448-1-1-1zM35 12h-24c-0.552 0-1 0.448-1 1s0.448 1 1 1h24c0.552 0 1-0.448 1-1s-0.448-1-1-1zM35 36h-24c-0.552 0-1 0.448-1 1s0.448 1 1 1h24c0.552 0 1-0.448 1-1s-0.448-1-1-1zM35 44h-24c-0.552 0-1 0.448-1 1s0.448 1 1 1h24c0.552 0 1-0.448 1-1s-0.448-1-1-1zM35 52h-24c-0.552 0-1 0.448-1 1s0.448 1 1 1h24c0.552 0 1-0.448 1-1s-0.448-1-1-1zM71 20h-24c-0.552 0-1 0.448-1 1s0.448 1 1 1h24c0.552 0 1-0.448 1-1s-0.448-1-1-1zM71 28h-24c-0.552 0-1 0.448-1 1s0.448 1 1 1h24c0.552 0 1-0.448 1-1s-0.448-1-1-1zM71 12h-24c-0.552 0-1 0.448-1 1s0.448 1 1 1h24c0.552 0 1-0.448 1-1s-0.448-1-1-1zM71 36h-24c-0.552 0-1 0.448-1 1s0.448 1 1 1h24c0.552 0 1-0.448 1-1s-0.448-1-1-1zM71 44h-24c-0.552 0-1 0.448-1 1s0.448 1 1 1h24c0.552 0 1-0.448 1-1s-0.448-1-1-1zM71 52h-24c-0.552 0-1 0.448-1 1s0.448 1 1 1h24c0.552 0 1-0.448 1-1s-0.448-1-1-1z" fill="#555555"></path>
</svg>
