<?xml version="1.0" encoding="utf-8"?>
<!-- Generated by IcoMoon.io -->
<!DOCTYPE svg PUBLIC "-//W3C//DTD SVG 1.1//EN" "http://www.w3.org/Graphics/SVG/1.1/DTD/svg11.dtd">
<svg version="1.1" xmlns="http://www.w3.org/2000/svg" xmlns:xlink="http://www.w3.org/1999/xlink" width="76" height="64" viewBox="0 0 76 64">
<g id="icomoon-ignore">
	<line stroke-width="1" x1="" y1="" x2="" y2="" stroke="#449FDB" opacity=""></line>
</g>
	<path d="M75 36c-0.552 0-1 0.448-1 1v24c0 0.552-0.448 1-1 1h-70c-0.552 0-1-0.448-1-1v-24c0-0.552-0.448-1-1-1s-1 0.448-1 1v24c0 1.654 1.346 3 3 3h70c1.654 0 3-1.346 3-3v-24c0-0.552-0.448-1-1-1zM51 10c0.552 0 1-0.448 1-1v-6c0-1.654-1.346-3-3-3h-22c-1.654 0-3 1.346-3 3v6c0 0.552 0.448 1 1 1s1-0.448 1-1v-6c0-0.552 0.448-1 1-1h22c0.552 0 1 0.448 1 1v6c0 0.552 0.448 1 1 1zM73 14h-70c-1.654 0-3 1.346-3 3v9.916c0 5.556 18.912 13 38.25 13 19.086 0 37.75-7.444 37.75-13v-9.916c0-1.654-1.346-3-3-3zM74 26.916c0 3.528-16.914 11-35.75 11-19.1 0-36.25-7.47-36.25-11v-9.916c0-0.552 0.448-1 1-1h70c0.552 0 1 0.448 1 1v9.916zM38.25 46c1.886 0 3.846-0.078 5.828-0.232 0.55-0.042 0.962-0.524 0.918-1.076-0.042-0.55-0.504-0.972-1.076-0.918-4.028 0.314-7.818 0.3-11.838-0.040-0.528-0.054-1.034 0.362-1.080 0.912s0.362 1.034 0.912 1.080c2.152 0.182 4.284 0.274 6.336 0.274z" fill="#555555"></path>
</svg>
