<?xml version="1.0" encoding="utf-8"?>
<!-- Generated by IcoMoon.io -->
<!DOCTYPE svg PUBLIC "-//W3C//DTD SVG 1.1//EN" "http://www.w3.org/Graphics/SVG/1.1/DTD/svg11.dtd">
<svg version="1.1" xmlns="http://www.w3.org/2000/svg" xmlns:xlink="http://www.w3.org/1999/xlink" width="84" height="64" viewBox="0 0 84 64">
<g id="icomoon-ignore">
	<line stroke-width="1" x1="" y1="" x2="" y2="" stroke="#449FDB" opacity=""></line>
</g>
	<path d="M83 20c-0.552 0-1 0.448-1 1v40c0 0.552-0.448 1-1 1h-78c-0.552 0-1-0.448-1-1v-40c0-0.552-0.448-1-1-1s-1 0.448-1 1v40c0 1.654 1.346 3 3 3h78c1.654 0 3-1.346 3-3v-40c0-0.552-0.448-1-1-1zM81 0h-78c-1.654 0-3 1.346-3 3v12c0 0.552 0.448 1 1 1h82c0.552 0 1-0.448 1-1v-12c0-1.654-1.346-3-3-3zM82 14h-80v-11c0-0.552 0.448-1 1-1h78c0.552 0 1 0.448 1 1v11zM35 56c0.552 0 1-0.448 1-1v-32c0-0.552-0.448-1-1-1h-26c-0.552 0-1 0.448-1 1v32c0 0.552 0.448 1 1 1h26zM10 24h24v30h-24v-30zM45 30h30c0.552 0 1-0.448 1-1s-0.448-1-1-1h-30c-0.552 0-1 0.448-1 1s0.448 1 1 1zM45 40h30c0.552 0 1-0.448 1-1s-0.448-1-1-1h-30c-0.552 0-1 0.448-1 1s0.448 1 1 1zM45 50h30c0.552 0 1-0.448 1-1s-0.448-1-1-1h-30c-0.552 0-1 0.448-1 1s0.448 1 1 1zM6 8c0 1.105 0.895 2 2 2s2-0.895 2-2c0-1.105-0.895-2-2-2s-2 0.895-2 2zM14 8c0 1.105 0.895 2 2 2s2-0.895 2-2c0-1.105-0.895-2-2-2s-2 0.895-2 2zM22 8c0 1.105 0.895 2 2 2s2-0.895 2-2c0-1.105-0.895-2-2-2s-2 0.895-2 2z" fill="#555555"></path>
</svg>
