<?xml version="1.0" encoding="utf-8"?>
<!-- Generated by IcoMoon.io -->
<!DOCTYPE svg PUBLIC "-//W3C//DTD SVG 1.1//EN" "http://www.w3.org/Graphics/SVG/1.1/DTD/svg11.dtd">
<svg version="1.1" xmlns="http://www.w3.org/2000/svg" xmlns:xlink="http://www.w3.org/1999/xlink" width="64" height="64" viewBox="0 0 64 64">
<g id="icomoon-ignore">
	<line stroke-width="1" x1="" y1="" x2="" y2="" stroke="#449FDB" opacity=""></line>
</g>
	<path d="M32 14c0.552 0 1 0.448 1 1s-0.45 1-1 1c-10.654 0-20 5.608-20 12 0 0.552-0.448 1-1 1s-1-0.448-1-1c0-7.588 10.074-14 22-14zM32 4c-17.674 0-32 10.746-32 24 0 8.254 5.558 15.532 14.016 19.852 0 0.054-0.016 0.090-0.016 0.148 0 3.586-2.678 7.446-3.856 9.472 0.002 0 0.004 0 0.004 0-0.094 0.22-0.148 0.462-0.148 0.716 0 1 0.81 1.812 1.812 1.812 0.188 0 0.518-0.050 0.51-0.028 6.25-1.024 12.138-6.766 13.506-8.43 1.998 0.294 4.058 0.458 6.172 0.458 17.67 0 32-10.746 32-24s-14.328-24-32-24zM32 48c-1.834 0-3.716-0.14-5.592-0.414-0.194-0.032-0.388-0.042-0.58-0.042-1.188 0-2.326 0.528-3.092 1.46-0.856 1.042-3.292 3.368-6.17 5.078 0.78-1.79 1.39-3.796 1.432-5.864 0.012-0.128 0.018-0.258 0.018-0.368 0-1.504-0.842-2.878-2.18-3.562-7.412-3.784-11.836-9.874-11.836-16.288 0-11.028 12.56-20 28-20 15.436 0 28 8.972 28 20s-12.562 20-28 20z" fill="#555555"></path>
</svg>
