<?xml version="1.0" encoding="utf-8"?>
<!-- Generated by IcoMoon.io -->
<!DOCTYPE svg PUBLIC "-//W3C//DTD SVG 1.1//EN" "http://www.w3.org/Graphics/SVG/1.1/DTD/svg11.dtd">
<svg version="1.1" xmlns="http://www.w3.org/2000/svg" xmlns:xlink="http://www.w3.org/1999/xlink" width="64" height="64" viewBox="0 0 64 64">
<g id="icomoon-ignore">
	<line stroke-width="1" x1="" y1="" x2="" y2="" stroke="#449FDB" opacity=""></line>
</g>
	<path d="M32 0c-12.152 0-22 9.848-22 22 0 8.062 7.376 16.606 10.062 24.11 4.006 11.19 3.562 17.89 11.938 17.89 8.5 0 7.93-6.668 11.938-17.844 2.694-7.52 10.062-16.156 10.062-24.156 0-12.152-9.852-22-22-22zM37.184 54.352l-9.916 1.238c-0.354-1.024-0.734-2.222-1.196-3.786-0.006-0.020-0.014-0.042-0.018-0.062l12.376-1.546c-0.176 0.59-0.364 1.21-0.528 1.766-0.262 0.898-0.496 1.678-0.718 2.39zM25.472 49.816c-0.364-1.204-0.774-2.472-1.23-3.816h15.532c-0.246 0.718-0.492 1.438-0.704 2.118l-13.598 1.698zM32 60c-2.026 0-2.958-0.234-3.994-2.5l8.476-1.062c-1.228 3.308-2.122 3.562-4.482 3.562zM41.344 42h-18.666c-0.996-2.16-2.192-4.32-3.372-6.434-2.61-4.67-5.306-9.5-5.306-13.566 0-9.926 8.074-18 18-18s18 8.074 18 18c0 4.036-2.7 8.892-5.312 13.59-1.168 2.106-2.356 4.262-3.344 6.41zM32 10c0.55 0 1 0.448 1 1s-0.448 1-1 1c-5.514 0-10 4.486-10 10 0 0.552-0.448 1-1 1s-1-0.448-1-1c0-6.618 5.382-12 12-12z" fill="#555555"></path>
</svg>
