<?xml version="1.0" encoding="utf-8"?>
<!-- Generated by IcoMoon.io -->
<!DOCTYPE svg PUBLIC "-//W3C//DTD SVG 1.1//EN" "http://www.w3.org/Graphics/SVG/1.1/DTD/svg11.dtd">
<svg version="1.1" xmlns="http://www.w3.org/2000/svg" xmlns:xlink="http://www.w3.org/1999/xlink" width="64" height="64" viewBox="0 0 64 64">
<g id="icomoon-ignore">
	<line stroke-width="1" x1="" y1="" x2="" y2="" stroke="#449FDB" opacity=""></line>
</g>
	<path d="M58.668 6h-8.668v-4c0-1.106-0.894-2-2-2s-2 0.894-2 2v4h-12v-4c0-1.106-0.896-2-2-2s-2 0.894-2 2v4h-12v-4c0-1.106-0.896-2-2-2s-2 0.894-2 2v4h-8.666c-2.946 0-5.334 2.386-5.334 5.332v47.334c0 2.946 2.388 5.334 5.334 5.334h53.334c2.946 0 5.332-2.388 5.332-5.334v-47.334c0-2.946-2.386-5.332-5.332-5.332zM60 58.666c0 0.736-0.598 1.334-1.332 1.334h-53.334c-0.736 0-1.334-0.598-1.334-1.334v-47.334c0-0.734 0.598-1.332 1.334-1.332h8.666v4c0 1.106 0.896 2 2 2s2-0.894 2-2v-4h12v4c0 1.106 0.896 2 2 2s2-0.894 2-2v-4h12v4c0 1.106 0.894 2 2 2s2-0.894 2-2v-4h8.668c0.734 0 1.332 0.598 1.332 1.332v47.334zM14 24h8v6h-8zM14 34h8v6h-8zM14 44h8v6h-8zM28 44h8v6h-8zM28 34h8v6h-8zM28 24h8v6h-8zM42 44h8v6h-8zM42 34h8v6h-8zM42 24h8v6h-8z" fill="#555555"></path>
</svg>
