<?xml version="1.0" encoding="utf-8"?>
<!-- Generated by IcoMoon.io -->
<!DOCTYPE svg PUBLIC "-//W3C//DTD SVG 1.1//EN" "http://www.w3.org/Graphics/SVG/1.1/DTD/svg11.dtd">
<svg version="1.1" xmlns="http://www.w3.org/2000/svg" xmlns:xlink="http://www.w3.org/1999/xlink" width="68" height="64" viewBox="0 0 68 64">
<g id="icomoon-ignore">
	<line stroke-width="1" x1="" y1="" x2="" y2="" stroke="#449FDB" opacity=""></line>
</g>
	<path d="M68 61v-38c0-0.552-0.448-1-1-1s-1 0.448-1 1v38c0 0.552-0.448 1-1 1h-62c-0.552 0-1-0.448-1-1v-38c0-0.552-0.448-1-1-1s-1 0.448-1 1v38c0 1.654 1.346 3 3 3h62c1.654 0 3-1.346 3-3zM9 46c-0.552 0-1 0.448-1 1s0.448 1 1 1h3v7c0 0.552 0.448 1 1 1s1-0.448 1-1v-7h12v7c0 0.552 0.448 1 1 1s1-0.448 1-1v-7h12v7c0 0.552 0.448 1 1 1s1-0.448 1-1v-7h12v7c0 0.552 0.448 1 1 1s1-0.448 1-1v-7h3c0.552 0 1-0.448 1-1s-0.448-1-1-1h-3v-10h3c0.552 0 1-0.448 1-1s-0.448-1-1-1h-3v-9c0-0.552-0.448-1-1-1s-1 0.448-1 1v9h-12v-9c0-0.552-0.448-1-1-1s-1 0.448-1 1v9h-12v-9c0-0.552-0.448-1-1-1s-1 0.448-1 1v9h-12v-9c0-0.552-0.448-1-1-1s-1 0.448-1 1v9h-3c-0.552 0-1 0.448-1 1s0.448 1 1 1h3v10h-3zM54 36v10h-12v-10h12zM40 36v10h-12v-10h12zM14 36h12v10h-12v-10zM57 6h8.5c0.174 0 0.5 0 0.5 1v9h-64v-9c0-0.552 0.448-1 1-1h8c0.552 0 1-0.448 1-1s-0.448-1-1-1h-8c-1.654 0-3 1.346-3 3v10c0 0.552 0.448 1 1 1h66c0.552 0 1-0.448 1-1v-10c0-2.212-1.292-3-2.5-3h-8.5c-0.552 0-1 0.448-1 1s0.448 1 1 1zM45 6c0.552 0 1-0.448 1-1s-0.448-1-1-1h-22c-0.552 0-1 0.448-1 1s0.448 1 1 1h22zM18 9v-8c0-0.552-0.448-1-1-1s-1 0.448-1 1v8c0 0.552 0.448 1 1 1s1-0.448 1-1zM51 10c0.552 0 1-0.448 1-1v-8c0-0.552-0.448-1-1-1s-1 0.448-1 1v8c0 0.552 0.448 1 1 1z" fill="#555555"></path>
</svg>
