<?xml version="1.0" encoding="utf-8"?>
<!-- Generated by IcoMoon.io -->
<!DOCTYPE svg PUBLIC "-//W3C//DTD SVG 1.1//EN" "http://www.w3.org/Graphics/SVG/1.1/DTD/svg11.dtd">
<svg version="1.1" xmlns="http://www.w3.org/2000/svg" xmlns:xlink="http://www.w3.org/1999/xlink" width="84" height="64" viewBox="0 0 84 64">
<g id="icomoon-ignore">
	<line stroke-width="1" x1="" y1="" x2="" y2="" stroke="#449FDB" opacity=""></line>
</g>
	<path d="M79 12h-15c-3.854 0-3.996-3.594-4-4v-2c0-2.516-2.78-6-8-6h-19.938c-5.87 0-8 3.588-8 6v1.988c-0.002 0.164-0.096 4.012-4.062 4.012h-15c-2.758 0-5 2.244-5 5v36c0 2.756 2.242 5 5 5h12c0.552 0 1-0.448 1-1s-0.448-1-1-1h-12c-1.654 0-3-1.346-3-3v-25h16c-1.288 3.080-2 6.458-2 10 0 14.336 11.664 26 26 26s26-11.664 26-26c0-3.542-0.718-6.92-2.006-10h16.006v25c0 1.654-1.346 3-3 3h-14c-0.552 0-1 0.448-1 1s0.448 1 1 1h14c2.758 0 5-2.244 5-5v-36c0-2.756-2.242-5-5-5zM42 62c-13.234 0-24-10.766-24-24s10.766-24 24-24 24 10.766 24 24-10.766 24-24 24zM65.5 26c-0.148 0-0.286 0.036-0.412 0.094-4.328-8.358-13.044-14.094-23.088-14.094s-18.76 5.736-23.088 14.094c-0.126-0.058-0.264-0.094-0.412-0.094h-16.5v-9c0-1.654 1.346-3 3-3h15c4.736 0 6.038-3.916 6.062-6v-2c0-1.608 1.598-4 6-4h19.938c4.188 0 6 2.648 6 4v2c0 2.076 1.254 6 6 6h15c1.654 0 3 1.346 3 3v9h-16.5zM19 10c0.552 0 1-0.448 1-1v-2c0-1.654-1.346-3-3-3h-8c-1.654 0-3 1.346-3 3v2c0 0.552 0.448 1 1 1s1-0.448 1-1v-2c0-0.552 0.45-1 1-1h8c0.55 0 1 0.448 1 1v2c0 0.552 0.448 1 1 1zM42 20c-9.926 0-18 8.076-18 18s8.074 18 18 18 18-8.076 18-18-8.074-18-18-18zM42 54c-8.822 0-16-7.178-16-16s7.178-16 16-16 16 7.178 16 16-7.178 16-16 16z" fill="#555555"></path>
</svg>
