<?xml version="1.0" encoding="utf-8"?>
<!-- Generated by IcoMoon.io -->
<!DOCTYPE svg PUBLIC "-//W3C//DTD SVG 1.1//EN" "http://www.w3.org/Graphics/SVG/1.1/DTD/svg11.dtd">
<svg version="1.1" xmlns="http://www.w3.org/2000/svg" xmlns:xlink="http://www.w3.org/1999/xlink" width="64" height="64" viewBox="0 0 64 64">
<g id="icomoon-ignore">
	<line stroke-width="1" x1="" y1="" x2="" y2="" stroke="#449FDB" opacity=""></line>
</g>
	<path d="M32 20.002c-8.838 0-16 7.162-16 16 0 8.836 7.162 16 16 16 8.836 0 16-7.164 16-16s-7.164-16-16-16zM41.11 43.812c-4.312 5.032-11.886 5.614-16.918 1.3-5.034-4.312-5.614-11.888-1.3-16.918 4.31-5.034 11.886-5.614 16.918-1.3 5.030 4.31 5.612 11.888 1.3 16.918zM32 28.002c0.552 0 1 0.448 1 1s-0.448 1-1 1c-3.314 0-5.998 2.686-6 5.998v0.004c0 0.55-0.448 1-1 1s-1-0.45-1-1v-0.004c0.002-4.416 3.582-7.998 8-7.998zM58.984 18.084l-8.668-1.446-2.746-6.868c-0.918-2.29-3.106-3.77-5.57-3.77h-20c-2.464 0-4.652 1.48-5.572 3.772l-2.744 6.866-8.666 1.446c-2.908 0.482-5.018 2.97-5.018 5.916v30c0 3.308 2.692 6 6 6h52c3.308 0 6-2.692 6-6v-30c0-2.946-2.11-5.434-5.016-5.916zM60 54c0 1.106-0.894 2-2 2h-52c-1.106 0-2-0.894-2-2v-30c0-0.978 0.708-1.812 1.672-1.972l10.888-1.814 3.582-8.956c0.306-0.758 1.040-1.258 1.858-1.258h20c0.816 0 1.55 0.498 1.856 1.258l3.582 8.956 10.89 1.814c0.964 0.16 1.672 0.994 1.672 1.972v30z" fill="#555555"></path>
</svg>
