<?xml version="1.0" encoding="utf-8"?>
<!-- Generated by IcoMoon.io -->
<!DOCTYPE svg PUBLIC "-//W3C//DTD SVG 1.1//EN" "http://www.w3.org/Graphics/SVG/1.1/DTD/svg11.dtd">
<svg version="1.1" xmlns="http://www.w3.org/2000/svg" xmlns:xlink="http://www.w3.org/1999/xlink" width="70" height="64" viewBox="0 0 70 64">
<g id="icomoon-ignore">
	<line stroke-width="1" x1="" y1="" x2="" y2="" stroke="#449FDB" opacity=""></line>
</g>
	<path d="M43.598 5.908c-2.21-3.808-5.218-5.908-8.47-5.908s-6.262 2.1-8.472 5.908l-24.538 42.266c-2.24 3.894-2.48 7.938-0.66 11.092 1.732 3 5.13 4.726 9.328 4.734h48.682c0 0 0 0 0.002 0 4.204-0.008 7.608-1.728 9.334-4.722 1.81-3.134 1.566-7.162-0.67-11.050l-24.536-42.32zM67.074 58.278c-1.362 2.36-4.134 3.716-7.608 3.722h-48.678c-3.462-0.006-6.23-1.368-7.598-3.734-1.454-2.52-1.212-5.834 0.66-9.092l24.536-42.262c1.838-3.168 4.232-4.912 6.742-4.912s4.904 1.744 6.74 4.912l24.536 42.314c1.87 3.252 2.114 6.552 0.67 9.052zM35.128 40c0.552 0 1-0.448 1-1v-20c0-0.552-0.448-1-1-1s-1 0.448-1 1v20c0 0.552 0.448 1 1 1zM35 45c-2.206 0-4 1.794-4 4s1.794 4 4 4 4-1.794 4-4-1.794-4-4-4zM35 51c-1.102 0-2-0.896-2-2s0.898-2 2-2 2 0.896 2 2-0.898 2-2 2z" fill="#555555"></path>
</svg>
