<?xml version="1.0" encoding="utf-8"?>
<!-- Generated by IcoMoon.io -->
<!DOCTYPE svg PUBLIC "-//W3C//DTD SVG 1.1//EN" "http://www.w3.org/Graphics/SVG/1.1/DTD/svg11.dtd">
<svg version="1.1" xmlns="http://www.w3.org/2000/svg" xmlns:xlink="http://www.w3.org/1999/xlink" width="84" height="64" viewBox="0 0 84 64">
<g id="icomoon-ignore">
	<line stroke-width="1" x1="" y1="" x2="" y2="" stroke="#449FDB" opacity=""></line>
</g>
	<path d="M71.304 28.046c-0.528-0.164-1.088 0.124-1.256 0.65-0.166 0.526 0.124 1.088 0.65 1.256 7.816 2.49 11.302 6.204 11.302 12.048 0 5.198-4.742 9.232-7.566 11.176-0.272 0.188-0.434 0.494-0.434 0.824v7.646c-1.46-0.544-4.006-1.78-6.252-4.31-0.234-0.262-0.59-0.382-0.936-0.318-0.57 0.11-1.152 0.266-1.742 0.424-1.020 0.274-2.072 0.558-3.070 0.558-5.136 0-8.732-1.104-12.408-3.806-0.448-0.328-1.070-0.23-1.398 0.214-0.328 0.446-0.232 1.070 0.212 1.398 4.054 2.98 7.992 4.194 13.594 4.194 1.262 0 2.446-0.318 3.59-0.626 0.356-0.098 0.71-0.194 1.060-0.276 3.738 3.948 7.966 4.846 8.15 4.882 0.066 0.014 0.132 0.020 0.2 0.020 0.228 0 0.454-0.078 0.632-0.226 0.234-0.19 0.368-0.474 0.368-0.774v-8.478c5.164-3.682 8-8.114 8-12.522 0-6.762-4.034-11.196-12.696-13.954zM66 27c0-15.392-14.036-27-32.646-27-18.704 0-33.354 11.862-33.354 27.004 0 9.078 6.422 15.582 12 19.518v13.272c0 0.34 0.172 0.654 0.456 0.84 0.166 0.106 0.354 0.16 0.544 0.16 0.138 0 0.278-0.030 0.41-0.088 0.292-0.13 7.118-3.232 12.958-9.618 2.53 0.47 5.392 0.922 7.988 0.922 18.926 0 31.644-10.052 31.644-25.010zM34.354 50.010c-2.62 0-5.598-0.502-8.166-0.992-0.346-0.062-0.702 0.056-0.936 0.318-4.1 4.624-8.918 7.562-11.252 8.828v-12.164c0-0.33-0.162-0.636-0.434-0.824-5.276-3.63-11.566-9.726-11.566-18.172 0-14.022 13.772-25.004 31.354-25.004 17.472 0 30.646 10.748 30.646 25 0 13.764-11.914 23.010-29.646 23.010zM33 23c-2.206 0-4 1.794-4 4s1.794 4 4 4 4-1.794 4-4-1.794-4-4-4zM33 29c-1.102 0-2-0.896-2-2s0.898-2 2-2 2 0.896 2 2-0.898 2-2 2zM47 23c-2.206 0-4 1.794-4 4s1.794 4 4 4 4-1.794 4-4-1.794-4-4-4zM47 29c-1.102 0-2-0.896-2-2s0.898-2 2-2 2 0.896 2 2-0.898 2-2 2zM19 23.19c-2.206 0-4 1.794-4 4s1.794 4 4 4 4-1.794 4-4-1.794-4-4-4zM19 29.19c-1.102 0-2-0.896-2-2s0.898-2 2-2 2 0.896 2 2-0.898 2-2 2z" fill="#555555"></path>
</svg>
