<?xml version="1.0" encoding="utf-8"?>
<!-- Generated by IcoMoon.io -->
<!DOCTYPE svg PUBLIC "-//W3C//DTD SVG 1.1//EN" "http://www.w3.org/Graphics/SVG/1.1/DTD/svg11.dtd">
<svg version="1.1" xmlns="http://www.w3.org/2000/svg" xmlns:xlink="http://www.w3.org/1999/xlink" width="46" height="64" viewBox="0 0 46 64">
<g id="icomoon-ignore">
	<line stroke-width="1" x1="" y1="" x2="" y2="" stroke="#449FDB" opacity=""></line>
</g>
	<path d="M23.028 12c0.552 0 1-0.448 1-1v-3h0.972c0.552 0 1-0.448 1-1v-6c0-0.552-0.448-1-1-1h-4c-0.552 0-1 0.448-1 1v6c0 0.552 0.448 1 1 1h1.028v3c0 0.552 0.446 1 1 1zM22 2h2v4h-2v-4zM0.536 63.634c0.148 0.078 0.306 0.116 0.464 0.116 0.36 0 0.708-0.196 0.884-0.536l8.584-16.346c3.85 1.934 8.118 2.98 12.558 2.98 4.428 0 8.688-1.042 12.53-2.966l8.556 16.332c0.18 0.34 0.528 0.536 0.886 0.536 0.156 0 0.316-0.038 0.464-0.114 0.488-0.258 0.678-0.862 0.422-1.352l-8.576-16.37c1.982-1.18 3.844-2.584 5.516-4.256 1.95-1.95 1.95-5.122 0-7.070-1.89-1.89-5.188-1.886-7.070 0-0.946 0.946-1.988 1.76-3.090 2.46l-4.716-9.002c1.826-1.458 3.022-3.674 3.022-6.186 0-4.38-3.564-7.946-7.946-7.946s-7.94 3.566-7.94 7.948c0 2.51 1.192 4.724 3.014 6.182l-4.726 8.996c-1.096-0.7-2.132-1.51-3.072-2.45-1.89-1.89-5.188-1.886-7.070 0-1.95 1.95-1.95 5.122 0 7.070 1.664 1.664 3.518 3.064 5.49 4.24l-8.604 16.384c-0.258 0.49-0.070 1.094 0.42 1.35zM6.764 35.124c0.802 0 1.556 0.312 2.124 0.878 3.772 3.772 8.792 5.848 14.14 5.848s10.372-2.076 14.144-5.848c1.132-1.134 3.11-1.13 4.242 0 1.17 1.17 1.17 3.072 0 4.242-4.904 4.902-11.436 7.604-18.386 7.604-6.954 0-13.48-2.702-18.382-7.604-1.17-1.17-1.17-3.072 0-4.242 0.564-0.564 1.316-0.878 2.118-0.878zM17.084 21.862c0-3.278 2.666-5.946 5.944-5.946s5.946 2.668 5.946 5.946-2.668 5.946-5.946 5.946-5.944-2.67-5.944-5.946zM19.798 29.106c0.988 0.442 2.078 0.702 3.23 0.702 1.148 0 2.234-0.256 3.22-0.696l4.67 8.914c-2.428 1.184-5.106 1.828-7.89 1.828-2.792 0-5.476-0.646-7.908-1.836l4.678-8.912z" fill="#555555"></path>
</svg>
