<?xml version="1.0" encoding="utf-8"?>
<!-- Generated by IcoMoon.io -->
<!DOCTYPE svg PUBLIC "-//W3C//DTD SVG 1.1//EN" "http://www.w3.org/Graphics/SVG/1.1/DTD/svg11.dtd">
<svg version="1.1" xmlns="http://www.w3.org/2000/svg" xmlns:xlink="http://www.w3.org/1999/xlink" width="64" height="64" viewBox="0 0 64 64">
<g id="icomoon-ignore">
	<line stroke-width="1" x1="" y1="" x2="" y2="" stroke="#449FDB" opacity=""></line>
</g>
	<path d="M58.726 9.274c7.032 7.028 7.032 18.426 0 25.454l-21.934 21.936c-0.782 0.784-2.046 0.784-2.828 0-0.786-0.782-0.786-2.044 0-2.828l21.652-21.654c5.468-5.468 5.468-14.328-0.004-19.798-5.46-5.468-14.328-5.468-19.796 0l-28.894 28.554c-3.906 3.904-3.906 10.236 0 14.14 3.906 3.906 10.234 3.906 14.14 0l29.18-28.834c2.34-2.34 2.34-6.146 0-8.486-2.34-2.338-6.144-2.338-8.484 0l-21.938 21.938c-0.782 0.782-2.046 0.782-2.828 0-0.782-0.784-0.782-2.046 0-2.83l21.936-21.936c3.902-3.904 10.234-3.904 14.14 0 3.906 3.906 3.906 10.236 0 14.142l-29.18 28.836c-5.456 5.458-14.338 5.458-19.796 0s-5.458-14.342 0-19.8l29.18-28.834c7.028-7.032 18.426-7.032 25.454 0z" fill="#555555"></path>
</svg>
