<?xml version="1.0" encoding="utf-8"?>
<!-- Generated by IcoMoon.io -->
<!DOCTYPE svg PUBLIC "-//W3C//DTD SVG 1.1//EN" "http://www.w3.org/Graphics/SVG/1.1/DTD/svg11.dtd">
<svg version="1.1" xmlns="http://www.w3.org/2000/svg" xmlns:xlink="http://www.w3.org/1999/xlink" width="56" height="64" viewBox="0 0 56 64">
<g id="icomoon-ignore">
	<line stroke-width="1" x1="" y1="" x2="" y2="" stroke="#449FDB" opacity=""></line>
</g>
	<path d="M3 64h50c1.738 0 3-1.262 3-3v-56c0-1.738-1.262-3-3-3h-8c-0.552 0-1 0.448-1 1s0.448 1 1 1h8c0.626 0 1 0.374 1 1v56c0 0.626-0.374 1-1 1h-50c-0.626 0-1-0.374-1-1v-56c0-0.626 0.374-1 1-1h8c0.552 0 1-0.448 1-1s-0.448-1-1-1h-8c-1.738 0-3 1.262-3 3v56c0 1.738 1.262 3 3 3zM11 10c0.552 0 1-0.448 1-1s-0.448-1-1-1h-4c-0.552 0-1 0.448-1 1v48c0 0.552 0.448 1 1 1h42c0.552 0 1-0.448 1-1v-48c0-0.552-0.448-1-1-1h-4c-0.552 0-1 0.448-1 1s0.448 1 1 1h3v46h-40v-46h3zM18 14h20c2.43 0 4-1.57 4-4v-9c0-0.552-0.448-1-1-1h-26c-0.552 0-1 0.448-1 1v9c0 2.43 1.57 4 4 4zM16 2h24v8c0 1.328-0.674 2-2 2h-20c-1.326 0-2-0.672-2-2v-8zM17 32h22c0.552 0 1-0.448 1-1s-0.448-1-1-1h-22c-0.552 0-1 0.448-1 1s0.448 1 1 1zM17 24h22c0.552 0 1-0.448 1-1s-0.448-1-1-1h-22c-0.552 0-1 0.448-1 1s0.448 1 1 1zM17 40h22c0.552 0 1-0.448 1-1s-0.448-1-1-1h-22c-0.552 0-1 0.448-1 1s0.448 1 1 1zM17 48h22c0.552 0 1-0.448 1-1s-0.448-1-1-1h-22c-0.552 0-1 0.448-1 1s0.448 1 1 1z" fill="#555555"></path>
</svg>
