<?xml version="1.0" encoding="utf-8"?>
<!-- Generated by IcoMoon.io -->
<!DOCTYPE svg PUBLIC "-//W3C//DTD SVG 1.1//EN" "http://www.w3.org/Graphics/SVG/1.1/DTD/svg11.dtd">
<svg version="1.1" xmlns="http://www.w3.org/2000/svg" xmlns:xlink="http://www.w3.org/1999/xlink" width="64" height="64" viewBox="0 0 64 64">
<g id="icomoon-ignore">
	<line stroke-width="1" x1="" y1="" x2="" y2="" stroke="#449FDB" opacity=""></line>
</g>
	<path d="M30 20c0-1.105 0.895-2 2-2s2 0.895 2 2c0 1.105-0.895 2-2 2s-2-0.895-2-2zM30 44c0-1.105 0.895-2 2-2s2 0.895 2 2c0 1.105-0.895 2-2 2s-2-0.895-2-2zM18 32c0-1.105 0.895-2 2-2s2 0.895 2 2c0 1.105-0.895 2-2 2s-2-0.895-2-2zM42 32c0-1.105 0.895-2 2-2s2 0.895 2 2c0 1.105-0.895 2-2 2s-2-0.895-2-2zM21.514 40.484c0-1.105 0.895-2 2-2s2 0.895 2 2c0 1.105-0.895 2-2 2s-2-0.895-2-2zM21.514 23.514c0-1.105 0.895-2 2-2s2 0.895 2 2c0 1.105-0.895 2-2 2s-2-0.895-2-2zM38.484 40.484c0-1.105 0.895-2 2-2s2 0.895 2 2c0 1.105-0.895 2-2 2s-2-0.895-2-2zM52 28c-0.14 0-0.258 0.066-0.394 0.080-0.696-3.49-2.34-6.612-4.594-9.188l-2.872-15.624c-0.35-1.894-2.004-3.268-3.932-3.268h-16c-1.928 0-3.58 1.376-3.934 3.27l-2.8 15.098c-3.36 3.574-5.474 8.336-5.474 13.632 0 5.166 2.028 9.81 5.242 13.356l2.824 15.376c0.352 1.892 2.006 3.268 3.934 3.268h16c1.926 0 3.578-1.376 3.934-3.27l2.848-15.364c2.378-2.622 4.106-5.84 4.824-9.45 0.136 0.018 0.254 0.084 0.394 0.084 2.208 0 4-1.792 4-4 0-2.21-1.792-4-4-4zM24.208 4h16l2 10.774c-2.954-1.718-6.336-2.774-10-2.774-3.662 0-7.046 1.056-10 2.774l2-10.774zM40 60h-16l-2-10.774c2.952 1.716 6.336 2.774 10 2.774 3.662 0 7.048-1.058 10-2.774l-2 10.774zM32 48c-8.822 0-16-7.18-16-16 0-8.822 7.178-16 16-16s16 7.178 16 16c0 8.82-7.18 16-16 16zM41.882 22.052c0.242 0.242 0.266 0.632 0.056 0.898l-4.852 6.042-3.696 4.45c-0.378 0.364-0.898 0.55-1.398 0.554-0.538-0.004-1.040-0.212-1.414-0.584s-0.578-0.87-0.578-1.396c0-0.544 0.21-1.052 0.592-1.436l10.384-8.57c0.274-0.22 0.664-0.2 0.906 0.042z" fill="#555555"></path>
</svg>
