<?xml version="1.0" encoding="utf-8"?>
<!-- Generated by IcoMoon.io -->
<!DOCTYPE svg PUBLIC "-//W3C//DTD SVG 1.1//EN" "http://www.w3.org/Graphics/SVG/1.1/DTD/svg11.dtd">
<svg version="1.1" xmlns="http://www.w3.org/2000/svg" xmlns:xlink="http://www.w3.org/1999/xlink" width="64" height="64" viewBox="0 0 64 64">
<g id="icomoon-ignore">
	<line stroke-width="1" x1="" y1="" x2="" y2="" stroke="#449FDB" opacity=""></line>
</g>
	<path d="M51.828 26.286c-0.874-9.126-8.472-16.286-17.828-16.286-7.238 0-13.434 4.296-16.292 10.46-0.86-0.272-1.756-0.46-2.706-0.46-4.97 0-9 4.032-9 9 0 0.988 0.198 1.922 0.492 2.808-3.866 2.254-6.492 6.39-6.492 11.188 0 7.18 5.82 13 13 13v0.004l35.998-0.004c8.286 0 15-6.714 15-15 0-7.312-5.242-13.386-12.172-14.71zM49 51.996v0.004h-35.998c-4.962-0.004-9-4.040-9-9.004 0-3.2 1.686-6.090 4.508-7.734 2.742-1.574 2.93-1.886 1.78-4.714-0.194-0.582-0.288-1.088-0.288-1.546 0-2.758 2.242-5 5-5 0 0 1.312-0.094 2.706 0.46 2.294 0.914 2.544 0.040 3.628-2.318 2.294-4.946 7.264-8.144 12.664-8.144 7.2 0 13.152 5.446 13.848 12.668 0.246 2.864 0.246 2.864 3.23 3.546 5.172 0.988 8.922 5.524 8.922 10.782 0 6.066-4.934 11-11 11z" fill="#555555"></path>
</svg>
