<?xml version="1.0" encoding="utf-8"?>
<!-- Generated by IcoMoon.io -->
<!DOCTYPE svg PUBLIC "-//W3C//DTD SVG 1.1//EN" "http://www.w3.org/Graphics/SVG/1.1/DTD/svg11.dtd">
<svg version="1.1" xmlns="http://www.w3.org/2000/svg" xmlns:xlink="http://www.w3.org/1999/xlink" width="64" height="64" viewBox="0 0 64 64">
<g id="icomoon-ignore">
	<line stroke-width="1" x1="" y1="" x2="" y2="" stroke="#449FDB" opacity=""></line>
</g>
	<path d="M0 32c0 17.644 14.356 32 32 32s32-14.356 32-32-14.356-32-32-32-32 14.356-32 32zM32 2c16.542 0 30 13.458 30 30s-13.458 30-30 30-30-13.458-30-30 13.458-30 30-30zM32 58c14.336 0 26-11.664 26-26s-11.664-26-26-26-26 11.664-26 26 11.664 26 26 26zM30 8.102v3.052c0 0.552 0.448 1 1 1s1-0.448 1-1v-3.154c12.558 0 22.876 9.7 23.898 22h-3.054c-0.552 0-1 0.448-1 1s0.448 1 1 1h3.156c0 13.234-10.766 24-24 24v-3.154c0-0.552-0.448-1-1-1s-1 0.448-1 1v3.052c-12.298-1.022-22-11.338-22-23.898h3.156c0.552 0 1-0.448 1-1s-0.448-1-1-1h-3.054c0.966-11.638 10.26-20.932 21.898-21.898zM18.772 46.082c0.204 0 0.408-0.062 0.584-0.188l11.228-8.072c0.456 0.112 0.926 0.186 1.416 0.186 3.308 0 6-2.692 6-6 0-0.474-0.070-0.93-0.174-1.374l8.212-11.424c0.286-0.398 0.242-0.946-0.104-1.292-0.344-0.346-0.892-0.386-1.292-0.106l-11.556 8.306c-0.354-0.066-0.716-0.11-1.088-0.11-3.308 0-6 2.692-6 6 0 0.39 0.044 0.772 0.116 1.142l-8.154 11.348c-0.286 0.398-0.242 0.946 0.104 1.292 0.194 0.192 0.45 0.292 0.708 0.292zM28 32.010c0-2.206 1.794-4 4-4s4 1.794 4 4-1.794 4-4 4-4-1.796-4-4zM40.848 23.006l-3.974 5.53c-0.432-0.602-0.964-1.126-1.584-1.534l5.558-3.996zM27.010 35.334c0.398 0.596 0.908 1.106 1.486 1.526l-5.344 3.842 3.858-5.368z" fill="#555555"></path>
</svg>
