<?xml version="1.0" encoding="utf-8"?>
<!-- Generated by IcoMoon.io -->
<!DOCTYPE svg PUBLIC "-//W3C//DTD SVG 1.1//EN" "http://www.w3.org/Graphics/SVG/1.1/DTD/svg11.dtd">
<svg version="1.1" xmlns="http://www.w3.org/2000/svg" xmlns:xlink="http://www.w3.org/1999/xlink" width="64" height="64" viewBox="0 0 64 64">
<g id="icomoon-ignore">
	<line stroke-width="1" x1="" y1="" x2="" y2="" stroke="#449FDB" opacity=""></line>
</g>
	<path d="M56.222 10.044l-2.43-7.31c-0.542-1.634-2.070-2.734-3.792-2.734h-36c-1.724 0-3.25 1.1-3.796 2.734l-2.45 7.314c-2.088 0.134-3.754 1.83-3.754 3.952v6c0 2.208 1.792 4 4 4h2.068c0 0.15-0.060 0.292-0.042 0.442l4 36c0.224 2.022 1.934 3.558 3.974 3.558h28c2.040 0 3.75-1.536 3.972-3.558l4-36c0.020-0.15-0.042-0.292-0.042-0.442h2.070c2.208 0 4-1.792 4-4v-6c0-2.13-1.68-3.834-3.778-3.956zM14 4h36l2 6h-40l2-6zM18 60l-0.666-6h29.332l-0.666 6h-28zM46.886 52h-29.776l-2.222-20h34.222l-2.224 20zM49.332 30h-34.666l-0.666-6h36l-0.668 6zM56 20h-48v-6h48v6z" fill="#555555"></path>
</svg>
