<?xml version="1.0" encoding="utf-8"?>
<!-- Generated by IcoMoon.io -->
<!DOCTYPE svg PUBLIC "-//W3C//DTD SVG 1.1//EN" "http://www.w3.org/Graphics/SVG/1.1/DTD/svg11.dtd">
<svg version="1.1" xmlns="http://www.w3.org/2000/svg" xmlns:xlink="http://www.w3.org/1999/xlink" width="64" height="64" viewBox="0 0 64 64">
<g id="icomoon-ignore">
	<line stroke-width="1" x1="" y1="" x2="" y2="" stroke="#449FDB" opacity=""></line>
</g>
	<path d="M32 0c-13.488 0-28 4.066-28 13v38c0 8.93 14.512 13 28 13 13.486 0 28-4.070 28-13v-38c0-8.934-14.516-13-28-13zM56 51c0 4.968-10.746 9-24 9-13.256 0-24-4.032-24-9v-7.472c4.132 4.258 14.1 6.472 24 6.472s19.868-2.214 24-6.472v7.472zM56 39h-0.008c0 0.020 0.008 0.042 0.008 0.062 0 4.938-10.746 8.938-24 8.938s-24-4-24-8.938c0-0.020 0.008-0.042 0.008-0.062h-0.008v-7.472c4.132 4.258 14.1 6.472 24 6.472s19.868-2.214 24-6.472v7.472zM56 27h-0.008c0 0.020 0.008 0.042 0.008 0.062 0 4.938-10.746 8.938-24 8.938s-24-4-24-8.938c0-0.020 0.008-0.042 0.008-0.062h-0.008v-6.872c5.242 3.994 14.85 5.872 24 5.872s18.758-1.878 24-5.872v6.872zM32 22c-13.256 0-24-4.032-24-9 0-4.972 10.744-9 24-9 13.254 0 24 4.028 24 9 0 4.968-10.746 9-24 9zM48 52c0-1.105 0.895-2 2-2s2 0.895 2 2c0 1.105-0.895 2-2 2s-2-0.895-2-2zM48 40c0-1.105 0.895-2 2-2s2 0.895 2 2c0 1.105-0.895 2-2 2s-2-0.895-2-2zM48 28c0-1.105 0.895-2 2-2s2 0.895 2 2c0 1.105-0.895 2-2 2s-2-0.895-2-2z" fill="#555555"></path>
</svg>
