<?xml version="1.0" encoding="utf-8"?>
<!-- Generated by IcoMoon.io -->
<!DOCTYPE svg PUBLIC "-//W3C//DTD SVG 1.1//EN" "http://www.w3.org/Graphics/SVG/1.1/DTD/svg11.dtd">
<svg version="1.1" xmlns="http://www.w3.org/2000/svg" xmlns:xlink="http://www.w3.org/1999/xlink" width="78" height="64" viewBox="0 0 78 64">
<g id="icomoon-ignore">
	<line stroke-width="1" x1="" y1="" x2="" y2="" stroke="#449FDB" opacity=""></line>
</g>
	<path d="M3 50h35v3c0 0.552 0.448 1 1 1s1-0.448 1-1v-3h35c1.654 0 3-1.346 3-3v-44c0-1.654-1.346-3-3-3h-72c-1.654 0-3 1.346-3 3v44c0 1.654 1.346 3 3 3zM2 3c0-0.552 0.448-1 1-1h72c0.552 0 1 0.448 1 1v44c0 0.552-0.448 1-1 1h-72c-0.552 0-1-0.448-1-1v-44zM7 44h64c0.552 0 1-0.448 1-1v-36c0-0.552-0.448-1-1-1h-64c-0.552 0-1 0.448-1 1v36c0 0.552 0.448 1 1 1zM8 8h62v34h-62v-34zM28 56c-2.28 0-4 1.72-4 4v3c0 0.552 0.448 1 1 1h28c0.552 0 1-0.448 1-1v-2.85c0-2.326-1.756-4.15-4-4.15h-22zM52 60.15v1.85h-26v-2c0-1.178 0.822-2 2-2h22c1.14 0 2 0.924 2 2.15z" fill="#555555"></path>
</svg>
