<?xml version="1.0" encoding="utf-8"?>
<!-- Generated by IcoMoon.io -->
<!DOCTYPE svg PUBLIC "-//W3C//DTD SVG 1.1//EN" "http://www.w3.org/Graphics/SVG/1.1/DTD/svg11.dtd">
<svg version="1.1" xmlns="http://www.w3.org/2000/svg" xmlns:xlink="http://www.w3.org/1999/xlink" width="64" height="64" viewBox="0 0 64 64">
<g id="icomoon-ignore">
	<line stroke-width="1" x1="" y1="" x2="" y2="" stroke="#449FDB" opacity=""></line>
</g>
	<path d="M31.998 22c-5.458 0-9.942 4.44-9.998 9.898-0.056 5.514 4.384 10.044 9.898 10.102 0.002 0 0.1 0 0.104 0 5.458 0 9.942-4.44 9.998-9.898 0.056-5.514-4.384-10.046-10.002-10.102zM32.002 40v1l-0.084-1c-4.41-0.044-7.962-3.67-7.918-8.082 0.044-4.366 3.632-7.918 8.082-7.918 4.41 0.044 7.962 3.67 7.918 8.082-0.044 4.366-3.632 7.918-7.998 7.918zM0 32c0 1.105 0.895 2 2 2s2-0.895 2-2c0-1.105-0.895-2-2-2s-2 0.895-2 2zM60 32c0 1.105 0.895 2 2 2s2-0.895 2-2c0-1.105-0.895-2-2-2s-2 0.895-2 2zM30 2c0 1.105 0.895 2 2 2s2-0.895 2-2c0-1.105-0.895-2-2-2s-2 0.895-2 2zM30 62c0 1.105 0.895 2 2 2s2-0.895 2-2c0-1.105-0.895-2-2-2s-2 0.895-2 2zM8 10c0 1.105 0.895 2 2 2s2-0.895 2-2c0-1.105-0.895-2-2-2s-2 0.895-2 2zM52 54c0 1.105 0.895 2 2 2s2-0.895 2-2c0-1.105-0.895-2-2-2s-2 0.895-2 2zM52 10c0 1.105 0.895 2 2 2s2-0.895 2-2c0-1.105-0.895-2-2-2s-2 0.895-2 2zM8 54c0 1.105 0.895 2 2 2s2-0.895 2-2c0-1.105-0.895-2-2-2s-2 0.895-2 2zM48 32.152v-15.152c0-0.552-0.448-1-1-1h-15.002c-8.732 0-15.908 7.104-15.998 15.838-0.042 4.274 1.58 8.308 4.572 11.362s6.992 4.758 11.266 4.8c0.002 0 0.162 0 0.166 0 0 0 0 0 0 0 8.73 0 15.906-7.104 15.996-15.848zM32.002 46v1l-0.144-1c-3.74-0.038-7.24-1.53-9.858-4.202s-4.038-6.202-4-9.942c0.078-7.64 6.356-13.856 14.152-13.856v0h13.848v14.142c-0.078 7.642-6.358 13.86-13.998 13.858z" fill="#555555"></path>
</svg>
