<?xml version="1.0" encoding="utf-8"?>
<!-- Generated by IcoMoon.io -->
<!DOCTYPE svg PUBLIC "-//W3C//DTD SVG 1.1//EN" "http://www.w3.org/Graphics/SVG/1.1/DTD/svg11.dtd">
<svg version="1.1" xmlns="http://www.w3.org/2000/svg" xmlns:xlink="http://www.w3.org/1999/xlink" width="64" height="64" viewBox="0 0 64 64">
<g id="icomoon-ignore">
	<line stroke-width="1" x1="" y1="" x2="" y2="" stroke="#449FDB" opacity=""></line>
</g>
	<path d="M62.828 19.354l-10.16-10.162c-0.75-0.75-1.77-1.172-2.828-1.172h-35.678c-1.060 0-2.078 0.422-2.828 1.172l-10.16 10.162c-0.786 0.784-1.178 1.818-1.174 2.854 0.006 0.94 0.342 1.878 1.012 2.632l27.998 29.816c0.76 0.856 1.848 1.344 2.99 1.344s2.23-0.488 2.988-1.344l28-29.816c0.684-0.77 1.020-1.734 1.012-2.696-0.008-1.012-0.402-2.020-1.172-2.79zM36.438 22.020h-8.878l4.44-3.698 4.438 3.698zM33.564 17.020l5.464-4.556 4.036 4.036-5.064 4.218-4.436-3.698zM26 20.718l-5.064-4.218 4.036-4.036 5.466 4.556-4.438 3.698zM36.98 24.020l-4.98 24.906-4.98-24.906h9.96zM39.020 24.020h9.812l-14.718 24.538 4.906-24.538zM39.558 22.020l4.926-4.102 4.102 4.102h-9.028zM41.414 12.020h7.024l-3.832 3.194-3.192-3.194zM32 15.72l-4.44-3.7h8.876l-4.436 3.7zM19.392 15.214l-3.832-3.194h7.026l-3.194 3.194zM19.516 17.918l4.924 4.102h-9.026l4.102-4.102zM24.98 24.020l4.906 24.538-14.72-24.538h9.814zM25.408 44.976l-19.68-20.956h7.108l12.572 20.956zM51.164 24.020h7.11l-19.684 20.96 12.574-20.96zM51.414 22.020l-5.386-5.386 4.594-3.83 9.214 9.216h-8.422zM13.372 12.8l4.602 3.834-5.388 5.386h-8.574l9.36-9.22z" fill="#555555"></path>
</svg>
