<?xml version="1.0" encoding="utf-8"?>
<!-- Generated by IcoMoon.io -->
<!DOCTYPE svg PUBLIC "-//W3C//DTD SVG 1.1//EN" "http://www.w3.org/Graphics/SVG/1.1/DTD/svg11.dtd">
<svg version="1.1" xmlns="http://www.w3.org/2000/svg" xmlns:xlink="http://www.w3.org/1999/xlink" width="64" height="64" viewBox="0 0 64 64">
<g id="icomoon-ignore">
	<line stroke-width="1" x1="" y1="" x2="" y2="" stroke="#449FDB" opacity=""></line>
</g>
	<path d="M54 9.992l-44 0.008c-1.106 0-2 0.886-2 1.992v28c0 1.106 0.894 2 2 2h44c1.106 0 2-0.894 2-2v-28c0-1.106-0.894-2-2-2zM54 40h-44v-28.008h44v28.008zM58 2h-52c-3.314 0-6 2.684-6 6v40c0 3.308 2.676 5.988 5.98 5.996h20.020v2.434l-12.484 1.622c-0.892 0.222-1.516 1.022-1.516 1.94 0 1.106 0.894 2 2 2h36c1.106 0 2-0.894 2-2 0-0.918-0.624-1.718-1.516-1.942l-12.484-1.62v-2.434h20.020c3.304-0.008 5.98-2.688 5.98-5.996v-40c0-3.316-2.688-6-6-6zM60 48c0 1.102-0.898 2-2 2h-52c-1.104 0-2-0.898-2-2v-40c0-1.104 0.896-2 2-2h52c1.102 0 2 0.896 2 2v40z" fill="#555555"></path>
</svg>
