<?xml version="1.0" encoding="utf-8"?>
<!-- Generated by IcoMoon.io -->
<!DOCTYPE svg PUBLIC "-//W3C//DTD SVG 1.1//EN" "http://www.w3.org/Graphics/SVG/1.1/DTD/svg11.dtd">
<svg version="1.1" xmlns="http://www.w3.org/2000/svg" xmlns:xlink="http://www.w3.org/1999/xlink" width="48" height="64" viewBox="0 0 48 64">
<g id="icomoon-ignore">
	<line stroke-width="1" x1="" y1="" x2="" y2="" stroke="#449FDB" opacity=""></line>
</g>
	<path d="M3 64h42c1.654 0 3-1.346 3-3v-42c0-0.034-0.016-0.062-0.018-0.094-0.004-0.046-0.016-0.086-0.026-0.13-0.034-0.142-0.092-0.27-0.18-0.382-0.014-0.018-0.012-0.040-0.026-0.058l-16-18c-0.006-0.006-0.014-0.006-0.020-0.012-0.12-0.128-0.272-0.216-0.446-0.268-0.038-0.012-0.072-0.016-0.112-0.022-0.058-0.010-0.112-0.034-0.172-0.034h-28c-1.654 0-3 1.346-3 3v58c0 1.654 1.346 3 3 3zM32 3.63l12.774 14.37h-11.774c-0.44 0-1-0.84-1-1.5v-12.87zM2 3c0-0.552 0.45-1 1-1h27v14.5c0 1.618 1.31 3.5 3 3.5h13v41c0 0.552-0.45 1-1 1h-42c-0.56 0-1-0.44-1-1v-58zM11 28h26c0.552 0 1-0.448 1-1s-0.448-1-1-1h-26c-0.552 0-1 0.448-1 1s0.448 1 1 1zM11 36h26c0.552 0 1-0.448 1-1s-0.448-1-1-1h-26c-0.552 0-1 0.448-1 1s0.448 1 1 1zM11 20h12c0.552 0 1-0.448 1-1s-0.448-1-1-1h-12c-0.552 0-1 0.448-1 1s0.448 1 1 1zM11 44h26c0.552 0 1-0.448 1-1s-0.448-1-1-1h-26c-0.552 0-1 0.448-1 1s0.448 1 1 1zM11 52h26c0.552 0 1-0.448 1-1s-0.448-1-1-1h-26c-0.552 0-1 0.448-1 1s0.448 1 1 1z" fill="#555555"></path>
</svg>
