<?xml version="1.0" encoding="utf-8"?>
<!-- Generated by IcoMoon.io -->
<!DOCTYPE svg PUBLIC "-//W3C//DTD SVG 1.1//EN" "http://www.w3.org/Graphics/SVG/1.1/DTD/svg11.dtd">
<svg version="1.1" xmlns="http://www.w3.org/2000/svg" xmlns:xlink="http://www.w3.org/1999/xlink" width="68" height="64" viewBox="0 0 68 64">
<g id="icomoon-ignore">
	<line stroke-width="1" x1="" y1="" x2="" y2="" stroke="#449FDB" opacity=""></line>
</g>
	<path d="M3.024 56h35.976c1.654 0 3-1.346 3-3v-38c0-0.046-0.020-0.086-0.026-0.13s-0.014-0.082-0.026-0.124c-0.046-0.172-0.12-0.332-0.244-0.454l-13.998-13.998c-0.122-0.122-0.282-0.196-0.454-0.244-0.042-0.012-0.080-0.020-0.124-0.026-0.042-0.004-0.082-0.024-0.128-0.024h-23.988c-1.66 0-3.012 1.346-3.012 3v50c0 1.654 1.356 3 3.024 3zM28 3.414l10.586 10.586h-9.586c-0.55 0-1-0.448-1-1v-9.586zM2 3c0-0.552 0.454-1 1.012-1h22.988v11c0 1.654 1.346 3 3 3h11v37c0 0.552-0.45 1-1 1h-35.976c-0.566 0-1.024-0.448-1.024-1v-50zM9 24h24c0.552 0 1-0.448 1-1s-0.448-1-1-1h-24c-0.552 0-1 0.448-1 1s0.448 1 1 1zM9 32h24c0.552 0 1-0.448 1-1s-0.448-1-1-1h-24c-0.552 0-1 0.448-1 1s0.448 1 1 1zM9 16h10c0.552 0 1-0.448 1-1s-0.448-1-1-1h-10c-0.552 0-1 0.448-1 1s0.448 1 1 1zM9 40h24c0.552 0 1-0.448 1-1s-0.448-1-1-1h-24c-0.552 0-1 0.448-1 1s0.448 1 1 1zM9 48h24c0.552 0 1-0.448 1-1s-0.448-1-1-1h-24c-0.552 0-1 0.448-1 1s0.448 1 1 1zM43 10h9v11c0 1.654 1.346 3 3 3h11v37c0 0.552-0.45 1-1 1h-35.976c-0.566 0-1.024-0.448-1.024-1v-2c0-0.552-0.448-1-1-1s-1 0.448-1 1v2c0 1.654 1.356 3 3.024 3h35.976c1.654 0 3-1.346 3-3v-38c0-0.046-0.020-0.086-0.026-0.13s-0.014-0.082-0.026-0.124c-0.046-0.172-0.12-0.332-0.244-0.454l-13.998-13.998c-0.122-0.124-0.284-0.198-0.456-0.244-0.042-0.012-0.078-0.018-0.122-0.024-0.042-0.006-0.082-0.026-0.128-0.026h-10c-0.552 0-1 0.448-1 1s0.448 1 1 1zM55 22c-0.55 0-1-0.448-1-1v-9.586l10.586 10.586h-9.586zM47 32h12c0.552 0 1-0.448 1-1s-0.448-1-1-1h-12c-0.552 0-1 0.448-1 1s0.448 1 1 1zM47 40h12c0.552 0 1-0.448 1-1s-0.448-1-1-1h-12c-0.552 0-1 0.448-1 1s0.448 1 1 1zM47 48h12c0.552 0 1-0.448 1-1s-0.448-1-1-1h-12c-0.552 0-1 0.448-1 1s0.448 1 1 1zM47 56h12c0.552 0 1-0.448 1-1s-0.448-1-1-1h-12c-0.552 0-1 0.448-1 1s0.448 1 1 1z" fill="#555555"></path>
</svg>
