<?xml version="1.0" encoding="utf-8"?>
<!-- Generated by IcoMoon.io -->
<!DOCTYPE svg PUBLIC "-//W3C//DTD SVG 1.1//EN" "http://www.w3.org/Graphics/SVG/1.1/DTD/svg11.dtd">
<svg version="1.1" xmlns="http://www.w3.org/2000/svg" xmlns:xlink="http://www.w3.org/1999/xlink" width="84" height="64" viewBox="0 0 84 64">
<g id="icomoon-ignore">
	<line stroke-width="1" x1="" y1="" x2="" y2="" stroke="#449FDB" opacity=""></line>
</g>
	<path d="M67.916 25.964c-0.86-13.22-10.054-25.964-26.916-25.964-2.058 0-4.088 0.2-6.036 0.594-0.542 0.11-0.89 0.636-0.782 1.18 0.11 0.542 0.628 0.89 1.18 0.782 1.816-0.37 3.714-0.556 5.638-0.556 17.176 0 25 13.478 25 26v3c0 0.552 0.448 1 1 1s1-0.448 1-1v-3c0-0.010-0.002-0.022-0.002-0.032 6.126 0.528 14.002 5.864 14.002 17.032 0 9.534-7.028 17-16 17h-48c-7.952 0-16-5.84-16-17 0-8.188 5.008-17 16-17h3c0.552 0 1-0.448 1-1s-0.448-1-1-1h-3v-4c0-7.454 4.598-12.084 12-12.084 6.728 0 12 5.308 12 12.084v25.986l-8.32-7.72c-0.4-0.376-1.034-0.354-1.412 0.052-0.376 0.404-0.354 1.038 0.052 1.412l9.032 8.378c0.598 0.596 1.126 0.89 1.654 0.89 0.522 0 1.040-0.29 1.616-0.866l9.058-8.404c0.406-0.376 0.43-1.008 0.052-1.412-0.376-0.408-1.012-0.43-1.412-0.052l-8.32 7.722v-25.986c0-7.898-6.15-14.084-14-14.084-8.504 0-14 5.528-14 14.084v4.102c-10.51 1.016-16 10.006-16 18.898 0 9.21 6.308 19 18 19h48c10.094 0 18-8.346 18-19 0-12.608-9.114-18.556-16.084-19.036z" fill="#555555"></path>
</svg>
