<?xml version="1.0" encoding="utf-8"?>
<!-- Generated by IcoMoon.io -->
<!DOCTYPE svg PUBLIC "-//W3C//DTD SVG 1.1//EN" "http://www.w3.org/Graphics/SVG/1.1/DTD/svg11.dtd">
<svg version="1.1" xmlns="http://www.w3.org/2000/svg" xmlns:xlink="http://www.w3.org/1999/xlink" width="64" height="64" viewBox="0 0 64 64">
<g id="icomoon-ignore">
	<line stroke-width="1" x1="" y1="" x2="" y2="" stroke="#449FDB" opacity=""></line>
</g>
	<path d="M32-0.068c-17.684 0-32.068 14.384-32.068 32.068s14.384 32.068 32.068 32.068 32.068-14.384 32.068-32.068-14.384-32.068-32.068-32.068zM32 61.932c-16.504 0-29.932-13.428-29.932-29.932s13.428-29.932 29.932-29.932 29.932 13.428 29.932 29.932-13.428 29.932-29.932 29.932zM43.702 21.010c-3.076-3.276-7.23-5.078-11.702-5.078-2.1 0-4.15 0.404-6.094 1.204-5.516 2.26-9.306 7.344-9.894 13.262-0.050 0.528-0.080 1.060-0.080 1.602 0 4.856 2.164 9.4 5.942 12.47 2.854 2.32 6.452 3.598 10.126 3.598 2.318 0 4.572-0.496 6.704-1.476 4.352-2.004 7.56-5.802 8.802-10.422 0 0 0-0.002 0-0.002 0.372-1.4 0.562-2.802 0.562-4.168 0-4.092-1.55-7.994-4.366-10.99zM45.672 34.61c-0.354-0.076-0.698-0.11-1.050-0.172-0.466-0.082-0.932-0.168-1.392-0.228-0.546-0.070-1.080-0.106-1.616-0.142-0.432-0.028-0.864-0.066-1.288-0.072-0.132-0.002-0.272-0.022-0.404-0.022-0.704 0-1.402 0.034-2.096 0.094-0.090 0.008-0.178 0.026-0.268 0.034-0.56 0.056-1.118 0.12-1.666 0.216-0.090-0.234-0.192-0.454-0.284-0.686-0.372-0.942-0.756-1.87-1.152-2.784-0.098-0.224-0.184-0.46-0.282-0.682 0.21-0.084 0.398-0.178 0.602-0.266 0.208-0.090 0.416-0.178 0.616-0.272 0.444-0.208 0.866-0.424 1.274-0.648 0.13-0.072 0.268-0.138 0.394-0.21 0.52-0.3 1.010-0.614 1.472-0.936 0.11-0.078 0.21-0.158 0.316-0.236 0.348-0.254 0.682-0.51 0.996-0.77 0.136-0.114 0.264-0.226 0.394-0.34 0.274-0.24 0.534-0.48 0.78-0.72 0.112-0.108 0.224-0.216 0.33-0.326 0.28-0.286 0.54-0.572 0.786-0.856 0.048-0.056 0.104-0.112 0.15-0.168 0.262-0.312 0.508-0.62 0.732-0.922 1.888 2.434 2.916 5.406 2.916 8.504 0 0.854-0.088 1.728-0.26 2.61zM32 18.068c3.592 0 6.948 1.344 9.544 3.804-0.028 0.042-0.052 0.080-0.082 0.12-0.076 0.106-0.16 0.214-0.24 0.32-0.146 0.194-0.3 0.39-0.464 0.59-0.098 0.118-0.2 0.238-0.304 0.356-0.172 0.196-0.354 0.394-0.544 0.592-0.114 0.12-0.23 0.24-0.352 0.36-0.214 0.21-0.446 0.42-0.682 0.628-0.118 0.104-0.228 0.208-0.352 0.312-0.368 0.308-0.756 0.612-1.176 0.906-0.026 0.018-0.058 0.036-0.086 0.056-0.394 0.274-0.814 0.54-1.256 0.796-0.162 0.094-0.34 0.182-0.51 0.274-0.324 0.176-0.656 0.348-1.004 0.51-0.214 0.1-0.44 0.196-0.664 0.29-0.18 0.076-0.374 0.146-0.56 0.22-0.050-0.106-0.102-0.198-0.152-0.304-0.418-0.87-0.836-1.714-1.25-2.506-0.032-0.062-0.064-0.118-0.096-0.18-0.396-0.756-0.784-1.466-1.168-2.148-0.088-0.156-0.174-0.312-0.262-0.464-0.386-0.676-0.76-1.314-1.12-1.91-0.082-0.136-0.158-0.258-0.238-0.388-0.324-0.528-0.636-1.024-0.93-1.48-0.030-0.046-0.066-0.106-0.096-0.152 1.31-0.398 2.666-0.602 4.044-0.602zM25.922 19.468c0.012 0.018 0.024 0.036 0.036 0.054 0.316 0.482 0.66 1.024 1.018 1.6 0.076 0.122 0.154 0.248 0.23 0.374 0.37 0.602 0.752 1.242 1.15 1.938 0.044 0.076 0.088 0.158 0.132 0.234 0.374 0.656 0.758 1.358 1.148 2.090 0.074 0.14 0.148 0.276 0.224 0.42 0.414 0.788 0.832 1.622 1.252 2.492 0.030 0.062 0.060 0.126 0.090 0.188-0.664 0.186-1.316 0.388-2.024 0.522-0.108 0.020-0.22 0.034-0.328 0.054-2.148 0.38-4.492 0.516-7 0.42-0.194-0.008-0.382-0.008-0.58-0.018-0.964-0.050-1.972-0.166-2.984-0.286 0.78-4.39 3.61-8.132 7.636-10.082zM18.068 32c0-0.096 0.002-0.194 0.004-0.29 0.284 0.034 0.548 0.036 0.83 0.064 0.784 0.080 1.554 0.142 2.312 0.182 0.45 0.024 0.896 0.042 1.336 0.050 0.27 0.006 0.558 0.032 0.824 0.032 0 0 0 0 0.002 0 0.574 0 1.126-0.034 1.682-0.060 0.234-0.010 0.474-0.010 0.704-0.024 1.034-0.068 2.038-0.182 3.010-0.338 0.252-0.040 0.49-0.096 0.736-0.142 0.746-0.14 1.47-0.306 2.172-0.5 0.146-0.040 0.306-0.060 0.448-0.104 0.102 0.226 0.2 0.456 0.3 0.686 0.374 0.856 0.738 1.726 1.088 2.608 0.084 0.212 0.168 0.426 0.252 0.64-0.216 0.062-0.416 0.14-0.628 0.208-0.276 0.086-0.55 0.174-0.816 0.27-0.438 0.156-0.858 0.328-1.274 0.506-0.226 0.098-0.458 0.188-0.678 0.292-0.498 0.234-0.976 0.486-1.44 0.748-0.112 0.062-0.232 0.12-0.342 0.184-0.57 0.332-1.11 0.684-1.626 1.046-0.144 0.1-0.274 0.206-0.414 0.308-0.364 0.268-0.722 0.536-1.058 0.812-0.17 0.14-0.328 0.28-0.492 0.42-0.286 0.246-0.562 0.492-0.828 0.74-0.16 0.152-0.316 0.3-0.468 0.452-0.242 0.24-0.474 0.476-0.696 0.714-0.142 0.152-0.286 0.302-0.42 0.452-0.050 0.056-0.108 0.114-0.158 0.168-2.782-2.63-4.362-6.264-4.362-10.124zM24.104 43.474c0.036-0.040 0.064-0.076 0.1-0.116 0.12-0.134 0.252-0.268 0.378-0.404 0.204-0.218 0.416-0.436 0.638-0.654 0.142-0.14 0.29-0.28 0.44-0.42 0.232-0.218 0.476-0.436 0.726-0.652 0.16-0.138 0.32-0.276 0.486-0.412 0.276-0.226 0.568-0.446 0.862-0.664 0.162-0.12 0.318-0.242 0.484-0.358 0.4-0.28 0.82-0.548 1.252-0.808 0.080-0.048 0.152-0.1 0.234-0.148 0.516-0.3 1.058-0.582 1.622-0.846 0.172-0.080 0.356-0.148 0.532-0.224 0.406-0.176 0.818-0.346 1.248-0.498 0.228-0.080 0.464-0.15 0.7-0.224 0.232-0.072 0.476-0.134 0.716-0.2 0.45 1.254 0.89 2.516 1.284 3.808 0.018 0.058 0.038 0.112 0.056 0.17 0.414 1.372 0.774 2.77 1.12 4.174-4.276 1.654-9.164 1.048-12.878-1.524zM38.972 44.046c-0.316-1.256-0.664-2.502-1.034-3.734-0.014-0.048-0.026-0.098-0.040-0.146-0.386-1.274-0.798-2.53-1.236-3.766 0.29-0.046 0.578-0.1 0.872-0.134 0.244-0.028 0.488-0.060 0.734-0.078 0.714-0.054 1.436-0.076 2.172-0.060 0.082 0.002 0.162-0.006 0.244-0.002 0.826 0.028 1.664 0.108 2.514 0.224 0.23 0.032 0.464 0.080 0.696 0.118 0.396 0.066 0.798 0.154 1.198 0.238-1.108 3.1-3.268 5.692-6.12 7.34z" fill="#555555"></path>
</svg>
