<?xml version="1.0" encoding="utf-8"?>
<!-- Generated by IcoMoon.io -->
<!DOCTYPE svg PUBLIC "-//W3C//DTD SVG 1.1//EN" "http://www.w3.org/Graphics/SVG/1.1/DTD/svg11.dtd">
<svg version="1.1" xmlns="http://www.w3.org/2000/svg" xmlns:xlink="http://www.w3.org/1999/xlink" width="64" height="64" viewBox="0 0 64 64">
<g id="icomoon-ignore">
	<line stroke-width="1" x1="" y1="" x2="" y2="" stroke="#449FDB" opacity=""></line>
</g>
	<path d="M3 64h58c1.654 0 3-1.346 3-3v-58c0-1.654-1.346-3-3-3h-58c-1.654 0-3 1.346-3 3v58c0 1.654 1.346 3 3 3zM2 3c0-0.552 0.45-1 1-1h58c0.55 0 1 0.448 1 1v58c0 0.552-0.45 1-1 1h-58c-0.55 0-1-0.448-1-1v-58zM8 56.958c0.096 0 0.192-0.014 0.286-0.042l20-5.958c0.162-0.048 0.308-0.136 0.426-0.254l20.18-20.41c0.046-0.048 0.070-0.106 0.104-0.16l7.316-7.316c1.214-1.214 1.214-3.19 0-4.406l-10.472-10.468c-1.214-1.214-3.19-1.216-4.404 0l-7.478 7.478c-0.048 0.048-0.072 0.108-0.108 0.162l-20.236 20.238c-0.112 0.112-0.196 0.248-0.244 0.398l-6.32 19.43c-0.116 0.354-0.024 0.742 0.234 1.008 0.19 0.194 0.45 0.3 0.716 0.3zM34.718 17.542l2.080 2.080-17.046 17.126-3.454-0.784 18.42-18.422zM21 38.33l17.214-17.292 4.868 4.868-17.49 17.094h-4.592v-4.67zM46.77 29.594l-18.492 18.704-1.152-3.998 17.368-16.978 2.276 2.272zM14.986 37.718l4.014 0.912v5.37c0 0.552 0.448 1 1 1h5.248l1.266 4.4-16.974 5.056 5.446-16.738zM42.85 9.358c0.436-0.434 1.144-0.432 1.576 0l10.47 10.47c0.436 0.434 0.436 1.142 0 1.578l-6.744 6.744-12.046-12.046 6.744-6.746z" fill="#555555"></path>
</svg>
