<?xml version="1.0" encoding="utf-8"?>
<!-- Generated by IcoMoon.io -->
<!DOCTYPE svg PUBLIC "-//W3C//DTD SVG 1.1//EN" "http://www.w3.org/Graphics/SVG/1.1/DTD/svg11.dtd">
<svg version="1.1" xmlns="http://www.w3.org/2000/svg" xmlns:xlink="http://www.w3.org/1999/xlink" width="76" height="64" viewBox="0 0 76 64">
<g id="icomoon-ignore">
	<line stroke-width="1" x1="" y1="" x2="" y2="" stroke="#449FDB" opacity=""></line>
</g>
	<path d="M40.12 0.826c-1.16-1.066-3.078-1.066-4.238 0l-35.376 21.342c-0.3 0.182-0.484 0.506-0.484 0.856v37.844c0 1.726 1.412 3.132 3.148 3.132h69.66c1.736 0 3.148-1.406 3.148-3.132v-37.844c0-0.35-0.184-0.674-0.484-0.856l-35.374-21.342zM37.008 2.48c0.070-0.042 0.132-0.092 0.19-0.148 0.216-0.214 0.5-0.332 0.802-0.332s0.586 0.118 0.8 0.332c0.058 0.056 0.122 0.106 0.19 0.148l34.454 20.788-24.956 14.872c-0.474 0.284-0.63 0.896-0.348 1.372 0.188 0.314 0.52 0.488 0.86 0.488 0.174 0 0.35-0.044 0.51-0.14l24.49-14.58v35.514l-33.87-22.532c-1.076-0.858-3.188-0.858-4.192-0.050l-33.938 22.572v-35.504l24.488 14.58c0.16 0.096 0.338 0.14 0.512 0.14 0.34 0 0.672-0.174 0.86-0.488 0.282-0.474 0.126-1.088-0.348-1.372l-24.958-14.872 34.454-20.788zM72.18 62h-68.376l33.312-22.172c0.346-0.276 1.424-0.274 1.838 0.050l33.226 22.122zM13 26h50c0.552 0 1-0.448 1-1s-0.448-1-1-1h-50c-0.552 0-1 0.448-1 1s0.448 1 1 1z" fill="#555555"></path>
</svg>
