<?xml version="1.0" encoding="utf-8"?>
<!-- Generated by IcoMoon.io -->
<!DOCTYPE svg PUBLIC "-//W3C//DTD SVG 1.1//EN" "http://www.w3.org/Graphics/SVG/1.1/DTD/svg11.dtd">
<svg version="1.1" xmlns="http://www.w3.org/2000/svg" xmlns:xlink="http://www.w3.org/1999/xlink" width="64" height="64" viewBox="0 0 64 64">
<g id="icomoon-ignore">
	<line stroke-width="1" x1="" y1="" x2="" y2="" stroke="#449FDB" opacity=""></line>
</g>
	<path d="M64 61v-58c0-1.654-1.346-3-3-3h-58c-1.654 0-3 1.346-3 3v18c0 0.552 0.448 1 1 1s1-0.448 1-1v-18c0-0.552 0.45-1 1-1h58c0.55 0 1 0.448 1 1v58c0 0.552-0.45 1-1 1h-18c-0.552 0-1 0.448-1 1s0.448 1 1 1h18c1.654 0 3-1.346 3-3zM3 26c-1.654 0-3 1.346-3 3v32c0 1.654 1.346 3 3 3h32c1.654 0 3-1.346 3-3v-33.586l14-14v13.586c0 0.552 0.448 1 1 1s1-0.448 1-1v-16c0-0.552-0.448-1-1-1h-16c-0.552 0-1 0.448-1 1s0.448 1 1 1h13.584l-14 14h-33.584zM36 61c0 0.552-0.45 1-1 1h-32c-0.55 0-1-0.448-1-1v-32c0-0.552 0.45-1 1-1h33v33z" fill="#555555"></path>
</svg>
