<?xml version="1.0" encoding="utf-8"?>
<!-- Generated by IcoMoon.io -->
<!DOCTYPE svg PUBLIC "-//W3C//DTD SVG 1.1//EN" "http://www.w3.org/Graphics/SVG/1.1/DTD/svg11.dtd">
<svg version="1.1" xmlns="http://www.w3.org/2000/svg" xmlns:xlink="http://www.w3.org/1999/xlink" width="64" height="64" viewBox="0 0 64 64">
<g id="icomoon-ignore">
	<line stroke-width="1" x1="" y1="" x2="" y2="" stroke="#449FDB" opacity=""></line>
</g>
	<path d="M63.93 31.552c-0.020-0.084-0.008-0.174-0.040-0.256-0.012-0.034-0.042-0.052-0.054-0.084-0.020-0.048-0.016-0.102-0.042-0.148-5.8-11.102-18.426-19.056-31.746-19.056-13.322 0-25.946 7.942-31.75 19.042-0.026 0.046-0.022 0.1-0.042 0.148-0.014 0.032-0.042 0.050-0.054 0.084-0.032 0.082-0.020 0.172-0.040 0.256-0.036 0.15-0.070 0.294-0.070 0.448s0.036 0.296 0.070 0.448c0.020 0.084 0.008 0.174 0.040 0.256 0.012 0.034 0.042 0.052 0.054 0.084 0.020 0.048 0.016 0.102 0.042 0.148 5.802 11.102 18.428 19.056 31.75 19.056 13.32 0 25.946-7.942 31.746-19.042 0.028-0.046 0.024-0.1 0.042-0.148 0.012-0.032 0.042-0.050 0.054-0.084 0.032-0.082 0.020-0.172 0.040-0.256 0.034-0.152 0.070-0.296 0.070-0.448s-0.036-0.298-0.070-0.448zM32.046 47.976c-11.23 0-22.224-6.382-27.702-15.99 5.508-9.62 16.486-15.98 27.702-15.98 11.226 0 22.222 6.384 27.7 15.99-5.508 9.622-16.484 15.98-27.7 15.98zM32.046 23.998c0.552 0 0.996 0.446 0.996 1 0 0.55-0.446 0.998-0.996 0.998v0.002c-3.308 0-5.998 2.69-5.998 5.994 0 0.552-0.448 1-0.998 1-0.552 0-1-0.448-1-1 0-4.41 3.574-7.984 7.984-7.992 0.004 0 0.008-0.002 0.012-0.002zM32 18c-7.734 0-14 6.268-14 14s6.268 14 14 14c7.73 0 14-6.27 14-14 0-7.734-6.27-14-14-14zM32 44c-6.618 0-12-5.382-12-12s5.382-12 12-12c6.618 0 12 5.382 12 12s-5.382 12-12 12z" fill="#555555"></path>
</svg>
