<?xml version="1.0" encoding="utf-8"?>
<!-- Generated by IcoMoon.io -->
<!DOCTYPE svg PUBLIC "-//W3C//DTD SVG 1.1//EN" "http://www.w3.org/Graphics/SVG/1.1/DTD/svg11.dtd">
<svg version="1.1" xmlns="http://www.w3.org/2000/svg" xmlns:xlink="http://www.w3.org/1999/xlink" width="64" height="64" viewBox="0 0 64 64">
<g id="icomoon-ignore">
	<line stroke-width="1" x1="" y1="" x2="" y2="" stroke="#449FDB" opacity=""></line>
</g>
	<path d="M32-0.068c-17.682 0-32.070 14.384-32.070 32.068s14.388 32.068 32.070 32.068 32.070-14.384 32.070-32.068-14.388-32.068-32.070-32.068zM32 61.932c-16.504 0-29.93-13.428-29.93-29.932s13.426-29.932 29.93-29.932 29.93 13.428 29.93 29.932-13.426 29.932-29.93 29.932zM39 14h-5.336c-6.796-0.068-7.664 4.138-7.664 8.69v3.31h-3c-0.59-0.068-1.070 0.41-1 1v6c-0.070 0.59 0.41 1.068 1 1h3v15c-0.062 0.59 0.416 1.068 1.006 1h6.11c0.59 0.068 1.068-0.41 0.88-1l0.004-15h5c0.59 0.068 1.070-0.41 1-1v-6c0.070-0.59-0.41-1.068-1-1h-5.006l0.006-3c0.194-1.278 0.194-1.070 1.38-1h3.578c0.278-0.062 0.574-0.028 0.782-0.23s0.328-0.478 0.258-0.77v-6c0.072-0.59-0.408-1.068-0.998-1zM37.93 19.888l-2.508-0.096c-3.106 0-3.366 1.686-3.366 3.412l-0.008 3.792c0 0.284 0.112 0.556 0.312 0.758 0.2 0.2 0.472 0.312 0.756 0.312h4.884v3.864h-4.88c-0.59 0-1.068 0.478-1.070 1.068l-0.002 15.002h-4.048v-15c0-0.59-0.402-1.068-0.994-1.068h-3.006v-3.864h3.006c0.284 0 0.556-0.112 0.756-0.312 0.2-0.202 0.236-0.474 0.236-0.758v-4.31c0-4.484 0.906-6.62 5.664-6.62h4.266v3.82z" fill="#555555"></path>
</svg>
