<?xml version="1.0" encoding="utf-8"?>
<!-- Generated by IcoMoon.io -->
<!DOCTYPE svg PUBLIC "-//W3C//DTD SVG 1.1//EN" "http://www.w3.org/Graphics/SVG/1.1/DTD/svg11.dtd">
<svg version="1.1" xmlns="http://www.w3.org/2000/svg" xmlns:xlink="http://www.w3.org/1999/xlink" width="64" height="64" viewBox="0 0 64 64">
<g id="icomoon-ignore">
	<line stroke-width="1" x1="" y1="" x2="" y2="" stroke="#449FDB" opacity=""></line>
</g>
	<path d="M44 18c-0.124 5.35-4.14 9.868-4.14 9.868 0-9.952-7.86-17.868-7.86-17.868s-0.106 5.924-4.086 11.896c-3.98-13.934-15.924-21.896-15.924-21.896 5.972 21.896-1.99 29.86-1.99 45.784 0 9.342 7.908 18.216 20 18.216 17.914 0 21.378-6.576 23.23-13.986 2.552-10.202-1.27-22.062-9.23-32.014zM49.352 49.042c-1.286 5.138-2.738 10.958-19.352 10.958-10.016 0-16-7.228-16-14.216 0-5.352 0.976-9.746 2.008-14.398 1.312-5.898 2.656-11.936 2.074-19.922 6.168 8.538 8.364 19.85 8.364 19.85s5.742-8.062 7.286-11.806c1.182 2.406 2.268 10.492 2.268 18.492 0 0 5.312-4.376 9.296-10.956 4.196 7.524 5.708 15.39 4.056 21.998zM44.864 33.59l0.372 2.070c0.832 4.636 0.366 10.116-1.184 13.964-0.156 0.39-0.532 0.626-0.926 0.626-0.126 0-0.254-0.024-0.376-0.072-0.512-0.206-0.762-0.788-0.554-1.3 1.168-2.898 1.66-6.978 1.348-10.706-2.008 2.244-4.538 4.582-9.944 7.15l-1.012 0.478-0.364-1.056c-0.724-2.1-1.454-4.222-1.77-7.18-1.082 1.706-2.070 3.226-3.73 5.486l-1.016 1.384-0.704-1.568c-1.722-3.85-3.034-6.856-4.074-9.5-0.962 3.090-1.68 6.664-1.68 13.882 0 0.552-0.45 1-1 1-0.554 0-1-0.448-1-1 0-9.418 1.25-13.046 2.57-16.888l1.040-3.020 0.958 2.7c1.030 2.902 2.386 6.1 4.304 10.424 1.264-1.786 2.112-3.13 3.136-4.752l3.036-4.756v3.418c0 3.848 0.692 6.362 1.454 8.646 5.318-2.676 7.31-5.004 9.416-7.46l1.7-1.97z" fill="#555555"></path>
</svg>
