<?xml version="1.0" encoding="utf-8"?>
<!-- Generated by IcoMoon.io -->
<!DOCTYPE svg PUBLIC "-//W3C//DTD SVG 1.1//EN" "http://www.w3.org/Graphics/SVG/1.1/DTD/svg11.dtd">
<svg version="1.1" xmlns="http://www.w3.org/2000/svg" xmlns:xlink="http://www.w3.org/1999/xlink" width="56" height="64" viewBox="0 0 56 64">
<g id="icomoon-ignore">
	<line stroke-width="1" x1="" y1="" x2="" y2="" stroke="#449FDB" opacity=""></line>
</g>
	<path d="M27 2h-22c-0.552 0-1 0.448-1 1v30c0 0.552 0.448 1 1 1h22.004c0.502 0 2.996 0.148 2.996 3 0 0.552 0.448 1 1 1s1-0.448 1-1v-30.032c-0.054-1.718-1.168-4.968-5-4.968zM30 32.912c-1.002-0.674-2.176-0.912-3-0.912h-21v-28h21c2.792 0 2.988 2.726 3 3v25.912zM52.658 42h-27.684c0.012 0.002-1.406 0.018-2.28-0.838-0.502-0.494-0.758-1.22-0.758-2.162 0-0.552-0.448-1-1-1s-1 0.448-1 1c0 1.508 0.462 2.72 1.376 3.606 1.374 1.33 3.296 1.394 3.638 1.394 0.030 0 27.708 0 27.708 0 0.778 0 1.438-0.314 1.862-0.886 0.562-0.758 0.55-1.726 0.37-2.324-1.126-3.706-7.082-11.766-8.758-13.992 1.614-2.482 7.63-11.88 8.758-15.586 0.182-0.598 0.194-1.564-0.37-2.324-0.424-0.574-1.084-0.888-1.862-0.888h-17.574c-0.552 0-1 0.448-1 1s0.448 1 1 1h17.574c0.198 0 0.238 0.056 0.254 0.078 0.094 0.124 0.11 0.394 0.062 0.55-1.192 3.922-8.824 15.544-8.902 15.662-0.234 0.356-0.216 0.82 0.042 1.158 0.076 0.1 7.678 10.036 8.86 13.922 0.046 0.158 0.032 0.426-0.062 0.552-0.016 0.022-0.056 0.078-0.254 0.078zM2 63v-62c0-0.552-0.448-1-1-1s-1 0.448-1 1v62c0 0.552 0.448 1 1 1s1-0.448 1-1z" fill="#555555"></path>
</svg>
