<?xml version="1.0" encoding="utf-8"?>
<!-- Generated by IcoMoon.io -->
<!DOCTYPE svg PUBLIC "-//W3C//DTD SVG 1.1//EN" "http://www.w3.org/Graphics/SVG/1.1/DTD/svg11.dtd">
<svg version="1.1" xmlns="http://www.w3.org/2000/svg" xmlns:xlink="http://www.w3.org/1999/xlink" width="84" height="64" viewBox="0 0 84 64">
<g id="icomoon-ignore">
	<line stroke-width="1" x1="" y1="" x2="" y2="" stroke="#449FDB" opacity=""></line>
</g>
	<path d="M17 0h-14c-1.654 0-3 1.346-3 3v12c0 0.552 0.448 1 1 1s1-0.448 1-1v-12c0-0.552 0.45-1 1-1h14c0.552 0 1-0.448 1-1s-0.448-1-1-1zM81 0h-14c-0.552 0-1 0.448-1 1s0.448 1 1 1h14c0.55 0 1 0.448 1 1v12c0 0.552 0.448 1 1 1s1-0.448 1-1v-12c0-1.654-1.346-3-3-3zM83 48c-0.552 0-1 0.448-1 1v12c0 0.552-0.45 1-1 1h-14c-0.552 0-1 0.448-1 1s0.448 1 1 1h14c1.654 0 3-1.346 3-3v-12c0-0.552-0.448-1-1-1zM1 48c-0.552 0-1 0.448-1 1v12c0 1.654 1.346 3 3 3h14c0.552 0 1-0.448 1-1s-0.448-1-1-1h-14c-0.55 0-1-0.448-1-1v-12c0-0.552-0.448-1-1-1zM47 38c0.552 0 1-0.448 1-1v-10c0-0.552-0.448-1-1-1h-10c-0.552 0-1 0.448-1 1v10c0 0.552 0.448 1 1 1h10zM38 28h8v8h-8v-8z" fill="#555555"></path>
</svg>
