<?xml version="1.0" encoding="utf-8"?>
<!-- Generated by IcoMoon.io -->
<!DOCTYPE svg PUBLIC "-//W3C//DTD SVG 1.1//EN" "http://www.w3.org/Graphics/SVG/1.1/DTD/svg11.dtd">
<svg version="1.1" xmlns="http://www.w3.org/2000/svg" xmlns:xlink="http://www.w3.org/1999/xlink" width="64" height="64" viewBox="0 0 64 64">
<g id="icomoon-ignore">
	<line stroke-width="1" x1="" y1="" x2="" y2="" stroke="#449FDB" opacity=""></line>
</g>
	<path d="M59 42h-5.382c-0.090-0.478-0.2-0.946-0.32-1.412l9.598-4.798c0.988-0.494 1.386-1.696 0.894-2.684-0.496-0.988-1.692-1.384-2.684-0.894l-9.156 4.576c-3.492-7.536-11.11-12.788-19.95-12.788-10.764 0-19.73 7.776-21.618 18h-5.382c-2.756 0-5 2.242-5 5 0 0.98 0.36 1.926 1.010 2.658l6.99 7.864v1.478c0 2.758 2.244 5 5 5h38c2.758 0 5-2.242 5-5v-1.478l6.988-7.864c0.652-0.732 1.012-1.678 1.012-2.658 0-2.758-2.242-5-5-5zM51.598 42h-1.124l0.996-0.5c0.038 0.168 0.092 0.33 0.128 0.5zM32 26c8.058 0 15 4.8 18.164 11.682l-1.782 0.89c-2.832-6.23-9.092-10.572-16.382-10.572-8.564 0-15.718 5.986-17.54 14h-2.056c1.858-9.118 9.938-16 19.596-16zM41.152 42c-1.546-3.526-5.062-6-9.152-6s-7.604 2.474-9.152 6h-2.148c1.652-4.652 6.086-8 11.3-8 4.93 0 9.176 2.992 11.016 7.254l-1.864 0.746zM32 40c-1.766 0-3.34 0.782-4.44 2h-2.448c1.388-2.378 3.94-4 6.888-4 2.946 0 5.5 1.622 6.886 4h-2.45c-1.096-1.218-2.67-2-4.436-2zM32 32c-6.33 0-11.684 4.224-13.41 10h-2.064c1.784-6.888 8.034-12 15.474-12 6.492 0 12.086 3.896 14.59 9.468l-1.786 0.892c-2.176-4.914-7.094-8.36-12.804-8.36zM52 56v3c0 0.552-0.45 1-1 1h-38c-0.552 0-1-0.448-1-1v-3l-8-9c0-0.552 0.448-1 1-1h54c0.55 0 1 0.448 1 1l-8 9zM15.954 23.424c-0.014-0.028-0.024-0.054-0.036-0.084-1.038-2.506-0.006-4.964 0.926-7.182 0.882-2.104 1.664-3.968 0.856-5.786-0.004-0.008-0.006-0.016-0.010-0.024-0.002-0.006-0.004-0.012-0.006-0.018-0.002-0.004-0.002-0.008-0.002-0.012-0.040-0.106-0.064-0.218-0.064-0.338 0-0.54 0.438-0.98 0.98-0.98 0.416 0 0.77 0.26 0.912 0.626 1.116 2.542 0.102 5.042-0.844 7.294-0.876 2.084-1.588 4.020-0.838 5.784 0.004 0.014 0.004 0.026 0 0.040 0.022 0.080 0.036 0.164 0.036 0.25 0 0.554-0.45 1.006-1.004 1.006-0.388 0-0.72-0.22-0.886-0.54-0.002 0-0.004 0-0.004 0-0.006-0.012-0.010-0.024-0.016-0.036zM40.308 23.132c-0.012-0.026-0.022-0.054-0.032-0.080-1.038-2.506-0.008-4.966 0.922-7.184 0.884-2.104 1.664-3.968 0.856-5.786 0-0.008-0.004-0.016-0.008-0.024-0.004-0.006-0.004-0.012-0.008-0.018 0-0.004 0-0.008 0-0.012-0.038-0.106-0.066-0.218-0.066-0.338 0-0.54 0.44-0.98 0.98-0.98 0.418 0 0.77 0.258 0.914 0.626 1.116 2.542 0.102 5.042-0.844 7.294-0.876 2.084-1.586 4.020-0.84 5.784 0.008 0.014 0.008 0.026 0.004 0.040 0.020 0.080 0.036 0.164 0.036 0.25 0 0.554-0.454 1.006-1.008 1.006-0.386 0-0.718-0.222-0.886-0.542h-0.004c-0.004-0.012-0.008-0.024-0.016-0.036zM30.038 14.424c-0.014-0.028-0.024-0.054-0.038-0.082-1.040-2.506-0.008-4.966 0.924-7.184 0.882-2.104 1.664-3.968 0.856-5.786-0.002-0.008-0.006-0.016-0.008-0.024-0.002-0.006-0.004-0.012-0.006-0.018-0.002-0.004-0.002-0.008-0.002-0.012-0.040-0.106-0.064-0.218-0.064-0.338 0-0.54 0.44-0.98 0.98-0.98 0.418 0 0.77 0.26 0.914 0.628 1.116 2.542 0.102 5.042-0.844 7.294-0.876 2.084-1.588 4.020-0.838 5.784 0.004 0.014 0.004 0.026 0 0.040 0.022 0.080 0.036 0.164 0.036 0.25 0 0.554-0.45 1.006-1.004 1.006-0.386 0-0.718-0.222-0.886-0.542-0.002 0-0.004 0-0.004 0-0.006-0.012-0.010-0.024-0.016-0.036z" fill="#555555"></path>
</svg>
