<?xml version="1.0" encoding="utf-8"?>
<!-- Generated by IcoMoon.io -->
<!DOCTYPE svg PUBLIC "-//W3C//DTD SVG 1.1//EN" "http://www.w3.org/Graphics/SVG/1.1/DTD/svg11.dtd">
<svg version="1.1" xmlns="http://www.w3.org/2000/svg" xmlns:xlink="http://www.w3.org/1999/xlink" width="84" height="64" viewBox="0 0 84 64">
<g id="icomoon-ignore">
	<line stroke-width="1" x1="" y1="" x2="" y2="" stroke="#449FDB" opacity=""></line>
</g>
	<path d="M7.384 43.44c0.352 0.084 0.83 0.518 0.968 0.914l0.7 1.688c0.158 0.324 0.128 0.966-0.060 1.274l-2.794 4.568c-0.598 0.98-0.474 2.368 0.33 3.268l2.366 2.364c0.824 0.732 2.278 0.864 3.226 0.29l4.568-2.794c0.286-0.176 0.9-0.238 1.33-0.036l1.686 0.696c0.34 0.118 0.774 0.594 0.858 0.946l1.254 5.208c0.266 1.104 1.32 2.012 2.452 2.116 0 0 0.694 0.064 1.734 0.064s1.734-0.064 1.736-0.064c1.13-0.102 2.184-1.012 2.45-2.116l1.256-5.208c0.084-0.35 0.516-0.828 0.912-0.966l1.688-0.7c0.298-0.146 0.988-0.116 1.274 0.060l4.568 2.794c0.402 0.246 0.882 0.376 1.392 0.376 0.69 0 1.358-0.242 1.876-0.704l2.364-2.366c0.764-0.858 0.888-2.246 0.29-3.226l-2.794-4.568c-0.188-0.308-0.218-0.95-0.036-1.33l0.696-1.686c0.118-0.34 0.594-0.774 0.946-0.858l5.208-1.254c1.104-0.266 2.012-1.32 2.116-2.452 0 0 0.064-0.694 0.064-1.734s-0.064-1.734-0.064-1.736c-0.102-1.13-1.012-2.184-2.116-2.452l-5.206-1.252c-0.352-0.084-0.83-0.518-0.968-0.914l-0.7-1.688c-0.158-0.324-0.128-0.966 0.060-1.274l2.794-4.568c0.598-0.98 0.474-2.368-0.33-3.268l-2.366-2.364c-0.826-0.734-2.282-0.866-3.226-0.29l-4.568 2.794c-0.286 0.174-0.902 0.24-1.33 0.036l-1.686-0.696c-0.34-0.118-0.772-0.594-0.856-0.946l-1.256-5.208c-0.266-1.104-1.32-2.012-2.452-2.116-0.004 0.002-0.698-0.062-1.738-0.062s-1.734 0.064-1.736 0.064c-1.13 0.102-2.184 1.012-2.452 2.116l-1.252 5.204c-0.084 0.352-0.518 0.83-0.914 0.968l-1.688 0.7c-0.3 0.146-0.988 0.114-1.274-0.060l-4.566-2.794c-0.946-0.576-2.37-0.476-3.268 0.328l-2.364 2.366c-0.764 0.858-0.888 2.246-0.29 3.226l2.794 4.568c0.188 0.308 0.218 0.95 0.036 1.33l-0.696 1.686c-0.118 0.34-0.594 0.774-0.946 0.858l-5.208 1.254c-1.104 0.266-2.012 1.32-2.116 2.452 0.004 0-0.060 0.694-0.060 1.734s0.064 1.734 0.064 1.736c0.102 1.13 1.012 2.184 2.116 2.452l5.204 1.252zM2 38c0-0.916 0.054-1.534 0.056-1.554 0.024-0.27 0.33-0.624 0.592-0.688l5.208-1.254c1.010-0.244 2.028-1.168 2.344-2.094l0.648-1.574c0.456-0.934 0.392-2.306-0.15-3.194l-2.794-4.566c-0.134-0.222-0.096-0.662 0.036-0.812l2.282-2.284c0.182-0.162 0.646-0.202 0.854-0.076l4.568 2.794c0.866 0.53 2.35 0.566 3.136 0.176l1.576-0.652c0.982-0.338 1.906-1.356 2.15-2.368l1.252-5.206c0.064-0.264 0.418-0.57 0.688-0.594 0.020 0 0.638-0.054 1.554-0.054s1.534 0.054 1.554 0.056c0.27 0.024 0.624 0.33 0.688 0.592l1.254 5.206c0.244 1.010 1.166 2.030 2.094 2.346l1.574 0.648c0.914 0.448 2.33 0.378 3.194-0.15l4.566-2.794c0.208-0.126 0.7-0.060 0.812 0.036l2.284 2.282c0.172 0.194 0.21 0.632 0.076 0.854l-2.794 4.568c-0.542 0.886-0.606 2.26-0.176 3.136l0.652 1.576c0.338 0.982 1.356 1.906 2.368 2.15l5.206 1.252c0.264 0.064 0.57 0.418 0.594 0.688 0 0.020 0.054 0.638 0.054 1.554s-0.054 1.534-0.056 1.554c-0.024 0.27-0.33 0.624-0.592 0.688l-5.208 1.254c-1.010 0.244-2.028 1.168-2.344 2.094l-0.648 1.574c-0.456 0.934-0.392 2.306 0.15 3.194l2.794 4.566c0.134 0.222 0.096 0.662-0.036 0.812l-2.282 2.284c-0.108 0.096-0.304 0.158-0.502 0.158-0.138 0-0.266-0.030-0.35-0.082l-4.568-2.794c-0.864-0.528-2.348-0.566-3.136-0.176l-1.576 0.652c-0.982 0.338-1.906 1.358-2.148 2.368l-1.254 5.206c-0.064 0.264-0.418 0.57-0.688 0.594-0.022 0-0.64 0.054-1.556 0.054s-1.534-0.054-1.554-0.056c-0.27-0.024-0.624-0.33-0.688-0.592l-1.254-5.208c-0.244-1.010-1.168-2.028-2.094-2.344l-1.574-0.648c-0.408-0.2-0.902-0.304-1.43-0.304-0.658 0-1.284 0.162-1.764 0.456l-4.566 2.794c-0.208 0.126-0.702 0.058-0.812-0.036l-2.284-2.284c-0.172-0.194-0.21-0.632-0.076-0.854l2.794-4.568c0.542-0.886 0.606-2.26 0.176-3.136l-0.652-1.576c-0.338-0.982-1.356-1.906-2.368-2.15l-5.206-1.252c-0.264-0.064-0.57-0.418-0.594-0.688 0-0.020-0.054-0.638-0.054-1.554zM26 49c6.066 0 11-4.934 11-11s-4.934-11-11-11-11 4.934-11 11 4.934 11 11 11zM26 29c4.962 0 9 4.038 9 9s-4.038 9-9 9-9-4.038-9-9 4.038-9 9-9zM54.954 10.628c-0.080 0.122-0.37 0.276-0.518 0.276l-3.722-0.036c-0.904 0-1.81 0.642-2.106 1.492 0 0-0.164 0.466-0.344 1.18s-0.256 1.202-0.256 1.202c-0.14 0.902 0.362 1.9 1.168 2.322l3.282 1.72c0.126 0.066 0.312 0.344 0.332 0.546l0.186 1.27c0.030 0.14-0.066 0.46-0.168 0.56l-2.644 2.592c-0.662 0.648-0.836 1.756-0.38 2.626l1.198 2c0.506 0.744 1.602 1.124 2.462 0.856l3.648-1.116c0.198 0 0.396 0.076 0.508 0.166l1.030 0.76c0.12 0.080 0.278 0.374 0.276 0.518l-0.036 3.704c-0.008 0.912 0.632 1.826 1.492 2.126 0 0 0.466 0.164 1.18 0.344s1.202 0.256 1.202 0.256c0.052 0.008 0.26 0.024 0.312 0.024 0.816 0 1.644-0.49 2.010-1.192l1.72-3.282c0.066-0.126 0.344-0.312 0.546-0.332l1.326-0.192c0.2 0 0.436 0.104 0.502 0.172l2.592 2.644c0.63 0.644 1.692 0.874 2.626 0.38l1.998-1.198c0.764-0.52 1.134-1.58 0.858-2.462l-1.104-3.534c-0.042-0.136 0.024-0.464 0.156-0.622l0.76-1.030c0.080-0.122 0.37-0.276 0.518-0.276l3.722 0.036c0.904 0 1.81-0.642 2.106-1.492 0 0 0.164-0.466 0.344-1.18s0.256-1.202 0.256-1.202c0.14-0.902-0.362-1.9-1.168-2.322l-3.282-1.72c-0.126-0.066-0.312-0.344-0.332-0.546l-0.184-1.266c-0.030-0.14 0.066-0.46 0.168-0.56l2.644-2.592c0.662-0.648 0.836-1.756 0.38-2.626l-1.198-2c-0.506-0.742-1.6-1.126-2.462-0.858l-3.65 1.116c-0.198 0-0.396-0.076-0.508-0.166l-1.030-0.76c-0.12-0.080-0.278-0.374-0.276-0.518l0.036-3.704c0.008-0.912-0.632-1.826-1.492-2.126 0 0-0.466-0.164-1.18-0.344s-1.202-0.256-1.202-0.256c-0.052-0.006-0.26-0.022-0.312-0.022-0.816 0-1.644 0.49-2.010 1.192l-1.72 3.282c-0.066 0.126-0.344 0.312-0.546 0.332l-1.326 0.19c-0.2 0-0.436-0.104-0.502-0.172l-2.592-2.644c-0.628-0.642-1.688-0.874-2.626-0.38l-2 1.196c-0.764 0.52-1.134 1.58-0.858 2.462l1.104 3.534c0.042 0.136-0.024 0.464-0.156 0.622l-0.758 1.030zM56.594 11.772l0.686-0.932c0.536-0.634 0.744-1.668 0.496-2.458l-1.102-3.532c-0.010-0.056 0.034-0.182 0.024-0.184l1.896-1.136 0.226 0.034 2.594 2.644c0.46 0.468 1.218 0.772 1.93 0.772 0.164 0 0.322-0.016 0.408-0.038l1.15-0.17c0.824-0.072 1.702-0.656 2.086-1.388l1.718-3.28c0.032-0.050 0.158-0.122 0.24-0.122 0.022 0.002 0.43 0.070 1.026 0.218 0.594 0.15 0.986 0.284 1.004 0.292 0.062 0.026 0.152 0.156 0.156 0.22l-0.036 3.704c-0.008 0.828 0.49 1.758 1.134 2.178l0.93 0.686c0.618 0.522 1.678 0.742 2.458 0.496l3.548-1.104c0.084 0 0.178 0.052 0.166 0.026l1.136 1.896c0.022 0.052 0 0.184-0.034 0.226l-2.644 2.594c-0.59 0.582-0.896 1.59-0.734 2.338l0.168 1.15c0.072 0.824 0.656 1.702 1.39 2.086l3.28 1.718c0.056 0.036 0.126 0.176 0.122 0.24-0.002 0.022-0.070 0.43-0.218 1.026-0.15 0.594-0.284 0.986-0.292 1.004-0.026 0.062-0.156 0.152-0.22 0.156l-3.724-0.036c-0.822 0-1.742 0.498-2.158 1.134l-0.684 0.93c-0.536 0.634-0.744 1.668-0.496 2.458l1.102 3.532c0.010 0.054-0.034 0.182-0.024 0.184l-1.896 1.136-0.226-0.034-2.594-2.644c-0.46-0.468-1.218-0.772-1.93-0.772-0.164 0-0.322 0.016-0.408 0.038l-1.15 0.17c-0.824 0.072-1.702 0.656-2.086 1.388l-1.718 3.28c-0.032 0.050-0.158 0.122-0.24 0.122v0c-0.022-0.002-0.43-0.070-1.026-0.218-0.594-0.15-0.986-0.284-1.004-0.292-0.062-0.026-0.152-0.156-0.156-0.22l0.036-3.704c0.008-0.828-0.49-1.758-1.134-2.178l-0.93-0.686c-0.444-0.376-1.098-0.6-1.75-0.6-0.252 0-0.492 0.036-0.71 0.104l-3.548 1.104c-0.086 0-0.18-0.046-0.166-0.026l-1.136-1.896c-0.022-0.052 0-0.184 0.034-0.226l2.644-2.594c0.59-0.582 0.896-1.59 0.734-2.338l-0.168-1.148c-0.072-0.824-0.656-1.702-1.39-2.086l-3.28-1.718c-0.056-0.036-0.126-0.176-0.122-0.24 0.002-0.022 0.070-0.43 0.218-1.026 0.15-0.594 0.284-0.986 0.292-1.004 0.026-0.062 0.156-0.152 0.22-0.156l3.724 0.036c0.822 0 1.742-0.498 2.158-1.134zM66 24c3.308 0 6-2.692 6-6s-2.692-6-6-6-6 2.692-6 6 2.692 6 6 6zM66 14c2.206 0 4 1.794 4 4s-1.794 4-4 4-4-1.794-4-4 1.794-4 4-4z" fill="#555555"></path>
</svg>
