<?xml version="1.0" encoding="utf-8"?>
<!-- Generated by IcoMoon.io -->
<!DOCTYPE svg PUBLIC "-//W3C//DTD SVG 1.1//EN" "http://www.w3.org/Graphics/SVG/1.1/DTD/svg11.dtd">
<svg version="1.1" xmlns="http://www.w3.org/2000/svg" xmlns:xlink="http://www.w3.org/1999/xlink" width="60" height="64" viewBox="0 0 60 64">
<g id="icomoon-ignore">
	<line stroke-width="1" x1="" y1="" x2="" y2="" stroke="#449FDB" opacity=""></line>
</g>
	<path d="M1.134 48c1.57 2.72 5.096 4.158 10.194 4.158 0 0 0 0 0.002 0 2.292 0 4.814-0.322 7.444-0.876 2.532 7.758 6.574 12.718 11.226 12.718s8.694-4.96 11.226-12.718c2.632 0.552 5.154 0.876 7.446 0.876 0 0 0 0 0 0 5.096 0 8.622-1.438 10.192-4.158 2.032-3.522 0.234-9.44-5.932-16 6.166-6.56 7.964-12.478 5.932-16-1.57-2.72-5.096-4.158-10.194-4.158-2.292 0-4.816 0.322-7.446 0.876-2.53-7.758-6.572-12.718-11.224-12.718s-8.694 4.96-11.226 12.718c-2.632-0.554-5.156-0.876-7.446-0.876-5.098 0-8.624 1.438-10.194 4.158-2.032 3.522-0.234 9.44 5.932 16-6.166 6.56-7.966 12.478-5.932 16zM30 62c-3.678 0-7.032-4.398-9.254-11.158 3.006-0.762 6.132-1.84 9.254-3.198 3.122 1.358 6.248 2.436 9.254 3.198-2.222 6.76-5.576 11.158-9.254 11.158zM18 32c0-2.328 0.124-4.594 0.336-6.786 1.786-1.244 3.674-2.456 5.664-3.606 1.968-1.136 3.982-2.154 6-3.066 2.018 0.91 4.032 1.928 6 3.066 1.99 1.148 3.876 2.36 5.664 3.606 0.212 2.192 0.336 4.458 0.336 6.786s-0.124 4.594-0.336 6.786c-1.786 1.244-3.674 2.456-5.664 3.606-1.968 1.136-3.982 2.154-6 3.066-2.018-0.91-4.032-1.928-6-3.066-1.99-1.148-3.876-2.36-5.664-3.606-0.212-2.192-0.336-4.458-0.336-6.786zM16.196 37.246c-2.292-1.722-4.368-3.49-6.172-5.246 1.804-1.756 3.88-3.524 6.172-5.246-0.118 1.708-0.196 3.45-0.196 5.246s0.078 3.538 0.196 5.246zM18.642 22.572c0.368-2.682 0.884-5.208 1.528-7.508 2.39 0.602 4.87 1.434 7.364 2.438-1.524 0.738-3.044 1.514-4.534 2.374-1.546 0.894-2.976 1.794-4.358 2.696zM32.464 17.502c2.494-1.004 4.974-1.836 7.364-2.438 0.644 2.3 1.16 4.826 1.528 7.508-1.38-0.902-2.812-1.802-4.358-2.696-1.488-0.86-3.008-1.636-4.534-2.374zM43.804 26.754c2.294 1.722 4.368 3.488 6.172 5.246-1.804 1.756-3.88 3.524-6.172 5.246 0.118-1.708 0.196-3.45 0.196-5.246s-0.078-3.538-0.196-5.246zM41.358 41.428c-0.368 2.682-0.884 5.208-1.528 7.508-2.39-0.602-4.87-1.434-7.364-2.438 1.526-0.736 3.046-1.514 4.536-2.374 1.544-0.894 2.974-1.794 4.356-2.696zM23 44.124c1.49 0.86 3.010 1.638 4.536 2.374-2.494 1.004-4.974 1.836-7.364 2.438-0.644-2.3-1.16-4.826-1.528-7.508 1.38 0.902 2.81 1.802 4.356 2.696zM57.134 47c-1.176 2.038-4.18 3.158-8.46 3.158-2.112 0-4.436-0.292-6.864-0.79 0.792-2.848 1.386-6.016 1.754-9.416 3.092-2.168 5.702-4.336 7.88-6.458 5.064 5.364 7.452 10.452 5.69 13.506zM48.672 13.842c4.28 0 7.286 1.122 8.46 3.158 1.764 3.054-0.626 8.142-5.69 13.506-2.178-2.12-4.788-4.29-7.88-6.458-0.368-3.4-0.962-6.568-1.754-9.416 2.428-0.498 4.754-0.79 6.864-0.79zM30 2c3.678 0 7.032 4.398 9.254 11.158-3.006 0.762-6.132 1.84-9.254 3.198-3.122-1.358-6.248-2.436-9.254-3.198 2.222-6.76 5.576-11.158 9.254-11.158zM2.866 17c1.176-2.038 4.18-3.158 8.46-3.158 2.112 0 4.436 0.292 6.864 0.79-0.792 2.848-1.386 6.016-1.754 9.416-3.092 2.168-5.702 4.336-7.88 6.458-5.064-5.364-7.452-10.452-5.69-13.506zM8.556 33.494c2.178 2.12 4.788 4.29 7.88 6.458 0.368 3.4 0.962 6.568 1.754 9.416-2.426 0.498-4.75 0.79-6.862 0.79 0 0-0.002 0-0.002 0-4.28 0-7.286-1.122-8.46-3.158-1.762-3.054 0.626-8.142 5.69-13.506zM30 37c2.756 0 5-2.242 5-5s-2.244-5-5-5-5 2.242-5 5 2.244 5 5 5zM30 29c1.654 0 3 1.346 3 3s-1.346 3-3 3-3-1.346-3-3 1.346-3 3-3z" fill="#555555"></path>
</svg>
