<?xml version="1.0" encoding="utf-8"?>
<!-- Generated by IcoMoon.io -->
<!DOCTYPE svg PUBLIC "-//W3C//DTD SVG 1.1//EN" "http://www.w3.org/Graphics/SVG/1.1/DTD/svg11.dtd">
<svg version="1.1" xmlns="http://www.w3.org/2000/svg" xmlns:xlink="http://www.w3.org/1999/xlink" width="84" height="64" viewBox="0 0 84 64">
<g id="icomoon-ignore">
	<line stroke-width="1" x1="" y1="" x2="" y2="" stroke="#449FDB" opacity=""></line>
</g>
	<path d="M3 34c-0.552 0-1 0.448-1 1v24c0 1.654 1.346 3 3 3h20c0.552 0 1-0.448 1-1s-0.448-1-1-1h-20c-0.552 0-1-0.448-1-1v-24c0-0.552-0.448-1-1-1zM81 34c-0.552 0-1 0.448-1 1v24c0 0.552-0.448 1-1 1h-42c-0.552 0-1 0.448-1 1s0.448 1 1 1h42c1.654 0 3-1.346 3-3v-24c0-0.552-0.448-1-1-1zM36 3c0 0.552 0.448 1 1 1h42c0.552 0 1 0.448 1 1v17.916c0 0.552 0.448 1 1 1s1-0.448 1-1v-17.916c0-1.654-1.346-3-3-3h-42c-0.552 0-1 0.448-1 1zM5 2c-1.654 0-3 1.346-3 3v17.916c0 0.552 0.448 1 1 1s1-0.448 1-1v-17.916c0-0.552 0.448-1 1-1h20c0.552 0 1-0.448 1-1s-0.448-1-1-1h-20zM83 27.916h-40.8c0.794-0.352 1.48-0.762 1.968-1.25 3.022-3.022 3.022-7.938 0-10.96-2.928-2.928-8.032-2.928-10.96 0-0.47 0.47-0.864 1.126-1.208 1.88v-16.586c0-0.552-0.448-1-1-1s-1 0.448-1 1v26.45c-3.406-1.404-9.402-4.288-10.632-6.774-0.8-1.616-0.922-3.444-0.346-5.152 0.578-1.708 1.784-3.086 3.398-3.886 0.496-0.246 0.698-0.844 0.454-1.34-0.248-0.496-0.844-0.7-1.34-0.454-2.094 1.036-3.658 2.826-4.406 5.040s-0.588 4.586 0.448 6.678c1.21 2.444 5.26 4.782 8.55 6.354h-25.126c-0.552 0-1 0.448-1 1s0.448 1 1 1h18.692c-0.774 0.348-1.444 0.75-1.922 1.228-3.022 3.022-3.022 7.938 0 10.96 1.464 1.464 3.41 2.27 5.48 2.27s4.016-0.806 5.48-2.27c0.496-0.496 0.912-1.198 1.27-2.010v22.906c0 0.552 0.448 1 1 1s1-0.448 1-1v-32.61c3.416 1.412 9.346 4.276 10.57 6.748 0.8 1.616 0.922 3.444 0.346 5.152-0.578 1.708-1.784 3.086-3.398 3.886-0.496 0.246-0.698 0.844-0.454 1.34 0.174 0.352 0.53 0.556 0.898 0.556 0.148 0 0.3-0.034 0.442-0.104 2.094-1.036 3.658-2.826 4.406-5.040s0.588-4.584-0.448-6.678c-1.204-2.432-5.222-4.76-8.504-6.334h47.142c0.552 0 1-0.448 1-1s-0.448-1-1-1zM34.622 17.122c1.086-1.086 2.53-1.684 4.066-1.684s2.98 0.598 4.066 1.684c2.242 2.242 2.242 5.89 0 8.132-1.708 1.708-7.58 2.404-10.734 2.6 0.224-3.728 1.044-9.174 2.602-10.732zM27.316 40.69c-2.172 2.172-5.96 2.172-8.132 0-2.242-2.242-2.242-5.89 0-8.132 1.708-1.708 7.58-2.404 10.734-2.6-0.224 3.728-1.044 9.174-2.602 10.732z" fill="#555555"></path>
</svg>
