<?xml version="1.0" encoding="utf-8"?>
<!-- Generated by IcoMoon.io -->
<!DOCTYPE svg PUBLIC "-//W3C//DTD SVG 1.1//EN" "http://www.w3.org/Graphics/SVG/1.1/DTD/svg11.dtd">
<svg version="1.1" xmlns="http://www.w3.org/2000/svg" xmlns:xlink="http://www.w3.org/1999/xlink" width="64" height="64" viewBox="0 0 64 64">
<g id="icomoon-ignore">
	<line stroke-width="1" x1="" y1="" x2="" y2="" stroke="#449FDB" opacity=""></line>
</g>
	<path d="M0.068 33.336c0.708 17.022 14.738 30.664 31.932 30.664s31.224-13.642 31.932-30.664c0.038-0.106 0.068-0.216 0.068-0.336 0-0.072-0.026-0.134-0.040-0.2 0.006-0.268 0.040-0.53 0.040-0.8 0-17.644-14.356-32-32-32s-32 14.356-32 32c0 0.27 0.034 0.532 0.040 0.8-0.014 0.066-0.040 0.128-0.040 0.2 0 0.12 0.030 0.23 0.068 0.336zM49.842 45.484c-2.638-1.104-5.47-1.958-8.43-2.542 0.316-2.906 0.502-5.924 0.56-8.94h9.96c-0.182 4.108-0.912 7.986-2.090 11.482zM53.93 34h7.968c-0.372 5.612-2.276 10.806-5.326 15.158-1.518-1.066-3.154-2.038-4.914-2.88 1.29-3.738 2.084-7.886 2.272-12.278zM24.778 44.572c2.356-0.368 4.774-0.572 7.222-0.572s4.866 0.204 7.22 0.572c-1.388 10.67-4.42 17.428-7.22 17.428s-5.832-6.758-7.222-17.428zM27.816 61.328c-5.502-1.764-10.156-6.942-12.964-13.968 2.492-1.050 5.172-1.87 7.98-2.434 0.918 6.992 2.596 13.084 4.984 16.402zM24.548 21.418c2.434 0.376 4.93 0.582 7.452 0.582s5.018-0.206 7.452-0.582c0.344 3.24 0.548 6.776 0.548 10.582h-16c0-3.806 0.204-7.342 0.548-10.582zM39.97 34c-0.056 3.050-0.236 5.922-0.52 8.582-2.432-0.376-4.926-0.582-7.45-0.582s-5.018 0.206-7.452 0.582c-0.346-3.252-0.474-6.114-0.52-8.582h15.942zM41.17 44.926c2.808 0.564 5.486 1.384 7.98 2.434-2.808 7.026-7.462 12.204-12.964 13.968 2.386-3.318 4.064-9.41 4.984-16.402zM42 32c0-3.672-0.204-7.392-0.588-10.94 2.96-0.584 5.792-1.44 8.43-2.542 1.368 4.058 2.158 8.63 2.158 13.482h-10zM41.17 19.074c-0.92-6.992-2.596-13.086-4.986-16.402 5.502 1.764 10.156 6.942 12.964 13.968-2.492 1.050-5.17 1.872-7.978 2.434zM39.222 19.428c-2.356 0.368-4.774 0.572-7.222 0.572s-4.866-0.204-7.222-0.572c1.39-10.67 4.422-17.428 7.222-17.428s5.832 6.758 7.222 17.428zM22.83 19.074c-2.808-0.564-5.486-1.384-7.98-2.434 2.808-7.026 7.462-12.204 12.964-13.968-2.386 3.318-4.064 9.41-4.984 16.402zM22.588 21.060c-0.384 3.548-0.588 7.268-0.588 10.94h-10c0-4.852 0.79-9.424 2.158-13.484 2.638 1.104 5.47 1.958 8.43 2.544zM22.028 34c0.058 3.016 0.244 6.034 0.56 8.942-2.96 0.584-5.792 1.44-8.43 2.542-1.178-3.496-1.908-7.374-2.090-11.484h9.96zM12.34 46.278c-1.76 0.844-3.394 1.814-4.912 2.88-3.050-4.352-4.954-9.544-5.326-15.158h7.968c0.188 4.392 0.982 8.54 2.27 12.278zM8.626 50.76c1.37-0.958 2.834-1.844 4.414-2.61 2.008 4.97 4.898 9.096 8.372 11.886-5.052-1.916-9.458-5.136-12.786-9.276zM42.588 60.034c3.476-2.788 6.364-6.916 8.372-11.886 1.58 0.768 3.044 1.652 4.414 2.61-3.328 4.142-7.734 7.362-12.786 9.276zM54 32c0-5.134-0.856-9.974-2.34-14.278 1.76-0.844 3.396-1.814 4.914-2.88 3.408 4.868 5.426 10.778 5.426 17.158h-8zM55.376 13.24c-1.37 0.958-2.834 1.842-4.414 2.61-2.008-4.97-4.898-9.098-8.372-11.886 5.050 1.916 9.456 5.136 12.786 9.276zM21.412 3.966c-3.476 2.788-6.364 6.916-8.372 11.886-1.582-0.768-3.044-1.654-4.414-2.612 3.328-4.14 7.734-7.36 12.786-9.274zM7.428 14.842c1.516 1.066 3.152 2.036 4.912 2.88-1.484 4.304-2.34 9.144-2.34 14.278h-8c0-6.38 2.018-12.29 5.428-17.158z" fill="#555555"></path>
</svg>
