<?xml version="1.0" encoding="utf-8"?>
<!-- Generated by IcoMoon.io -->
<!DOCTYPE svg PUBLIC "-//W3C//DTD SVG 1.1//EN" "http://www.w3.org/Graphics/SVG/1.1/DTD/svg11.dtd">
<svg version="1.1" xmlns="http://www.w3.org/2000/svg" xmlns:xlink="http://www.w3.org/1999/xlink" width="50" height="64" viewBox="0 0 50 64">
<g id="icomoon-ignore">
	<line stroke-width="1" x1="" y1="" x2="" y2="" stroke="#449FDB" opacity=""></line>
</g>
	<path d="M27.104 44c11.58 0 21-9.42 21-21s-9.42-21-21-21-21 9.42-21 21 9.42 21 21 21zM27.104 4c10.476 0 19 8.524 19 19s-8.524 19-19 19-19-8.524-19-19 8.522-19 19-19zM18.104 56c-2.282 0-4 1.718-4 4v3c0 0.552 0.448 1 1 1h24c0.552 0 1-0.448 1-1v-2.85c0-2.328-1.758-4.15-4-4.15h-18zM38.104 60.15v1.85h-22v-2c0-1.178 0.822-2 2-2h18c1.14 0 2 0.924 2 2.15zM26.11 49.956c0 0.012-0.006 0.020-0.006 0.032v3.208c0 0.552 0.448 1 1 1s1-0.448 1-1v-3.208c0-0.014-0.008-0.026-0.008-0.040 6.466-0.258 12.536-2.752 17.276-7.162l2.36 2.358c0.39 0.39 1.024 0.39 1.414 0s0.39-1.024 0-1.414l-3.052-3.052c-0.39-0.39-1.024-0.39-1.414 0-4.724 4.722-11.002 7.322-17.68 7.322s-12.956-2.6-17.678-7.322-7.322-11-7.322-17.678 2.6-12.956 7.322-17.678c0.39-0.39 0.39-1.024 0-1.414l-3.052-3.052c-0.39-0.39-1.024-0.39-1.414 0s-0.39 1.024 0 1.414l2.358 2.36c-4.662 5.006-7.214 11.494-7.214 18.37 0 7.21 2.808 13.992 7.908 19.092 4.888 4.888 11.326 7.642 18.202 7.864z" fill="#555555"></path>
</svg>
