<?xml version="1.0" encoding="utf-8"?>
<!-- Generated by IcoMoon.io -->
<!DOCTYPE svg PUBLIC "-//W3C//DTD SVG 1.1//EN" "http://www.w3.org/Graphics/SVG/1.1/DTD/svg11.dtd">
<svg version="1.1" xmlns="http://www.w3.org/2000/svg" xmlns:xlink="http://www.w3.org/1999/xlink" width="64" height="64" viewBox="0 0 64 64">
<g id="icomoon-ignore">
	<line stroke-width="1" x1="" y1="" x2="" y2="" stroke="#449FDB" opacity=""></line>
</g>
	<path d="M32-0.068c-17.684 0-32.068 14.384-32.068 32.068s14.384 32.068 32.068 32.068 32.068-14.384 32.068-32.068-14.384-32.068-32.068-32.068zM32 61.932c-16.504 0-29.932-13.428-29.932-29.932s13.428-29.932 29.932-29.932 29.932 13.428 29.932 29.932-13.428 29.932-29.932 29.932zM36.068 19.124c0-0.59-0.478-1.068-1.068-1.068h-8.52c-0.052 0-0.094 0.022-0.144 0.030-0.114-0.004-0.22-0.030-0.336-0.030-4.45 0-8.068 3.086-8.068 6.88s3.62 6.88 8.068 6.88c0.614 0 1.206-0.070 1.782-0.182-0.15 0.582-0.232 1.25-0.132 1.996 0.094 0.698 0.372 1.366 0.736 2.016-0.742-0.13-1.506-0.218-2.302-0.218-5.504 0-9.982 3.31-9.982 7.38s4.478 7.38 9.982 7.38c5.506 0 9.984-3.31 9.984-7.38 0-2.092-1.196-3.974-3.094-5.318-0.076-0.192-0.19-0.37-0.374-0.494-1.696-1.148-2.646-2.368-2.826-3.624-0.2-1.398 0.624-2.42 0.666-2.472 0.090-0.106 0.152-0.226 0.194-0.35 2.072-1.246 3.436-3.294 3.436-5.616 0-1.842-0.864-3.508-2.25-4.744h3.18c0.59 0.004 1.068-0.476 1.068-1.066zM26.084 48.056c-4.326 0-7.846-2.354-7.846-5.244s3.52-5.244 7.846-5.244 7.848 2.354 7.848 5.244-3.522 5.244-7.848 5.244zM26 29.682c-3.27 0-5.932-2.128-5.932-4.744s2.662-4.744 5.932-4.744 5.932 2.128 5.932 4.744-2.662 4.744-5.932 4.744zM50.624 24h-4.682v-4.75c0-0.59-0.478-1.068-1.068-1.068s-1.068 0.478-0.874 0.818v5h-4.876c-0.59-0.068-1.068 0.41-1.068 1s0.478 1.068 1.068 1h4.876v4.75c0 0.59 0.286 1.068 0.876 1.068s1.068-0.478 1.068-1.068v-4.75h4.682c0.59 0.068 1.068-0.41 1.068-1s-0.48-1.068-1.070-1z" fill="#555555"></path>
</svg>
