<?xml version="1.0" encoding="utf-8"?>
<!-- Generated by IcoMoon.io -->
<!DOCTYPE svg PUBLIC "-//W3C//DTD SVG 1.1//EN" "http://www.w3.org/Graphics/SVG/1.1/DTD/svg11.dtd">
<svg version="1.1" xmlns="http://www.w3.org/2000/svg" xmlns:xlink="http://www.w3.org/1999/xlink" width="62" height="64" viewBox="0 0 62 64">
<g id="icomoon-ignore">
	<line stroke-width="1" x1="" y1="" x2="" y2="" stroke="#449FDB" opacity=""></line>
</g>
	<path d="M57 22c0.552 0 1-0.448 1-1s-0.448-1-1-1h-15v-15c0-0.552-0.448-1-1-1s-1 0.448-1 1v15h-18v-15c0-0.552-0.448-1-1-1s-1 0.448-1 1v15h-15c-0.552 0-1 0.448-1 1s0.448 1 1 1h15v18h-15c-0.552 0-1 0.448-1 1s0.448 1 1 1h15v17c0 0.552 0.448 1 1 1s1-0.448 1-1v-17h18v17c0 0.552 0.448 1 1 1s1-0.448 1-1v-17h15c0.552 0 1-0.448 1-1s-0.448-1-1-1h-15v-18h15zM40 40h-18v-18h18v18zM62 61v-58c0-1.654-1.346-3-3-3h-56c-1.654 0-3 1.346-3 3v58c0 1.654 1.346 3 3 3h56c1.654 0 3-1.346 3-3zM2 61v-58c0-0.552 0.45-1 1-1h56c0.55 0 1 0.448 1 1v58c0 0.552-0.45 1-1 1h-56c-0.55 0-1-0.448-1-1z" fill="#555555"></path>
</svg>
