<?xml version="1.0" encoding="utf-8"?>
<!-- Generated by IcoMoon.io -->
<!DOCTYPE svg PUBLIC "-//W3C//DTD SVG 1.1//EN" "http://www.w3.org/Graphics/SVG/1.1/DTD/svg11.dtd">
<svg version="1.1" xmlns="http://www.w3.org/2000/svg" xmlns:xlink="http://www.w3.org/1999/xlink" width="64" height="64" viewBox="0 0 64 64">
<g id="icomoon-ignore">
	<line stroke-width="1" x1="" y1="" x2="" y2="" stroke="#449FDB" opacity=""></line>
</g>
	<path d="M32-0.068c-17.682 0-32.070 14.384-32.070 32.068s14.388 32.068 32.070 32.068 32.070-14.384 32.070-32.068-14.388-32.068-32.070-32.068zM32 61.932c-16.504 0-29.93-13.428-29.93-29.932s13.426-29.932 29.93-29.932 29.93 13.428 29.93 29.932-13.426 29.932-29.93 29.932zM21 33c2.206 0 4-1.794 4-4s-1.794-4-4-4-4 1.794-4 4 1.794 4 4 4zM21 27c1.102 0 2 0.896 2 2s-0.898 2-2 2-2-0.896-2-2 0.898-2 2-2zM43 33c2.206 0 4-1.794 4-4s-1.794-4-4-4-4 1.794-4 4 1.794 4 4 4zM43 27c1.102 0 2 0.896 2 2s-0.898 2-2 2-2-0.896-2-2 0.898-2 2-2zM45.646 44.15c-3.392 3.674-8.194 5.782-13.176 5.782-5.060 0-9.912-2.162-13.312-5.934-0.396-0.436-1.074-0.474-1.51-0.076-0.438 0.394-0.474 1.070-0.078 1.51 3.806 4.218 9.236 6.636 14.9 6.636 5.576 0 10.952-2.358 14.746-6.468 0.4-0.434 0.374-1.11-0.060-1.51s-1.11-0.376-1.51 0.060z" fill="#555555"></path>
</svg>
