<?xml version="1.0" encoding="utf-8"?>
<!-- Generated by IcoMoon.io -->
<!DOCTYPE svg PUBLIC "-//W3C//DTD SVG 1.1//EN" "http://www.w3.org/Graphics/SVG/1.1/DTD/svg11.dtd">
<svg version="1.1" xmlns="http://www.w3.org/2000/svg" xmlns:xlink="http://www.w3.org/1999/xlink" width="64" height="64" viewBox="0 0 64 64">
<g id="icomoon-ignore">
	<line stroke-width="1" x1="" y1="" x2="" y2="" stroke="#449FDB" opacity=""></line>
</g>
	<path d="M32 64.068c17.684 0 32.068-14.384 32.068-32.068s-14.384-32.068-32.068-32.068-32.068 14.384-32.068 32.068 14.384 32.068 32.068 32.068zM32 2.068c16.504 0 29.932 13.428 29.932 29.932s-13.428 29.932-29.932 29.932-29.932-13.428-29.932-29.932 13.428-29.932 29.932-29.932zM19.974 52.828c0.168 0.098 0.352 0.142 0.536 0.142 0.362 0 0.712-0.182 0.914-0.514l10.576-17.398 10.578 17.398c0.202 0.332 0.552 0.514 0.914 0.514 0.184 0 0.368-0.044 0.536-0.142 7.766-4.494 12.042-11.536 12.042-19.828 0-0.59-0.478-1.068-1.068-1h-21.194l10.622-19.386c0.28-0.51 0.102-1.15-0.402-1.442-7.328-4.238-16.728-4.238-24.052 0-0.506 0.29-0.684 0.932-0.404 1.442l10.62 19.386h-21.192c-0.59-0.068-1.068 0.41-1.068 1 0 8.292 4.276 15.334 12.042 19.828zM53.904 34c-0.338 6.786-3.868 12.536-10.052 16.436l-9.952-16.436h20.004zM42.040 12.522l-10.040 18.26-10.038-18.26c6.212-3.216 13.862-3.216 20.078 0zM30.1 34l-9.95 16.436c-6.186-3.898-9.716-9.648-10.054-16.436h20.004z" fill="#555555"></path>
</svg>
