<?xml version="1.0" encoding="utf-8"?>
<!-- Generated by IcoMoon.io -->
<!DOCTYPE svg PUBLIC "-//W3C//DTD SVG 1.1//EN" "http://www.w3.org/Graphics/SVG/1.1/DTD/svg11.dtd">
<svg version="1.1" xmlns="http://www.w3.org/2000/svg" xmlns:xlink="http://www.w3.org/1999/xlink" width="74" height="64" viewBox="0 0 74 64">
<g id="icomoon-ignore">
	<line stroke-width="1" x1="" y1="" x2="" y2="" stroke="#449FDB" opacity=""></line>
</g>
	<path d="M54 0c-4.952 0-9.712 1.842-13.408 5.19-1.404 1.27-2.606 2.714-3.592 4.308-0.986-1.594-2.188-3.038-3.592-4.31-3.696-3.346-8.456-5.188-13.408-5.188-11.028 0-20 8.972-20 20 0 7.444 2.316 13.32 7.742 19.65 7.884 9.2 27.838 23.24 28.684 23.834 0.172 0.122 0.374 0.182 0.574 0.182s0.402-0.060 0.574-0.182c0.846-0.594 20.8-14.634 28.686-23.834 5.424-6.33 7.74-12.206 7.74-19.65 0-11.028-8.972-20-20-20zM64.742 38.35c-6.99 8.152-24.36 20.682-27.742 23.090-3.382-2.408-20.752-14.938-27.74-23.090-5.090-5.938-7.26-11.426-7.26-18.35 0-9.926 8.076-18 18-18 4.454 0 8.74 1.658 12.064 4.67 1.676 1.52 3.036 3.312 4.040 5.328 0.34 0.68 1.452 0.68 1.792 0 1.004-2.016 2.364-3.808 4.040-5.326 3.324-3.014 7.61-4.672 12.064-4.672 9.924 0 18 8.074 18 18 0 6.924-2.17 12.412-7.258 18.35z" fill="#555555"></path>
</svg>
