<?xml version="1.0" encoding="utf-8"?>
<!-- Generated by IcoMoon.io -->
<!DOCTYPE svg PUBLIC "-//W3C//DTD SVG 1.1//EN" "http://www.w3.org/Graphics/SVG/1.1/DTD/svg11.dtd">
<svg version="1.1" xmlns="http://www.w3.org/2000/svg" xmlns:xlink="http://www.w3.org/1999/xlink" width="64" height="64" viewBox="0 0 64 64">
<g id="icomoon-ignore">
	<line stroke-width="1" x1="" y1="" x2="" y2="" stroke="#449FDB" opacity=""></line>
</g>
	<path d="M58.386 10.53c-7.258-7.192-18.864-7.342-26.382-0.576-7.52-6.766-19.122-6.616-26.384 0.576-7.482 7.408-7.482 19.418 0 26.83 2.138 2.118 22.106 21.882 22.106 21.882 2.366 2.344 6.192 2.344 8.556 0 0 0 21.864-21.644 22.106-21.882 7.484-7.412 7.484-19.422-0.002-26.83zM55.536 34.536l-22.106 21.882c-0.786 0.782-2.068 0.782-2.85 0l-22.106-21.882c-5.9-5.84-5.9-15.342 0-21.182 5.688-5.63 14.832-5.828 20.818-0.444l2.712 2.44 2.71-2.44c5.988-5.384 15.132-5.188 20.82 0.444 5.9 5.838 5.9 15.34 0.002 21.182zM18.506 15.002c0.554 0 1 0.448 1 1s-0.448 1-1 1h-0.002c-3.588 0-6.498 2.91-6.498 6.498v0.002c0 0.552-0.448 1-1 1s-1-0.448-1-1v0c0-4.692 3.802-8.494 8.492-8.498 0.004 0 0.004-0.002 0.008-0.002z" fill="#555555"></path>
</svg>
