<?xml version="1.0" encoding="utf-8"?>
<!-- Generated by IcoMoon.io -->
<!DOCTYPE svg PUBLIC "-//W3C//DTD SVG 1.1//EN" "http://www.w3.org/Graphics/SVG/1.1/DTD/svg11.dtd">
<svg version="1.1" xmlns="http://www.w3.org/2000/svg" xmlns:xlink="http://www.w3.org/1999/xlink" width="56" height="64" viewBox="0 0 56 64">
<g id="icomoon-ignore">
	<line stroke-width="1" x1="" y1="" x2="" y2="" stroke="#449FDB" opacity=""></line>
</g>
	<path d="M56 18.802c0-12.652-9.158-18.802-28-18.802s-28 6.15-28 18.802c0 14.55 26.346 31.336 27.466 32.042 0.002 0.002 0.006 0 0.010 0.002 0.022 0.014 0.046 0.014 0.070 0.026 0.144 0.076 0.296 0.128 0.454 0.128s0.31-0.052 0.454-0.126c0.022-0.012 0.048-0.012 0.070-0.026 0.002-0.002 0.006 0 0.010-0.002 1.12-0.708 27.466-17.492 27.466-32.044zM36 18.802c0 11.12-5.752 24.242-8 28.946-2.248-4.702-8-17.818-8-28.946 0-15.060 4.566-16.802 8-16.802s8 1.742 8 16.802zM18 18.802c0 9.594 3.958 20.282 6.662 26.472-5.484-5.794-14.662-16.912-14.662-26.472 0-9.38 3.836-14.654 11.954-16.264-2.648 2.896-3.954 8.284-3.954 16.264zM38 18.802c0-7.98-1.304-13.368-3.954-16.264 8.118 1.61 11.954 6.886 11.954 16.264 0 9.56-9.178 20.676-14.662 26.472 2.704-6.188 6.662-16.878 6.662-26.472zM2 18.802c0-7.942 3.974-12.94 12.312-15.264-4.228 3.064-6.312 8.128-6.312 15.264 0 8.406 6.27 17.584 11.676 23.946-7.716-6.136-17.676-15.66-17.676-23.946zM36.324 42.748c5.406-6.362 11.676-15.538 11.676-23.946 0-7.136-2.084-12.202-6.312-15.264 8.338 2.324 12.312 7.322 12.312 15.264 0 8.286-9.96 17.81-17.676 23.946zM23 54c-0.552 0-1 0.448-1 1v6c0 1.682 1.318 3 3 3h6c1.682 0 3-1.318 3-3v-6c0-0.552-0.448-1-1-1h-10zM32 61c0 0.588-0.412 1-1 1h-6c-0.588 0-1-0.412-1-1v-5h8v5z" fill="#555555"></path>
</svg>
