<?xml version="1.0" encoding="utf-8"?>
<!-- Generated by IcoMoon.io -->
<!DOCTYPE svg PUBLIC "-//W3C//DTD SVG 1.1//EN" "http://www.w3.org/Graphics/SVG/1.1/DTD/svg11.dtd">
<svg version="1.1" xmlns="http://www.w3.org/2000/svg" xmlns:xlink="http://www.w3.org/1999/xlink" width="42" height="64" viewBox="0 0 42 64">
<g id="icomoon-ignore">
	<line stroke-width="1" x1="" y1="" x2="" y2="" stroke="#449FDB" opacity=""></line>
</g>
	<path d="M42.042 1c0-0.552-0.448-1-1-1h-40.084c-0.552 0-1 0.448-1 1s0.446 1 1 1h40.086c0.552 0 0.998-0.448 0.998-1zM40 12.224v-7.224c0-0.552-0.448-1-1-1h-35.836c-0.552 0-1 0.448-1 1v7.224c0 9.952 7.616 16.7 12.028 19.772-5.058 3.484-12.192 10.114-12.192 19.78v7.224c0 0.552 0.448 1 1 1h36c0.552 0 1-0.448 1-1v-7.166c0-9.924-7.726-16.73-12.19-19.832 5.058-3.484 12.19-10.112 12.19-19.778zM21 48.38l9.62 9.62h-19.24l9.62-9.62zM25.464 31.156c-0.29 0.182-0.464 0.502-0.464 0.844s0.174 0.662 0.464 0.844c3.77 2.39 12.536 9.026 12.536 18.99v6.166h-4.576c-0.018-0.022-0.026-0.050-0.046-0.070l-11.378-11.378v-1.552c0-0.552-0.448-1-1-1s-1 0.448-1 1v1.552l-11.378 11.378c-0.020 0.020-0.028 0.048-0.046 0.070h-4.576v-6.224c0-9.554 7.854-15.962 12.536-18.93 0.29-0.184 0.464-0.504 0.464-0.846s-0.174-0.662-0.464-0.844c-3.72-2.36-12.536-8.926-12.536-18.932v-6.224h34v6.224c0 9.556-7.854 15.962-12.536 18.932zM31.082 17.944h-19.628c-0.358 0-0.69 0.192-0.868 0.502-0.178 0.312-0.176 0.694 0.004 1.004 2.374 4.042 5.84 6.516 9.51 9.138l0.318 0.226c0.174 0.124 0.376 0.186 0.582 0.186s0.408-0.062 0.582-0.186c0.524-0.374 1.052-0.742 1.58-1.11 3.278-2.288 6.668-4.652 8.782-8.254 0.182-0.308 0.184-0.692 0.006-1.002-0.18-0.312-0.51-0.504-0.868-0.504zM22.016 26.062c-0.338 0.236-0.676 0.472-1.014 0.71-3.010-2.15-5.67-4.084-7.692-6.83h15.886c-1.882 2.424-4.468 4.228-7.18 6.12zM0.958 64h40.086c0.552 0 1-0.448 1-1s-0.448-1-1-1h-40.086c-0.552 0-1 0.448-1 1s0.446 1 1 1zM21 38c-0.552 0-1 0.448-1 1v2c0 0.552 0.448 1 1 1s1-0.448 1-1v-2c0-0.552-0.448-1-1-1zM21 32c-0.552 0-1 0.448-1 1v2c0 0.552 0.448 1 1 1s1-0.448 1-1v-2c0-0.552-0.448-1-1-1z" fill="#555555"></path>
</svg>
