<?xml version="1.0" encoding="utf-8"?>
<!-- Generated by IcoMoon.io -->
<!DOCTYPE svg PUBLIC "-//W3C//DTD SVG 1.1//EN" "http://www.w3.org/Graphics/SVG/1.1/DTD/svg11.dtd">
<svg version="1.1" xmlns="http://www.w3.org/2000/svg" xmlns:xlink="http://www.w3.org/1999/xlink" width="64" height="64" viewBox="0 0 64 64">
<g id="icomoon-ignore">
	<line stroke-width="1" x1="" y1="" x2="" y2="" stroke="#449FDB" opacity=""></line>
</g>
	<path d="M29.366 29.396c0.234 0 0.47-0.082 0.66-0.248l22.634-19.844-1.32-1.504-22.634 19.842c-0.416 0.364-0.458 0.996-0.092 1.412 0.198 0.226 0.474 0.342 0.752 0.342zM20.376 64c12.284 0 19.624-9.66 19.624-19 0-2.692-0.644-5.658-1.596-7.584l9.044-4.522c0.338-0.17 0.552-0.516 0.552-0.894v-8h6c0.022 0 0.204-0.012 0.226-0.012 1.332-0.090 1.73-0.514 1.774-1.988v-8h6c0.258 0 0.436 0.028 0.556 0.046 0.242 0.038 0.694 0.108 1.086-0.244 0.404-0.36 0.386-0.816 0.37-1.218-0.004-0.144-0.012-0.334-0.012-0.584v-9.062c0-1.62-1.318-2.938-2.938-2.938h-7.75c-0.708 0-1.396 0.258-1.938 0.728l-26.374 23.12c-1.298-0.26-3.26-0.598-4.626-0.598-11.234 0-20.374 9.14-20.374 20.374s9.14 20.376 20.376 20.376zM20.376 25.25c1.002 0 2.718 0.24 4.708 0.656 0.31 0.068 0.628-0.020 0.864-0.226l26.742-23.444c0.174-0.152 0.396-0.236 0.622-0.236h7.75c0.518 0 0.938 0.42 0.938 0.938v9.062h-7c-0.552 0-1 0.448-1 1v9h-7c-0.552 0-1 0.448-1 1v8.382l-9.448 4.724c-0.262 0.13-0.454 0.372-0.524 0.656s-0.012 0.586 0.16 0.824c0.88 1.214 1.812 4.228 1.812 7.414 0 8.356-6.592 17-17.624 17-10.132 0-18.376-8.244-18.376-18.376s8.244-18.374 18.376-18.374zM17 54c3.86 0 7-3.14 7-7s-3.14-7-7-7-7 3.14-7 7 3.14 7 7 7zM17 42c2.756 0 5 2.244 5 5s-2.244 5-5 5-5-2.244-5-5 2.244-5 5-5z" fill="#555555"></path>
</svg>
