<?xml version="1.0" encoding="utf-8"?>
<!-- Generated by IcoMoon.io -->
<!DOCTYPE svg PUBLIC "-//W3C//DTD SVG 1.1//EN" "http://www.w3.org/Graphics/SVG/1.1/DTD/svg11.dtd">
<svg version="1.1" xmlns="http://www.w3.org/2000/svg" xmlns:xlink="http://www.w3.org/1999/xlink" width="64" height="64" viewBox="0 0 64 64">
<g id="icomoon-ignore">
	<line stroke-width="1" x1="" y1="" x2="" y2="" stroke="#449FDB" opacity=""></line>
</g>
	<path d="M44.008 0c-11.046 0-20 8.956-20 20 0 2.57 0.538 5.002 1.426 7.258l-24.298 24.296c-0.702 0.704-1.136 1.372-1.136 2.446v6c0 2.14 1.858 4 4 4h6c1.072 0 1.75-0.43 2.452-1.128l2.87-2.872h4.686c2.208 0 4-1.792 4-4v-4h4c2.208 0 4-1.792 4-4v-4.688l4.738-4.742c2.258 0.89 4.688 1.43 7.262 1.43 11.042 0 20-8.956 20-20s-8.958-20-20-20zM44.008 36c-2.96 0-5.704-0.86-8.082-2.264l-0.688 0.686-6.060 6.062c-0.75 0.75-1.172 1.766-1.172 2.828v4.688h-4c-2.208 0-4 1.79-4 4v4h-4.684c-1.060 0-2.078 0.422-2.828 1.172l-2.836 2.836-5.652-0.008-0.006-5.7 23.33-23.288c0 0 0 0.002 0.002 0.004l2.938-2.938c-1.404-2.378-2.264-5.12-2.264-8.080 0-8.836 7.166-16 16-16s16 7.164 16 16-7.162 16.002-15.998 16.002zM55.64 16.478c-2.242-3.124-4.972-5.85-8.11-8.108-0.51-0.37-1.17-0.462-1.764-0.254-2.778 0.978-4.68 2.878-5.652 5.656-0.074 0.208-0.11 0.424-0.11 0.638 0 0.398 0.124 0.792 0.364 1.126 2.25 3.128 4.976 5.856 8.106 8.106 0.512 0.368 1.168 0.462 1.762 0.256 2.782-0.972 4.684-2.876 5.66-5.656 0.074-0.208 0.11-0.424 0.11-0.638-0.002-0.398-0.128-0.792-0.366-1.126zM49.64 22.020c-2.956-2.126-5.53-4.7-7.64-7.586 0.774-2.206 2.222-3.654 4.364-4.442 2.958 2.13 5.528 4.698 7.632 7.622-0.782 2.19-2.226 3.63-4.356 4.406z" fill="#555555"></path>
</svg>
