<?xml version="1.0" encoding="utf-8"?>
<!-- Generated by IcoMoon.io -->
<!DOCTYPE svg PUBLIC "-//W3C//DTD SVG 1.1//EN" "http://www.w3.org/Graphics/SVG/1.1/DTD/svg11.dtd">
<svg version="1.1" xmlns="http://www.w3.org/2000/svg" xmlns:xlink="http://www.w3.org/1999/xlink" width="64" height="64" viewBox="0 0 64 64">
<g id="icomoon-ignore">
	<line stroke-width="1" x1="" y1="" x2="" y2="" stroke="#449FDB" opacity=""></line>
</g>
	<path d="M41.364 7.464c-0.946-0.944-2.2-1.464-3.536-1.464s-2.59 0.52-3.54 1.466l-2.82 2.824c-0.946 0.944-1.468 2.2-1.468 3.538 0 0.942 0.258 1.844 0.742 2.626l-27.154 10.878c-1.816 0.798-3.118 2.436-3.484 4.378-0.37 1.954 0.25 3.958 1.668 5.374l25.44 25.16c1.096 1.096 2.552 1.718 4.090 1.754 0.036 0.002 0.12 0.002 0.156 0.002 0.404 0 0.814-0.042 1.22-0.124 1.988-0.412 3.616-1.786 4.354-3.656l10.684-26.752c0.804 0.53 1.75 0.814 2.734 0.814 1.34 0 2.594-0.522 3.536-1.466l2.814-2.816c0.954-0.948 1.476-2.206 1.476-3.546s-0.524-2.6-1.464-3.536l-15.448-15.454zM33.318 58.734c-0.248 0.626-0.794 1.088-1.454 1.224-0.152 0.032-0.306 0.044-0.458 0.042-0.508-0.012-0.998-0.216-1.364-0.584l-25.456-25.176c-0.468-0.466-0.674-1.134-0.55-1.786 0.122-0.648 0.558-1.196 1.164-1.46l12.434-4.98c8.378 2.786 16.758 0.102 25.14 9.044l-9.456 23.676zM53.984 27.16l-2.828 2.826c-0.39 0.392-1.024 0.392-1.414 0l-3.536-3.534-2.864 7.178 0.238-0.606c-6.020-6.010-12.138-6.768-17.658-7.446-1.774-0.218-3.494-0.446-5.184-0.81l16.982-6.802-3.43-3.43c-0.39-0.39-0.39-1.024 0-1.414l2.828-2.83c0.39-0.39 1.024-0.39 1.414 0l15.45 15.454c0.396 0.39 0.396 1.024 0.002 1.414zM33 42c2.756 0 5-2.242 5-5s-2.242-5-5-5c-2.758 0-5 2.242-5 5s2.244 5 5 5zM33 34c1.656 0 3 1.344 3 3s-1.344 3-3 3c-1.658 0-3-1.344-3-3s1.342-3 3-3zM59 0c-2.758 0-5 2.242-5 5s2.242 5 5 5 5-2.242 5-5-2.242-5-5-5zM59 8c-1.656 0-3-1.344-3-3s1.344-3 3-3 3 1.344 3 3-1.344 3-3 3zM16 34c0 2.206 1.794 4 4 4s4-1.794 4-4-1.794-4-4-4-4 1.794-4 4zM20 32c1.104 0 2 0.894 2 2s-0.896 2-2 2-2-0.894-2-2 0.896-2 2-2zM24 46c0-1.105 0.895-2 2-2s2 0.895 2 2c0 1.105-0.895 2-2 2s-2-0.895-2-2zM56 16c0-1.105 0.895-2 2-2s2 0.895 2 2c0 1.105-0.895 2-2 2s-2-0.895-2-2z" fill="#555555"></path>
</svg>
