<?xml version="1.0" encoding="utf-8"?>
<!-- Generated by IcoMoon.io -->
<!DOCTYPE svg PUBLIC "-//W3C//DTD SVG 1.1//EN" "http://www.w3.org/Graphics/SVG/1.1/DTD/svg11.dtd">
<svg version="1.1" xmlns="http://www.w3.org/2000/svg" xmlns:xlink="http://www.w3.org/1999/xlink" width="84" height="64" viewBox="0 0 84 64">
<g id="icomoon-ignore">
	<line stroke-width="1" x1="" y1="" x2="" y2="" stroke="#449FDB" opacity=""></line>
</g>
	<path d="M7 52c0.552 0 1-0.448 1-1v-47c0-1.196 0.804-2 2-2h64c1.14 0 2 0.936 2 2.178v46.822c0 0.552 0.448 1 1 1s1-0.448 1-1v-46.822c0-2.344-1.756-4.178-4-4.178h-64c-2.318 0-4 1.682-4 4v47c0 0.552 0.448 1 1 1zM13 6c-0.552 0-1 0.448-1 1v44c0 0.552 0.448 1 1 1h58c0.552 0 1-0.448 1-1v-44c0-0.552-0.448-1-1-1h-58zM70 50h-56v-42h56v42zM83 56h-82c-0.552 0-1 0.448-1 1v2.35c0 2.396 2.816 4.65 5 4.65h74c2.29 0 5-2.71 5-5v-2c0-0.552-0.448-1-1-1zM82 59c0 1.178-1.822 3-3 3h-74c-1.262 0-3-1.536-3-2.65v-1.35h80v1z" fill="#555555"></path>
</svg>
