<?xml version="1.0" encoding="utf-8"?>
<!-- Generated by IcoMoon.io -->
<!DOCTYPE svg PUBLIC "-//W3C//DTD SVG 1.1//EN" "http://www.w3.org/Graphics/SVG/1.1/DTD/svg11.dtd">
<svg version="1.1" xmlns="http://www.w3.org/2000/svg" xmlns:xlink="http://www.w3.org/1999/xlink" width="64" height="64" viewBox="0 0 64 64">
<g id="icomoon-ignore">
	<line stroke-width="1" x1="" y1="" x2="" y2="" stroke="#449FDB" opacity=""></line>
</g>
	<path d="M61.53 14.524l-23.086-13.030c-3.142-1.774-8.542-1.776-11.69 0l-23.086 13.030c-1.766 0.998-2.736 2.394-2.736 3.934s0.972 2.936 2.736 3.932l23.086 13.032c1.572 0.888 3.648 1.376 5.844 1.376 2.198 0 4.274-0.49 5.846-1.376l23.086-13.032c1.766-0.996 2.738-2.392 2.738-3.932s-0.974-2.936-2.738-3.934zM60.478 20.53l-23.086 13.032c-2.476 1.398-7.112 1.4-9.588 0l-23.086-13.032c-1.048-0.592-1.648-1.348-1.648-2.072 0-0.726 0.6-1.48 1.648-2.074l23.086-13.032c1.238-0.7 2.986-1.1 4.792-1.1 1.808 0 3.556 0.402 4.794 1.1l23.086 13.032c1.048 0.592 1.65 1.348 1.65 2.074 0.002 0.724-0.598 1.48-1.648 2.072zM61.53 28.198c-0.512-0.29-1.164-0.11-1.458 0.406-0.29 0.514-0.108 1.166 0.406 1.456 1.048 0.592 1.65 1.348 1.65 2.072s-0.602 1.48-1.65 2.072l-23.086 13.032c-2.596 1.466-6.988 1.468-9.588 0l-23.086-13.032c-1.048-0.592-1.648-1.348-1.648-2.072s0.6-1.48 1.648-2.072c0.514-0.29 0.696-0.942 0.406-1.456-0.292-0.516-0.946-0.698-1.458-0.406-1.766 0.996-2.736 2.394-2.736 3.934s0.97 2.938 2.736 3.934l23.086 13.032c1.638 0.924 3.742 1.388 5.844 1.388 2.104 0 4.208-0.462 5.846-1.388l23.086-13.032c1.766-0.996 2.738-2.394 2.738-3.934s-0.972-2.938-2.736-3.934zM61.53 41.608c-0.512-0.29-1.164-0.11-1.458 0.406-0.29 0.514-0.108 1.166 0.406 1.456 1.048 0.592 1.65 1.348 1.65 2.072s-0.602 1.48-1.65 2.074l-23.086 13.032c-2.596 1.466-6.988 1.468-9.588 0l-23.086-13.034c-1.048-0.592-1.648-1.348-1.648-2.074 0-0.724 0.6-1.48 1.648-2.072 0.514-0.29 0.696-0.942 0.406-1.456-0.292-0.514-0.946-0.698-1.458-0.406-1.762 0.998-2.734 2.394-2.734 3.936s0.97 2.938 2.736 3.934l23.086 13.032c1.638 0.924 3.742 1.388 5.844 1.388 2.104 0 4.208-0.462 5.846-1.388l23.086-13.032c1.766-0.998 2.738-2.394 2.738-3.934s-0.974-2.938-2.738-3.934z" fill="#555555"></path>
</svg>
