<?xml version="1.0" encoding="utf-8"?>
<!-- Generated by IcoMoon.io -->
<!DOCTYPE svg PUBLIC "-//W3C//DTD SVG 1.1//EN" "http://www.w3.org/Graphics/SVG/1.1/DTD/svg11.dtd">
<svg version="1.1" xmlns="http://www.w3.org/2000/svg" xmlns:xlink="http://www.w3.org/1999/xlink" width="64" height="64" viewBox="0 0 64 64">
<g id="icomoon-ignore">
	<line stroke-width="1" x1="" y1="" x2="" y2="" stroke="#449FDB" opacity=""></line>
</g>
	<path d="M11.476 5.592l-5.886 5.884c-0.39 0.392-0.39 1.024 0 1.414 0.196 0.196 0.452 0.292 0.708 0.292s0.512-0.098 0.708-0.292l5.886-5.884c0.39-0.39 0.39-1.024 0-1.414s-1.024-0.39-1.416 0zM56.992 51.106l-5.886 5.884c-0.39 0.39-0.39 1.024 0 1.414 0.196 0.196 0.452 0.292 0.708 0.292s0.512-0.098 0.708-0.292l5.886-5.884c0.39-0.39 0.39-1.024 0-1.414s-1.026-0.392-1.416 0zM53.304 5.984c-0.39-0.39-1.024-0.39-1.414 0s-0.39 1.024 0 1.414l5.494 5.492c0.196 0.196 0.452 0.292 0.708 0.292s0.512-0.098 0.708-0.292c0.39-0.39 0.39-1.024 0-1.414l-5.496-5.492zM5.984 51.89c-0.39 0.39-0.39 1.024 0 1.414l5.494 5.492c0.196 0.196 0.452 0.292 0.708 0.292s0.512-0.098 0.708-0.292c0.39-0.39 0.39-1.024 0-1.414l-5.494-5.492c-0.394-0.39-1.026-0.39-1.416 0zM9.064 19.72c-0.408 0.76-0.762 1.542-1.088 2.328-2.618 6.328-2.62 13.582-0.002 19.904 0.404 0.974 0.854 1.906 1.336 2.766 1.166 2.082 2.612 3.992 4.296 5.676 1.928 1.93 4.138 3.538 6.568 4.778 0.616 0.314 1.242 0.592 1.876 0.854 3.164 1.31 6.512 1.974 9.95 1.974s6.786-0.664 9.952-1.974c0.002 0 0.002-0.002 0.004-0.004 0.786-0.324 1.564-0.68 2.322-1.086 2.25-1.204 4.308-2.732 6.116-4.542 1.808-1.806 3.336-3.864 4.542-6.118 0.406-0.76 0.764-1.538 1.090-2.328 0 0 0-0.002 0-0.002 2.614-6.326 2.614-13.578-0.002-19.898-0.262-0.632-0.542-1.262-0.854-1.876-1.238-2.428-2.846-4.636-4.778-6.568-1.682-1.682-3.59-3.126-5.674-4.294-0.858-0.482-1.79-0.934-2.768-1.338-6.326-2.618-13.566-2.618-19.902 0.002 0 0-0.002 0-0.002 0-0.79 0.328-1.568 0.682-2.328 1.090-2.248 1.204-4.304 2.732-6.112 4.542-1.808 1.806-3.338 3.862-4.542 6.114zM28.2 22.828c0 0 0 0 0 0 0.864-0.356 1.754-0.59 2.644-0.694 0.932-0.11 1.878-0.086 2.804 0.070 0.736 0.122 1.46 0.33 2.154 0.614 0 0 0 0 0.002 0 1.208 0.5 2.292 1.224 3.222 2.154 0.922 0.922 1.644 2.006 2.146 3.224 0 0 0 0 0 0.002 0 0 0 0 0 0 0.422 1.022 0.67 2.084 0.74 3.16 0.038 0.594 0.022 1.198-0.046 1.792-0.104 0.892-0.336 1.782-0.694 2.644 0 0 0 0 0 0s0 0 0 0.002c-0.502 1.218-1.224 2.302-2.146 3.224-0.92 0.92-2.006 1.642-3.226 2.146 0 0 0 0 0 0-0.864 0.354-1.754 0.59-2.644 0.692-0.594 0.070-1.192 0.086-1.794 0.046-1.074-0.068-2.138-0.318-3.162-0.74-1.22-0.504-2.306-1.226-3.226-2.146-0.93-0.93-1.654-2.012-2.154-3.222-0.286-0.692-0.494-1.418-0.618-2.156-0.156-0.93-0.178-1.874-0.070-2.802 0.104-0.892 0.336-1.782 0.694-2.644 0 0 0 0 0 0s0 0 0-0.002c0.502-1.218 1.224-2.302 2.146-3.224 0.922-0.914 2.008-1.636 3.228-2.14zM54.542 23.746c1.932 5.296 1.932 11.208 0 16.508l-11.176-4.628c0.238-0.736 0.4-1.486 0.488-2.24 0.084-0.712 0.102-1.438 0.056-2.152-0.062-0.966-0.244-1.924-0.544-2.858l11.176-4.63zM20.232 33.978c0.094 0.558 0.228 1.11 0.398 1.648l-11.172 4.63c-1.932-5.296-1.93-11.208 0.002-16.508l11.174 4.628c-0.238 0.736-0.4 1.486-0.488 2.238-0.128 1.116-0.102 2.248 0.086 3.364zM15.020 48.98c-1.554-1.554-2.888-3.316-3.966-5.24-0.292-0.52-0.57-1.066-0.832-1.636l11.172-4.626c0.562 1.092 1.29 2.084 2.166 2.962 0.872 0.874 1.868 1.598 2.966 2.16l-4.632 11.182c-0.272-0.124-0.542-0.254-0.812-0.39-2.242-1.148-4.282-2.63-6.062-4.412zM23.746 54.542l4.63-11.178c0.934 0.3 1.892 0.482 2.856 0.544 0.716 0.042 1.436 0.030 2.156-0.056 0.752-0.088 1.5-0.252 2.236-0.488l4.63 11.178c-5.286 1.936-11.222 1.936-16.508 0zM48.98 48.98c-1.668 1.67-3.568 3.080-5.648 4.194-0.404 0.216-0.814 0.418-1.228 0.608l-4.632-11.182c1.1-0.562 2.094-1.286 2.966-2.16 0.874-0.872 1.598-1.868 2.16-2.966l11.18 4.63c-0.19 0.416-0.39 0.826-0.608 1.23-1.11 2.080-2.52 3.978-4.19 5.646zM48.98 15.020c1.784 1.784 3.266 3.822 4.41 6.064 0.138 0.268 0.266 0.538 0.392 0.812l-11.182 4.63c-0.564-1.098-1.286-2.094-2.16-2.966-0.878-0.878-1.872-1.606-2.964-2.168l4.63-11.172c0.572 0.264 1.12 0.542 1.638 0.834 1.922 1.078 3.684 2.412 5.236 3.966zM40.256 9.458l-4.63 11.174c-0.54-0.172-1.092-0.304-1.648-0.398-1.106-0.188-2.24-0.216-3.366-0.084-0.752 0.088-1.5 0.252-2.236 0.488l-4.63-11.178c5.29-1.938 11.224-1.938 16.51-0.002zM20.666 10.826c0.404-0.216 0.814-0.418 1.23-0.606l4.63 11.18c-1.1 0.562-2.094 1.288-2.966 2.16-0.874 0.872-1.598 1.868-2.16 2.966l-11.18-4.63c0.188-0.416 0.388-0.826 0.606-1.23 1.114-2.080 2.524-3.978 4.194-5.646 1.668-1.67 3.568-3.080 5.646-4.194zM46.836 58.082c-9.152 5.214-20.522 5.214-29.674 0-0.482-0.272-1.092-0.108-1.364 0.376-0.274 0.478-0.106 1.090 0.374 1.364 4.882 2.782 10.354 4.17 15.828 4.17s10.946-1.388 15.828-4.17c0.48-0.274 0.648-0.884 0.374-1.364-0.276-0.484-0.886-0.648-1.366-0.376zM4.18 16.174c-5.562 9.762-5.562 21.89 0 31.652 0.184 0.324 0.522 0.506 0.87 0.506 0.168 0 0.338-0.042 0.494-0.13 0.48-0.274 0.648-0.884 0.374-1.364-5.214-9.152-5.214-20.524 0-29.676 0.274-0.478 0.106-1.090-0.374-1.364-0.482-0.27-1.092-0.104-1.364 0.376zM59.82 47.826c5.562-9.762 5.562-21.89 0-31.652-0.274-0.48-0.888-0.646-1.364-0.376-0.48 0.274-0.648 0.884-0.374 1.364 5.214 9.152 5.214 20.524 0 29.676-0.274 0.478-0.106 1.090 0.374 1.364 0.156 0.088 0.326 0.13 0.494 0.13 0.348 0 0.686-0.182 0.87-0.506zM17.164 5.918c9.152-5.214 20.522-5.214 29.674 0 0.156 0.088 0.326 0.13 0.494 0.13 0.348 0 0.686-0.182 0.87-0.506 0.274-0.478 0.106-1.090-0.374-1.364-9.764-5.562-21.89-5.562-31.654 0-0.48 0.274-0.648 0.884-0.374 1.364 0.272 0.482 0.882 0.644 1.364 0.376z" fill="#555555"></path>
</svg>
