<?xml version="1.0" encoding="utf-8"?>
<!-- Generated by IcoMoon.io -->
<!DOCTYPE svg PUBLIC "-//W3C//DTD SVG 1.1//EN" "http://www.w3.org/Graphics/SVG/1.1/DTD/svg11.dtd">
<svg version="1.1" xmlns="http://www.w3.org/2000/svg" xmlns:xlink="http://www.w3.org/1999/xlink" width="44" height="64" viewBox="0 0 44 64">
<g id="icomoon-ignore">
	<line stroke-width="1" x1="" y1="" x2="" y2="" stroke="#449FDB" opacity=""></line>
</g>
	<path d="M22 0c-10.58 0-22 8.412-22 22 0 6.706 2.668 12.348 7.792 16.624 0.054 0.068 0.116 0.126 0.184 0.176 3.802 4.124 3.994 4.908 4.020 6.722 0.012 0.718 0.006 0.93 0 1.046l-0.008 0.418c-0.030 0.904-0.076 2.418 1.798 2.99l16.188 3.562c0.072 0.016 0.144 0.024 0.214 0.024 0.46 0 0.874-0.318 0.976-0.786 0.12-0.54-0.222-1.074-0.762-1.192l-16.11-3.542c-0.31-0.094-0.336-0.102-0.308-0.996l0.006-0.382c0 0 0.020-0.156 0.004-1.172-0.038-2.538-0.59-3.764-4.618-8.118-0.078-0.096-0.172-0.176-0.276-0.236-4.712-4.006-7.1-9.098-7.1-15.138 0-12.354 10.38-20 20-20 9.832 0 20 7.482 20 20 0 7.956-3.856 12.342-7.036 15.102-0.11 0.052-0.208 0.126-0.294 0.218-4.074 4.408-4.626 5.634-4.664 8.172 0 0.060-0.002 0.13 0 0.206l-0.002 0.070c-0.006 0.152-0.028 0.236-0.026 0.268-0.068-0.010-0.234-0.036-0.234-0.036l-8.39-1.974c-0.544-0.124-1.076 0.208-1.202 0.744-0.126 0.538 0.206 1.076 0.744 1.204l8.288 1.944c0.11 0.040 1.106 0.364 1.946-0.226 0.366-0.258 0.792-0.764 0.868-1.732l0.006-0.094c0.002-0.064 0.004-0.13 0.004-0.198 0-0.018 0-0.036-0.002-0.052l0.002-0.092c0.026-1.804 0.214-2.588 4.010-6.712 0.018-0.014 0.038-0.028 0.054-0.044 5.334-4.482 7.928-9.968 7.928-16.768 0-13.77-11.186-22-22-22zM30 59c0.458 0 0.87-0.314 0.974-0.78 0.124-0.538-0.214-1.074-0.754-1.196l-16-3.628c-0.542-0.12-1.074 0.216-1.196 0.754-0.124 0.538 0.214 1.074 0.754 1.196l16 3.628c0.076 0.018 0.15 0.026 0.222 0.026zM15.218 59.108c-0.542-0.12-1.072 0.218-1.196 0.756-0.12 0.54 0.218 1.074 0.758 1.194l13 2.916c0.076 0.018 0.148 0.026 0.22 0.026 0.458 0 0.872-0.316 0.976-0.782 0.12-0.54-0.218-1.074-0.758-1.194l-13-2.916z" fill="#555555"></path>
</svg>
