<?xml version="1.0" encoding="utf-8"?>
<!-- Generated by IcoMoon.io -->
<!DOCTYPE svg PUBLIC "-//W3C//DTD SVG 1.1//EN" "http://www.w3.org/Graphics/SVG/1.1/DTD/svg11.dtd">
<svg version="1.1" xmlns="http://www.w3.org/2000/svg" xmlns:xlink="http://www.w3.org/1999/xlink" width="84" height="64" viewBox="0 0 84 64">
<g id="icomoon-ignore">
	<line stroke-width="1" x1="" y1="" x2="" y2="" stroke="#449FDB" opacity=""></line>
</g>
	<path d="M78 0c-3.308 0-6 2.692-6 6 0 1.776 0.792 3.358 2.022 4.458l-17.6 28.062c-0.742-0.33-1.56-0.52-2.422-0.52-1.736 0-3.288 0.752-4.386 1.934l-18.146-11.49c0.336-0.748 0.532-1.572 0.532-2.444 0-3.308-2.692-6-6-6s-6 2.692-6 6c0 1.808 0.82 3.412 2.088 4.512l-13.79 21.95c-0.708-0.296-1.484-0.462-2.298-0.462-3.308 0-6 2.692-6 6s2.692 6 6 6 6-2.692 6-6c0-1.776-0.79-3.356-2.020-4.456l13.808-21.98c0.686 0.276 1.43 0.436 2.212 0.436 1.718 0 3.258-0.734 4.352-1.894l18.156 11.496c-0.322 0.736-0.508 1.544-0.508 2.398 0 3.308 2.692 6 6 6s6-2.692 6-6c0-1.726-0.742-3.272-1.914-4.368l17.62-28.092c0.708 0.294 1.482 0.46 2.294 0.46 3.308 0 6-2.692 6-6s-2.692-6-6-6zM10 58c0 2.206-1.794 4-4 4s-4-1.794-4-4 1.794-4 4-4 4 1.794 4 4zM26 30c-2.206 0-4-1.794-4-4s1.794-4 4-4 4 1.794 4 4-1.794 4-4 4zM54 48c-2.206 0-4-1.794-4-4s1.794-4 4-4 4 1.794 4 4-1.794 4-4 4zM78 10c-2.206 0-4-1.794-4-4s1.794-4 4-4 4 1.794 4 4-1.794 4-4 4z" fill="#555555"></path>
</svg>
