<?xml version="1.0" encoding="utf-8"?>
<!-- Generated by IcoMoon.io -->
<!DOCTYPE svg PUBLIC "-//W3C//DTD SVG 1.1//EN" "http://www.w3.org/Graphics/SVG/1.1/DTD/svg11.dtd">
<svg version="1.1" xmlns="http://www.w3.org/2000/svg" xmlns:xlink="http://www.w3.org/1999/xlink" width="64" height="64" viewBox="0 0 64 64">
<g id="icomoon-ignore">
	<line stroke-width="1" x1="" y1="" x2="" y2="" stroke="#449FDB" opacity=""></line>
</g>
	<path d="M39.030 23.904c-1.356 0-2.36 0.342-3.146 0.774-0.126-0.448-0.54-0.776-1.028-0.678h-5.968c-0.59-0.098-1.068 0.38-0.886 1v22c-0.182 0.56 0.296 1.040 0.886 1h5.968c0.59 0.040 1.068-0.44 1.068-1.030l-0.002-13.296c-0.002-0.006-0.024-0.642 0.378-1.080 0.322-0.348 0.876-0.526 1.642-0.526 1.276 0 1.844 0.522 2.056 1.69v13.212c-0.21 0.59 0.268 1.070 0.858 1.030h6.29c0.59 0.040 1.068-0.44 0.856-1.030v-13.656c0.21-6.944-4.736-9.41-8.972-9.41zM46.076 46h-4.152v-12.242c0-2.362-1.526-3.826-3.98-3.826-1.388 0-2.468 0.408-3.212 1.212-1.034 1.12-0.954 2.54-0.732 2.856v12h-4.044v-19.96h3.832v0.672c0 0.406 0.23 0.78 0.596 0.958s0.8 0.134 1.124-0.112l0.28-0.216c0.81-0.638 1.648-1.3 3.244-1.3 1.652 0 7.046 0.526 7.046 7.274v12.684zM22 13.932c-2.244 0-4.068 1.824-4.068 4.068s1.824 4.068 4.068 4.068 4.068-1.824 4.068-4.068-1.824-4.068-4.068-4.068zM22 19.932c-1.064 0-1.932-0.868-1.932-1.932s0.868-1.932 1.932-1.932 1.932 0.868 1.932 1.932-0.868 1.932-1.932 1.932zM24.856 23.902h-5.936c-0.59 0-1.068 0.478-0.92 1.098v22c-0.148 0.56 0.33 1.040 0.92 1h5.936c0.59 0.040 1.068-0.44 1.068-1.030v-22c0-0.59-0.478-1.068-1.068-1.068zM24 46h-4.012v-19.96h4.012v19.96zM32-0.068c-17.684 0-32.068 14.384-32.068 32.068s14.384 32.068 32.068 32.068 32.068-14.384 32.068-32.068-14.384-32.068-32.068-32.068zM32 61.932c-16.504 0-29.932-13.428-29.932-29.932s13.428-29.932 29.932-29.932 29.932 13.428 29.932 29.932-13.428 29.932-29.932 29.932z" fill="#555555"></path>
</svg>
