<?xml version="1.0" encoding="utf-8"?>
<!-- Generated by IcoMoon.io -->
<!DOCTYPE svg PUBLIC "-//W3C//DTD SVG 1.1//EN" "http://www.w3.org/Graphics/SVG/1.1/DTD/svg11.dtd">
<svg version="1.1" xmlns="http://www.w3.org/2000/svg" xmlns:xlink="http://www.w3.org/1999/xlink" width="64" height="64" viewBox="0 0 64 64">
<g id="icomoon-ignore">
	<line stroke-width="1" x1="" y1="" x2="" y2="" stroke="#449FDB" opacity=""></line>
</g>
	<path d="M32.004 35.492c6.618 0 12-5.384 12-12s-5.382-12-12-12c-6.618 0-12 5.382-12 12s5.382 12 12 12zM32.004 13.492c5.516 0 10 4.484 10 10s-4.484 10-10 10c-5.516 0-10-4.484-10-10s4.484-10 10-10zM32 0c-13.236 0-24 10.632-24 24.002 0 14 12.002 28.322 20.752 38.388 0.032 0.040 1.436 1.61 3.172 1.61 0.004 0 0.146 0 0.154 0 1.734 0 3.14-1.57 3.172-1.61 8.754-10.066 20.754-24.386 20.754-38.388 0-13.37-10.766-24.002-24.004-24.002zM32.234 59.766c-0.042 0.040-0.164 0.128-0.27 0.196-0.020-0.054-0.168-0.172-0.258-0.266-7.33-8.434-19.706-22.668-19.706-35.694 0-11.028 8.974-20.002 20-20.002 11.032 0 20.004 8.974 20.004 20.004 0 13.024-12.376 27.258-19.77 35.762z" fill="#555555"></path>
</svg>
