<?xml version="1.0" encoding="utf-8"?>
<!-- Generated by IcoMoon.io -->
<!DOCTYPE svg PUBLIC "-//W3C//DTD SVG 1.1//EN" "http://www.w3.org/Graphics/SVG/1.1/DTD/svg11.dtd">
<svg version="1.1" xmlns="http://www.w3.org/2000/svg" xmlns:xlink="http://www.w3.org/1999/xlink" width="56" height="64" viewBox="0 0 56 64">
<g id="icomoon-ignore">
	<line stroke-width="1" x1="" y1="" x2="" y2="" stroke="#449FDB" opacity=""></line>
</g>
	<path d="M28 0c-11.028 0-20 8.972-20 20v6h-3c-2.756 0-5 2.244-5 5v28c0 2.756 2.244 5 5 5h46c2.756 0 5-2.244 5-5v-28c0-2.756-2.244-5-5-5h-3v-6c0-11.028-8.972-20-20-20zM10 20c0-9.924 8.076-18 18-18s18 8.076 18 18v6h-6v-6c0-6.618-5.382-12-12-12s-12 5.382-12 12v6h-6v-6zM38 26h-20v-6c0-5.514 4.486-10 10-10s10 4.486 10 10v6zM24.586 42l-10 10h-9.172l10-10h9.172zM36.586 42l-10 10h-9.172l10-10h9.172zM48.586 42l-10 10h-9.172l10-10h9.172zM54 42v10h-12.586l10-10h2.586zM2.586 52h-0.586v-10h10.586l-10 10zM51 62h-46c-1.654 0-3-1.346-3-3v-5h52v5c0 1.654-1.346 3-3 3zM54 31v9h-52v-9c0-1.654 1.346-3 3-3h46c1.654 0 3 1.346 3 3z" fill="#555555"></path>
</svg>
