<?xml version="1.0" encoding="utf-8"?>
<!-- Generated by IcoMoon.io -->
<!DOCTYPE svg PUBLIC "-//W3C//DTD SVG 1.1//EN" "http://www.w3.org/Graphics/SVG/1.1/DTD/svg11.dtd">
<svg version="1.1" xmlns="http://www.w3.org/2000/svg" xmlns:xlink="http://www.w3.org/1999/xlink" width="64" height="64" viewBox="0 0 64 64">
<g id="icomoon-ignore">
	<line stroke-width="1" x1="" y1="" x2="" y2="" stroke="#449FDB" opacity=""></line>
</g>
	<path d="M50 26v-8c0-9.942-8.058-18-18-18s-18 8.058-18 18v8c-3.314 0-6 2.686-6 6v14c0 9.942 8.058 18 18 18h12c9.942 0 18-8.058 18-18v-14c0-3.316-2.688-6-6-6zM18 18c0-7.732 6.268-14 14-14s14 6.268 14 14v8h-4v-7.996c0-5.524-4.476-10-10-10s-10 4.476-10 10v7.996h-4v-8zM40 18v8h-16v-8c0-4.418 3.582-8 8-8s8 3.582 8 8zM52 38v8c0 7.718-6.282 14-14 14h-12c-7.718 0-14-6.282-14-14v-14c0-1.104 0.896-2 2-2 1.334 0 2.666 0 4 0h28c1.332 0 2.664 0 4 0 1.102 0 2 0.896 2 2v6zM32 38c2.208 0 4 1.79 4 4 0 1.218-0.656 3.536-1.332 5.364-0.546 1.476-1.104 2.632-2.668 2.632-1.438 0-2.122-1.168-2.666-2.652-0.668-1.824-1.334-4.13-1.334-5.344 0-2.21 1.792-4 4-4z" fill="#555555"></path>
</svg>
