<?xml version="1.0" encoding="utf-8"?>
<!-- Generated by IcoMoon.io -->
<!DOCTYPE svg PUBLIC "-//W3C//DTD SVG 1.1//EN" "http://www.w3.org/Graphics/SVG/1.1/DTD/svg11.dtd">
<svg version="1.1" xmlns="http://www.w3.org/2000/svg" xmlns:xlink="http://www.w3.org/1999/xlink" width="64" height="64" viewBox="0 0 64 64">
<g id="icomoon-ignore">
	<line stroke-width="1" x1="" y1="" x2="" y2="" stroke="#449FDB" opacity=""></line>
</g>
	<path d="M21 0c-11.58 0-21 9.42-21 21s9.42 21 21 21c5.45 0 10.406-2.104 14.142-5.52 0.044 0.078 0.084 0.16 0.152 0.228l4.302 4.302c-0.36 0.608-0.564 1.296-0.564 2.022 0 1.068 0.416 2.072 1.172 2.828l16.97 16.97c0.754 0.754 1.758 1.17 2.826 1.17s2.072-0.416 2.828-1.172 1.172-1.76 1.172-2.828-0.416-2.072-1.172-2.828l-16.97-16.97c-1.268-1.268-3.318-1.458-4.84-0.598l-4.31-4.31c-0.068-0.068-0.148-0.108-0.228-0.152 3.416-3.736 5.52-8.692 5.52-14.142 0-11.58-9.42-21-21-21zM44.444 41.616l16.97 16.97c0.378 0.378 0.586 0.88 0.586 1.414s-0.208 1.036-0.586 1.414c-0.758 0.754-2.070 0.754-2.828 0l-16.97-16.97c-0.376-0.378-0.586-0.88-0.586-1.414s0.208-1.036 0.586-1.414c0.378-0.376 0.88-0.586 1.414-0.586s1.034 0.208 1.414 0.586zM21 40c-10.476 0-19-8.524-19-19s8.524-19 19-19 19 8.524 19 19-8.524 19-19 19zM21 6c-8.272 0-15 6.728-15 15s6.728 15 15 15 15-6.728 15-15-6.728-15-15-15zM21 34c-7.168 0-13-5.832-13-13s5.832-13 13-13 13 5.832 13 13-5.832 13-13 13z" fill="#555555"></path>
</svg>
