<?xml version="1.0" encoding="utf-8"?>
<!-- Generated by IcoMoon.io -->
<!DOCTYPE svg PUBLIC "-//W3C//DTD SVG 1.1//EN" "http://www.w3.org/Graphics/SVG/1.1/DTD/svg11.dtd">
<svg version="1.1" xmlns="http://www.w3.org/2000/svg" xmlns:xlink="http://www.w3.org/1999/xlink" width="64" height="64" viewBox="0 0 64 64">
<g id="icomoon-ignore">
	<line stroke-width="1" x1="" y1="" x2="" y2="" stroke="#449FDB" opacity=""></line>
</g>
	<path d="M56 10h-48c-4.418 0-8 3.584-8 8v26c0 4.418 3.582 8 8 8h48c4.418 0 8-3.582 8-8v-26c0-4.416-3.582-8-8-8zM4 20.5l13.998 10.5-13.998 10.5v-21zM60 44c0 2.208-1.796 4-4 4h-48c-2.206 0-4-1.792-4-4l15.664-11.75 8.736 6.554c1.066 0.796 2.332 1.2 3.6 1.2 1.266 0 2.532-0.402 3.598-1.2l8.738-6.554 15.664 11.75zM60 41.5l-14-10.5 14-10.5v21zM34.398 37.204c-0.698 0.524-1.526 0.8-2.398 0.8s-1.702-0.278-2.4-0.8l-25.6-19.204c0-2.206 1.794-4 4-4h48c2.204 0 4 1.794 4 4l-25.602 19.204z" fill="#555555"></path>
</svg>
