<?xml version="1.0" encoding="utf-8"?>
<!-- Generated by IcoMoon.io -->
<!DOCTYPE svg PUBLIC "-//W3C//DTD SVG 1.1//EN" "http://www.w3.org/Graphics/SVG/1.1/DTD/svg11.dtd">
<svg version="1.1" xmlns="http://www.w3.org/2000/svg" xmlns:xlink="http://www.w3.org/1999/xlink" width="48" height="64" viewBox="0 0 48 64">
<g id="icomoon-ignore">
	<line stroke-width="1" x1="" y1="" x2="" y2="" stroke="#449FDB" opacity=""></line>
</g>
	<path d="M24 0c-13.234 0-24 10.788-24 24.044 0 19.854 22.402 38.918 23.356 39.72 0.186 0.158 0.416 0.236 0.644 0.236 0.226 0 0.452-0.076 0.636-0.228 0.954-0.788 23.364-19.524 23.364-39.728 0-13.256-10.766-24.044-24-24.044zM24.004 61.676c-3.682-3.29-22.004-20.518-22.004-37.632 0-12.156 9.87-22.044 22-22.044s22 9.888 22 22.044c0 17.404-18.304 34.386-21.996 37.632zM24 12c-6.618 0-12 5.382-12 12s5.382 12 12 12 12-5.382 12-12-5.382-12-12-12zM24 34c-5.514 0-10-4.486-10-10s4.486-10 10-10 10 4.486 10 10-4.486 10-10 10z" fill="#555555"></path>
</svg>
