<?xml version="1.0" encoding="utf-8"?>
<!-- Generated by IcoMoon.io -->
<!DOCTYPE svg PUBLIC "-//W3C//DTD SVG 1.1//EN" "http://www.w3.org/Graphics/SVG/1.1/DTD/svg11.dtd">
<svg version="1.1" xmlns="http://www.w3.org/2000/svg" xmlns:xlink="http://www.w3.org/1999/xlink" width="82" height="64" viewBox="0 0 82 64">
<g id="icomoon-ignore">
	<line stroke-width="1" x1="" y1="" x2="" y2="" stroke="#449FDB" opacity=""></line>
</g>
	<path d="M18.478 63.854c0.018 0.012 0.042 0.006 0.060 0.018 0.146 0.074 0.298 0.128 0.462 0.128 0.088 0 0.176-0.012 0.264-0.036l21.736-5.932 21.736 5.932c0.088 0.024 0.176 0.036 0.264 0.036 0.164 0 0.316-0.054 0.46-0.13 0.020-0.010 0.042-0.006 0.060-0.018l18-11c0.382-0.234 0.562-0.696 0.44-1.126l-9.968-35c-0.082-0.294-0.296-0.534-0.58-0.652-0.284-0.114-0.602-0.096-0.872 0.052l-9.924 5.568c-0.48 0.27-0.652 0.88-0.382 1.362 0.27 0.484 0.878 0.654 1.364 0.382l8.818-4.95 9.414 33.052-16.030 9.798-3.808-30.462c-0.068-0.55-0.586-0.932-1.118-0.868-0.546 0.068-0.936 0.568-0.868 1.116l3.814 30.518-19.82-5.41v-5.46c0-0.552-0.448-1-1-1s-1 0.448-1 1v5.46l-19.822 5.41 3.814-30.518c0.068-0.548-0.32-1.048-0.868-1.116-0.544-0.064-1.048 0.318-1.118 0.868l-3.806 30.462-16.030-9.796 9.414-33.050 8.818 4.95c0.484 0.268 1.092 0.098 1.364-0.382 0.27-0.482 0.098-1.090-0.382-1.362l-9.926-5.57c-0.266-0.15-0.584-0.17-0.87-0.052-0.284 0.118-0.498 0.356-0.58 0.652l-9.968 35c-0.124 0.432 0.056 0.892 0.44 1.126l17.998 11zM40.322 46.736c0.192 0.176 0.434 0.264 0.678 0.264 0.24 0 0.48-0.086 0.672-0.258 0.666-0.606 16.328-14.978 16.328-29.742 0-9.534-7.466-17-17-17s-17 7.466-17 17c0 14.508 15.656 29.12 16.322 29.736zM41 2c8.55 0 15 6.448 15 15 0 12.194-11.986 24.674-14.994 27.614-3.002-2.974-15.006-15.618-15.006-27.614 0-8.552 6.45-15 15-15zM50 17c0-4.962-4.038-9-9-9s-9 4.038-9 9 4.038 9 9 9 9-4.038 9-9zM41 24c-3.86 0-7-3.14-7-7s3.14-7 7-7 7 3.14 7 7-3.14 7-7 7z" fill="#555555"></path>
</svg>
