<?xml version="1.0" encoding="utf-8"?>
<!-- Generated by IcoMoon.io -->
<!DOCTYPE svg PUBLIC "-//W3C//DTD SVG 1.1//EN" "http://www.w3.org/Graphics/SVG/1.1/DTD/svg11.dtd">
<svg version="1.1" xmlns="http://www.w3.org/2000/svg" xmlns:xlink="http://www.w3.org/1999/xlink" width="80" height="64" viewBox="0 0 80 64">
<g id="icomoon-ignore">
	<line stroke-width="1" x1="" y1="" x2="" y2="" stroke="#449FDB" opacity=""></line>
</g>
	<path d="M78.996 0c-0.554 0-0.996 0.448-0.996 1v62c0 0.552 0.442 1 0.996 1s1-0.448 1-1v-62c0-0.552-0.448-1-1-1zM75.434 2.408c-0.34-0.166-0.752-0.124-1.052 0.11l-1.13 0.89c-5.956 4.71-15.918 12.592-36.252 12.592h-27.738c-2.902 0-5.262 2.4-5.262 5.348v21.428c0 2.88 2.36 5.224 5.262 5.224h6.788c0.176 2.25 1.004 7.588 4.908 11.522 2.948 2.972 7 4.478 12.042 4.478 0.552 0 1-0.448 1-1s-0.448-1-1-1c-4.484 0-8.052-1.304-10.612-3.876-3.334-3.352-4.134-8.048-4.326-10.124h5.99c0.17 1.364 0.72 3.762 2.548 5.604 1.578 1.59 3.732 2.396 6.4 2.396 0.552 0 1-0.448 1-1s-0.448-1-1-1c-2.11 0-3.782-0.604-4.968-1.792-1.314-1.318-1.788-3.092-1.962-4.208h10.792c20.432 0 30.474 7.926 36.474 12.662l1.044 0.822c0.178 0.14 0.396 0.21 0.614 0.21 0.15 0 0.3-0.034 0.438-0.102 0.344-0.168 0.562-0.516 0.562-0.898v-57.388c0.002-0.382-0.216-0.73-0.56-0.898zM6 42.776v-21.428c0-1.846 1.462-3.348 3.262-3.348h6.738v28h-6.738c-1.83 0-3.262-1.416-3.262-3.224zM74 58.634c-6.268-4.932-16.656-12.634-37.136-12.634h-11.594c-0.094-0.030-0.19-0.060-0.296-0.062-0.002 0-0.002 0-0.004 0-0.108 0-0.21 0.030-0.308 0.062h-6.662v-28h19c20.474 0 30.788-7.728 37-12.632v53.266zM1 43.714c0.552 0 1-0.448 1-1v-21.428c0-0.552-0.448-1-1-1s-1 0.446-1 1v21.428c0 0.552 0.448 1 1 1z" fill="#555555"></path>
</svg>
