<?xml version="1.0" encoding="utf-8"?>
<!-- Generated by IcoMoon.io -->
<!DOCTYPE svg PUBLIC "-//W3C//DTD SVG 1.1//EN" "http://www.w3.org/Graphics/SVG/1.1/DTD/svg11.dtd">
<svg version="1.1" xmlns="http://www.w3.org/2000/svg" xmlns:xlink="http://www.w3.org/1999/xlink" width="64" height="64" viewBox="0 0 64 64">
<g id="icomoon-ignore">
	<line stroke-width="1" x1="" y1="" x2="" y2="" stroke="#449FDB" opacity=""></line>
</g>
	<path d="M50 0c-4.106 0-7.332 2.82-9.648 7.172l-0.042-0.024c-3.364 6.586-8.372 10.852-13.858 10.852h-18.452c-4.486 0-8 4.394-8 10 0 5.61 3.514 10 8 10 2.206 0.008 3.99 1.792 3.99 4v18c0 2.21 1.792 4 4 4h8c2.208 0 4-1.79 4-4v-2c0-2-2-2.894-2-4v-14c0-0.046 0.032-0.078 0.036-0.124 0.020-0.286 0.098-0.55 0.224-0.79 0.036-0.066 0.074-0.118 0.118-0.176 0.16-0.238 0.362-0.434 0.608-0.586 0.012-0.008 0.016-0.020 0.028-0.028 0.008 0 0.014-0.008 0.022-0.008 0.16-0.090 0.352-0.11 0.532-0.16 5.048 0.536 9.618 4.61 12.754 10.746l0.050-0.024c2.318 4.338 5.536 7.15 9.638 7.15 9.192 0 14-14.086 14-28s-4.808-28-14-28zM40 28c0-2.074 0.122-4.078 0.328-6h5.672c2.208 0 4 2.688 4 6 0 3.316-1.792 6-4 6h-5.672c-0.206-1.922-0.328-3.922-0.328-6zM4 28c0-3.312 1.792-6 4-6h14.028c-1.24 1.458-2.028 3.574-2.028 6 0 2.43 0.788 4.546 2.028 6h-14.028c-2.208 0-4-2.684-4-6zM23.99 60h-8v-18c0-1.458-0.39-2.82-1.074-4h1.396v0.024h6.016c-0.214 0.622-0.338 1.282-0.338 1.976v14c0 1.926 1.076 3.208 1.718 3.972 0.088 0.106 0.192 0.214 0.282 0.332v1.696zM26.452 34.024h-0.452v-0.024c-2.208 0-4-2.684-4-6 0-3.312 1.792-6 4-6h0.452c3.772 0 7.304-1.484 10.412-4.036-0.572 3.22-0.864 6.63-0.864 10.036 0 3.418 0.292 6.84 0.868 10.062-3.11-2.554-6.644-4.038-10.416-4.038zM50 52c-4.036 0-7.5-5.742-9.082-14h5.082c4.484 0 8-4.39 8-10 0-5.606-3.516-10-8-10h-5.082c1.582-8.254 5.046-14 9.082-14 5.524 0 10 10.746 10 24s-4.476 24-10 24z" fill="#555555"></path>
</svg>
