<?xml version="1.0" encoding="utf-8"?>
<!-- Generated by IcoMoon.io -->
<!DOCTYPE svg PUBLIC "-//W3C//DTD SVG 1.1//EN" "http://www.w3.org/Graphics/SVG/1.1/DTD/svg11.dtd">
<svg version="1.1" xmlns="http://www.w3.org/2000/svg" xmlns:xlink="http://www.w3.org/1999/xlink" width="30" height="64" viewBox="0 0 30 64">
<g id="icomoon-ignore">
	<line stroke-width="1" x1="" y1="" x2="" y2="" stroke="#449FDB" opacity=""></line>
</g>
	<path d="M14 48.014v7.986h-5.932c-2.282 0-4 1.718-4 4v3c0 0.552 0.448 1 1 1h20c0.552 0 1-0.448 1-1v-2.85c0-2.328-1.758-4.15-4-4.15h-6.068v-7.986c7.946-0.556 14.136-7.12 14.136-15.128v-3.774c0-0.59-0.478-1.068-1.068-1.068s-1.068 0.48-1.068 1.070v3.774c0 7.194-5.8 13.044-12.932 13.044s-12.932-5.852-12.932-13.044v-3.774c0-0.59-0.478-1.068-1.068-1.068s-1.068 0.478-1.068 1.068v3.774c0 8.006 6.19 14.57 14 15.126zM24.068 60.15v1.85h-18v-2c0-1.178 0.822-2 2-2h14c1.14 0 2 0.924 2 2.15zM15.068-0.068c-5 0-9.068 4.118-9.068 9.182v23.774c0 5.062 4.068 9.182 9.068 9.182s9.068-4.12 8.932-9.182v-23.774c0.136-5.064-3.932-9.182-8.932-9.182zM22 32.886c0 3.884-3.11 7.044-6.932 7.044s-7.068-3.158-7.068-7.044v-23.772c0-3.884 3.246-7.044 7.068-7.044s6.932 3.158 6.932 7.044v23.772z" fill="#555555"></path>
</svg>
