<?xml version="1.0" encoding="utf-8"?>
<!-- Generated by IcoMoon.io -->
<!DOCTYPE svg PUBLIC "-//W3C//DTD SVG 1.1//EN" "http://www.w3.org/Graphics/SVG/1.1/DTD/svg11.dtd">
<svg version="1.1" xmlns="http://www.w3.org/2000/svg" xmlns:xlink="http://www.w3.org/1999/xlink" width="64" height="64" viewBox="0 0 64 64">
<g id="icomoon-ignore">
	<line stroke-width="1" x1="" y1="" x2="" y2="" stroke="#449FDB" opacity=""></line>
</g>
	<path d="M3 64h28c0.552 0 1-0.448 1-1s-0.448-1-1-1h-28c-0.552 0-1-0.448-1-1v-58c0-0.552 0.448-1 1-1h42c0.552 0 1 0.448 1 1v10c0 0.552 0.448 1 1 1s1-0.448 1-1v-10c0-1.654-1.346-3-3-3h-42c-1.654 0-3 1.346-3 3v58c0 1.654 1.346 3 3 3zM36 21v40c0 1.654 1.346 3 3 3h22c1.654 0 3-1.346 3-3v-40c0-1.654-1.346-3-3-3h-22c-1.654 0-3 1.346-3 3zM62 21v40c0 0.552-0.448 1-1 1h-22c-0.552 0-1-0.448-1-1v-40c0-0.552 0.448-1 1-1h22c0.552 0 1 0.448 1 1zM22 56c0 1.105 0.895 2 2 2s2-0.895 2-2c0-1.105-0.895-2-2-2s-2 0.895-2 2zM48 56c0 1.105 0.895 2 2 2s2-0.895 2-2c0-1.105-0.895-2-2-2s-2 0.895-2 2z" fill="#555555"></path>
</svg>
