<?xml version="1.0" encoding="utf-8"?>
<!-- Generated by IcoMoon.io -->
<!DOCTYPE svg PUBLIC "-//W3C//DTD SVG 1.1//EN" "http://www.w3.org/Graphics/SVG/1.1/DTD/svg11.dtd">
<svg version="1.1" xmlns="http://www.w3.org/2000/svg" xmlns:xlink="http://www.w3.org/1999/xlink" width="64" height="64" viewBox="0 0 64 64">
<g id="icomoon-ignore">
	<line stroke-width="1" x1="" y1="" x2="" y2="" stroke="#449FDB" opacity=""></line>
</g>
	<path d="M62.572 0.938c-0.726-0.61-1.636-0.938-2.57-0.938-0.23 0-0.464 0.020-0.696 0.062l-34.004 6c-1.912 0.336-3.304 1.996-3.304 3.938v34.34c-2.030-1.472-4.664-2.34-7.588-2.34-1.7 0-3.4 0.282-5.058 0.832-3.796 1.266-6.84 3.804-8.352 6.968-1.168 2.446-1.318 5.106-0.428 7.492 1.522 4.076 5.846 6.708 11.016 6.708 1.7 0 3.4-0.278 5.056-0.832 3.794-1.262 6.838-3.8 8.35-6.96 0.65-1.364 0.954-2.792 0.966-4.208h0.036v-32c0.23 0 0.464-0.020 0.696-0.058l33.31-5.878v24.276c-2.032-1.472-4.664-2.34-7.59-2.34-1.7 0-3.402 0.282-5.058 0.832-3.796 1.266-6.84 3.804-8.348 6.968-1.168 2.446-1.32 5.106-0.43 7.492 1.524 4.076 5.844 6.708 11.016 6.708 1.7 0 3.402-0.278 5.058-0.832 3.792-1.262 6.836-3.8 8.348-6.96 0.652-1.364 0.954-2.792 0.968-4.208h0.036v-42c0-1.18-0.524-2.304-1.43-3.062zM15.376 59.376c-4.792 1.598-9.746 0.036-11.058-3.48-1.316-3.52 1.502-7.668 6.292-9.266 4.792-1.598 9.746-0.040 11.058 3.48 1.318 3.518-1.5 7.668-6.292 9.266zM53.306 53.376c-4.796 1.598-9.75 0.036-11.062-3.48-1.316-3.52 1.504-7.668 6.292-9.266 4.796-1.598 9.75-0.040 11.062 3.48 1.318 3.518-1.498 7.668-6.292 9.266zM59.92 10l-34.004 6v-6l34.004-6v6z" fill="#555555"></path>
</svg>
