<?xml version="1.0" encoding="utf-8"?>
<!-- Generated by IcoMoon.io -->
<!DOCTYPE svg PUBLIC "-//W3C//DTD SVG 1.1//EN" "http://www.w3.org/Graphics/SVG/1.1/DTD/svg11.dtd">
<svg version="1.1" xmlns="http://www.w3.org/2000/svg" xmlns:xlink="http://www.w3.org/1999/xlink" width="84" height="64" viewBox="0 0 84 64">
<g id="icomoon-ignore">
	<line stroke-width="1" x1="" y1="" x2="" y2="" stroke="#449FDB" opacity=""></line>
</g>
	<path d="M74 58c2.392 0 4-1.608 4-4v-53c0-0.552-0.448-1-1-1s-1 0.448-1 1v53c0 1.74-1.254 2-2 2-0.206 0-2-0.056-2-2v-53c0-0.552-0.448-1-1-1s-1 0.448-1 1v53c0 2.626 2.012 4 4 4zM9 42h20c0.552 0 1-0.448 1-1v-18c0-0.552-0.448-1-1-1h-20c-0.552 0-1 0.448-1 1v18c0 0.552 0.448 1 1 1zM10 24h18v16h-18v-16zM9 16h48c0.552 0 1-0.448 1-1v-8c0-0.552-0.448-1-1-1h-48c-0.552 0-1 0.448-1 1v8c0 0.552 0.448 1 1 1zM10 8h46v6h-46v-6zM57 22h-20c-0.552 0-1 0.448-1 1s0.448 1 1 1h20c0.552 0 1-0.448 1-1s-0.448-1-1-1zM57 28h-20c-0.552 0-1 0.448-1 1s0.448 1 1 1h20c0.552 0 1-0.448 1-1s-0.448-1-1-1zM57 34h-20c-0.552 0-1 0.448-1 1s0.448 1 1 1h20c0.552 0 1-0.448 1-1s-0.448-1-1-1zM57 40h-20c-0.552 0-1 0.448-1 1s0.448 1 1 1h20c0.552 0 1-0.448 1-1s-0.448-1-1-1zM57 46h-20c-0.552 0-1 0.448-1 1s0.448 1 1 1h20c0.552 0 1-0.448 1-1s-0.448-1-1-1zM9 48h20c0.552 0 1-0.448 1-1s-0.448-1-1-1h-20c-0.552 0-1 0.448-1 1s0.448 1 1 1zM57 52h-20c-0.552 0-1 0.448-1 1s0.448 1 1 1h20c0.552 0 1-0.448 1-1s-0.448-1-1-1zM9 54h20c0.552 0 1-0.448 1-1s-0.448-1-1-1h-20c-0.552 0-1 0.448-1 1s0.448 1 1 1zM10 63.894h64c0.016 0 0.032 0 0.040 0 0.014 0 0.026-0.008 0.040-0.008 5.418-0.044 9.816-4.458 9.816-9.886v-53c0-0.494-0.4-0.894-0.894-0.894s-0.894 0.4-0.894 0.894v53c0 4.47-3.636 8.106-8.106 8.106s-8.108-3.636-8.108-8.106v-53c0-0.494-0.4-0.894-0.894-0.894h-64c-0.494 0-0.894 0.4-0.894 0.894v53c0 5.456 4.438 9.894 9.894 9.894zM1.894 1.894h62.21v52.106c0 0.612 0.074 1.206 0.18 1.79 0.022 0.116 0.040 0.232 0.066 0.346 0.124 0.556 0.288 1.094 0.502 1.612 0.038 0.094 0.084 0.182 0.126 0.274 0.216 0.484 0.466 0.95 0.756 1.39 0.034 0.050 0.060 0.104 0.094 0.154 0.316 0.46 0.676 0.886 1.062 1.286 0.084 0.086 0.166 0.17 0.254 0.254 0.372 0.36 0.764 0.702 1.188 1h-58.332c-4.468 0-8.106-3.636-8.106-8.106v-52.106z" fill="#555555"></path>
</svg>
