<?xml version="1.0" encoding="utf-8"?>
<!-- Generated by IcoMoon.io -->
<!DOCTYPE svg PUBLIC "-//W3C//DTD SVG 1.1//EN" "http://www.w3.org/Graphics/SVG/1.1/DTD/svg11.dtd">
<svg version="1.1" xmlns="http://www.w3.org/2000/svg" xmlns:xlink="http://www.w3.org/1999/xlink" width="64" height="64" viewBox="0 0 64 64">
<g id="icomoon-ignore">
	<line stroke-width="1" x1="" y1="" x2="" y2="" stroke="#449FDB" opacity=""></line>
</g>
	<path d="M58 0h-44c-3.314 0-6 2.684-6 6v4h-2c-3.314 0-6 2.684-6 6v40c0 4.418 3.582 8 8 8h48c4.418 0 8-3.582 8-8v-50c0-3.316-2.688-6-6-6zM60 56c0 2.204-1.796 4-4 4h-48c-2.206 0-4-1.796-4-4v-40c0-1.104 0.896-2 2-2h2v40c0 1.106 0.894 2 2 2s2-0.894 2-2v-48c0-1.104 0.896-2 2-2h44c1.102 0 2 0.896 2 2v50zM38.996 26.010c-0.55 0-1-0.448-1-1s0.45-1 1-1h16c0.554 0 1 0.448 1 1s-0.446 1-1 1h-16zM38.996 20.010c-0.55 0-1-0.448-1-1s0.45-1 1-1h16c0.554 0 1 0.448 1 1s-0.446 1-1 1h-16zM38.996 14.010c-0.55 0-1-0.448-1-1s0.45-1 1-1h16c0.554 0 1 0.448 1 1s-0.446 1-1 1h-16zM33 54.008c0.552 0 1 0.45 1 1 0 0.554-0.45 1-1 1h-16c-0.552 0-1-0.446-1-1 0-0.55 0.448-1 1-1h16zM33 48.008c0.552 0 1 0.45 1 1 0 0.554-0.45 1-1 1h-16c-0.552 0-1-0.446-1-1 0-0.55 0.448-1 1-1h16zM33 42.008c0.552 0 1 0.45 1 1 0 0.554-0.45 1-1 1h-16c-0.552 0-1-0.446-1-1 0-0.55 0.448-1 1-1h16zM55 54.008c0.55 0 1 0.45 1 1 0 0.554-0.45 1-1 1h-16c-0.554 0-1-0.446-1-1 0-0.55 0.446-1 1-1h16zM55 48.008c0.55 0 1 0.45 1 1 0 0.554-0.45 1-1 1h-16c-0.554 0-1-0.446-1-1 0-0.55 0.446-1 1-1h16zM55 42.008c0.55 0 1 0.45 1 1 0 0.554-0.45 1-1 1h-16c-0.554 0-1-0.446-1-1 0-0.55 0.446-1 1-1h16zM55 30.008c0.55 0 1 0.448 1 1s-0.45 1-1 1h-38c-0.552 0-1-0.448-1-1s0.448-1 1-1h38zM55 36.008c0.55 0 1 0.45 1 1 0 0.554-0.45 1-1 1h-38c-0.552 0-1-0.446-1-1 0-0.55 0.448-1 1-1h38zM18 26h14c1.106 0 2-0.894 2-2v-13.992c0-1.106-0.894-2-2-2h-14c-1.106 0-2 0.894-2 2v13.992c0 1.104 0.894 2 2 2zM20 12h10v10h-10v-10z" fill="#555555"></path>
</svg>
