<?xml version="1.0" encoding="utf-8"?>
<!-- Generated by IcoMoon.io -->
<!DOCTYPE svg PUBLIC "-//W3C//DTD SVG 1.1//EN" "http://www.w3.org/Graphics/SVG/1.1/DTD/svg11.dtd">
<svg version="1.1" xmlns="http://www.w3.org/2000/svg" xmlns:xlink="http://www.w3.org/1999/xlink" width="64" height="64" viewBox="0 0 64 64">
<g id="icomoon-ignore">
	<line stroke-width="1" x1="" y1="" x2="" y2="" stroke="#449FDB" opacity=""></line>
</g>
	<path d="M62.828 15.17l-12-12c-0.75-0.75-1.77-1.17-2.828-1.17h-42c-3.308 0-6 2.69-6 6v48c0 3.308 2.692 6 6 6h52c3.308 0 6-2.692 6-6v-38c0-1.062-0.422-2.080-1.172-2.83zM60 56c0 1.106-0.894 2-2 2h-52c-1.106 0-2-0.894-2-2v-48c0-1.106 0.894-2 2-2h40v8h-0.004c0 3.314 2.688 6 6 6h8.004v36zM53.996 18h-2c-2.204 0-4-1.794-4-4h0.004v-8l12 12h-6.004zM31 16c-0.552 0-1-0.446-1-1s0.448-1 1-1h10c0.55 0 1 0.448 1 1s-0.45 1-1 1h-10zM31 22c-0.552 0-1-0.448-1-1s0.448-1 1-1h10c0.55 0 1 0.448 1 1s-0.45 1-1 1h-10zM30 27c0-0.554 0.448-1 1-1h24c0.55 0 1 0.448 1 1s-0.45 1-1 1h-24c-0.552 0-1-0.448-1-1zM55 38c0.55 0 1 0.446 1 1 0 0.55-0.45 1-1 1h-46c-0.552 0-1-0.45-1-1 0-0.554 0.448-1 1-1h46zM55 44c0.55 0 1 0.446 1 1 0 0.55-0.45 1-1 1h-46c-0.552 0-1-0.45-1-1 0-0.554 0.448-1 1-1h46zM55 50c0.55 0 1 0.446 1 1 0 0.55-0.45 1-1 1h-46c-0.552 0-1-0.45-1-1 0-0.554 0.448-1 1-1h46zM55 32c0.55 0 1 0.448 1 1s-0.45 1-1 1h-46c-0.552 0-1-0.446-1-1s0.448-1 1-1h46zM10 28h14c1.106 0 2-0.894 2-2v-12c0-1.106-0.894-2-2-2h-14c-1.106 0-2 0.894-2 2v12c0 1.104 0.894 2 2 2zM12 16h10v8h-10v-8z" fill="#555555"></path>
</svg>
