<?xml version="1.0" encoding="utf-8"?>
<!-- Generated by IcoMoon.io -->
<!DOCTYPE svg PUBLIC "-//W3C//DTD SVG 1.1//EN" "http://www.w3.org/Graphics/SVG/1.1/DTD/svg11.dtd">
<svg version="1.1" xmlns="http://www.w3.org/2000/svg" xmlns:xlink="http://www.w3.org/1999/xlink" width="54" height="64" viewBox="0 0 54 64">
<g id="icomoon-ignore">
	<line stroke-width="1" x1="" y1="" x2="" y2="" stroke="#449FDB" opacity=""></line>
</g>
	<path d="M47 64c1.738 0 3-1.262 3-3v-56c0-1.738-1.262-3-3-3h-40c-1.738 0-3 1.262-3 3v2.334c0 0.552 0.448 1 1 1s1-0.448 1-1v-2.334c0-0.626 0.374-1 1-1h9.124v58h-9.124c-0.626 0-1-0.374-1-1v-1.834c0-0.552-0.448-1-1-1s-1 0.448-1 1v1.834c0 1.738 1.262 3 3 3h40zM18 4h29c0.626 0 1 0.374 1 1v56c0 0.626-0.374 1-1 1h-29v-58zM54 59v-52c0-0.552-0.448-1-1-1s-1 0.448-1 1v52c0 0.552 0.448 1 1 1s1-0.448 1-1zM1 22h8c0.552 0 1-0.448 1-1s-0.448-1-1-1h-8c-0.552 0-1 0.448-1 1s0.448 1 1 1zM1 14h8c0.552 0 1-0.448 1-1s-0.448-1-1-1h-8c-0.552 0-1 0.448-1 1s0.448 1 1 1zM1 30h8c0.552 0 1-0.448 1-1s-0.448-1-1-1h-8c-0.552 0-1 0.448-1 1s0.448 1 1 1zM1 46h8c0.552 0 1-0.448 1-1s-0.448-1-1-1h-8c-0.552 0-1 0.448-1 1s0.448 1 1 1zM1 38h8c0.552 0 1-0.448 1-1s-0.448-1-1-1h-8c-0.552 0-1 0.448-1 1s0.448 1 1 1zM1 54h8c0.552 0 1-0.448 1-1s-0.448-1-1-1h-8c-0.552 0-1 0.448-1 1s0.448 1 1 1z" fill="#555555"></path>
</svg>
