<?xml version="1.0" encoding="utf-8"?>
<!-- Generated by IcoMoon.io -->
<!DOCTYPE svg PUBLIC "-//W3C//DTD SVG 1.1//EN" "http://www.w3.org/Graphics/SVG/1.1/DTD/svg11.dtd">
<svg version="1.1" xmlns="http://www.w3.org/2000/svg" xmlns:xlink="http://www.w3.org/1999/xlink" width="44" height="64" viewBox="0 0 44 64">
<g id="icomoon-ignore">
	<line stroke-width="1" x1="" y1="" x2="" y2="" stroke="#449FDB" opacity=""></line>
</g>
	<path d="M30.806 42h9.16c2.106 0 3.818-1.712 4.034-3.818v-34.364c-0.216-2.106-1.928-3.818-4.034-3.818h-35.932c-2.106 0-3.818 1.712-4.034 3.818v34.364c0.216 2.106 1.928 3.818 4.034 3.818h9.924c0.696 0 4.166 0.148 4.166 3.084 0 5.244-1.106 7.684-1.524 8.604l-0.098 0.218 0.806 0.348v0.026l-0.894-0.18c-0.034 0.066-0.060 0.136-0.076 0.208-0.308 0.822-0.464 1.666-0.464 2.514 0.002 4.294 2.462 7.178 6.126 7.178 3.702 0 6.188-2.884 6.188-7.178 0-0.782-0.132-1.56-0.396-2.322-0.010-0.228-0.098-0.44-0.238-0.604-0.052-0.12-0.12-0.25-0.202-0.404-0.438-0.83-1.352-2.554-1.352-8.408 0-1.24 1.28-3.084 4.806-3.084zM2 24.118h40v7.882h-40v-7.882zM4.034 2h35.932c1.002 0 1.818 0.816 2.034 1.818v18.298h-40v-18.298c0.216-1.002 1.032-1.818 2.034-1.818zM25.584 54.428c0.056 0.106 0.104 0.194 0.186 0.378 0 0.002 0.006 0.014 0.014 0.032 0.008 0.026 0.016 0.050 0.026 0.076 0.25 0.626 0.376 1.27 0.376 1.908 0.002 2.504-1.098 5.178-4.186 5.178-3.042 0-4.124-2.674-4.124-5.178 0-0.638 0.126-1.282 0.376-1.908 0.008-0.024 0.018-0.046 0.024-0.070 0.028-0.060 0.062-0.136 0.066-0.144l0.084-0.186c0.464-1.028 1.702-3.752 1.702-9.43-0.004-4.014-3.878-5.084-6.228-5.084 0 0 0 0-0.002 0h-9.864c-1.002 0-1.818-0.816-2.034-1.818v-4.182h40v4.182c-0.216 1.002-1.032 1.818-2.034 1.818h-9.16c-4.994 0-6.806 3.042-6.806 5.084 0 6.35 1.070 8.374 1.584 9.344z" fill="#555555"></path>
</svg>
