<?xml version="1.0" encoding="utf-8"?>
<!-- Generated by IcoMoon.io -->
<!DOCTYPE svg PUBLIC "-//W3C//DTD SVG 1.1//EN" "http://www.w3.org/Graphics/SVG/1.1/DTD/svg11.dtd">
<svg version="1.1" xmlns="http://www.w3.org/2000/svg" xmlns:xlink="http://www.w3.org/1999/xlink" width="64" height="64" viewBox="0 0 64 64">
<g id="icomoon-ignore">
	<line stroke-width="1" x1="" y1="" x2="" y2="" stroke="#449FDB" opacity=""></line>
</g>
	<path d="M63.086 0.32c-0.332-0.214-0.71-0.32-1.086-0.32-0.386 0-0.774 0.11-1.11 0.336l-60 40c-0.618 0.41-0.958 1.132-0.878 1.872 0.076 0.738 0.556 1.376 1.246 1.648l15.648 6.262 7.358 12.876c0.352 0.618 1.006 1 1.714 1.008 0.008 0 0.014 0 0.022 0 0.702 0 1.354-0.372 1.714-0.972l4.154-6.926 19.39 7.754c0.238 0.096 0.488 0.142 0.742 0.142 0.34 0 0.676-0.086 0.98-0.258 0.528-0.296 0.89-0.816 0.992-1.414l10-60c0.13-0.786-0.218-1.574-0.886-2.008zM6.272 41.554l46.35-30.902-33.7 36.074c-0.178-0.106-0.336-0.246-0.532-0.324l-12.118-4.848zM20.378 48.132c-0.004-0.008-0.010-0.012-0.014-0.020l37.886-40.55-32.298 50.324-5.574-9.754zM50.434 59.218l-17.082-6.832c-0.406-0.16-0.828-0.214-1.246-0.238l26.304-40.776-7.976 47.846z" fill="#555555"></path>
</svg>
