<?xml version="1.0" encoding="utf-8"?>
<!-- Generated by IcoMoon.io -->
<!DOCTYPE svg PUBLIC "-//W3C//DTD SVG 1.1//EN" "http://www.w3.org/Graphics/SVG/1.1/DTD/svg11.dtd">
<svg version="1.1" xmlns="http://www.w3.org/2000/svg" xmlns:xlink="http://www.w3.org/1999/xlink" width="68" height="64" viewBox="0 0 68 64">
<g id="icomoon-ignore">
	<line stroke-width="1" x1="" y1="" x2="" y2="" stroke="#449FDB" opacity=""></line>
</g>
	<path d="M11.174 63.734c4.030 0 8.366-2.052 11.414-5.102l33.766-34.338c1.732-1.732 2.696-4.028 2.712-6.462 0.018-2.44-0.918-4.728-2.632-6.444-3.536-3.534-9.322-3.502-12.924 0.096l-25.882 27.060c-0.406 0.426-0.392 1.104 0.036 1.512 0.426 0.408 1.1 0.392 1.512-0.034l25.864-27.044c2.746-2.748 7.182-2.782 9.882-0.080 1.306 1.306 2.020 3.052 2.006 4.916-0.012 1.87-0.754 3.632-2.092 4.972l-33.766 34.34c-3.552 3.55-10.852 6.77-15.23 2.388-2.074-2.074-3.114-4.618-3.006-7.358 0.106-2.72 1.386-5.44 3.614-7.666l38.592-39.168c2.052-2.052 5.258-3.24 8.792-3.252 0.022 0 0.042 0 0.064 0 3.504 0 6.666 1.154 8.684 3.172 2.032 2.030 3.188 5.218 3.174 8.748-0.014 3.534-1.202 6.738-3.268 8.804l-29.79 30.97c-0.41 0.426-0.396 1.102 0.030 1.512 0.424 0.408 1.102 0.396 1.51-0.030l29.776-30.956c2.45-2.448 3.864-6.2 3.878-10.292 0.018-4.094-1.368-7.838-3.798-10.268-2.416-2.416-6.128-3.8-10.196-3.8-0.024 0-0.048 0-0.072 0-4.094 0.016-7.846 1.43-10.3 3.884l-38.594 39.17c-5.402 5.402-5.654 12.99-0.602 18.042 1.894 1.892 4.308 2.708 6.846 2.708z" fill="#555555"></path>
</svg>
