<?xml version="1.0" encoding="utf-8"?>
<!-- Generated by IcoMoon.io -->
<!DOCTYPE svg PUBLIC "-//W3C//DTD SVG 1.1//EN" "http://www.w3.org/Graphics/SVG/1.1/DTD/svg11.dtd">
<svg version="1.1" xmlns="http://www.w3.org/2000/svg" xmlns:xlink="http://www.w3.org/1999/xlink" width="64" height="64" viewBox="0 0 64 64">
<g id="icomoon-ignore">
	<line stroke-width="1" x1="" y1="" x2="" y2="" stroke="#449FDB" opacity=""></line>
</g>
	<path d="M16 12.042v-6.042c0-3.308-2.692-6-6-6s-6 2.692-6 6v6.042c-2.416 1.83-4 4.696-4 7.958s1.584 6.128 4 7.954v30.046c0 3.308 2.692 6 6 6s6-2.692 6-6v-30.046c2.416-1.824 4-4.692 4-7.954s-1.584-6.128-4-7.958zM8 6c0-1.106 0.894-2 2-2s2 0.894 2 2v4.2c-0.646-0.13-1.314-0.2-2-0.2s-1.354 0.070-2 0.2v-4.2zM12 58c0 1.106-0.894 2-2 2s-2-0.894-2-2v-28.204c0.646 0.134 1.314 0.204 2 0.204s1.354-0.070 2-0.204v28.204zM15.73 21.68c-0.032 0.106-0.060 0.21-0.098 0.316-0.19 0.528-0.434 1.028-0.756 1.472-0.008 0.012-0.020 0.020-0.028 0.032-0.348 0.476-0.762 0.898-1.232 1.254-0.008 0.008-0.014 0.012-0.020 0.016-0.482 0.364-1.020 0.656-1.598 0.86-0.626 0.226-1.292 0.37-1.998 0.37s-1.372-0.144-2-0.372c-0.578-0.204-1.116-0.496-1.598-0.86-0.006-0.004-0.012-0.008-0.020-0.016-0.47-0.356-0.884-0.778-1.232-1.254-0.008-0.012-0.020-0.020-0.028-0.032-0.322-0.446-0.566-0.946-0.756-1.472-0.038-0.106-0.066-0.21-0.098-0.316-0.158-0.534-0.268-1.092-0.268-1.678 0-0.59 0.11-1.148 0.27-1.684 0.032-0.106 0.060-0.21 0.098-0.312 0.188-0.528 0.432-1.028 0.756-1.476 0.008-0.012 0.020-0.020 0.028-0.032 0.348-0.472 0.762-0.898 1.232-1.254 0.008-0.004 0.014-0.012 0.020-0.016 0.48-0.358 1.018-0.652 1.596-0.858 0.628-0.224 1.294-0.368 2-0.368s1.372 0.144 2 0.368c0.578 0.208 1.116 0.5 1.598 0.86 0.006 0.004 0.012 0.012 0.020 0.016 0.47 0.356 0.884 0.782 1.232 1.254 0.008 0.012 0.020 0.020 0.028 0.032 0.322 0.446 0.566 0.946 0.754 1.474 0.038 0.102 0.068 0.206 0.098 0.312 0.16 0.536 0.27 1.094 0.27 1.684 0 0.586-0.11 1.144-0.27 1.68zM60 12.042v-6.042c0-3.308-2.692-6-6-6s-6 2.692-6 6v6.042c-2.418 1.83-4 4.696-4 7.958s1.582 6.128 4 7.954v30.046c0 3.308 2.692 6 6 6s6-2.692 6-6v-30.046c2.414-1.824 4-4.692 4-7.954s-1.586-6.128-4-7.958zM52 6c0-1.106 0.894-2 2-2s2 0.894 2 2v4.2c-0.648-0.13-1.316-0.2-2-0.2-0.688 0-1.356 0.070-2 0.2v-4.2zM56 58c0 1.106-0.894 2-2 2s-2-0.894-2-2v-28.204c0.644 0.134 1.312 0.204 2 0.204 0.684 0 1.352-0.070 2-0.204v28.204zM59.73 21.68c-0.032 0.106-0.062 0.21-0.098 0.316-0.192 0.528-0.434 1.028-0.758 1.472-0.008 0.012-0.020 0.020-0.028 0.032-0.348 0.476-0.762 0.898-1.23 1.254-0.008 0.008-0.016 0.012-0.020 0.016-0.484 0.364-1.020 0.656-1.598 0.86-0.626 0.226-1.294 0.37-1.998 0.37-0.708 0-1.372-0.144-2-0.372-0.578-0.204-1.118-0.496-1.598-0.86-0.008-0.004-0.012-0.008-0.020-0.016-0.472-0.356-0.886-0.778-1.234-1.254-0.008-0.012-0.020-0.020-0.028-0.032-0.32-0.446-0.566-0.946-0.754-1.472-0.040-0.106-0.066-0.21-0.098-0.316-0.158-0.534-0.268-1.092-0.268-1.678 0-0.59 0.11-1.148 0.27-1.684 0.032-0.106 0.058-0.21 0.098-0.312 0.188-0.528 0.434-1.028 0.754-1.476 0.008-0.012 0.020-0.020 0.028-0.032 0.348-0.472 0.762-0.898 1.234-1.254 0.008-0.004 0.012-0.012 0.020-0.016 0.48-0.36 1.020-0.652 1.598-0.86 0.626-0.222 1.29-0.366 1.998-0.366 0.704 0 1.372 0.144 2 0.368 0.578 0.208 1.114 0.5 1.598 0.86 0.004 0.004 0.012 0.012 0.020 0.016 0.468 0.356 0.882 0.782 1.23 1.254 0.008 0.012 0.020 0.020 0.028 0.032 0.324 0.45 0.566 0.95 0.758 1.476 0.036 0.102 0.066 0.208 0.098 0.312 0.158 0.534 0.268 1.092 0.268 1.682 0 0.586-0.11 1.144-0.27 1.68zM38 36.042v-30.042c0-3.308-2.692-6-6-6s-6 2.692-6 6v30.042c-2.416 1.828-4 4.696-4 7.958s1.584 6.128 4 7.954v6.046c0 3.308 2.692 6 6 6s6-2.692 6-6v-6.046c2.414-1.824 4-4.692 4-7.954s-1.586-6.128-4-7.958zM30 6c0-1.106 0.894-2 2-2s2 0.894 2 2v28.2c-0.648-0.128-1.316-0.2-2-0.2-0.686 0-1.354 0.070-2 0.2v-28.2zM34 58c0 1.106-0.894 2-2 2s-2-0.894-2-2v-4.204c0.646 0.134 1.314 0.204 2 0.204 0.684 0 1.352-0.070 2-0.204v4.204zM37.73 45.68c-0.032 0.106-0.062 0.21-0.098 0.316-0.192 0.528-0.434 1.028-0.758 1.472-0.008 0.012-0.020 0.020-0.028 0.032-0.348 0.476-0.762 0.898-1.23 1.254-0.008 0.008-0.016 0.012-0.020 0.016-0.484 0.364-1.020 0.656-1.598 0.86-0.626 0.226-1.294 0.37-1.998 0.37-0.706 0-1.372-0.144-2-0.372-0.578-0.204-1.116-0.496-1.598-0.86-0.006-0.004-0.012-0.008-0.020-0.016-0.47-0.356-0.884-0.778-1.232-1.254-0.008-0.012-0.020-0.020-0.028-0.032-0.322-0.446-0.566-0.946-0.756-1.472-0.038-0.106-0.066-0.21-0.098-0.316-0.158-0.534-0.268-1.092-0.268-1.678 0-0.59 0.11-1.148 0.27-1.684 0.032-0.106 0.060-0.21 0.098-0.312 0.19-0.528 0.434-1.028 0.756-1.476 0.008-0.012 0.020-0.020 0.028-0.032 0.348-0.472 0.762-0.898 1.232-1.254 0.008-0.004 0.014-0.012 0.020-0.016 0.482-0.36 1.020-0.652 1.598-0.86 0.626-0.222 1.292-0.366 1.998-0.366 0.704 0 1.372 0.144 2 0.368 0.578 0.208 1.114 0.5 1.598 0.86 0.004 0.004 0.012 0.012 0.020 0.016 0.468 0.356 0.882 0.782 1.23 1.254 0.008 0.012 0.020 0.020 0.028 0.032 0.324 0.45 0.566 0.95 0.758 1.476 0.036 0.102 0.066 0.208 0.098 0.312 0.158 0.534 0.268 1.092 0.268 1.682 0 0.586-0.11 1.144-0.27 1.68z" fill="#555555"></path>
</svg>
