<?xml version="1.0" encoding="utf-8"?>
<!-- Generated by IcoMoon.io -->
<!DOCTYPE svg PUBLIC "-//W3C//DTD SVG 1.1//EN" "http://www.w3.org/Graphics/SVG/1.1/DTD/svg11.dtd">
<svg version="1.1" xmlns="http://www.w3.org/2000/svg" xmlns:xlink="http://www.w3.org/1999/xlink" width="64" height="64" viewBox="0 0 64 64">
<g id="icomoon-ignore">
	<line stroke-width="1" x1="" y1="" x2="" y2="" stroke="#449FDB" opacity=""></line>
</g>
	<path d="M58.79 5.16c-3.29-3.286-7.622-5.16-11.892-5.16-3.602 0-6.918 1.336-9.34 3.754l-9.734 9.808c-0.030 0.028-0.064 0.046-0.094 0.076-0.016 0.016-0.026 0.038-0.042 0.052l0.004 0.004-20.658 20.818c-0.952 0.946-1.642 2.124-2.026 3.41l-4.698 17.016c-0.004 0.046-0.31 1.382-0.31 2.062 0 3.864 3.138 7 7.008 7 0.77 0 2.26-0.368 2.314-0.376l16.956-4.458c1.288-0.382 2.458-1.078 3.41-2.032l30.526-30.766c5.552-5.556 4.926-14.868-1.424-21.208zM32.028 47.59c-0.164-1.804-0.674-3.574-1.438-5.254l18.91-18.908c1.156 3.652 0.562 7.472-1.972 10.008-0.016 0.016-0.036 0.026-0.050 0.042l0.028 0.026-15.456 15.58c0-0.498 0.024-0.986-0.022-1.494zM29.586 40.512c-0.746-1.226-1.594-2.41-2.644-3.458-1.222-1.222-2.624-2.18-4.088-2.984l19.064-19.064c1.496 0.664 2.93 1.61 4.196 2.876 1.082 1.078 1.918 2.286 2.562 3.542l-19.090 19.088zM20.972 33.124c-1.852-0.746-3.792-1.172-5.736-1.198l15.406-15.524c2.358-2.3 5.792-2.962 9.174-2.124l-18.844 18.846zM8.334 59.746c-0.218 0.050-0.896 0.222-1.356 0.254-1.644-0.020-2.978-1.356-2.978-3 0.024-0.336 0.158-0.914 0.204-1.124l2.106-7.628c2.286-0.062 4.746 0.828 6.68 2.766 1.964 1.96 2.888 4.468 2.788 6.782l-7.444 1.95zM17.748 57.274c-0.048-2.684-1.14-5.476-3.344-7.676-2.084-2.086-4.812-3.29-7.532-3.398l1.992-7.214c0.144-0.48 0.43-0.954 0.782-1.368 4.012-2.872 10.182-2.024 14.468 2.266 4.534 4.532 5.234 11.172 1.742 15.136-0.232 0.122-0.466 0.238-0.718 0.312l-7.39 1.942zM57.382 23.544l-3.368 3.394c0-0.452 0.054-0.886 0.012-1.348-0.352-3.87-2.156-7.612-5.086-10.538-3.258-3.26-7.578-5.13-11.856-5.142l3.312-3.34c1.658-1.654 3.972-2.57 6.502-2.57 3.218 0 6.524 1.456 9.066 3.99 2.386 2.382 3.808 5.342 4.012 8.336 0.188 2.794-0.734 5.356-2.594 7.218z" fill="#555555"></path>
</svg>
