<?xml version="1.0" encoding="utf-8"?>
<!-- Generated by IcoMoon.io -->
<!DOCTYPE svg PUBLIC "-//W3C//DTD SVG 1.1//EN" "http://www.w3.org/Graphics/SVG/1.1/DTD/svg11.dtd">
<svg version="1.1" xmlns="http://www.w3.org/2000/svg" xmlns:xlink="http://www.w3.org/1999/xlink" width="64" height="64" viewBox="0 0 64 64">
<g id="icomoon-ignore">
	<line stroke-width="1" x1="" y1="" x2="" y2="" stroke="#449FDB" opacity=""></line>
</g>
	<path d="M0 62.958c0 0.552 0.448 1 1 1h62.222c0.134 0 0.264-0.026 0.386-0.078s0.232-0.126 0.324-0.218c0.002-0.002 0.004-0.002 0.006-0.004 0.006-0.006 0.006-0.018 0.014-0.024 0.102-0.11 0.168-0.244 0.214-0.39 0.014-0.046 0.020-0.090 0.028-0.138 0.008-0.050 0.030-0.094 0.030-0.146 0-0.080-0.028-0.15-0.046-0.224-0.006-0.028 0.006-0.056-0.004-0.084l-6.32-19.43c-0.048-0.15-0.132-0.288-0.244-0.398l-34.234-34.236c-0.036-0.056-0.062-0.116-0.11-0.166l-7.478-7.478c-1.214-1.214-3.19-1.214-4.406 0l-10.47 10.47c-0.588 0.588-0.912 1.37-0.912 2.202s0.324 1.616 0.912 2.204l7.312 7.312c0.036 0.054 0.060 0.116 0.108 0.164l34.18 34.41c0.118 0.12 0.262 0.206 0.424 0.254l13.426 4h-55.362c-0.552-0.002-1 0.446-1 0.998zM12.724 20.322l31.374 30.972-1.154 4.004-32.49-32.706 2.27-2.27zM45.632 50l-31.496-31.090 4.874-4.874 31.214 31.296v4.668h-4.592zM51.47 43.75l-31.046-31.128 2.078-2.078 32.422 32.422-3.454 0.784zM45.976 52h5.248c0.552 0 1-0.448 1-1v-5.37l4.014-0.912 5.446 16.74-16.976-5.058 1.268-4.4zM2 13.616c0-0.298 0.116-0.576 0.326-0.788l10.47-10.47c0.434-0.434 1.14-0.436 1.578 0l6.744 6.744-12.046 12.046-6.744-6.744c-0.212-0.21-0.328-0.49-0.328-0.788z" fill="#555555"></path>
</svg>
