<?xml version="1.0" encoding="utf-8"?>
<!-- Generated by IcoMoon.io -->
<!DOCTYPE svg PUBLIC "-//W3C//DTD SVG 1.1//EN" "http://www.w3.org/Graphics/SVG/1.1/DTD/svg11.dtd">
<svg version="1.1" xmlns="http://www.w3.org/2000/svg" xmlns:xlink="http://www.w3.org/1999/xlink" width="64" height="64" viewBox="0 0 64 64">
<g id="icomoon-ignore">
	<line stroke-width="1" x1="" y1="" x2="" y2="" stroke="#449FDB" opacity=""></line>
</g>
	<path d="M48 0h-32c-3.316 0-6 2.686-6 6v52c0 3.316 2.686 6 6 6h32c3.312 0 6-2.688 6-6v-52c0-3.316-2.688-6-6-6zM50 58c0 1.102-0.898 2-2 2h-32c-1.104 0-2-0.894-2-2v-4.008h36v4.008zM50 51.992h-36v-39.992h36v39.992zM50 10h-36v-4c0-1.104 0.896-2 2-2h32c1.102 0 2 0.896 2 2v4zM36 7c0 0.552-0.45 1-1 1h-6c-0.554 0-1-0.448-1-1v0c0-0.554 0.446-1 1-1h6c0.55 0 1 0.446 1 1v0zM34 56.992c0 0.55-0.45 1-1 1h-2c-0.552 0-1-0.45-1-1v0c0-0.554 0.448-1 1-1h2c0.55 0 1 0.446 1 1v0z" fill="#555555"></path>
</svg>
