<?xml version="1.0" encoding="utf-8"?>
<!-- Generated by IcoMoon.io -->
<!DOCTYPE svg PUBLIC "-//W3C//DTD SVG 1.1//EN" "http://www.w3.org/Graphics/SVG/1.1/DTD/svg11.dtd">
<svg version="1.1" xmlns="http://www.w3.org/2000/svg" xmlns:xlink="http://www.w3.org/1999/xlink" width="38" height="64" viewBox="0 0 38 64">
<g id="icomoon-ignore">
	<line stroke-width="1" x1="" y1="" x2="" y2="" stroke="#449FDB" opacity=""></line>
</g>
	<path d="M3 64h32c1.654 0 3-1.346 3-3v-58c0-1.654-1.346-3-3-3h-32c-1.654 0-3 1.346-3 3v58c0 1.654 1.346 3 3 3zM2 3c0-0.552 0.448-1 1-1h32c0.552 0 1 0.448 1 1v58c0 0.552-0.448 1-1 1h-32c-0.552 0-1-0.448-1-1v-58zM5 54h28c0.552 0 1-0.448 1-1v-42c0-0.552-0.448-1-1-1h-28c-0.552 0-1 0.448-1 1v42c0 0.552 0.448 1 1 1zM6 12h26v40h-26v-40zM18 58c0 1.105 0.895 2 2 2s2-0.895 2-2c0-1.105-0.895-2-2-2s-2 0.895-2 2zM15 8h8c0.552 0 1-0.448 1-1s-0.448-1-1-1h-8c-0.552 0-1 0.448-1 1s0.448 1 1 1z" fill="#555555"></path>
</svg>
