<?xml version="1.0" encoding="utf-8"?>
<!-- Generated by IcoMoon.io -->
<!DOCTYPE svg PUBLIC "-//W3C//DTD SVG 1.1//EN" "http://www.w3.org/Graphics/SVG/1.1/DTD/svg11.dtd">
<svg version="1.1" xmlns="http://www.w3.org/2000/svg" xmlns:xlink="http://www.w3.org/1999/xlink" width="66" height="64" viewBox="0 0 66 64">
<g id="icomoon-ignore">
	<line stroke-width="1" x1="" y1="" x2="" y2="" stroke="#449FDB" opacity=""></line>
</g>
	<path d="M3 56h52c1.654 0 3-1.346 3-3v-50c0-1.654-1.346-3-3-3h-52c-1.654 0-3 1.346-3 3v50c0 1.654 1.346 3 3 3zM2 3c0-0.552 0.45-1 1-1h52c0.55 0 1 0.448 1 1v50c0 0.552-0.45 1-1 1h-52c-0.55 0-1-0.448-1-1v-50zM36 22c2.206 0 4-1.794 4-4s-1.794-4-4-4-4 1.794-4 4 1.794 4 4 4zM36 16c1.104 0 2 0.898 2 2s-0.896 2-2 2-2-0.898-2-2 0.896-2 2-2zM7 46h44c0.552 0 1-0.448 1-1v-38c0-0.552-0.448-1-1-1h-44c-0.552 0-1 0.448-1 1v38c0 0.552 0.448 1 1 1zM8 44v-9.276c0.044-0.032 0.094-0.050 0.134-0.090l10.232-10.232c0.52-0.52 1.424-0.518 1.944 0l15.042 15.042c0.196 0.196 0.452 0.292 0.708 0.292 0.248 0 0.496-0.092 0.69-0.276l7.732-7.344c0.26-0.26 0.606-0.404 0.972-0.404 0.368 0 0.71 0.144 0.928 0.356l3.618 4.118v7.814h-42zM50 8v25.162l-2.162-2.456c-0.634-0.638-1.482-0.99-2.382-0.99-0.002 0-0.002 0-0.002 0-0.902 0-1.75 0.352-2.37 0.972l-7.008 6.656-14.352-14.354c-1.278-1.276-3.498-1.274-4.772 0l-8.952 8.952v-23.942h42zM9 58.166c-0.552 0-1 0.448-1 1v1.834c0 1.654 1.346 3 3 3h52c1.654 0 3-1.346 3-3v-52c0-1.654-1.346-3-3-3h-1.834c-0.552 0-1 0.448-1 1s0.448 1 1 1h1.834c0.55 0 1 0.448 1 1v52c0 0.552-0.45 1-1 1h-52c-0.55 0-1-0.448-1-1v-1.834c0-0.552-0.448-1-1-1z" fill="#555555"></path>
</svg>
