<?xml version="1.0" encoding="utf-8"?>
<!-- Generated by IcoMoon.io -->
<!DOCTYPE svg PUBLIC "-//W3C//DTD SVG 1.1//EN" "http://www.w3.org/Graphics/SVG/1.1/DTD/svg11.dtd">
<svg version="1.1" xmlns="http://www.w3.org/2000/svg" xmlns:xlink="http://www.w3.org/1999/xlink" width="64" height="64" viewBox="0 0 64 64">
<g id="icomoon-ignore">
	<line stroke-width="1" x1="" y1="" x2="" y2="" stroke="#449FDB" opacity=""></line>
</g>
	<path d="M58 35.036c0-0.552-0.448-1-1-1h-27v-27.036c0-0.552-0.448-1-1-1-15.99 0-29 12.99-29 28.958 0 16.556 12.486 29.042 29.042 29.042 15.426 0 28.958-13.536 28.958-28.964zM2 34.958c0-14.532 11.574-26.412 26-26.94v27.018c0 0.552 0.448 1 1 0.964h26.98c-0.566 13.98-12.91 26-26.938 26-15.416 0-27.042-11.624-27.042-27.042zM35 30h27.998c0.552 0.036 1.002-0.448 1.002-1 0-15.99-13.010-29-29-29-0.552 0-1 0.448-1 1v28.036c0 0.552 0.448 1 1 0.964zM36 2.018c14.126 0.518 25.518 11.94 25.988 26.018h-25.988v-26.018z" fill="#555555"></path>
</svg>
