<?xml version="1.0" encoding="utf-8"?>
<!-- Generated by IcoMoon.io -->
<!DOCTYPE svg PUBLIC "-//W3C//DTD SVG 1.1//EN" "http://www.w3.org/Graphics/SVG/1.1/DTD/svg11.dtd">
<svg version="1.1" xmlns="http://www.w3.org/2000/svg" xmlns:xlink="http://www.w3.org/1999/xlink" width="62" height="64" viewBox="0 0 62 64">
<g id="icomoon-ignore">
	<line stroke-width="1" x1="" y1="" x2="" y2="" stroke="#449FDB" opacity=""></line>
</g>
	<path d="M1 6c-0.552 0-1 0.448-1 1v34c0 1.654 1.346 3 3 3h56c1.654 0 3-1.346 3-3v-34c0-0.552-0.448-1-1-1s-1 0.448-1 1v34c0 0.552-0.448 1-1 1h-56c-0.552 0-1-0.448-1-1v-34c0-0.552-0.448-1-1-1zM65 0h-68c-0.552 0-1 0.448-1 1s0.448 1 1 1h68c0.552 0 1-0.448 1-1s-0.448-1-1-1zM23.708 16.292c-0.366-0.366-0.95-0.392-1.348-0.062l-12 10c-0.424 0.354-0.482 0.984-0.128 1.41 0.354 0.424 0.982 0.482 1.41 0.128l11.298-9.416 11.354 11.354c0.194 0.196 0.45 0.294 0.706 0.294s0.512-0.098 0.708-0.292l14.292-14.294v7.586c0 0.552 0.448 1 1 1s1-0.448 1-1v-10c0-0.13-0.026-0.26-0.076-0.382-0.102-0.244-0.296-0.44-0.542-0.542-0.122-0.050-0.252-0.076-0.382-0.076h-10c-0.552 0-1 0.448-1 1s0.448 1 1 1h7.586l-13.586 13.586-11.292-11.294zM16.114 63.464c0.256 0.49 0.86 0.678 1.35 0.422l13.536-7.090 13.536 7.090c0.148 0.078 0.306 0.114 0.464 0.114 0.36 0 0.708-0.196 0.886-0.536 0.256-0.49 0.068-1.094-0.422-1.35l-13.786-7.22c0.196-0.182 0.322-0.438 0.322-0.728v-5.166c0-0.552-0.448-1-1-1s-1 0.448-1 1v5.166c0 0.288 0.126 0.544 0.322 0.726l-13.786 7.22c-0.49 0.258-0.678 0.862-0.422 1.352z" fill="#555555"></path>
</svg>
