<?xml version="1.0" encoding="utf-8"?>
<!-- Generated by IcoMoon.io -->
<!DOCTYPE svg PUBLIC "-//W3C//DTD SVG 1.1//EN" "http://www.w3.org/Graphics/SVG/1.1/DTD/svg11.dtd">
<svg version="1.1" xmlns="http://www.w3.org/2000/svg" xmlns:xlink="http://www.w3.org/1999/xlink" width="84" height="64" viewBox="0 0 84 64">
<g id="icomoon-ignore">
	<line stroke-width="1" x1="" y1="" x2="" y2="" stroke="#449FDB" opacity=""></line>
</g>
	<path d="M81 0h-20c-1.382 0-3.148 0.752-4.094 1.74l-2.66 2.68c-0.388 0.392-0.384 1.026 0.008 1.414 0.388 0.388 1.026 0.386 1.414-0.006l2.668-2.692c0.57-0.594 1.84-1.136 2.664-1.136h20c0.55 0 1 0.448 1 1v20.098c0 0.822-0.542 2.092-1.148 2.674l-28.162 27.944c-0.402 0.382-1.070 0.372-1.46-0.016l-5.296-5.298c-0.39-0.39-1.024-0.39-1.414 0s-0.39 1.024 0 1.414l5.296 5.298c0.588 0.586 1.368 0.882 2.148 0.882 0.764 0 1.53-0.282 2.124-0.848l28.164-27.946c0.996-0.956 1.748-2.722 1.748-4.104v-20.098c0-1.654-1.346-3-3-3zM78.076 10c0-2.206-1.794-4-4-4s-4 1.794-4 4 1.794 4 4 4 4-1.794 4-4zM72.076 10c0-1.102 0.896-2 2-2s2 0.898 2 2-0.896 2-2 2-2-0.898-2-2zM32.924 8c-1.382 0-3.148 0.752-4.096 1.74l-27.986 28.262c-1.136 1.184-1.12 3.094 0.042 4.256l20.856 20.856c0.57 0.572 1.334 0.886 2.152 0.886 0.792 0 1.54-0.298 2.118-0.852l28.162-27.944c0.998-0.956 1.752-2.722 1.752-4.106v-20.098c0-1.654-1.346-3-3-3h-20zM54 11v20.098c0 0.824-0.618 2.092-1.224 2.674l-28.162 27.944c-0.39 0.37-1.080 0.362-1.458-0.016l-20.858-20.854c-0.39-0.392-0.398-1.060-0.026-1.446l27.988-28.264c0.57-0.594 1.84-1.136 2.664-1.136h20c0.55 0 1.076 0.448 1.076 1zM46 14c-2.206 0-4 1.794-4 4s1.794 4 4 4 4-1.794 4-4-1.794-4-4-4zM46 20c-1.104 0-2-0.898-2-2s0.896-2 2-2 2 0.898 2 2-0.896 2-2 2z" fill="#555555"></path>
</svg>
