<?xml version="1.0" encoding="utf-8"?>
<!-- Generated by IcoMoon.io -->
<!DOCTYPE svg PUBLIC "-//W3C//DTD SVG 1.1//EN" "http://www.w3.org/Graphics/SVG/1.1/DTD/svg11.dtd">
<svg version="1.1" xmlns="http://www.w3.org/2000/svg" xmlns:xlink="http://www.w3.org/1999/xlink" width="84" height="64" viewBox="0 0 84 64">
<g id="icomoon-ignore">
	<line stroke-width="1" x1="" y1="" x2="" y2="" stroke="#449FDB" opacity=""></line>
</g>
	<path d="M81 20h-5v-7c0-1.654-1.346-3-3-3h-4c-0.552 0-1 0.448-1 1s0.448 1 1 1h4c0.55 0 1 0.448 1 1v7h-8v-19c0-0.552-0.448-1-1-1h-46c-0.552 0-1 0.448-1 1v19h-8v-7c0-0.552 0.45-1 1-1h4c0.552 0 1-0.448 1-1s-0.448-1-1-1h-4c-1.654 0-3 1.346-3 3v7h-5c-1.654 0-3 1.346-3 3v28c0 1.654 1.346 3 3 3h12c0.552 0 1-0.448 1-1s-0.448-1-1-1h-12c-0.55 0-1-0.448-1-1v-7h80v7c0 0.552-0.45 1-1 1h-12c-0.552 0-1 0.448-1 1s0.448 1 1 1h12c1.654 0 3-1.346 3-3v-28c0-1.654-1.346-3-3-3zM20 2h44v18h-44v-18zM2 42v-19c0-0.552 0.45-1 1-1h78c0.55 0 1 0.448 1 1v19h-80zM65 46c-0.552 0-1 0.448-1 1v15h-44v-15c0-0.552-0.448-1-1-1s-1 0.448-1 1v16c0 0.552 0.448 1 1 1h46c0.552 0 1-0.448 1-1v-16c0-0.552-0.448-1-1-1zM74 36c0 1.105 0.895 2 2 2s2-0.895 2-2c0-1.105-0.895-2-2-2s-2 0.895-2 2zM66 36c0 1.105 0.895 2 2 2s2-0.895 2-2c0-1.105-0.895-2-2-2s-2 0.895-2 2z" fill="#555555"></path>
</svg>
