<?xml version="1.0" encoding="utf-8"?>
<!-- Generated by IcoMoon.io -->
<!DOCTYPE svg PUBLIC "-//W3C//DTD SVG 1.1//EN" "http://www.w3.org/Graphics/SVG/1.1/DTD/svg11.dtd">
<svg version="1.1" xmlns="http://www.w3.org/2000/svg" xmlns:xlink="http://www.w3.org/1999/xlink" width="70" height="64" viewBox="0 0 70 64">
<g id="icomoon-ignore">
	<line stroke-width="1" x1="" y1="" x2="" y2="" stroke="#449FDB" opacity=""></line>
</g>
	<path d="M40.084 7.814c0-3.89-3.118-7.814-10.084-7.814-6.134 0-10.258 3.14-10.258 7.814 0 2.728 1.104 3.972 1.834 4.796 0.386 0.434 0.542 0.63 0.542 0.826 0 0.324 0 0.52-1.116 0.564h-12.196c-4.69 0-8.806 3.738-8.806 8v7.464c0.076 1.888 1.142 3.062 2.784 3.062 0.934 0 1.626-0.534 2.298-1.052 0.9-0.69 1.918-1.474 3.918-1.474 3.392 0 7 2.804 7 8 0 5.258-3.656 8.924-6.938 8.924-1.98 0-3.016-0.858-3.932-1.614-0.686-0.568-1.394-1.156-2.348-1.156-1.64 0-2.708 1.174-2.784 3.102v8.204c0.002 4.47 4.2 8.54 8.808 8.54h12.258c1.856-0.076 3.054-1.17 3.054-2.792 0-0.974-0.554-1.6-1.044-2.152-0.656-0.738-1.332-1.5-1.332-3.468 0-3.532 3.208-5.814 8.17-5.814 4.964 0 8.172 2.282 8.172 5.814 0 1.968-0.678 2.73-1.332 3.468-0.49 0.552-1.046 1.178-1.046 2.152 0 1.644 1.17 2.712 3.096 2.79l7.882 0.002c4.304 0 7.312-3.354 7.312-8.156v-9.3c0.052-0.244 0.668-1.176 1.608-1.176 0.192 0 0.386 0.158 0.818 0.542 0.82 0.734 2.062 1.844 4.786 1.844 4.368-0.002 8.792-3.35 8.792-9.754 0-6.908-4.018-10-8-10-2.688 0-4.24 1.228-5.268 2.040-0.456 0.36-0.884 0.7-1.128 0.7-0.942 0-1.558-0.936-1.604-1.142-0.002-0.016-0.002-0.032-0.004-0.048v-7.166c0-4.858-3.076-8.384-7.312-8.384h-7.842c-0.026-0.002-0.052-0.004-0.080-0.006-1.056-0.040-1.056-0.234-1.056-0.558 0-0.196 0.156-0.39 0.542-0.826 0.73-0.822 1.836-2.068 1.836-4.796zM36.752 11.284c-0.49 0.552-1.046 1.18-1.046 2.154 0 1.1 0.502 2.424 2.942 2.554 0.046 0.006 0.092 0.008 0.14 0.008h7.896c3.488 0 5.316 3.212 5.316 6.384v7.266c0 0.072-0.014 0.142 0 0.21 0.184 1.222 1.684 2.878 3.604 2.878 0.94 0 1.632-0.548 2.37-1.13 0.952-0.754 2.034-1.608 4.026-1.608 3.644 0 6 3.14 6 8 0 5.328-3.522 7.752-6.792 7.752-1.958 0-2.718-0.678-3.454-1.334-0.552-0.492-1.178-1.050-2.15-1.050-1.92 0-3.422 1.658-3.604 2.88-0.014 0.068 0 0.138 0 0.21v9.388c0 3.062-1.646 6.154-5.316 6.154h-7.842c-1.136-0.046-1.136-0.57-1.136-0.792 0-0.194 0.156-0.39 0.542-0.826 0.73-0.824 1.836-2.068 1.836-4.796 0-3.89-3.144-7.814-10.172-7.814-6.082 0-10.17 3.14-10.17 7.814 0 2.728 1.104 3.972 1.836 4.796 0.384 0.434 0.542 0.63 0.542 0.826 0 0.224 0 0.748-1.096 0.792h-12.218c-3.434 0-6.806-3.24-6.806-6.54v-8.164c0.044-1.142 0.562-1.142 0.784-1.142 0.232 0 0.64 0.338 1.074 0.696 0.996 0.826 2.506 2.074 5.206 2.074 4.314 0 8.936-4.39 8.936-10.924 0-6.496-4.636-10-9-10-2.68 0-4.158 1.136-5.136 1.89-0.444 0.342-0.828 0.636-1.080 0.636-0.22 0-0.738 0-0.784-1.102v-7.424c0-3.536 3.588-6 6.806-6h12.23c0.032 0 0.062-0.002 0.094-0.004v0c2.47-0.092 2.988-1.444 2.988-2.56 0-0.974-0.554-1.6-1.044-2.152-0.656-0.738-1.332-1.5-1.332-3.47 0-3.478 3.318-5.814 8.258-5.814 4.91 0 8.084 2.282 8.084 5.814 0 1.968-0.678 2.732-1.332 3.47z" fill="#555555"></path>
</svg>
