<?xml version="1.0" encoding="utf-8"?>
<!-- Generated by IcoMoon.io -->
<!DOCTYPE svg PUBLIC "-//W3C//DTD SVG 1.1//EN" "http://www.w3.org/Graphics/SVG/1.1/DTD/svg11.dtd">
<svg version="1.1" xmlns="http://www.w3.org/2000/svg" xmlns:xlink="http://www.w3.org/1999/xlink" width="64" height="64" viewBox="0 0 64 64">
<g id="icomoon-ignore">
	<line stroke-width="1" x1="" y1="" x2="" y2="" stroke="#449FDB" opacity=""></line>
</g>
	<path d="M32 64c17.644 0 32-14.356 32-32s-14.356-32-32-32-32 14.356-32 32 14.356 32 32 32zM32 2c16.542 0 30 13.458 30 30s-13.458 30-30 30-30-13.458-30-30 13.458-30 30-30zM21.468 27.292c1.014 0.33 2.068 0.178 3.062-0.444 0.466-0.292 0.61-0.91 0.316-1.378-0.292-0.466-0.908-0.61-1.378-0.316-0.482 0.3-0.946 0.376-1.376 0.238-0.458-0.15-0.89-0.536-1.252-1.116-0.324-0.516-0.428-1.128-0.292-1.722 0.138-0.596 0.498-1.1 1.016-1.424 1.236-0.78 2.844-0.334 3.886 0.448 1.762 1.318 2.55 3.61 2.55 7.422 0 5.628-2.56 12.626-7.454 15.108-0.492 0.25-0.69 0.852-0.44 1.346 0.18 0.346 0.53 0.546 0.894 0.546 0.152 0 0.306-0.036 0.454-0.108 5.87-2.978 8.546-10.846 8.546-16.892 0-4.444-1.064-7.31-3.35-9.024-1.904-1.434-4.376-1.648-6.146-0.542-0.97 0.606-1.646 1.554-1.902 2.67-0.258 1.116-0.064 2.264 0.542 3.232 0.614 0.98 1.416 1.656 2.324 1.956zM37.468 27.292c1.012 0.33 2.068 0.178 3.062-0.444 0.466-0.292 0.61-0.91 0.316-1.378-0.292-0.466-0.908-0.61-1.378-0.316-0.48 0.3-0.946 0.376-1.376 0.238-0.458-0.15-0.89-0.536-1.252-1.116-0.324-0.516-0.428-1.128-0.292-1.722 0.138-0.596 0.498-1.1 1.016-1.424 1.238-0.78 2.846-0.334 3.886 0.448 1.762 1.318 2.55 3.61 2.55 7.422 0 5.628-2.56 12.626-7.454 15.108-0.492 0.25-0.69 0.852-0.44 1.346 0.18 0.346 0.53 0.546 0.894 0.546 0.152 0 0.306-0.036 0.454-0.108 5.87-2.978 8.546-10.846 8.546-16.892 0-4.444-1.064-7.31-3.35-9.024-1.904-1.434-4.376-1.648-6.146-0.542-0.97 0.606-1.646 1.554-1.902 2.67-0.258 1.116-0.064 2.264 0.542 3.232 0.614 0.98 1.416 1.656 2.324 1.956z" fill="#555555"></path>
</svg>
