<?xml version="1.0" encoding="utf-8"?>
<!-- Generated by IcoMoon.io -->
<!DOCTYPE svg PUBLIC "-//W3C//DTD SVG 1.1//EN" "http://www.w3.org/Graphics/SVG/1.1/DTD/svg11.dtd">
<svg version="1.1" xmlns="http://www.w3.org/2000/svg" xmlns:xlink="http://www.w3.org/1999/xlink" width="64" height="64" viewBox="0 0 64 64">
<g id="icomoon-ignore">
	<line stroke-width="1" x1="" y1="" x2="" y2="" stroke="#449FDB" opacity=""></line>
</g>
	<path d="M24.296 5.332l-6.126 9.11c-0.308 0.458-0.186 1.080 0.272 1.388s1.080 0.186 1.388-0.272l6.162-9.166c1.64-2.834 3.776-4.392 6.008-4.392s4.368 1.558 6.006 4.388l11.028 19.2-7.84-1.568c-0.546-0.114-1.070 0.242-1.176 0.786-0.108 0.542 0.244 1.068 0.784 1.176l10 2c0.068 0.012 0.134 0.018 0.198 0.018 0.158 0 0.306-0.050 0.442-0.118 0.018-0.008 0.038-0.004 0.056-0.014 0.020-0.012 0.032-0.032 0.052-0.046 0.066-0.044 0.124-0.096 0.178-0.156 0.032-0.034 0.064-0.064 0.090-0.102 0.042-0.062 0.070-0.13 0.098-0.2 0.018-0.046 0.042-0.088 0.052-0.136 0.002-0.012 0.010-0.020 0.012-0.032l2-10c0.108-0.542-0.244-1.068-0.784-1.176-0.546-0.114-1.070 0.242-1.176 0.786l-1.478 7.39-10.802-18.808c-2.016-3.474-4.764-5.388-7.74-5.388s-5.724 1.914-7.704 5.332zM20 57.038c0-0.552-0.448-1-1-1h-8.998c-3.094-0.006-5.568-1.218-6.784-3.328-1.296-2.246-1.078-5.208 0.6-8.126l11.024-19.288 3.23 8.078c0.156 0.388 0.532 0.626 0.928 0.626 0.124 0 0.25-0.024 0.372-0.072 0.512-0.206 0.762-0.788 0.558-1.298l-4-10c-0.020-0.052-0.056-0.090-0.084-0.136-0.026-0.042-0.044-0.084-0.076-0.124-0.070-0.084-0.15-0.15-0.238-0.206-0.014-0.010-0.022-0.024-0.036-0.032-0.002-0.002-0.004 0-0.006-0.002-0.112-0.064-0.234-0.102-0.364-0.118-0.022-0.002-0.042 0.004-0.064 0.002-0.086-0.006-0.17-0.012-0.258 0.008l-10 2c-0.542 0.108-0.892 0.634-0.784 1.176s0.626 0.894 1.176 0.786l7.844-1.568-10.96 19.176c-2.042 3.55-2.258 7.24-0.596 10.122 1.584 2.742 4.686 4.32 8.514 4.328h9c0.554-0.004 1.002-0.452 1.002-1.004zM62.528 53.692c1.646-2.852 1.424-6.516-0.562-9.96l-4.050-9.136c-0.224-0.504-0.814-0.736-1.32-0.508-0.504 0.224-0.732 0.814-0.508 1.32l4.098 9.228c1.668 2.904 1.892 5.84 0.612 8.056-1.21 2.098-3.688 3.302-6.798 3.308l-20.62 0.034 4.326-4.326c0.39-0.39 0.39-1.024 0-1.414s-1.024-0.39-1.414 0l-6 6c-0.2 0.2-0.294 0.464-0.29 0.726 0 0.006-0.004 0.012-0.004 0.020 0 0.324 0.166 0.6 0.408 0.782l5.886 5.886c0.196 0.194 0.452 0.292 0.708 0.292s0.512-0.098 0.708-0.292c0.39-0.39 0.39-1.024 0-1.414l-4.26-4.26 20.554-0.034c3.84-0.008 6.948-1.578 8.526-4.308z" fill="#555555"></path>
</svg>
