<?xml version="1.0" encoding="utf-8"?>
<!-- Generated by IcoMoon.io -->
<!DOCTYPE svg PUBLIC "-//W3C//DTD SVG 1.1//EN" "http://www.w3.org/Graphics/SVG/1.1/DTD/svg11.dtd">
<svg version="1.1" xmlns="http://www.w3.org/2000/svg" xmlns:xlink="http://www.w3.org/1999/xlink" width="64" height="64" viewBox="0 0 64 64">
<g id="icomoon-ignore">
	<line stroke-width="1" x1="" y1="" x2="" y2="" stroke="#449FDB" opacity=""></line>
</g>
	<path d="M53.262 8h9.738c0.552 0 1-0.448 1-1s-0.448-1-1-1h-12c-0.552 0-1 0.448-1 1v12c0 0.552 0.448 1 1 1s1-0.448 1-1v-9.434l1.222 1.222c5.666 5.666 8.788 13.2 8.788 21.212s-3.122 15.546-8.788 21.212c-8.41 8.412-21.008 11.064-32.102 6.75-0.514-0.204-1.094 0.054-1.294 0.568-0.2 0.516 0.054 1.096 0.57 1.294 3.768 1.464 7.696 2.176 11.594 2.176 8.34 0 16.532-3.26 22.646-9.376 6.044-6.042 9.374-14.080 9.374-22.626s-3.33-16.582-9.374-22.624l-1.374-1.374zM13 44c-0.552 0-1 0.448-1 1v9.68l-1.426-1.426c-5.666-5.666-8.788-13.2-8.788-21.212s3.122-15.548 8.788-21.214c8.27-8.272 20.702-10.99 31.672-6.912 0.512 0.192 1.092-0.070 1.286-0.59 0.192-0.518-0.072-1.094-0.59-1.286-11.698-4.344-24.96-1.45-33.782 7.374-6.044 6.042-9.374 14.080-9.374 22.626s3.33 16.584 9.374 22.626l1.332 1.334h-9.492c-0.552 0-1 0.448-1 1s0.448 1 1 1h11.712c0.080 0.020 0.752-0.050 0.948-0.246 0.008-0.008 0.010-0.018 0.018-0.026 0.196-0.184 0.322-0.438 0.322-0.728v-12c0-0.552-0.448-1-1-1z" fill="#555555"></path>
</svg>
