<?xml version="1.0" encoding="utf-8"?>
<!-- Generated by IcoMoon.io -->
<!DOCTYPE svg PUBLIC "-//W3C//DTD SVG 1.1//EN" "http://www.w3.org/Graphics/SVG/1.1/DTD/svg11.dtd">
<svg version="1.1" xmlns="http://www.w3.org/2000/svg" xmlns:xlink="http://www.w3.org/1999/xlink" width="56" height="64" viewBox="0 0 56 64">
<g id="icomoon-ignore">
	<line stroke-width="1" x1="" y1="" x2="" y2="" stroke="#449FDB" opacity=""></line>
</g>
	<path d="M3 18c-0.552 0-1 0.448-1 1v41.892c0 1.33 0.632 2.078 1.164 2.47 0.636 0.472 1.384 0.638 2.052 0.638 0.402 0 0.774-0.060 1.076-0.154 5.858-1.79 18.69-14.964 21.946-18.38 3.174 3.436 15.61 16.59 21.468 18.38 0.808 0.248 2.11 0.27 3.128-0.486 0.534-0.392 1.166-1.138 1.166-2.468v-41.892c0-0.552-0.448-1-1-1s-1 0.448-1 1v41.892c0 0.54-0.202 0.75-0.354 0.862-0.356 0.264-0.968 0.3-1.354 0.182-6.080-1.858-21.15-18.44-21.3-18.606-0.188-0.208-0.454-0.328-0.734-0.33-0.254-0.002-0.546 0.112-0.738 0.318-0.156 0.166-15.724 16.756-21.812 18.618-0.384 0.118-0.998 0.082-1.354-0.182-0.152-0.112-0.354-0.324-0.354-0.862v-41.892c0-0.552-0.448-1-1-1zM56 13v-10c0-1.654-1.346-3-3-3h-50c-1.654 0-3 1.346-3 3v10c0 0.552 0.448 1 1 1h54c0.552 0 1-0.448 1-1zM54 12h-52v-9c0-0.552 0.448-1 1-1h50c0.552 0 1 0.448 1 1v9z" fill="#555555"></path>
</svg>
