<?xml version="1.0" encoding="utf-8"?>
<!-- Generated by IcoMoon.io -->
<!DOCTYPE svg PUBLIC "-//W3C//DTD SVG 1.1//EN" "http://www.w3.org/Graphics/SVG/1.1/DTD/svg11.dtd">
<svg version="1.1" xmlns="http://www.w3.org/2000/svg" xmlns:xlink="http://www.w3.org/1999/xlink" width="64" height="64" viewBox="0 0 64 64">
<g id="icomoon-ignore">
	<line stroke-width="1" x1="" y1="" x2="" y2="" stroke="#449FDB" opacity=""></line>
</g>
	<path d="M32-0.068c-17.684 0-32.068 14.384-32.068 32.068s14.384 32.068 32.068 32.068 32.068-14.384 32.068-32.068-14.384-32.068-32.068-32.068zM32 61.932c-16.504 0-29.932-13.428-29.932-29.932s13.428-29.932 29.932-29.932 29.932 13.428 29.932 29.932-13.428 29.932-29.932 29.932zM21.004 27.902c-0.59 0-1.068 0.478-1.068 1.068s0.478 1.068 1.068 1.068c4.506 0 8.28 1.394 10.908 4.032 2.63 2.636 4.020 6.416 4.020 10.93 0 0.59 0.478 1.068 1.068 1.068s1.068-0.478 1.068-1.068c0.002-5.092-1.604-9.392-4.64-12.44-3.042-3.046-7.336-4.658-12.424-4.658zM21.010 18.054c-0.59 0-1.068 0.478-1.068 1.068s0.478 1.068 1.068 1.068c14.28 0 25.046 10.666 25.046 24.808 0 0.59 0.478 1.068 1.068 1.068s1.068-0.478 1.068-1.068c0.002-15.36-11.684-26.944-27.182-26.944zM23.998 37.764c-2.242 0-4.066 1.826-4.066 4.070 0 2.242 1.824 4.066 4.066 4.066 2.244 0 4.070-1.824 4.070-4.068-0.002-2.244-1.828-4.068-4.070-4.068zM23.998 43.764c-1.064 0-1.93-0.866-1.93-1.93 0-1.066 0.866-1.934 1.93-1.934s1.932 0.87 1.934 1.934c0 1.064-0.868 1.93-1.934 1.93z" fill="#555555"></path>
</svg>
