<?xml version="1.0" encoding="utf-8"?>
<!-- Generated by IcoMoon.io -->
<!DOCTYPE svg PUBLIC "-//W3C//DTD SVG 1.1//EN" "http://www.w3.org/Graphics/SVG/1.1/DTD/svg11.dtd">
<svg version="1.1" xmlns="http://www.w3.org/2000/svg" xmlns:xlink="http://www.w3.org/1999/xlink" width="64" height="64" viewBox="0 0 64 64">
<g id="icomoon-ignore">
	<line stroke-width="1" x1="" y1="" x2="" y2="" stroke="#449FDB" opacity=""></line>
</g>
	<path d="M32-0.068c-17.682 0-32.070 14.384-32.070 32.068s14.388 32.068 32.070 32.068 32.070-14.384 32.070-32.068-14.388-32.068-32.070-32.068zM32 61.932c-16.504 0-29.93-13.428-29.93-29.932s13.426-29.932 29.93-29.932 29.93 13.428 29.93 29.932-13.426 29.932-29.93 29.932zM32.326 39.646c-5.578 0-10.954 2.358-14.748 6.47-0.4 0.434-0.374 1.11 0.062 1.51 0.432 0.4 1.108 0.376 1.51-0.060 3.39-3.676 8.192-5.784 13.174-5.784 5.058 0 9.912 2.162 13.312 5.934 0.21 0.232 0.502 0.352 0.794 0.352 0.256 0 0.512-0.090 0.716-0.276 0.438-0.394 0.474-1.070 0.078-1.51-3.806-4.218-9.236-6.636-14.898-6.636zM21 33c2.206 0 4-1.794 4-4s-1.794-4-4-4-4 1.794-4 4 1.794 4 4 4zM21 27c1.102 0 2 0.896 2 2s-0.898 2-2 2-2-0.896-2-2 0.898-2 2-2zM43 33c2.206 0 4-1.794 4-4s-1.794-4-4-4-4 1.794-4 4 1.794 4 4 4zM43 27c1.102 0 2 0.896 2 2s-0.898 2-2 2-2-0.896-2-2 0.898-2 2-2z" fill="#555555"></path>
</svg>
