<?xml version="1.0" encoding="utf-8"?>
<!-- Generated by IcoMoon.io -->
<!DOCTYPE svg PUBLIC "-//W3C//DTD SVG 1.1//EN" "http://www.w3.org/Graphics/SVG/1.1/DTD/svg11.dtd">
<svg version="1.1" xmlns="http://www.w3.org/2000/svg" xmlns:xlink="http://www.w3.org/1999/xlink" width="64" height="64" viewBox="0 0 64 64">
<g id="icomoon-ignore">
	<line stroke-width="1" x1="" y1="" x2="" y2="" stroke="#449FDB" opacity=""></line>
</g>
	<path d="M51 58c3.86 0 7-3.14 7-7s-3.14-7-7-7-7 3.14-7 7 3.14 7 7 7zM51 46c2.756 0 5 2.242 5 5s-2.244 5-5 5-5-2.242-5-5 2.244-5 5-5zM37.464 47.9c0 2.902 0.714 6.542 1.672 8.602 1.96 4.974 5.816 7.498 11.464 7.498 7.388 0 13.4-6.012 13.4-13.4 0-7.186-5.636-12.4-13.4-12.4-8.826 0-11.706-4.742-11.82-4.938-0.040-0.068-0.086-0.132-0.14-0.19l-30.71-32.756c-0.28-0.298-0.716-0.394-1.098-0.246-0.38 0.15-0.632 0.52-0.632 0.93 0 19.302 12.872 29.43 22.27 36.822 5.026 3.954 8.994 7.074 8.994 10.078zM8.288 3.622l28.824 30.744c0.536 0.848 4.088 5.834 13.488 5.834 6.606 0 11.4 4.374 11.4 10.4 0 6.288-5.114 11.4-11.4 11.4-4.81 0-7.952-2.040-9.626-6.288-0.732-1.572-1.51-4.846-1.51-7.812 0-3.974-4.306-7.362-9.756-11.65-8.634-6.792-20.304-15.97-21.42-32.628zM6 51c0 3.86 3.14 7 7 7s7-3.14 7-7-3.14-7-7-7-7 3.14-7 7zM18 51c0 2.758-2.244 5-5 5s-5-2.242-5-5 2.244-5 5-5 5 2.242 5 5zM41.268 30.942c-0.408 0.372-0.438 1.004-0.066 1.412 0.198 0.216 0.468 0.326 0.74 0.326 0.24 0 0.482-0.086 0.674-0.262 7.070-6.44 15.184-15.83 15.184-31.418 0-0.41-0.25-0.78-0.632-0.93-0.38-0.146-0.816-0.052-1.098 0.246l-21.84 23.292c-0.378 0.402-0.358 1.036 0.046 1.412 0.402 0.376 1.034 0.36 1.414-0.044l20.028-21.36c-0.852 13.26-8.092 21.532-14.45 27.326zM21.822 37.792c0.514-0.2 0.77-0.778 0.572-1.292s-0.78-0.774-1.294-0.57c-0.422 0.164-0.878 0.366-1.368 0.584-1.688 0.75-3.79 1.686-6.332 1.686-7.764 0-13.4 5.214-13.4 12.4 0 7.388 6.012 13.4 13.4 13.4 5.648 0 9.504-2.524 11.438-7.444 1.012-2.17 1.162-6.92 1.162-9.556 0-0.538 1.524-1.686 2.436-2.372 0.842-0.632 1.712-1.288 2.312-1.964 0.366-0.414 0.328-1.046-0.084-1.412-0.412-0.368-1.046-0.328-1.412 0.084-0.468 0.53-1.256 1.122-2.020 1.696-1.662 1.252-3.232 2.432-3.232 3.968 0 4.144-0.364 7.402-0.998 8.768-1.65 4.192-4.792 6.232-9.602 6.232-6.286 0-11.4-5.114-11.4-11.4 0-6.028 4.794-10.4 11.4-10.4 2.968 0 5.382-1.076 7.146-1.862 0.456-0.204 0.882-0.392 1.276-0.546zM30.388 33.968c0 0.89 0.722 1.612 1.612 1.612s1.612-0.722 1.612-1.612c0-0.89-0.722-1.612-1.612-1.612s-1.612 0.722-1.612 1.612z" fill="#555555"></path>
</svg>
