<?xml version="1.0" encoding="utf-8"?>
<!-- Generated by IcoMoon.io -->
<!DOCTYPE svg PUBLIC "-//W3C//DTD SVG 1.1//EN" "http://www.w3.org/Graphics/SVG/1.1/DTD/svg11.dtd">
<svg version="1.1" xmlns="http://www.w3.org/2000/svg" xmlns:xlink="http://www.w3.org/1999/xlink" width="64" height="64" viewBox="0 0 64 64">
<g id="icomoon-ignore">
	<line stroke-width="1" x1="" y1="" x2="" y2="" stroke="#449FDB" opacity=""></line>
</g>
	<path d="M34 13c0-0.552-0.448-1-1-1s-1 0.448-1 1v17h-19c-0.552 0-1 0.448-1 1s0.448 1 1 1h19v18.938c0 0.552 0.448 1 1 1s1-0.448 1-1v-18.938h18.938c0.552 0 1-0.448 1-1s-0.448-1-1-1h-18.938v-17zM63.124 30h-5.226c-0.976-12.74-11.158-22.922-23.898-23.898v-5.102c0-0.552-0.448-1-1-1s-1 0.448-1 1v5c-13.66 0-24.87 10.598-25.898 24h-4.978c-0.552 0-1 0.448-1 1s0.448 1 1 1h4.876c0 14.336 11.664 26 26 26v5c0 0.552 0.448 1 1 1s1-0.448 1-1v-5.102c13.402-1.028 24-12.238 24-25.898h5.124c0.552 0 1-0.448 1-1s-0.446-1-1-1zM32 56c-13.234 0-24-10.766-24-24s10.766-24 24-24 24 10.766 24 24-10.766 24-24 24z" fill="#555555"></path>
</svg>
