<?xml version="1.0" encoding="utf-8"?>
<!-- Generated by IcoMoon.io -->
<!DOCTYPE svg PUBLIC "-//W3C//DTD SVG 1.1//EN" "http://www.w3.org/Graphics/SVG/1.1/DTD/svg11.dtd">
<svg version="1.1" xmlns="http://www.w3.org/2000/svg" xmlns:xlink="http://www.w3.org/1999/xlink" width="64" height="64" viewBox="0 0 64 64">
<g id="icomoon-ignore">
	<line stroke-width="1" x1="" y1="" x2="" y2="" stroke="#449FDB" opacity=""></line>
</g>
	<path d="M40 0.010c-13.254 0-24 10.746-24 24 0 4.052 1.014 7.866 2.79 11.216l-16.688 16.684 0.014 0.012c-1.304 1.282-2.116 3.058-2.116 5.032 0 3.898 3.16 7.058 7.058 7.058 1.97 0 3.748-0.812 5.030-2.118l-0.004-0.004 16.682-16.68c3.352 1.782 7.172 2.8 11.234 2.8 13.254 0 24-10.746 24-24s-10.746-24-24-24zM9.59 59.394c-0.644 0.668-1.536 1.086-2.532 1.086-1.95 0-3.53-1.578-3.53-3.528 0-0.996 0.42-1.886 1.086-2.532l-0.018-0.016 16.132-16.132c1.41 1.902 3.090 3.582 4.988 4.996l-16.126 16.126zM40 44.012c-11.044 0-20-8.958-20-20 0-11.044 8.956-20 20-20 11.042 0 20 8.956 20 20 0 11.042-8.958 20-20 20zM40 10.010c0.55 0 1 0.448 1 1s-0.45 1-1 1c-6.628 0-12 5.374-12 12 0 0.552-0.448 1-1 1s-1-0.448-1-1c0-7.732 6.266-14 14-14z" fill="#555555"></path>
</svg>
