<?xml version="1.0" encoding="utf-8"?>
<!-- Generated by IcoMoon.io -->
<!DOCTYPE svg PUBLIC "-//W3C//DTD SVG 1.1//EN" "http://www.w3.org/Graphics/SVG/1.1/DTD/svg11.dtd">
<svg version="1.1" xmlns="http://www.w3.org/2000/svg" xmlns:xlink="http://www.w3.org/1999/xlink" width="66" height="64" viewBox="0 0 66 64">
<g id="icomoon-ignore">
	<line stroke-width="1" x1="" y1="" x2="" y2="" stroke="#449FDB" opacity=""></line>
</g>
	<path d="M3 64h42c1.654 0 3-1.346 3-3v-15c0-0.020-0.010-0.036-0.012-0.056 0.11-0.070 0.224-0.136 0.332-0.21l15.972 15.972c0.196 0.196 0.452 0.294 0.708 0.294s0.512-0.098 0.708-0.292c0.39-0.39 0.39-1.024 0-1.414l-15.826-15.826c2.528-2.374 4.118-5.736 4.118-9.468 0-4.594-2.402-8.632-6.012-10.944 0.002-0.020 0.012-0.036 0.012-0.056v-5c0-0.034-0.016-0.062-0.018-0.094-0.004-0.046-0.016-0.086-0.026-0.13-0.034-0.142-0.092-0.27-0.18-0.382-0.014-0.018-0.012-0.040-0.026-0.058l-16-18c-0.006-0.006-0.014-0.006-0.020-0.012-0.12-0.13-0.274-0.216-0.446-0.268-0.038-0.012-0.072-0.016-0.112-0.022-0.058-0.010-0.112-0.034-0.172-0.034h-28c-1.654 0-3 1.346-3 3v58c0 1.654 1.346 3 3 3zM52 35c0 6.066-4.936 11-11 11s-11-4.934-11-11 4.936-11 11-11 11 4.934 11 11zM32 3.63l12.774 14.37h-11.774c-0.44 0-1-0.84-1-1.5v-12.87zM2 3c0-0.552 0.45-1 1-1h27v14.5c0 1.618 1.31 3.5 3 3.5h13v3.002c-1.54-0.644-3.228-1.002-5-1.002-3.676 0-6.992 1.54-9.358 4h-20.642c-0.552 0-1 0.448-1 1s0.448 1 1 1h19.064c-1.13 1.758-1.844 3.802-2.012 6h-17.052c-0.552 0-1 0.448-1 1s0.448 1 1 1h17.050c0.168 2.198 0.884 4.242 2.012 6h-19.062c-0.552 0-1 0.448-1 1s0.448 1 1 1h20.5c0.042 0 0.078-0.018 0.12-0.024 2.368 2.474 5.694 4.024 9.38 4.024 1.772 0 3.46-0.358 5-1.004v14.004c0 0.552-0.45 1-1 1h-42c-0.56 0-1-0.44-1-1v-58zM11 20h12c0.552 0 1-0.448 1-1s-0.448-1-1-1h-12c-0.552 0-1 0.448-1 1s0.448 1 1 1zM11 52h26c0.552 0 1-0.448 1-1s-0.448-1-1-1h-26c-0.552 0-1 0.448-1 1s0.448 1 1 1z" fill="#555555"></path>
</svg>
