<?xml version="1.0" encoding="utf-8"?>
<!-- Generated by IcoMoon.io -->
<!DOCTYPE svg PUBLIC "-//W3C//DTD SVG 1.1//EN" "http://www.w3.org/Graphics/SVG/1.1/DTD/svg11.dtd">
<svg version="1.1" xmlns="http://www.w3.org/2000/svg" xmlns:xlink="http://www.w3.org/1999/xlink" width="64" height="64" viewBox="0 0 64 64">
<g id="icomoon-ignore">
	<line stroke-width="1" x1="" y1="" x2="" y2="" stroke="#449FDB" opacity=""></line>
</g>
	<path d="M60.782 25.36l-6.128-1.228c-0.308-0.886-0.672-1.746-1.074-2.578l3.472-5.208c1.058-1.586 0.848-3.7-0.5-5.046l-3.848-3.848c-0.774-0.774-1.796-1.172-2.832-1.172-0.766 0-1.54 0.22-2.214 0.672l-5.208 3.47c-0.836-0.404-1.696-0.764-2.582-1.072l-1.228-6.13c-0.372-1.872-2.016-3.216-3.922-3.216h-5.44c-1.906 0-3.548 1.346-3.922 3.216l-1.228 6.13c-0.886 0.308-1.746 0.67-2.578 1.072l-5.206-3.47c-0.678-0.452-1.45-0.672-2.218-0.672-1.034 0-2.056 0.398-2.83 1.172l-3.846 3.848c-1.348 1.348-1.558 3.46-0.5 5.046l3.47 5.208c-0.404 0.834-0.764 1.694-1.072 2.58l-6.132 1.226c-1.87 0.374-3.216 2.016-3.216 3.922v5.44c0 1.906 1.346 3.55 3.216 3.922l6.13 1.23c0.308 0.886 0.67 1.746 1.072 2.578l-3.468 5.208c-1.058 1.586-0.848 3.7 0.5 5.046l3.848 3.848c0.774 0.774 1.796 1.172 2.83 1.172 0.768 0 1.542-0.222 2.216-0.672l5.208-3.472c0.834 0.406 1.694 0.766 2.58 1.074l1.226 6.128c0.374 1.872 2.016 3.218 3.922 3.218h5.44c1.906 0 3.55-1.348 3.922-3.218l1.23-6.128c0.886-0.308 1.746-0.672 2.578-1.074l5.208 3.472c0.676 0.45 1.45 0.672 2.214 0.672 1.036 0 2.058-0.398 2.832-1.172l3.848-3.848c1.348-1.348 1.558-3.46 0.5-5.046l-3.472-5.208c0.406-0.836 0.766-1.696 1.074-2.582l6.128-1.226c1.87-0.37 3.218-2.016 3.218-3.922v-5.44c0-1.906-1.348-3.548-3.218-3.922zM53.868 35.95c-1.39 0.278-2.528 1.27-2.992 2.61-0.258 0.738-0.558 1.454-0.894 2.148-0.622 1.278-0.516 2.786 0.27 3.964l3.472 5.208-3.848 3.848-5.208-3.472c-0.668-0.446-1.442-0.672-2.218-0.672-0.594 0-1.192 0.132-1.742 0.398-0.696 0.336-1.41 0.64-2.152 0.898-1.336 0.464-2.328 1.602-2.606 2.992l-1.23 6.132h-5.44l-1.226-6.132c-0.278-1.39-1.27-2.528-2.608-2.992-0.738-0.258-1.456-0.558-2.15-0.894-0.552-0.27-1.148-0.402-1.744-0.402-0.778 0-1.55 0.226-2.218 0.672l-5.208 3.472-3.848-3.848 3.47-5.208c0.786-1.18 0.888-2.688 0.274-3.96-0.336-0.696-0.638-1.41-0.896-2.152-0.464-1.336-1.604-2.328-2.992-2.606l-6.13-1.23-0.004-5.442 6.132-1.226c1.388-0.278 2.528-1.27 2.992-2.608 0.258-0.738 0.556-1.456 0.894-2.15 0.62-1.276 0.516-2.784-0.272-3.962l-3.468-5.208 3.846-3.848 5.208 3.47c0.668 0.446 1.442 0.672 2.218 0.672 0.594 0 1.19-0.132 1.742-0.398 0.694-0.336 1.41-0.638 2.15-0.896 1.338-0.464 2.33-1.604 2.608-2.992l1.228-6.13 5.44-0.002 1.226 6.132c0.278 1.388 1.27 2.528 2.61 2.992 0.738 0.258 1.454 0.556 2.148 0.894 0.554 0.268 1.148 0.4 1.746 0.4 0.778 0 1.55-0.226 2.218-0.672l5.208-3.47 3.848 3.848-3.472 5.208c-0.786 1.18-0.886 2.686-0.274 3.96 0.336 0.694 0.64 1.41 0.898 2.15 0.464 1.338 1.602 2.33 2.992 2.608l6.128 1.228 0.006 5.44-6.132 1.228zM32 18.002c-7.73 0-14 6.27-14 14 0 7.732 6.27 14 14 14s14-6.27 14-14c0-7.73-6.27-14-14-14zM32 44.254c-6.764 0-12.25-5.488-12.25-12.25 0-6.764 5.486-12.25 12.25-12.25 6.762 0 12.25 5.486 12.25 12.25 0 6.762-5.488 12.25-12.25 12.25zM32 24.002c-4.42 0-8 3.58-8 8 0 4.418 3.58 8 8 8 4.418 0 8-3.582 8-8s-3.582-8-8-8zM32 38.004c-3.312 0-6-2.688-6-6s2.688-6 6-6 6 2.688 6 6c0 3.312-2.688 6-6 6z" fill="#555555"></path>
</svg>
