<?xml version="1.0" encoding="utf-8"?>
<!-- Generated by IcoMoon.io -->
<!DOCTYPE svg PUBLIC "-//W3C//DTD SVG 1.1//EN" "http://www.w3.org/Graphics/SVG/1.1/DTD/svg11.dtd">
<svg version="1.1" xmlns="http://www.w3.org/2000/svg" xmlns:xlink="http://www.w3.org/1999/xlink" width="54" height="64" viewBox="0 0 54 64">
<g id="icomoon-ignore">
	<line stroke-width="1" x1="" y1="" x2="" y2="" stroke="#449FDB" opacity=""></line>
</g>
	<path d="M27 0c-17.874 0-26.416 10.094-26.772 10.524-0.146 0.18-0.228 0.404-0.228 0.638v20.108c0 17.008 15.652 27.106 22.38 30.658 0.488 0.258 1.092 0.070 1.352-0.418 0.258-0.488 0.070-1.094-0.418-1.352-7.96-4.202-21.314-13.542-21.314-28.89v-19.726c1.404-1.51 9.264-9.194 24-9.53v60.988c0 0.552 0.448 1 1 1 0.298 0 0.566-0.13 0.75-0.338 3.274-1.408 26.25-12.030 26.25-32.662v-20c0-0.234-0.082-0.46-0.23-0.638-0.296-0.358-7.428-8.75-22.282-10.248-0.55-0.038-1.042 0.346-1.096 0.894-0.056 0.55 0.346 1.040 0.894 1.096 12.574 1.268 19.406 7.89 20.714 9.28v19.616c0 17.904-18.726 27.898-24 30.358v-60.358c0-0.552-0.448-1-1-1z" fill="#555555"></path>
</svg>
