<?xml version="1.0" encoding="utf-8"?>
<!-- Generated by IcoMoon.io -->
<!DOCTYPE svg PUBLIC "-//W3C//DTD SVG 1.1//EN" "http://www.w3.org/Graphics/SVG/1.1/DTD/svg11.dtd">
<svg version="1.1" xmlns="http://www.w3.org/2000/svg" xmlns:xlink="http://www.w3.org/1999/xlink" width="64" height="64" viewBox="0 0 64 64">
<g id="icomoon-ignore">
	<line stroke-width="1" x1="" y1="" x2="" y2="" stroke="#449FDB" opacity=""></line>
</g>
	<path d="M62.8 22.4l-6-7.996c-0.234-0.314-0.512-0.586-0.8-0.846v-9.558c0-2.208-1.792-4-4-4h-40c-2.21 0-4 1.792-4 4v9.56c-0.288 0.258-0.566 0.528-0.8 0.84l-5.998 7.998c-0.776 1.032-1.202 2.31-1.202 3.602v2c0 3.308 2.692 6 6 6v0 26c0 2.208 1.792 4 4 4h44c2.208 0 4-1.792 4-4v-26c3.308 0 6-2.692 6-6v-2c0-1.292-0.426-2.57-1.2-3.6zM52 4v8h-40v-8h40zM20.386 30h-8.378l8-14h4.378l-4 14zM26.468 16h4.532v14h-8.532l4-14zM33 16h4.532l4 14h-8.532v-14zM39.61 16h4.378l8 14h-8.378l-4-14zM4 28v-2c0-0.434 0.14-0.854 0.4-1.2l6-8c0.378-0.504 0.97-0.8 1.6-0.8h5.704l-8 14h-3.704c-1.104 0-2-0.894-2-2zM40 60h-15v-20h15v20zM54 60h-12v-20c0-1.106-0.898-2-2-2h-15c-1.104 0-2 0.894-2 2v20h-13v-26h44v26zM60 28c0 1.106-0.894 2-2 2h-3.708l-8-14h5.708c0.628 0 1.222 0.296 1.598 0.8l6 8c0.262 0.346 0.402 0.766 0.402 1.2v2z" fill="#555555"></path>
</svg>
