<?xml version="1.0" encoding="utf-8"?>
<!-- Generated by IcoMoon.io -->
<!DOCTYPE svg PUBLIC "-//W3C//DTD SVG 1.1//EN" "http://www.w3.org/Graphics/SVG/1.1/DTD/svg11.dtd">
<svg version="1.1" xmlns="http://www.w3.org/2000/svg" xmlns:xlink="http://www.w3.org/1999/xlink" width="64" height="64" viewBox="0 0 64 64">
<g id="icomoon-ignore">
	<line stroke-width="1" x1="" y1="" x2="" y2="" stroke="#449FDB" opacity=""></line>
</g>
	<path d="M53.996 28.006c0-9.924-8.074-18-18-17.998v-0.008c-0.55-0.002-0.996-0.45-0.996-1 0-0.552 0.446-1 1-1 0.020 0 0.036 0.008 0.050 0.012 11.016 0.026 19.934 8.954 19.946 19.972 0 0.006 0.004 0.010 0.004 0.016 0 0.552-0.45 0.998-1 0.998s-0.996-0.444-1-0.992h-0.004zM18.242 1.756c-1.146-1.148-2.682-1.756-4.244-1.756-0.772 0-1.55 0.148-2.292 0.456-2.244 0.928-3.706 3.116-3.706 5.544l-0.002 27.514-6.24 6.244c-2.344 2.34-2.344 6.14 0 8.484l14 14c1.172 1.172 2.706 1.758 4.242 1.758s3.070-0.586 4.242-1.758l6.242-6.242h27.512c2.43 0 4.618-1.46 5.542-3.704 0.93-2.242 0.418-4.824-1.3-6.54l-43.996-44zM27.656 53.172l-6.242 6.242c-0.51 0.508-1.106 0.586-1.414 0.586s-0.904-0.078-1.414-0.586l-14-14c-0.51-0.512-0.586-1.106-0.586-1.414s0.076-0.906 0.586-1.414l6.24-6.242c0.018-0.020 0.024-0.042 0.042-0.062l16.85 16.852c-0.018 0.014-0.044 0.018-0.062 0.038zM30.484 52c-0.31 0-0.598 0.11-0.894 0.176l-17.77-17.77c0.068-0.296 0.178-0.584 0.178-0.892l0.002-24.092 42.574 42.578h-24.090zM59.844 50.766c-0.308 0.75-1.036 1.234-1.848 1.234h-0.594l-45.402-45.406v-0.594c0-0.812 0.484-1.538 1.234-1.848 0.246-0.102 0.502-0.152 0.764-0.152 0.536 0 1.038 0.208 1.414 0.584l43.998 44.002c0.574 0.574 0.746 1.43 0.434 2.18zM35.996 4c-1.102-0.002-1.996-0.898-1.996-2 0-1.106 0.894-2 2-2 0.020 0 0.036 0.008 0.050 0.010 15.434 0.028 27.934 12.538 27.946 27.974 0 0.006 0.004 0.010 0.004 0.016 0 1.106-0.894 2-2 2-1.102 0-1.996-0.892-2-1.992h-0.004c0-13.234-10.766-24-24-24v-0.008z" fill="#555555"></path>
</svg>
