<?xml version="1.0" encoding="utf-8"?>
<!-- Generated by IcoMoon.io -->
<!DOCTYPE svg PUBLIC "-//W3C//DTD SVG 1.1//EN" "http://www.w3.org/Graphics/SVG/1.1/DTD/svg11.dtd">
<svg version="1.1" xmlns="http://www.w3.org/2000/svg" xmlns:xlink="http://www.w3.org/1999/xlink" width="64" height="64" viewBox="0 0 64 64">
<g id="icomoon-ignore">
	<line stroke-width="1" x1="" y1="" x2="" y2="" stroke="#449FDB" opacity=""></line>
</g>
	<path d="M32-0.068c-17.682 0-32.070 14.384-32.070 32.068s14.388 32.068 32.070 32.068 32.070-14.384 32.070-32.068-14.388-32.068-32.070-32.068zM32 61.932c-16.504 0-29.93-13.428-29.93-29.932s13.426-29.932 29.93-29.932 29.93 13.428 29.93 29.932-13.426 29.932-29.93 29.932zM33 12.106c0.61 0 1.106-0.494 1.106-1.106v-4c0-0.612-0.496-1.106-1.106-1.106s-1.106 0.494-1.106 1.106v4c0 0.612 0.496 1.106 1.106 1.106zM11 29.894h-4c-0.61 0-1.106 0.494-1.106 1.106s0.496 1.106 1.106 1.106h4c0.61 0 1.106-0.494 1.106-1.106s-0.496-1.106-1.106-1.106zM51.894 31c0 0.612 0.496 1.106 1.106 1.106h4c0.61 0 1.106-0.494 1.106-1.106s-0.496-1.106-1.106-1.106h-4c-0.61 0-1.106 0.494-1.106 1.106zM17.15 20.256c0.284 0 0.566-0.108 0.782-0.324 0.432-0.432 0.432-1.13 0-1.562l-3.15-3.152c-0.432-0.434-1.13-0.434-1.562 0-0.432 0.432-0.432 1.13 0 1.562l3.15 3.15c0.214 0.218 0.498 0.326 0.78 0.326zM47.782 42.218c-0.432-0.434-1.13-0.434-1.562 0-0.432 0.432-0.432 1.13 0 1.562l3 3c0.216 0.216 0.498 0.324 0.782 0.324s0.566-0.108 0.782-0.324c0.432-0.432 0.432-1.13 0-1.562l-3.002-3zM49.782 15.782c0.432-0.432 0.432-1.13 0-1.562-0.432-0.434-1.13-0.434-1.562 0l-3.15 3.15c-0.432 0.432-0.432 1.13 0 1.562 0.216 0.216 0.498 0.324 0.782 0.324s0.566-0.108 0.782-0.324l3.148-3.15zM17.218 43.218l-3 3c-0.432 0.432-0.432 1.13 0 1.562 0.216 0.216 0.498 0.324 0.782 0.324s0.566-0.108 0.782-0.324l3-3c0.432-0.432 0.432-1.13 0-1.562s-1.132-0.432-1.564 0zM39 48h-14c-1.778-0.068-3.070 1.222-3.070 3v1.914c0 1.796 1.348 3.206 3.070 3.086h14c1.72 0.12 3.070-1.29 3.070-3.086v-1.914c0-1.778-1.292-3.068-3.070-3zM39.93 52.914c0 0.514-0.292 1.068-0.93 1.136h-14c-0.64-0.068-0.93-0.624-0.93-0.050v-1.914c0-1.678 0.338-2.018 0.93-2.086h14c0.592 0.068 0.93 0.408 0.93 1v1.914zM32 37.334c1.424 0 2.764-0.554 3.77-1.562 1.822-1.822 2.048-4.64 0.68-6.71l5.306-5.306c0.416-0.418 0.416-1.094 0-1.512-0.418-0.418-1.094-0.418-1.512 0l-5.312 5.312c-2.050-1.31-4.946-1.086-6.702 0.672-2.080 2.080-2.080 5.462 0 7.542 1.006 1.010 2.346 1.564 3.77 1.564zM30.116 30.116c0.502-0.504 1.172-0.782 1.884-0.782s1.382 0.278 1.886 0.782c1.040 1.040 1.040 2.73 0 3.77-1.006 1.008-2.762 1.008-3.77 0-1.040-1.040-1.040-2.732 0-3.77z" fill="#555555"></path>
</svg>
