<?xml version="1.0" encoding="utf-8"?>
<!-- Generated by IcoMoon.io -->
<!DOCTYPE svg PUBLIC "-//W3C//DTD SVG 1.1//EN" "http://www.w3.org/Graphics/SVG/1.1/DTD/svg11.dtd">
<svg version="1.1" xmlns="http://www.w3.org/2000/svg" xmlns:xlink="http://www.w3.org/1999/xlink" width="64" height="64" viewBox="0 0 64 64">
<g id="icomoon-ignore">
	<line stroke-width="1" x1="" y1="" x2="" y2="" stroke="#449FDB" opacity=""></line>
</g>
	<path d="M63.848 36.91l-8.004-30.012c-0.484-1.706-2.066-2.898-3.844-2.898h-40c-1.78 0-3.36 1.192-3.844 2.898l-8.004 30.012c-0.102 0.364-0.152 0.73-0.152 1.090v14c0 4.418 3.582 8 8 8h48c4.418 0 8-3.582 8-8v-14c0-0.36-0.050-0.726-0.152-1.090zM60 52c0 2.204-1.796 4-4 4h-48c-2.206 0-4-1.796-4-4v-14l8.002-30.002h39.994l8.004 30.002v14zM47.484 12h-30.968c-0.906 0-1.7 0.61-1.934 1.486l-6.89 24c-0.158 0.602-0.032 1.242 0.348 1.734s0.964 0.78 1.584 0.78h9.136l2.894 5.79c0.68 1.354 2.064 2.21 3.58 2.21h13.532c1.516 0 2.898-0.856 3.578-2.21l2.894-5.79h9.136c0.622 0 1.208-0.29 1.586-0.782s0.504-1.132 0.348-1.734l-6.89-24c-0.234-0.876-1.028-1.484-1.934-1.484zM48.562 36h-3.324c-1.524 0-2.894 0.844-3.578 2.21l-2.894 5.79h-13.532l-2.894-5.79c-0.684-1.366-2.054-2.21-3.578-2.21h-8.094l5.848-22h30.968l5.848 22h-4.77z" fill="#555555"></path>
</svg>
