<?xml version="1.0" encoding="utf-8"?>
<!-- Generated by IcoMoon.io -->
<!DOCTYPE svg PUBLIC "-//W3C//DTD SVG 1.1//EN" "http://www.w3.org/Graphics/SVG/1.1/DTD/svg11.dtd">
<svg version="1.1" xmlns="http://www.w3.org/2000/svg" xmlns:xlink="http://www.w3.org/1999/xlink" width="64" height="64" viewBox="0 0 64 64">
<g id="icomoon-ignore">
	<line stroke-width="1" x1="" y1="" x2="" y2="" stroke="#449FDB" opacity=""></line>
</g>
	<path d="M63.762 25.114c-0.554-1.598-1.976-2.768-3.688-3.022l-16.652-2.476-7.238-15.028c-0.762-1.578-2.392-2.588-4.184-2.588s-3.422 1.010-4.184 2.588l-7.238 15.028-16.654 2.476c-1.71 0.254-3.132 1.424-3.684 3.022-0.55 1.602-0.134 3.366 1.074 4.57l12.204 12.184-2.83 16.902c-0.288 1.702 0.45 3.41 1.896 4.406 0.794 0.546 1.728 0.824 2.662 0.824 0.768 0 1.538-0.188 2.236-0.562l14.518-7.816 14.52 7.816c0.698 0.374 1.468 0.562 2.234 0.562 0.934 0 1.868-0.278 2.664-0.824 1.446-0.996 2.18-2.704 1.894-4.406l-2.832-16.902 12.208-12.184c1.206-1.206 1.62-2.97 1.074-4.57zM47.176 38.726c-1.024 1.020-1.488 2.458-1.254 3.868l2.832 16.902-14.52-7.812c-0.696-0.376-1.464-0.562-2.236-0.562-0.768 0-1.538 0.188-2.234 0.562l-14.52 7.812 2.832-16.902c0.236-1.41-0.228-2.848-1.252-3.868l-12.204-12.184 16.652-2.48c1.522-0.226 2.832-1.178 3.486-2.536l7.242-15.024 7.24 15.026c0.656 1.358 1.964 2.308 3.484 2.536l16.656 2.48-12.204 12.182z" fill="#555555"></path>
</svg>
