<?xml version="1.0" encoding="utf-8"?>
<!-- Generated by IcoMoon.io -->
<!DOCTYPE svg PUBLIC "-//W3C//DTD SVG 1.1//EN" "http://www.w3.org/Graphics/SVG/1.1/DTD/svg11.dtd">
<svg version="1.1" xmlns="http://www.w3.org/2000/svg" xmlns:xlink="http://www.w3.org/1999/xlink" width="46" height="64" viewBox="0 0 46 64">
<g id="icomoon-ignore">
	<line stroke-width="1" x1="" y1="" x2="" y2="" stroke="#449FDB" opacity=""></line>
</g>
	<path d="M44 63c0-0.552-0.448-1-1-1h-36c-0.552 0-1 0.448-1 1s0.448 1 1 1h36c0.552 0 1-0.448 1-1zM2.548 18.708c-0.836 0.556-2.104 2.248-0.902 4.652 0.998 1.994 3.080 4.434 5.294 5.078 1.128 0.332 2.24 0.194 3.21-0.392 2.198-1.316 4.794-3.096 5.894-3.86 1.388 0.702 3.14 0.848 4.92 0.39 0.008-0.002 0.016-0.006 0.024-0.008-0.104 3.302-1.222 5.364-6.688 10.44-4.872 4.522-7.762 10.462-7.734 15.892 0.020 3.562 1.318 6.62 3.76 8.838 0.186 0.17 0.426 0.262 0.674 0.262h28c0.552 0 1-0.448 1-1s-0.448-1-1-1h-27.602c-1.838-1.81-2.814-4.26-2.83-7.11-0.026-4.804 2.694-10.33 7.094-14.416 5.83-5.412 7.338-7.976 7.338-12.474 0-0.082-0.028-0.154-0.046-0.23 1.094-0.59 2.040-1.37 2.686-2.314 0.81-1.18 2.554-4.21 1.26-6.892-0.24-0.494-0.838-0.704-1.336-0.464-0.496 0.24-0.706 0.838-0.464 1.336 0.582 1.206 0.168 3.034-1.108 4.89-0.736 1.072-2.052 1.938-3.522 2.314-1.494 0.382-2.914 0.214-3.904-0.464-0.346-0.236-0.8-0.234-1.142 0.008-0.036 0.024-3.554 2.502-6.298 4.148-0.502 0.3-1.032 0.364-1.624 0.188-1.548-0.452-3.25-2.424-4.064-4.052-0.658-1.316 0.016-1.944 0.322-2.168 6.894-5.954 10.354-12.14 10.496-12.402 0.132-0.244 0.16-0.532 0.072-0.798-0.010-0.030-0.7-2.126-1.080-4.066 2.092 1.26 5.69 3.020 9.436 3.020 5.208 0 17.316 1.944 17.316 19.952 0 0.098-0.018 9.888-3.94 20.654-0.19 0.518 0.078 1.092 0.598 1.282 0.114 0.038 0.228 0.058 0.342 0.058 0.408 0 0.792-0.252 0.94-0.658 4.042-11.096 4.062-20.932 4.060-21.342 0-20.366-14.786-21.948-19.316-21.948-5.018 0-10.024-3.806-10.072-3.846-0.306-0.23-0.71-0.268-1.054-0.102-0.342 0.168-0.558 0.516-0.558 0.896 0 1.962 0.93 5.136 1.292 6.294-0.836 1.396-4.132 6.562-9.744 11.414zM34.97 3.080c-3.202-2.158-6.782-3.080-11.97-3.080-0.552 0-1 0.448-1 1s0.448 1 1 1c4.76 0 8.006 0.818 10.854 2.738 4.628 3.124 10.146 9.348 10.146 21.262 0 2.902 0 6.876-1.97 14.758-0.132 0.536 0.192 1.078 0.728 1.212 0.082 0.020 0.162 0.030 0.242 0.030 0.45 0 0.858-0.302 0.97-0.758 2.030-8.118 2.030-12.236 2.030-15.242 0-12.792-5.998-19.526-11.030-22.92z" fill="#555555"></path>
</svg>
