<?xml version="1.0" encoding="utf-8"?>
<!-- Generated by IcoMoon.io -->
<!DOCTYPE svg PUBLIC "-//W3C//DTD SVG 1.1//EN" "http://www.w3.org/Graphics/SVG/1.1/DTD/svg11.dtd">
<svg version="1.1" xmlns="http://www.w3.org/2000/svg" xmlns:xlink="http://www.w3.org/1999/xlink" width="58" height="64" viewBox="0 0 58 64">
<g id="icomoon-ignore">
	<line stroke-width="1" x1="" y1="" x2="" y2="" stroke="#449FDB" opacity=""></line>
</g>
	<path d="M30 63v-19c0-0.552-0.266-2-0.818-2s-1.182 0.448-1.182 1v20c0 0.552 0.628 1 1.182 1s0.818-0.448 0.818-1zM30.182 3.124v-2.124c0-0.552-0.448-1-1-1s-1 0.448-1 1v2.124c0 0.552 0.448 1 1 1s1-0.446 1-1zM7.78 6.942l-7.134 5.596c-0.41 0.378-0.646 0.912-0.646 1.462s0.236 1.084 0.708 1.516l7.010 5.49c0.614 0.566 1.708 0.994 2.546 0.994h27.656c1.146 0 2.080-0.926 2.080-2.066v-11.868c0-1.14-0.934-2.066-2.080-2.066h-27.656c-0.838 0-1.932 0.428-2.484 0.942zM38 19.934c0 0.030-0.036 0.066-0.080 0.066h-27.656c-0.34 0-0.942-0.234-1.25-0.516l-7.072-5.426 7.132-5.596c0.25-0.228 0.85-0.462 1.19-0.462l27.736 0.066v11.868zM50.282 24.994c-0.614-0.566-1.708-0.994-2.546-0.994h-27.656c-1.146 0-2.080 0.926-2.080 2.066v11.87c0 1.138 0.934 2.064 2.080 2.064h27.656c0.838 0 1.932-0.428 2.486-0.942l7.132-5.596c0.41-0.378 0.646-0.912 0.646-1.462s-0.236-1.084-0.708-1.516l-7.010-5.49zM20 26h27.736c0.34 0 0.942 0.234 1.25 0.516l7.072 5.426-7.132 5.596c-0.25 0.228-0.85 0.462-1.19 0.462h-27.736v-12z" fill="#555555"></path>
</svg>
