<?xml version="1.0" encoding="utf-8"?>
<!-- Generated by IcoMoon.io -->
<!DOCTYPE svg PUBLIC "-//W3C//DTD SVG 1.1//EN" "http://www.w3.org/Graphics/SVG/1.1/DTD/svg11.dtd">
<svg version="1.1" xmlns="http://www.w3.org/2000/svg" xmlns:xlink="http://www.w3.org/1999/xlink" width="64" height="64" viewBox="0 0 64 64">
<g id="icomoon-ignore">
	<line stroke-width="1" x1="" y1="" x2="" y2="" stroke="#449FDB" opacity=""></line>
</g>
	<path d="M64 16c0-2.812-1.914-5.216-4.652-5.848l-26.026-6.006c-0.436-0.098-0.88-0.146-1.322-0.146s-0.886 0.048-1.35 0.152l-25.998 6c-2.74 0.632-4.652 3.036-4.652 5.848s1.914 5.216 4.65 5.848l5.35 1.234v16.918c0 5.308 6.076 10 22 10s22-4.692 22-10v-16.918l5.348-1.234c2.738-0.632 4.652-3.036 4.652-5.848zM50 40c0 2.21-6 6-18 6s-18-3.79-18-6v-15.994l16.676 3.848c0.436 0.098 0.882 0.146 1.324 0.146s0.888-0.048 1.348-0.152l16.652-3.842v15.994zM32.45 23.95c-0.15 0.032-0.3 0.050-0.45 0.050s-0.302-0.018-0.45-0.050l-26-6c-0.908-0.21-1.55-1.018-1.55-1.95s0.642-1.74 1.55-1.95l26-6c0.148-0.032 0.298-0.050 0.45-0.050s0.302 0.018 0.45 0.050l26 6c0.906 0.21 1.55 1.018 1.55 1.95s-0.644 1.74-1.55 1.95l-26 6zM58 26c0-1.106 0.894-2 2-2 1.104 0 2 0.894 2 2v18c0 1.106-0.896 2-2 2-1.106 0-2-0.894-2-2v-18zM60 48c2.208 0 4 5.792 4 8s-1.792 4-4 4c-2.21 0-4-1.792-4-4s1.79-8 4-8z" fill="#555555"></path>
</svg>
