<?xml version="1.0" encoding="utf-8"?>
<!-- Generated by IcoMoon.io -->
<!DOCTYPE svg PUBLIC "-//W3C//DTD SVG 1.1//EN" "http://www.w3.org/Graphics/SVG/1.1/DTD/svg11.dtd">
<svg version="1.1" xmlns="http://www.w3.org/2000/svg" xmlns:xlink="http://www.w3.org/1999/xlink" width="64" height="64" viewBox="0 0 64 64">
<g id="icomoon-ignore">
	<line stroke-width="1" x1="" y1="" x2="" y2="" stroke="#449FDB" opacity=""></line>
</g>
	<path d="M62.5 12.876l-10-8c-0.71-0.568-1.594-0.876-2.5-0.876h-36c-0.908 0-1.79 0.308-2.5 0.876l-10 8c-1.308 1.048-1.824 2.8-1.294 4.39l4 12c0.394 1.182 1.318 2.114 2.498 2.518 0.42 0.144 0.86 0.216 1.296 0.216 0.696 0 1.386-0.182 2-0.536v24.536c0 2.208 1.792 4 4 4h36c2.208 0 4-1.792 4-4v-24.536c0.614 0.354 1.304 0.536 2 0.536 0.438 0 0.876-0.072 1.296-0.216 1.18-0.404 2.102-1.336 2.496-2.518l4-12c0.532-1.59 0.016-3.342-1.292-4.39zM39.508 8c-1.106 2.322-4.036 4-7.508 4s-6.404-1.678-7.508-4h15.016zM56 28l-6-4v32h-36v-32l-6 4-4-12 10-8h8.354c1.114 3.444 4.992 6 9.646 6 4.652 0 8.532-2.556 9.644-6h8.356l10 8-4 12z" fill="#555555"></path>
</svg>
