<?xml version="1.0" encoding="utf-8"?>
<!-- Generated by IcoMoon.io -->
<!DOCTYPE svg PUBLIC "-//W3C//DTD SVG 1.1//EN" "http://www.w3.org/Graphics/SVG/1.1/DTD/svg11.dtd">
<svg version="1.1" xmlns="http://www.w3.org/2000/svg" xmlns:xlink="http://www.w3.org/1999/xlink" width="50" height="64" viewBox="0 0 50 64">
<g id="icomoon-ignore">
	<line stroke-width="1" x1="" y1="" x2="" y2="" stroke="#449FDB" opacity=""></line>
</g>
	<path d="M3 64h44c1.654 0 3-1.346 3-3v-58c0-1.654-1.346-3-3-3h-44c-1.654 0-3 1.346-3 3v58c0 1.654 1.346 3 3 3zM2 3c0-0.552 0.448-1 1-1h44c0.552 0 1 0.448 1 1v58c0 0.552-0.448 1-1 1h-44c-0.552 0-1-0.448-1-1v-58zM7 54h36c0.552 0 1-0.448 1-1v-46c0-0.552-0.448-1-1-1h-36c-0.552 0-1 0.448-1 1v46c0 0.552 0.448 1 1 1zM8 8h34v44h-34v-44zM24 58c0 1.105 0.895 2 2 2s2-0.895 2-2c0-1.105-0.895-2-2-2s-2 0.895-2 2z" fill="#555555"></path>
</svg>
