<?xml version="1.0" encoding="utf-8"?>
<!-- Generated by IcoMoon.io -->
<!DOCTYPE svg PUBLIC "-//W3C//DTD SVG 1.1//EN" "http://www.w3.org/Graphics/SVG/1.1/DTD/svg11.dtd">
<svg version="1.1" xmlns="http://www.w3.org/2000/svg" xmlns:xlink="http://www.w3.org/1999/xlink" width="64" height="64" viewBox="0 0 64 64">
<g id="icomoon-ignore">
	<line stroke-width="1" x1="" y1="" x2="" y2="" stroke="#449FDB" opacity=""></line>
</g>
	<path d="M62.782 27.766l-10-16c-1.46-2.338-4.024-3.76-6.782-3.76h-38c-4.418 0-8 3.582-8 8v32c0 4.418 3.582 8 8 8h38c2.758 0 5.32-1.422 6.782-3.762l10-16c1.624-2.59 1.624-5.884 0-8.478zM59.39 34.124l-10 16.004c-0.734 1.176-2.004 1.878-3.39 1.878h-38c-2.206 0-4-1.796-4-4v-32c0-2.206 1.794-4 4-4h38c1.386 0 2.656 0.704 3.39 1.878l10 16c0.806 1.29 0.806 2.954 0 4.24zM46 26.006c-3.316 0-6 2.686-6 6s2.684 6 6 6c3.312 0 6-2.688 6-6 0-3.314-2.688-6-6-6zM46 36.008c-2.21 0-4-1.792-4-4s1.79-4 4-4c2.208 0 4 1.792 4 4 0 2.206-1.792 4-4 4z" fill="#555555"></path>
</svg>
