<?xml version="1.0" encoding="utf-8"?>
<!-- Generated by IcoMoon.io -->
<!DOCTYPE svg PUBLIC "-//W3C//DTD SVG 1.1//EN" "http://www.w3.org/Graphics/SVG/1.1/DTD/svg11.dtd">
<svg version="1.1" xmlns="http://www.w3.org/2000/svg" xmlns:xlink="http://www.w3.org/1999/xlink" width="84" height="64" viewBox="0 0 84 64">
<g id="icomoon-ignore">
	<line stroke-width="1" x1="" y1="" x2="" y2="" stroke="#449FDB" opacity=""></line>
</g>
	<path d="M83.558 26.18c-0.45-0.378-1.124-0.318-1.504 0.136l-4.734 5.68c-0.102-0.032-0.206-0.064-0.32 0.004h-2.782l3.54-4.316c0.378-0.454 0.316-1.126-0.136-1.504s-1.126-0.318-1.504 0.136l-4.68 5.684h-3.158l3.54-4.316c0.378-0.454 0.316-1.126-0.136-1.504-0.45-0.378-1.124-0.318-1.504 0.136l-4.68 5.684h-1.504c-0.038-17.682-14.374-32-31.996-32-17.644 0-32 14.356-32 32s14.356 32 32 32c16.946 0 30.82-13.252 31.896-30h1.606l4.68 5.684c0.21 0.254 0.516 0.384 0.82 0.384 0.242 0 0.484-0.080 0.684-0.248 0.454-0.376 0.516-1.050 0.136-1.504l-3.542-4.316h3.158l4.68 5.684c0.21 0.254 0.516 0.384 0.82 0.384 0.242 0 0.484-0.080 0.684-0.248 0.454-0.376 0.516-1.050 0.136-1.504l-3.54-4.316h2.782c0.114 0.068 0.218 0.036 0.322 0.004l4.734 5.68c0.21 0.254 0.516 0.384 0.82 0.384 0.242 0 0.484-0.080 0.684-0.248 0.454-0.376 0.516-1.050 0.136-1.504l-4.43-5.316 4.43-5.316c0.378-0.454 0.316-1.128-0.138-1.504zM32 62c-16.542 0-30-13.458-30-30s13.458-30 30-30c16.52 0 29.958 13.42 29.996 30h-6c-0.036-13.27-10.784-24-23.996-24-13.234 0-24 10.766-24 24s10.766 24 24 24c12.536 0 22.842-9.664 23.896-22h6c-1.070 15.646-14.052 28-29.896 28zM47.996 32c-0.036-8.858-7.196-16-15.996-16-8.822 0-16 7.178-16 16s7.178 16 16 16c8.12 0 14.832-6.086 15.85-14h6.044c-1.046 11.232-10.462 20-21.894 20-12.13 0-22-9.87-22-22s9.87-22 22-22c12.108 0 21.96 9.832 21.996 22h-6zM39.994 32c-0.038-4.448-3.604-8-7.994-8-4.412 0-8 3.588-8 8s3.588 8 8 8c3.692 0 6.776-2.526 7.694-6h6.136c-1.006 6.808-6.816 12-13.83 12-7.718 0-14-6.282-14-14s6.282-14 14-14c7.696 0 13.96 6.244 13.996 14h-6.002zM33 34h4.61c-0.846 2.356-3.032 4-5.61 4-3.308 0-6-2.692-6-6s2.692-6 6-6c3.286 0 5.956 2.656 5.994 6h-4.994c-0.59-0.068-1.068 0.41-1.068 1s0.478 1.068 1.068 1z" fill="#555555"></path>
</svg>
