<?xml version="1.0" encoding="utf-8"?>
<!-- Generated by IcoMoon.io -->
<!DOCTYPE svg PUBLIC "-//W3C//DTD SVG 1.1//EN" "http://www.w3.org/Graphics/SVG/1.1/DTD/svg11.dtd">
<svg version="1.1" xmlns="http://www.w3.org/2000/svg" xmlns:xlink="http://www.w3.org/1999/xlink" width="70" height="64" viewBox="0 0 70 64">
<g id="icomoon-ignore">
	<line stroke-width="1" x1="" y1="" x2="" y2="" stroke="#449FDB" opacity=""></line>
</g>
	<path d="M54.928 4.628c-0.106-0.264-0.318-0.47-0.584-0.568-0.266-0.096-0.562-0.078-0.812 0.054l-23.812 12.564c-0.448 0.236-0.648 0.77-0.466 1.242l0.49 1.282-13.746 7.538c-0.45 0.246-0.64 0.79-0.444 1.26l0.456 1.098-14.598 6.976c-0.48 0.23-0.696 0.794-0.492 1.286l2.996 7.22c0.16 0.384 0.53 0.618 0.924 0.618 0.112 0 0.224-0.018 0.334-0.058l15.25-5.402 0.456 1.098c0.158 0.382 0.528 0.618 0.924 0.618 0.092 0 0.184-0.012 0.278-0.040l14.552-4.194 0.436 1.138c0.148 0.394 0.526 0.642 0.93 0.642 0.098 0 0.196-0.014 0.294-0.044l26-8c0.268-0.082 0.488-0.272 0.608-0.524s0.13-0.544 0.026-0.802l-10-25.002zM5.4 42.938l-2.268-5.468 13.646-6.522 2.878 6.94-14.256 5.050zM22.382 39.246l-0.476-1.148c0 0 0 0 0 0l-3.686-8.89c0 0 0 0 0 0l-0.476-1.146 12.672-6.95 4.748 12.268 0.75 1.962-13.532 3.904zM38.6 36.77l-0.406-1.062c-0.006-0.022-0.002-0.048-0.012-0.070l-1.236-3.194-5.508-14.412 22.046-11.63 9.184 22.96-24.068 7.408zM57.928 0.628c-0.206-0.514-0.79-0.762-1.3-0.558-0.512 0.206-0.762 0.788-0.558 1.3l12 30c0.158 0.392 0.534 0.63 0.93 0.63 0.124 0 0.25-0.022 0.372-0.072 0.512-0.206 0.762-0.788 0.558-1.3l-12.002-30zM36 42h-6c-2.28 0-4 1.72-4 4v2.63l-11.758 13.718c-0.36 0.418-0.312 1.050 0.108 1.41 0.188 0.162 0.42 0.242 0.65 0.242 0.282 0 0.562-0.118 0.758-0.35l11.702-13.65h4.54v13c0 0.552 0.448 1 1 1s1-0.448 1-1v-13h4.54l11.7 13.65c0.198 0.232 0.478 0.35 0.76 0.35 0.23 0 0.462-0.080 0.65-0.242 0.42-0.36 0.468-0.99 0.108-1.41l-11.758-13.718v-2.48c0-2.326-1.756-4.15-4-4.15zM38 48h-10v-2c0-1.178 0.822-2 2-2h6c1.14 0 2 0.924 2 2.15v1.85z" fill="#555555"></path>
</svg>
