<?xml version="1.0" encoding="utf-8"?>
<!-- Generated by IcoMoon.io -->
<!DOCTYPE svg PUBLIC "-//W3C//DTD SVG 1.1//EN" "http://www.w3.org/Graphics/SVG/1.1/DTD/svg11.dtd">
<svg version="1.1" xmlns="http://www.w3.org/2000/svg" xmlns:xlink="http://www.w3.org/1999/xlink" width="64" height="64" viewBox="0 0 64 64">
<g id="icomoon-ignore">
	<line stroke-width="1" x1="" y1="" x2="" y2="" stroke="#449FDB" opacity=""></line>
</g>
	<path d="M56.708 2.708c0.23-0.23 0.334-0.558 0.278-0.878s-0.264-0.594-0.56-0.732c-4.582-2.16-10.020-1.212-13.596 2.382-3.396 3.418-4.582 8.786-2.998 13.274l-23.078 23.078c-1.254-0.448-2.594-0.672-3.992-0.672-3.428 0-6.752 1.364-9.118 3.744-3.564 3.584-4.568 8.88-2.562 13.494 0.132 0.304 0.406 0.524 0.732 0.584 0.328 0.062 0.662-0.042 0.894-0.278l6.982-7.018c0.46-0.464 1.202-0.526 1.586-0.136l3.014 3.154c0.438 0.442 0.418 1.124-0.044 1.59l-6.956 7c-0.23 0.23-0.332 0.558-0.276 0.878s0.264 0.592 0.558 0.73c1.658 0.782 3.402 1.176 5.182 1.176 3.144 0 6.13-1.264 8.414-3.56 3.396-3.416 4.582-8.784 2.996-13.272l23.078-23.080c1.256 0.448 2.596 0.672 3.994 0.672 3.428 0 6.752-1.364 9.118-3.744 3.564-3.584 4.568-8.88 2.562-13.494-0.132-0.304-0.406-0.524-0.732-0.584-0.322-0.056-0.66 0.042-0.894 0.278l-6.982 7.018c-0.43 0.432-1.16 0.428-1.602-0.020l-2.998-2.998c-0.452-0.454-0.45-1.136-0.002-1.588l7.002-6.998zM48.292 12.708l2.998 2.998c1.198 1.204 3.25 1.21 4.436 0.018l5.86-5.888c0.938 3.482-0.032 7.218-2.648 9.852-1.994 2.006-4.798 3.154-7.7 3.154-1.366 0-2.66-0.256-3.846-0.76-0.376-0.162-0.81-0.074-1.098 0.212l-24 24c-0.288 0.288-0.372 0.72-0.214 1.094 1.606 3.82 0.628 8.75-2.326 11.722-2.642 2.656-6.488 3.602-9.97 2.516l5.882-5.92c1.242-1.25 1.262-3.188 0.058-4.396l-3.012-3.154c-1.162-1.17-3.228-1.098-4.436 0.124l-5.86 5.888c-0.938-3.482 0.032-7.218 2.648-9.852 1.994-2.006 4.798-3.154 7.7-3.154 1.366 0 2.66 0.256 3.846 0.76 0.374 0.164 0.81 0.074 1.098-0.212l24-24c0.288-0.288 0.372-0.72 0.214-1.094-1.606-3.82-0.628-8.752 2.326-11.724 2.64-2.656 6.484-3.596 9.964-2.516l-5.92 5.922c-1.232 1.234-1.232 3.17 0 4.41zM58.42 61.294c-0.442 0.444-1.208 0.444-1.654-0.004l-20.060-20c-0.39-0.386-1.024-0.388-1.414 0.004-0.39 0.39-0.388 1.024 0.002 1.414l20.058 19.996c0.6 0.602 1.396 0.934 2.244 0.934 0 0 0 0 0 0 0.848 0 1.644-0.332 2.256-0.948l2.858-2.986c1.23-1.236 1.23-3.174-0.002-4.412l-20-20c-0.39-0.39-1.024-0.39-1.414 0s-0.39 1.024 0 1.414l19.998 19.998c0.458 0.46 0.458 1.128-0.014 1.604l-2.858 2.986zM11.708 6.292l-6-6c-0.39-0.39-1.024-0.39-1.414 0l-4 4c-0.39 0.39-0.39 1.024 0 1.414l6 6c0.194 0.196 0.45 0.294 0.706 0.294s0.512-0.098 0.708-0.292l1.292-1.294 15.292 15.292c0.196 0.196 0.452 0.294 0.708 0.294s0.512-0.098 0.708-0.292c0.39-0.39 0.39-1.024 0-1.414l-15.294-15.294 1.292-1.292c0.392-0.392 0.392-1.024 0.002-1.416zM7 9.586l-4.586-4.586 2.586-2.586 4.586 4.586-2.586 2.586z" fill="#555555"></path>
</svg>
