<?xml version="1.0" encoding="utf-8"?>
<!-- Generated by IcoMoon.io -->
<!DOCTYPE svg PUBLIC "-//W3C//DTD SVG 1.1//EN" "http://www.w3.org/Graphics/SVG/1.1/DTD/svg11.dtd">
<svg version="1.1" xmlns="http://www.w3.org/2000/svg" xmlns:xlink="http://www.w3.org/1999/xlink" width="62" height="64" viewBox="0 0 62 64">
<g id="icomoon-ignore">
	<line stroke-width="1" x1="" y1="" x2="" y2="" stroke="#449FDB" opacity=""></line>
</g>
	<path d="M0.422 11.292c-1.694 1.696-1.332 4.084 0.016 5.43 0.054 0.052 5.468 5.224 13.082 12.838 0.196 0.196 0.452 0.292 0.708 0.292s0.512-0.098 0.708-0.292c0.39-0.39 0.39-1.024 0-1.414-1.148-1.148-2.24-2.234-3.276-3.262l3.178-3.178c0.39-0.39 0.39-1.024 0-1.414s-1.024-0.39-1.414 0l-3.186 3.186c-1.782-1.76-3.352-3.296-4.63-4.542l7.23-7.23c0.39-0.39 0.39-1.024 0-1.414s-1.024-0.39-1.414 0l-7.252 7.252c-1.472-1.426-2.32-2.236-2.334-2.25-0.422-0.422-0.976-1.61 0-2.586l10-10c0.386-0.392 1.414-1.17 2.542-0.048 0.050 0.056 5.1 5.792 12.808 13.5 0.39 0.39 1.024 0.39 1.414 0s0.39-1.024 0-1.414c-7.66-7.658-12.672-13.35-12.764-13.454-1.864-1.86-4.112-1.302-5.414 0l-10.002 10zM42.838 48.292c-0.39-0.39-1.024-0.39-1.414 0l-3.182 3.18c-0.97-0.982-1.988-2.010-3.060-3.082-0.39-0.39-1.024-0.39-1.414 0s-0.39 1.024 0 1.414c7.408 7.406 12.582 12.938 12.656 13.018 0.686 0.688 1.626 1.066 2.646 1.066v0c1.050 0 2.112-0.41 2.77-1.070l9.996-10.114c1.258-1.258 1.33-3.392 0.156-4.57l-13.412-13.41c-0.39-0.39-1.024-0.39-1.414 0s-0.39 1.024 0 1.414l13.412 13.41c0.4 0.4 0.324 1.264-0.158 1.746l-9.998 10.114c-0.23 0.232-0.752 0.48-1.352 0.48 0 0 0 0 0 0-0.344 0-0.836-0.084-1.208-0.458-0.020-0.022-0.858-0.916-2.312-2.438l7.288-7.288c0.39-0.39 0.39-1.024 0-1.414s-1.024-0.39-1.414 0l-7.258 7.258c-1.248-1.298-2.778-2.876-4.52-4.652l3.192-3.192c0.39-0.388 0.39-1.020 0-1.412zM-0.586 63.658c0.192 0.196 0.45 0.3 0.716 0.3 0.096 0 0.192-0.014 0.286-0.042l20-5.958c0.162-0.048 0.306-0.134 0.424-0.254l34.18-34.41c0.048-0.048 0.072-0.11 0.108-0.164l7.312-7.312c0.588-0.59 0.914-1.372 0.914-2.206 0-0.832-0.326-1.614-0.914-2.2l-10.47-10.468c-1.176-1.176-3.23-1.176-4.406 0l-7.478 7.478c-0.048 0.048-0.074 0.11-0.11 0.166l-34.232 34.234c-0.112 0.112-0.196 0.248-0.244 0.398l-6.32 19.43c-0.116 0.354-0.026 0.74 0.234 1.008zM40.85 10.542l2.078 2.078-31.046 31.13-3.454-0.784 32.422-32.424zM13.13 45.332l31.214-31.296 4.872 4.872-31.496 31.092h-4.59v-4.668zM52.898 22.592l-32.488 32.708-1.154-4.004 31.374-30.974 2.268 2.27zM7.116 44.718l4.014 0.912v5.37c0 0.552 0.448 1 1 1h5.248l1.268 4.4-16.976 5.058 5.446-16.74zM48.98 2.358c0.422-0.422 1.156-0.422 1.578 0l10.47 10.47c0.21 0.21 0.326 0.49 0.326 0.788 0 0.296-0.116 0.578-0.328 0.79l-6.742 6.744-12.046-12.046 6.742-6.746z" fill="#555555"></path>
</svg>
