<?xml version="1.0" encoding="utf-8"?>
<!-- Generated by IcoMoon.io -->
<!DOCTYPE svg PUBLIC "-//W3C//DTD SVG 1.1//EN" "http://www.w3.org/Graphics/SVG/1.1/DTD/svg11.dtd">
<svg version="1.1" xmlns="http://www.w3.org/2000/svg" xmlns:xlink="http://www.w3.org/1999/xlink" width="84" height="64" viewBox="0 0 84 64">
<g id="icomoon-ignore">
	<line stroke-width="1" x1="" y1="" x2="" y2="" stroke="#449FDB" opacity=""></line>
</g>
	<path d="M83 34c-0.552 0-1 0.448-1 1v26c0 0.552-0.448 1-1 1h-78c-0.552 0-1-0.448-1-1v-26c0-0.552-0.448-1-1-1s-1 0.448-1 1v26c0 1.654 1.346 3 3 3h78c1.654 0 3-1.346 3-3v-26c0-0.552-0.448-1-1-1zM81 14h-78c-1.654 0-3 1.346-3 3v12c0 0.552 0.448 1 1 1h27v7c0 1.654 1.346 3 3 3h22c1.654 0 3-1.346 3-3v-7h27c0.552 0 1-0.448 1-1v-12c0-1.654-1.346-3-3-3zM54 37c0 0.552-0.448 1-1 1h-22c-0.552 0-1-0.448-1-1v-7h24v7zM82 28h-80v-11c0-0.552 0.448-1 1-1h78c0.552 0 1 0.448 1 1v11zM31 0c-1.654 0-3 1.346-3 3v8c0 0.552 0.448 1 1 1s1-0.448 1-1v-8c0-0.552 0.448-1 1-1h22c0.552 0 1 0.448 1 1v8c0 0.552 0.448 1 1 1s1-0.448 1-1v-8c0-1.654-1.346-3-3-3h-22z" fill="#555555"></path>
</svg>
