<?xml version="1.0" encoding="utf-8"?>
<!-- Generated by IcoMoon.io -->
<!DOCTYPE svg PUBLIC "-//W3C//DTD SVG 1.1//EN" "http://www.w3.org/Graphics/SVG/1.1/DTD/svg11.dtd">
<svg version="1.1" xmlns="http://www.w3.org/2000/svg" xmlns:xlink="http://www.w3.org/1999/xlink" width="64" height="64" viewBox="0 0 64 64">
<g id="icomoon-ignore">
	<line stroke-width="1" x1="" y1="" x2="" y2="" stroke="#449FDB" opacity=""></line>
</g>
	<path d="M59.96 13.638c-0.192-3.14-2.774-5.632-5.96-5.632h-6v-2.004c0-3.314-2.688-6-6-6h-20c-3.314 0-6 2.686-6 6v2.002h-6c-3.19 0-5.77 2.492-5.962 5.632h-0.038v4.366c0 2.208 1.792 4 4 4v0 34c0 4.418 3.582 8 8 8h32c4.418 0 8-3.582 8-8v-34c2.208 0 4-1.792 4-4v-4.364h-0.040zM20 6.004c0-1.106 0.894-2 2-2h20c1.106 0 2 0.894 2 2v2h-24v-2zM52 56.004c0 2.204-1.796 4-4 4h-32c-2.206 0-4-1.796-4-4v-34h40v34zM56 16.002v2h-48v-3.998c0-1.106 0.894-2 2-2h44c1.106 0 2 0.894 2 2v1.998zM18 56.012h4c1.106 0 2-0.894 2-2v-26c0-1.106-0.894-2-2-2h-4c-1.106 0-2 0.894-2 2v26c0 1.106 0.894 2 2 2zM18 28.010h4v26h-4v-26zM30 56.012h4c1.106 0 2-0.894 2-2v-26c0-1.106-0.894-2-2-2h-4c-1.106 0-2 0.894-2 2v26c0 1.106 0.894 2 2 2zM30 28.010h4v26h-4v-26zM42 56.012h4c1.106 0 2-0.894 2-2v-26c0-1.106-0.894-2-2-2h-4c-1.106 0-2 0.894-2 2v26c0 1.106 0.894 2 2 2zM42 28.010h4v26h-4v-26z" fill="#555555"></path>
</svg>
