<?xml version="1.0" encoding="utf-8"?>
<!-- Generated by IcoMoon.io -->
<!DOCTYPE svg PUBLIC "-//W3C//DTD SVG 1.1//EN" "http://www.w3.org/Graphics/SVG/1.1/DTD/svg11.dtd">
<svg version="1.1" xmlns="http://www.w3.org/2000/svg" xmlns:xlink="http://www.w3.org/1999/xlink" width="64" height="64" viewBox="0 0 64 64">
<g id="icomoon-ignore">
	<line stroke-width="1" x1="" y1="" x2="" y2="" stroke="#449FDB" opacity=""></line>
</g>
	<path d="M49.664 22.89c-0.372-0.556-0.996-0.89-1.664-0.89h-2c-1.106 0-2 0.894-2 2v12c0 1.106 0.894 2 2 2h8c1.106 0 2-0.894 2-2v-3c0-0.394-0.118-0.782-0.336-1.11l-6-9zM54 36h-8v-12h2l6 9v3zM62.992 30.672l-8-12c-1.116-1.674-2.984-2.672-4.992-2.672h-8v-4c0-3.308-2.692-6-6-6h-30c-3.308 0-6 2.692-6 6v22c0 3.308 2.692 6 6 6v0 6c0 3.308 2.692 6 6 6h2.284c0.894 3.442 4 6 7.718 6 3.714 0 6.82-2.558 7.714-6h10.564c0.894 3.442 4 6 7.718 6 3.714 0 6.82-2.558 7.714-6h2.288c3.308 0 6-2.692 6-6v-12c0-1.188-0.348-2.34-1.008-3.328zM6 36c-1.104 0-2-0.894-2-2v-22c0-1.106 0.896-2 2-2h30c1.106 0 2 0.894 2 2v22c0 1.106-0.894 2-2 2h-30zM22.002 54c-2.21 0-4-1.792-4-4s1.79-4 4-4c2.208 0 4 1.792 4 4s-1.794 4-4 4zM48 54c-2.21 0-4-1.792-4-4s1.79-4 4-4c2.208 0 4 1.792 4 4s-1.792 4-4 4zM60 46c0 1.106-0.894 2-2 2h-2.286c-0.894-3.442-4-6-7.714-6-3.718 0-6.824 2.558-7.718 6h-10.564c-0.894-3.442-4-6-7.714-6-3.718 0-6.824 2.558-7.718 6h-2.286c-1.104 0-2-0.894-2-2v-6h26c3.308 0 6-2.692 6-6v-14h8c0.668 0 1.292 0.334 1.664 0.89l8 12c0.218 0.328 0.336 0.716 0.336 1.11v12z" fill="#555555"></path>
</svg>
