<?xml version="1.0" encoding="utf-8"?>
<!-- Generated by IcoMoon.io -->
<!DOCTYPE svg PUBLIC "-//W3C//DTD SVG 1.1//EN" "http://www.w3.org/Graphics/SVG/1.1/DTD/svg11.dtd">
<svg version="1.1" xmlns="http://www.w3.org/2000/svg" xmlns:xlink="http://www.w3.org/1999/xlink" width="64" height="64" viewBox="0 0 64 64">
<g id="icomoon-ignore">
	<line stroke-width="1" x1="" y1="" x2="" y2="" stroke="#449FDB" opacity=""></line>
</g>
	<path d="M32-0.068c-17.684 0-32.068 14.384-32.068 32.068s14.384 32.068 32.068 32.068 32.068-14.384 32.068-32.068-14.384-32.068-32.068-32.068zM32 61.932c-16.504 0-29.932-13.428-29.932-29.932s13.428-29.932 29.932-29.932 29.932 13.428 29.932 29.932-13.428 29.932-29.932 29.932zM40.996 24h-6.996v-7.002c0.066-0.59-0.412-1.068-1.002-1.068h-5.158c-0.54 0-0.994 0.4-1.060 0.938-0.19 1.526-0.532 2.778-1.014 3.726-0.472 0.934-1.112 1.746-1.9 2.418-0.642 0.546-1.746 1.084-3.19 1.55-0.442 0.142-0.74 0.554-0.676 1.018v5.418c-0.064 0.59 0.414 1.068 1.004 1.002l2.996 2v9.336c-0.068-0.602 0.074-0.194 0.352 0.462l0.118 0.284c0.010 0.026 1.024 2.546 2.244 3.598 0.9 0.772 1.99 1.372 3.24 1.784 1.17 0.382 2.162 0.604 3.782 0.604 1.364 0 2.654-0.138 3.84-0.414 1.362-0.318 2.594-0.748 3.876-1.354 0.376-0.176 0.614-0.552 0.548-0.966v-4.81c0.064-0.392-0.15-0.754-0.496-0.942s-0.766-0.168-1.096 0.048c-1.41 0.926-2.166 1.092-3.592 1.092-0.664 0-1.24-0.136-1.762-0.422-0.21-0.382-0.514-1.556-0.63-2.018-0.104-0.398-0.192-0.724-0.252-0.886-0.11-0.292-0.11-1.336-0.108-2.544l0.002-4.852h6.93c0.59 0.066 1.068-0.412 1.004-1.002v-6c0.064-0.59-0.414-1.068-1.004-0.998zM39.928 30h-6.93c-0.59-0.070-1.068 0.408-0.998 0.998l-0.004 5.848c-0.072 1.706-0.072 2.644 0.174 3.3 0.046 0.122 0.106 0.368 0.184 0.668 0.508 1.978 0.828 2.868 1.486 3.254 0.876 0.524 1.876 0.79 2.976 0.79 1.146 0 2.066-0.1 3.112-0.538v2.32c-0.93 0.398-1.848 0.698-2.84 0.93-1.026 0.238-2.152 0.36-3.354 0.36-1.348 0-2.108-0.168-3.116-0.498-0.98-0.324-1.828-0.788-2.514-1.376-0.544-0.468-1.308-1.908-1.65-2.766l-0.132-0.322c-0.19-0.45-0.254-0.602-0.322-1.632v-10.338c0.068-0.59-0.41-1.068-1-1.068h-2.928v-3.588c1.376-0.502 2.442-1.074 3.178-1.704 1.008-0.856 1.822-1.89 2.422-3.076 0.486-0.958 0.852-2.128 1.090-3.496h3.168v6.932c0 0.59 0.478 1.068 1.068 1.002h6.93v4z" fill="#555555"></path>
</svg>
