<?xml version="1.0" encoding="utf-8"?>
<!-- Generated by IcoMoon.io -->
<!DOCTYPE svg PUBLIC "-//W3C//DTD SVG 1.1//EN" "http://www.w3.org/Graphics/SVG/1.1/DTD/svg11.dtd">
<svg version="1.1" xmlns="http://www.w3.org/2000/svg" xmlns:xlink="http://www.w3.org/1999/xlink" width="64" height="64" viewBox="0 0 64 64">
<g id="icomoon-ignore">
	<line stroke-width="1" x1="" y1="" x2="" y2="" stroke="#449FDB" opacity=""></line>
</g>
	<path d="M44.34 17.248c-5.414-1.114-10.91-1.678-16.33-1.678s-10.914 0.564-16.33 1.678c-0.7 0.144-1.272 0.652-1.498 1.334-2.884 8.762-2.884 17.646 0 26.408 0.224 0.68 0.796 1.188 1.498 1.332 5.416 1.112 10.91 1.678 16.33 1.678 5.418 0 10.916-0.566 16.33-1.68 0.704-0.144 1.274-0.652 1.5-1.332 2.882-8.762 2.882-17.646 0-26.408-0.226-0.68-0.798-1.188-1.5-1.332zM43.938 44.364c-10.618 2.18-21.238 2.18-31.854 0-2.762-8.386-2.762-16.77 0-25.158 10.618-2.182 21.238-2.182 31.854 0 2.762 8.386 2.762 16.77 0 25.158zM61.708 12.64c-0.386-1.628-1.75-2.844-3.41-3.044-8.72-1.060-17.564-1.596-26.288-1.596-8.722 0-17.566 0.536-26.286 1.594-1.66 0.202-3.022 1.416-3.408 3.046-3.058 12.846-3.058 25.872 0 38.72 0.386 1.628 1.748 2.844 3.408 3.042 4.202 0.512 8.432 0.886 12.662 1.152-0.228 0.146-0.376 0.294-0.376 0.446 0 1.106 6.268 2 14 2s14-0.894 14-2c0-0.152-0.148-0.3-0.376-0.446 4.23-0.266 8.46-0.64 12.66-1.152 1.66-0.2 3.024-1.414 3.41-3.042 3.062-12.848 3.062-25.874 0.004-38.72zM57.816 50.434c-17.204 2.086-34.408 2.086-51.61 0-2.926-12.29-2.926-24.58 0-36.868 17.204-2.088 34.408-2.088 51.61 0 2.926 12.288 2.926 24.578 0 36.868zM53.012 24c1.656 0 3-1.344 3-3s-1.344-3-3-3-3 1.344-3 3 1.344 3 3 3zM53.012 20c0.55 0 1 0.45 1 1s-0.45 1-1 1-1-0.45-1-1 0.448-1 1-1zM55.012 44c0.55 0 1 0.446 1 1 0 0.55-0.45 1-1 1h-6c-0.554 0-1-0.45-1-1 0-0.554 0.446-1 1-1h6zM57.012 38c0.55 0 1 0.446 1 1 0 0.55-0.45 1-1 1h-6c-0.554 0-1-0.45-1-1 0-0.554 0.446-1 1-1h6zM57.012 32c0.55 0 1 0.448 1 1s-0.45 1-1 1h-6c-0.554 0-1-0.448-1-1s0.446-1 1-1h6zM27.010 23.608c0.552-0.022 1 0.408 1 0.96s-0.45 1.016-1 1.036l-7.498 0.514c-0.546 0.056-1.054 0.548-1.128 1.092l-0.334 3.79c-0.022 0.55-0.49 1-1.036 1-0.548 0-0.974-0.45-0.946-1l0.61-5.572c0.092-0.544 0.614-1.040 1.16-1.102l9.172-0.718z" fill="#555555"></path>
</svg>
