<?xml version="1.0" encoding="utf-8"?>
<!-- Generated by IcoMoon.io -->
<!DOCTYPE svg PUBLIC "-//W3C//DTD SVG 1.1//EN" "http://www.w3.org/Graphics/SVG/1.1/DTD/svg11.dtd">
<svg version="1.1" xmlns="http://www.w3.org/2000/svg" xmlns:xlink="http://www.w3.org/1999/xlink" width="64" height="64" viewBox="0 0 64 64">
<g id="icomoon-ignore">
	<line stroke-width="1" x1="" y1="" x2="" y2="" stroke="#449FDB" opacity=""></line>
</g>
	<path d="M32-0.068c-17.682 0-32.070 14.384-32.070 32.068s14.388 32.068 32.070 32.068 32.070-14.384 32.070-32.068-14.388-32.068-32.070-32.068zM32 61.932c-16.504 0-29.93-13.428-29.93-29.932s13.426-29.932 29.93-29.932 29.93 13.428 29.93 29.932-13.426 29.932-29.93 29.932zM49.588 22.092c0.22-0.408 0.404-0.838 0.546-1.286 0.134-0.424-0.004-0.884-0.352-1.162-0.346-0.276-0.83-0.308-1.21-0.084-1.026 0.61-2.13 1.060-3.292 1.346-1.396-1.262-3.23-1.974-5.124-1.974-4.21 0-7.634 3.424-7.634 7.63 0 0.106 0.002 0.21 0.006 0.316-4.47-0.558-8.596-2.83-11.47-6.356-0.22-0.272-0.56-0.414-0.912-0.39-0.35 0.028-0.664 0.224-0.84 0.53-0.676 1.16-1.034 2.486-1.034 3.838 0 1.28 0.318 2.512 0.902 3.604-0.148 0.024-0.294 0.078-0.428 0.156-0.326 0.194-0.528 0.584-0.528 0.962 0 2.27 1.010 4.354 2.638 5.77-0.024 0.022-0.046 0.046-0.070 0.070-0.25 0.284-0.332 0.676-0.216 1.036 0.702 2.188 2.328 3.892 4.368 4.73-2.082 1.030-4.5 1.432-6.812 1.158-0.488-0.044-0.962 0.232-1.132 0.704-0.166 0.468 0.010 0.99 0.43 1.26 3.184 2.040 6.862 3.118 10.638 3.118 12.36 0 19.748-10.040 19.748-19.746 0-0.11 0-0.218-0.002-0.328 1.194-0.932 2.23-2.046 3.082-3.32 0.264-0.394 0.236-0.918-0.070-1.282-0.302-0.358-0.8-0.482-1.232-0.3zM46.098 25.602c-0.294 0.212-0.462 0.558-0.444 0.922 0.012 0.264 0.018 0.532 0.018 0.796 0 8.656-6.586 17.61-17.608 17.61-1.978 0-3.928-0.332-5.774-0.976 2.21-0.422 4.282-1.364 6.090-2.78 0.356-0.28 0.498-0.752 0.354-1.182-0.144-0.428-0.542-0.72-0.994-0.728-1.782-0.036-3.398-0.922-4.388-2.324 0.506-0.034 1.002-0.118 1.484-0.248 0.478-0.13 0.802-0.572 0.786-1.068-0.016-0.494-0.372-0.914-0.858-1.012-2.006-0.402-3.58-1.886-4.162-3.81 0.532 0.134 1.078 0.212 1.624 0.23 0.47-0.002 0.906-0.29 1.052-0.742s-0.026-0.95-0.424-1.214c-1.53-1.024-2.444-2.732-2.444-4.574 0-0.446 0.054-0.886 0.158-1.316 3.462 3.55 8.16 5.694 13.136 5.944 0.352 0.002 0.66-0.124 0.874-0.382s0.296-0.6 0.22-0.928c-0.094-0.406-0.142-0.828-0.142-1.254 0-3.030 2.466-5.494 5.496-5.494 1.514 0 2.976 0.632 4.010 1.736 0.252 0.27 0.624 0.388 0.988 0.318 0.33-0.066 0.656-0.142 0.978-0.23-0.144 0.108-0.294 0.208-0.452 0.302-0.432 0.258-0.624 0.786-0.462 1.262s0.648 0.788 1.138 0.714c0.122-0.014 0.242-0.030 0.364-0.046-0.198 0.164-0.406 0.322-0.618 0.474z" fill="#555555"></path>
</svg>
