<?xml version="1.0" encoding="utf-8"?>
<!-- Generated by IcoMoon.io -->
<!DOCTYPE svg PUBLIC "-//W3C//DTD SVG 1.1//EN" "http://www.w3.org/Graphics/SVG/1.1/DTD/svg11.dtd">
<svg version="1.1" xmlns="http://www.w3.org/2000/svg" xmlns:xlink="http://www.w3.org/1999/xlink" width="84" height="64" viewBox="0 0 84 64">
<g id="icomoon-ignore">
	<line stroke-width="1" x1="" y1="" x2="" y2="" stroke="#449FDB" opacity=""></line>
</g>
	<path d="M67.916 25.976c-0.854-13.224-10.050-25.976-26.916-25.976-15.426 0-27.322 11.466-27.952 26.768-8.44 2.626-13.048 11.658-13.048 18.232 0 10.122 8.412 19 18 19h13c0.552 0 1-0.448 1-1s-0.448-1-1-1h-13c-8.524 0-16-7.944-16-17 0-6.102 5.348-17 16-17h3c0.552 0 1-0.448 1-1s-0.448-1-1-1h-3c-1.018 0-1.98 0.114-2.918 0.278 0.784-11.98 9.89-24.278 25.918-24.278 17.176 0 25 13.478 25 26v3c0 0.552 0.448 1 1 1s1-0.448 1-1v-3c0-0.006 0-0.012 0-0.018 6.038 0.662 14 7.142 14 17.018 0 7.652-7.382 17-16 17h-15c-6.476 0-9-2.524-9-9v-27.434l8.156 8.14c0.196 0.196 0.452 0.294 0.708 0.294s0.512-0.098 0.708-0.292c0.39-0.39 0.39-1.026 0-1.414l-8.922-8.904c-1.188-1.184-2.11-1.184-3.296 0l-8.922 8.904c-0.39 0.388-0.39 1.024 0 1.414s1.024 0.39 1.414 0l8.154-8.142v27.434c0 7.608 3.392 11 11 11h15c9.694 0 18-10.448 18-19 0-10.334-8.446-18.416-16.084-19.024z" fill="#555555"></path>
</svg>
