<?xml version="1.0" encoding="utf-8"?>
<!-- Generated by IcoMoon.io -->
<!DOCTYPE svg PUBLIC "-//W3C//DTD SVG 1.1//EN" "http://www.w3.org/Graphics/SVG/1.1/DTD/svg11.dtd">
<svg version="1.1" xmlns="http://www.w3.org/2000/svg" xmlns:xlink="http://www.w3.org/1999/xlink" width="64" height="64" viewBox="0 0 64 64">
<g id="icomoon-ignore">
	<line stroke-width="1" x1="" y1="" x2="" y2="" stroke="#449FDB" opacity=""></line>
</g>
	<path d="M62.22 56.672c-0.402-0.266-7.696-5.050-18.546-7.398 3.98-5.042 6.536-11.824 7.622-16.338 1.508-6.256 0.922-18.496-5.086-26.124-3.512-4.458-8.426-6.812-14.21-6.812s-10.698 2.356-14.208 6.812c-6.008 7.626-6.592 19.866-5.086 26.122 1.086 4.514 3.64 11.296 7.622 16.338-10.85 2.348-18.144 7.132-18.544 7.398-1.466 0.976-2.122 2.8-1.61 4.484 0.508 1.69 2.066 2.846 3.826 2.846h56c1.762 0 3.316-1.156 3.828-2.844 0.514-1.684-0.142-3.508-1.608-4.484zM40.534 46.796l-0.652 0.828c-4.77 5.48-10.99 5.48-15.758 0l-0.654-0.828c-5.57-7.058-8.334-16.394-7.144-25.3 1.090-8.558 5.994-17.496 15.674-17.496s14.586 8.94 15.676 17.498c1.186 8.91-1.568 18.236-7.142 25.298zM4 60c0.276-0.184 7.052-4.628 17.172-6.816l4.968-1.074c1.774 1.164 3.72 1.89 5.86 1.89 2.142 0 4.086-0.726 5.86-1.89l4.968 1.074c10.040 2.172 16.792 6.566 17.172 6.816h-56z" fill="#555555"></path>
</svg>
