<?xml version="1.0" encoding="utf-8"?>
<!-- Generated by IcoMoon.io -->
<!DOCTYPE svg PUBLIC "-//W3C//DTD SVG 1.1//EN" "http://www.w3.org/Graphics/SVG/1.1/DTD/svg11.dtd">
<svg version="1.1" xmlns="http://www.w3.org/2000/svg" xmlns:xlink="http://www.w3.org/1999/xlink" width="74" height="64" viewBox="0 0 74 64">
<g id="icomoon-ignore">
	<line stroke-width="1" x1="" y1="" x2="" y2="" stroke="#449FDB" opacity=""></line>
</g>
	<path d="M15 0h-12c-1.738 0-3 1.262-3 3v58c0 1.738 1.262 3 3 3h68c1.738 0 3-1.262 3-3v-58c0-1.738-1.262-3-3-3h-56zM2 61v-58c0-0.626 0.374-1 1-1h11v60h-11c-0.626 0-1-0.374-1-1zM16 62v-60h42v60h-42zM72 3v58c0 0.626-0.374 1-1 1h-11v-60h11c0.626 0 1 0.374 1 1zM29.554 20.168c-0.306-0.204-0.702-0.224-1.028-0.050-0.322 0.174-0.526 0.512-0.526 0.882v24c0 0.37 0.204 0.708 0.528 0.882 0.148 0.078 0.31 0.118 0.472 0.118 0.194 0 0.386-0.056 0.554-0.168l18-12c0.278-0.186 0.446-0.498 0.446-0.832s-0.168-0.646-0.446-0.832l-18-12zM30 43.132v-20.264l15.198 10.132-15.198 10.132zM10 16h-4c-0.552 0-1 0.448-1 1s0.448 1 1 1h4c0.552 0 1-0.448 1-1s-0.448-1-1-1zM6 10h4c0.552 0 1-0.448 1-1s-0.448-1-1-1h-4c-0.552 0-1 0.448-1 1s0.448 1 1 1zM10 24h-4c-0.552 0-1 0.448-1 1s0.448 1 1 1h4c0.552 0 1-0.448 1-1s-0.448-1-1-1zM10 32h-4c-0.552 0-1 0.448-1 1s0.448 1 1 1h4c0.552 0 1-0.448 1-1s-0.448-1-1-1zM10 40h-4c-0.552 0-1 0.448-1 1s0.448 1 1 1h4c0.552 0 1-0.448 1-1s-0.448-1-1-1zM10 48h-4c-0.552 0-1 0.448-1 1s0.448 1 1 1h4c0.552 0 1-0.448 1-1s-0.448-1-1-1zM10 56h-4c-0.552 0-1 0.448-1 1s0.448 1 1 1h4c0.552 0 1-0.448 1-1s-0.448-1-1-1zM64 18h4c0.552 0 1-0.448 1-1s-0.448-1-1-1h-4c-0.552 0-1 0.448-1 1s0.448 1 1 1zM64 10h4c0.552 0 1-0.448 1-1s-0.448-1-1-1h-4c-0.552 0-1 0.448-1 1s0.448 1 1 1zM64 26h4c0.552 0 1-0.448 1-1s-0.448-1-1-1h-4c-0.552 0-1 0.448-1 1s0.448 1 1 1zM64 34h4c0.552 0 1-0.448 1-1s-0.448-1-1-1h-4c-0.552 0-1 0.448-1 1s0.448 1 1 1zM64 42h4c0.552 0 1-0.448 1-1s-0.448-1-1-1h-4c-0.552 0-1 0.448-1 1s0.448 1 1 1zM64 50h4c0.552 0 1-0.448 1-1s-0.448-1-1-1h-4c-0.552 0-1 0.448-1 1s0.448 1 1 1zM68 56h-4c-0.552 0-1 0.448-1 1s0.448 1 1 1h4c0.552 0 1-0.448 1-1s-0.448-1-1-1z" fill="#555555"></path>
</svg>
