<?xml version="1.0" encoding="utf-8"?>
<!-- Generated by IcoMoon.io -->
<!DOCTYPE svg PUBLIC "-//W3C//DTD SVG 1.1//EN" "http://www.w3.org/Graphics/SVG/1.1/DTD/svg11.dtd">
<svg version="1.1" xmlns="http://www.w3.org/2000/svg" xmlns:xlink="http://www.w3.org/1999/xlink" width="64" height="64" viewBox="0 0 64 64">
<g id="icomoon-ignore">
	<line stroke-width="1" x1="" y1="" x2="" y2="" stroke="#449FDB" opacity=""></line>
</g>
	<path d="M60 12h-1.774c-1.050 0-2.058 0.414-2.808 1.152l-5.418 5.344v-2.496c0-3.314-2.688-6-6-6h-38c-3.308 0-6 2.69-6 6v32c0 3.312 2.686 6 6 6h38c3.312 0 6-2.688 6-6v-2.442l5.418 5.344c0.75 0.738 1.758 1.152 2.808 1.152h1.774c2.208 0 4-1.79 4-4v-32.054c0-2.21-1.792-4-4-4zM6 50c-1.104 0-2-0.898-2-2v-32c0-1.106 0.894-2 2-2h38c1.102 0 2 0.896 2 2v32c0 1.102-0.898 2-2 2h-38zM60 48.054h-2l-8-8v-0.054l-2-2v-12l10-10h2v32.054z" fill="#555555"></path>
</svg>
