<?xml version="1.0" encoding="utf-8"?>
<!-- Generated by IcoMoon.io -->
<!DOCTYPE svg PUBLIC "-//W3C//DTD SVG 1.1//EN" "http://www.w3.org/Graphics/SVG/1.1/DTD/svg11.dtd">
<svg version="1.1" xmlns="http://www.w3.org/2000/svg" xmlns:xlink="http://www.w3.org/1999/xlink" width="64" height="64" viewBox="0 0 64 64">
<g id="icomoon-ignore">
	<line stroke-width="1" x1="" y1="" x2="" y2="" stroke="#449FDB" opacity=""></line>
</g>
	<path d="M43.902 2.3c-16.404-6.568-35.030 1.404-41.6 17.81-6.572 16.408 1.404 35.036 17.81 41.604 16.406 6.57 35.032-1.404 41.602-17.81 6.572-16.408-1.406-35.032-17.812-41.604zM21.6 58.002c-14.332-5.74-21.324-22.068-15.586-36.402 5.74-14.332 22.070-21.326 36.404-15.584 14.332 5.738 21.324 22.068 15.586 36.4-5.742 14.334-22.070 21.324-36.404 15.586zM33.498 28.294c-2.050-0.822-4.38 0.176-5.202 2.226s0.176 4.378 2.224 5.2c2.050 0.822 4.382-0.176 5.202-2.224 0.82-2.050-0.176-4.378-2.224-5.202zM31.264 33.866c-1.024-0.412-1.522-1.576-1.114-2.602 0.412-1.024 1.578-1.522 2.602-1.114 1.022 0.41 1.52 1.576 1.112 2.602-0.41 1.024-1.576 1.522-2.6 1.114zM36.468 20.87c-6.152-2.464-13.136 0.528-15.6 6.678-2.464 6.152 0.528 13.136 6.678 15.6 6.152 2.464 13.136-0.526 15.6-6.678s-0.524-13.138-6.678-15.6zM29.036 39.434c-4.096-1.638-6.092-6.306-4.454-10.4 1.64-4.094 6.304-6.092 10.398-4.454 4.098 1.64 6.094 6.308 4.458 10.402-1.642 4.094-6.308 6.094-10.402 4.452zM46.864 37.956h-0.004c-1.634 4.078-4.766 7.112-8.512 8.732-0.014 0.006-0.022 0.022-0.042 0.030-0.508 0.216-1.094-0.018-1.312-0.528-0.218-0.506 0.020-1.094 0.524-1.31 3.292-1.41 6.050-4.076 7.488-7.668v0.002c0.206-0.514 0.788-0.764 1.3-0.556 0.512 0.204 0.762 0.786 0.558 1.298zM53.73 39.628c0.512 0.206 0.762 0.788 0.558 1.3-2.45 6.116-7.152 10.67-12.77 13.096-0.024 0.010-0.042 0.032-0.066 0.044-0.508 0.216-1.094-0.016-1.312-0.526-0.218-0.508 0.020-1.096 0.524-1.312 5.176-2.216 9.508-6.406 11.766-12.046 0.206-0.512 0.788-0.762 1.3-0.556zM50.016 38.142c0.512 0.206 0.762 0.788 0.558 1.3-2.042 5.098-5.96 8.89-10.64 10.912-0.022 0.012-0.034 0.030-0.054 0.040-0.508 0.216-1.094-0.018-1.312-0.526s0.020-1.096 0.528-1.314h-0.004c4.238-1.814 7.78-5.24 9.624-9.856 0.206-0.514 0.788-0.762 1.3-0.556zM27.026 17.824c0.218 0.51-0.018 1.096-0.526 1.316-3.292 1.408-6.050 4.076-7.486 7.664h-0.002c-0.204 0.512-0.786 0.762-1.3 0.556-0.512-0.206-0.762-0.786-0.556-1.3h0.002c1.632-4.076 4.766-7.112 8.512-8.732 0.014-0.006 0.024-0.022 0.042-0.028 0.508-0.218 1.096 0.014 1.314 0.524zM23.876 10.47c0.218 0.508-0.018 1.094-0.524 1.314-5.176 2.216-9.506 6.406-11.766 12.044-0.206 0.514-0.788 0.762-1.3 0.556-0.514-0.204-0.764-0.786-0.556-1.302 2.45-6.116 7.15-10.668 12.77-13.096 0.020-0.010 0.038-0.032 0.062-0.042 0.508-0.216 1.096 0.018 1.314 0.526zM24.924 15.458v0.006c-4.234 1.812-7.778 5.24-9.624 9.856-0.206 0.514-0.788 0.76-1.3 0.556-0.51-0.208-0.762-0.788-0.554-1.302 2.040-5.096 5.958-8.892 10.64-10.916 0.020-0.008 0.032-0.028 0.052-0.036 0.508-0.218 1.096 0.018 1.314 0.524 0.218 0.51-0.020 1.096-0.526 1.312z" fill="#555555"></path>
</svg>
