<?xml version="1.0" encoding="utf-8"?>
<!-- Generated by IcoMoon.io -->
<!DOCTYPE svg PUBLIC "-//W3C//DTD SVG 1.1//EN" "http://www.w3.org/Graphics/SVG/1.1/DTD/svg11.dtd">
<svg version="1.1" xmlns="http://www.w3.org/2000/svg" xmlns:xlink="http://www.w3.org/1999/xlink" width="64" height="64" viewBox="0 0 64 64">
<g id="icomoon-ignore">
	<line stroke-width="1" x1="" y1="" x2="" y2="" stroke="#449FDB" opacity=""></line>
</g>
	<path d="M32 40c0-2.209 1.791-4 4-4s4 1.791 4 4c0 2.209-1.791 4-4 4s-4-1.791-4-4zM58.002 26c-0.002 0-0.002 0 0 0l-0.002-12v-6c0-3.314-2.688-6-6-6h-41c-6.066 0-11 4.936-11 11v40c0 6.064 4.934 11 11 11h36c6.064 0 11-4.936 11-11v-3c0 0 0 0 0.002 0 7.996-6.002 7.996-17.998 0-24zM11 6h41c1.102 0 2 0.896 2 2v12.368c-0.628-0.224-1.296-0.368-2-0.368h-0.002v-10c0-1.106-0.896-2-2-2h-42c-1.104 0-2 0.894-2 2v7.886c-1.234-1.262-1.998-2.982-1.998-4.886 0-3.866 3.132-7 7-7zM49.998 12h-42v-2h42v2zM49.998 14v2h-42v-2h42zM49.998 18v2h-38.998c-1.080 0-2.088-0.264-3-0.7v-1.3h41.998zM54 53c0 3.866-3.134 7-7 7h-36c-3.868 0-7-3.134-7-7v-31.522c1.902 1.574 4.342 2.522 7 2.522h41c1.102 0 2 0.896 2 2v4h-18c-5.524 0-10 4.476-10 10s4.478 10 10 10h18v3zM56.554 46h-20.554c-3.308 0-6-2.692-6-6s2.692-6 6-6h18c1.234-0.016 2.458-0.614 3.204-1.608 0.208-0.28 0.37-0.594 0.5-0.922 0.018-0.044 0.050-0.078 0.066-0.124 1.438 1.886 2.23 4.198 2.23 6.654 0 3.076-1.242 5.93-3.446 8z" fill="#555555"></path>
</svg>
