<?xml version="1.0" encoding="utf-8"?>
<!-- Generated by IcoMoon.io -->
<!DOCTYPE svg PUBLIC "-//W3C//DTD SVG 1.1//EN" "http://www.w3.org/Graphics/SVG/1.1/DTD/svg11.dtd">
<svg version="1.1" xmlns="http://www.w3.org/2000/svg" xmlns:xlink="http://www.w3.org/1999/xlink" width="76" height="64" viewBox="0 0 76 64">
<g id="icomoon-ignore">
	<line stroke-width="1" x1="" y1="" x2="" y2="" stroke="#449FDB" opacity=""></line>
</g>
	<path d="M65.018 15c0.552 0 1-0.448 1-1v-3.33c0-1.806-1.47-3.276-3.276-3.276h-5.374l-1.226-3.618c-0.172-0.51-0.72-0.794-1.238-0.636l-29.106 8.848c-0.528 0.162-0.826 0.72-0.666 1.248 0.132 0.432 0.528 0.708 0.958 0.708 0.096 0 0.194-0.014 0.292-0.042l28.178-8.568 2.686 7.93c0.178 0.524 0.75 0.808 1.268 0.626 0.524-0.176 0.804-0.746 0.626-1.268l-1.094-3.23h4.698c0.704 0 1.276 0.572 1.276 1.276v3.332c-0.002 0.552 0.446 1 0.998 1zM73 30c-0.552 0-1 0.448-1 1s0.448 1 1 1c0.702 0 1 0.298 1 1v12c0 0.702-0.298 1-1 1h-16c-0.702 0-1-0.298-1-1v-10c0-0.702 0.298-1 1-1h12c0.552 0 1-0.448 1-1v-12c0-1.822-1.178-3-3-3h-61c-2.466 0-4-1.534-4-4s1.534-4 4-4h10.152l-6.052 1.996c-0.524 0.172-0.81 0.738-0.638 1.262 0.138 0.42 0.53 0.686 0.95 0.686 0.104 0 0.208-0.016 0.314-0.050l36.238-11.946c0.524-0.174 0.81-0.738 0.636-1.264-0.172-0.524-0.738-0.81-1.264-0.636l-24.2 7.98c-0.046-0.008-0.088-0.028-0.136-0.028h-16c-3.588 0-6 2.412-6 6v44c0 3.588 2.412 6 6 6h61c1.822 0 3-1.178 3-3v-10c0-0.552-0.448-1-1-1s-1 0.448-1 1v10c0 0.702-0.298 1-1 1h-61c-2.466 0-4-1.534-4-4v-39.376c1.026 0.866 2.384 1.376 4 1.376h61c0.702 0 1 0.298 1 1v11h-11c-1.822 0-3 1.178-3 3v10c0 1.822 1.178 3 3 3h16c1.822 0 3-1.178 3-3v-12c0-1.822-1.178-3-3-3zM62 40c0 1.105 0.895 2 2 2s2-0.895 2-2c0-1.105-0.895-2-2-2s-2 0.895-2 2z" fill="#555555"></path>
</svg>
