<?xml version="1.0" encoding="utf-8"?>
<!-- Generated by IcoMoon.io -->
<!DOCTYPE svg PUBLIC "-//W3C//DTD SVG 1.1//EN" "http://www.w3.org/Graphics/SVG/1.1/DTD/svg11.dtd">
<svg version="1.1" xmlns="http://www.w3.org/2000/svg" xmlns:xlink="http://www.w3.org/1999/xlink" width="46" height="64" viewBox="0 0 46 64">
<g id="icomoon-ignore">
	<line stroke-width="1" x1="" y1="" x2="" y2="" stroke="#449FDB" opacity=""></line>
</g>
	<path d="M45.604 15.322c0-4.506-1.374-11.068-3.998-14.888-0.186-0.272-0.494-0.434-0.824-0.434h-35.96c-0.33 0-0.638 0.162-0.824 0.434-2.624 3.824-3.998 10.384-3.998 14.888 0 11.864 9.46 25.058 22 25.738v16.94h-8.198c-2.282-0.15-4 1.568-4 3.85v1.15c0 0.552 0.448 1 1 1h24c0.552 0 1-0.448 1-1v-1c0-2.328-1.758-4.15-4-4h-7.802v-16.94c12.54-0.68 21.604-13.874 21.604-25.738zM33.802 62h-22v-0.15c0-1.178 0.822-2 2-2h18c1.142 0 2 0.924 2 2.15zM5.364 2h34.876c2.106 3.384 3.262 8.94 3.346 12.856-1.69-0.392-3.492-0.62-5.54-0.62-6.322 0-9.518 1.842-12.61 3.624-2.994 1.726-5.822 3.356-11.608 3.356s-8.61-1.634-11.602-3.36l-0.060-0.036c-0.1-0.838-0.166-1.674-0.166-2.498 0-3.926 1.176-9.804 3.364-13.322zM2.622 20.376c2.714 1.498 5.826 2.836 11.208 2.836 6.32 0 9.516-1.842 12.608-3.624 2.994-1.724 5.822-3.356 11.61-3.356 2.050 0 3.838 0.22 5.478 0.64-0.794 10.624-9.554 22.25-20.722 22.25-9.948 0.002-17.978-9.224-20.182-18.746z" fill="#555555"></path>
</svg>
