<?xml version="1.0" encoding="utf-8"?>
<!-- Generated by IcoMoon.io -->
<!DOCTYPE svg PUBLIC "-//W3C//DTD SVG 1.1//EN" "http://www.w3.org/Graphics/SVG/1.1/DTD/svg11.dtd">
<svg version="1.1" xmlns="http://www.w3.org/2000/svg" xmlns:xlink="http://www.w3.org/1999/xlink" width="64" height="64" viewBox="0 0 64 64">
<g id="icomoon-ignore">
	<line stroke-width="1" x1="" y1="" x2="" y2="" stroke="#449FDB" opacity=""></line>
</g>
	<path d="M31 0c-17.122 0-31 13.878-31 31s13.878 31 31 31 31-13.878 31-31-13.878-31-31-31zM57.95 30h-11.992c-0.11-4.43-0.898-8.662-2.296-12.536 2.7-1.126 5.196-2.624 7.472-4.394 4.046 4.542 6.576 10.44 6.816 16.93zM29.894 57.944c-3.324-2.768-6.112-6.362-8.152-10.536 2.618-0.818 5.392-1.266 8.258-1.358v11.898c-0.036 0-0.070-0.002-0.106-0.004zM32.102 4.056c3.772 3.14 6.85 7.346 8.932 12.252-2.852 0.974-5.882 1.54-9.036 1.64v-13.898c0.038 0.002 0.070 0.004 0.104 0.006zM35.434 4.396c5.52 0.918 10.472 3.496 14.328 7.228-2.094 1.606-4.382 2.966-6.856 3.996-1.82-4.314-4.374-8.128-7.472-11.224zM30 4.050v13.898c-3.154-0.102-6.186-0.666-9.036-1.64 2.082-4.906 5.16-9.112 8.932-12.252 0.036-0.002 0.068-0.004 0.104-0.006zM19.092 15.622c-2.47-1.030-4.76-2.39-6.854-3.996 3.854-3.732 8.808-6.31 14.328-7.228-3.1 3.094-5.652 6.908-7.474 11.224zM20.21 18.152c3.084 1.070 6.37 1.694 9.79 1.798v10.050h-11.958c0.108-4.188 0.85-8.19 2.168-11.848zM30 32v12.050c-3.154 0.096-6.204 0.612-9.078 1.538-1.732-4.124-2.754-8.718-2.88-13.588h11.958zM26.566 57.604c-4.946-0.822-9.438-2.976-13.090-6.104 1.97-1.366 4.1-2.522 6.376-3.4 1.744 3.616 4.026 6.826 6.714 9.504zM32 57.95v-11.898c2.864 0.092 5.64 0.54 8.258 1.358-2.042 4.174-4.828 7.768-8.152 10.536-0.034 0-0.070 0.002-0.106 0.004zM42.148 48.1c2.274 0.878 4.402 2.036 6.376 3.4-3.652 3.126-8.144 5.282-13.090 6.104 2.688-2.678 4.968-5.888 6.714-9.504zM41.078 45.588c-2.876-0.926-5.926-1.442-9.078-1.538v-12.050h11.958c-0.126 4.87-1.15 9.464-2.88 13.588zM32 30v-10.050c3.418-0.104 6.704-0.726 9.79-1.796 1.316 3.658 2.058 7.66 2.168 11.848h-11.958zM10.868 13.070c2.276 1.77 4.772 3.268 7.47 4.394-1.398 3.874-2.186 8.106-2.296 12.536h-11.992c0.24-6.49 2.77-12.388 6.818-16.93zM4.050 32h11.992c0.124 5.11 1.192 9.936 3.006 14.274-2.534 0.988-4.896 2.304-7.076 3.862-4.696-4.674-7.66-11.064-7.922-18.136zM50.028 50.134c-2.18-1.556-4.542-2.874-7.078-3.862 1.816-4.338 2.882-9.164 3.008-14.274h11.992c-0.262 7.074-3.228 13.464-7.922 18.136z" fill="#555555"></path>
</svg>
