<?xml version="1.0" encoding="utf-8"?>
<!-- Generator: Adobe Illustrator 18.0.0, SVG Export Plug-In . SVG Version: 6.00 Build 0)  -->
<!DOCTYPE svg PUBLIC "-//W3C//DTD SVG 1.1//EN" "http://www.w3.org/Graphics/SVG/1.1/DTD/svg11.dtd">
<svg version="1.1" id="Layer_1" xmlns="http://www.w3.org/2000/svg" xmlns:xlink="http://www.w3.org/1999/xlink" x="0px" y="0px"
	 viewBox="0 0 169.5 112.2" enable-background="new 0 0 169.5 112.2" xml:space="preserve">
<g>
	<g>
		<polygon fill="#5A5FBE" points="0.3,55.8 47.7,0.4 63.1,17.9 30.6,55.8 63,94.1 47.7,111.8 		"/>
		<path fill="#FFFFFF" d="M47.7,0.8l15,17.1L30.6,55.5l-0.3,0.3l0.3,0.3l32.1,38l-15,17.4L0.7,55.8L47.7,0.8 M47.7,0L0,55.8
			l47.7,56.4l15.6-18.1L31,55.8l32.4-37.9L47.7,0L47.7,0z"/>
	</g>
	<g>
		<polygon fill="#8560D5" points="30.8,55.8 78.2,0.4 93.5,17.9 61.1,55.8 93.5,94.1 78.2,111.8 		"/>
		<path fill="#FFFFFF" d="M78.2,0.8l15,17.1L61.1,55.5l-0.3,0.3l0.3,0.3l32.1,38l-15,17.4L31.1,55.8L78.2,0.8 M78.2,0L30.5,55.8
			l47.7,56.4l15.6-18.1L61.4,55.8l32.4-37.9L78.2,0L78.2,0z"/>
	</g>
	<g>
		<polygon fill="#CEC695" points="61.3,55.8 108.7,0.4 124,17.9 91.6,55.8 124,94.1 108.7,111.8 		"/>
		<path fill="#FFFFFF" d="M108.7,0.8l15,17.1L91.5,55.5l-0.3,0.3l0.3,0.3l32.1,38l-15,17.4L61.6,55.8L108.7,0.8 M108.7,0L60.9,55.8
			l47.7,56.4l15.6-18.1L91.9,55.8l32.4-37.9L108.7,0L108.7,0z"/>
	</g>
	<g>
		<polygon fill="#5171E6" points="123.7,93.8 138.8,75.3 107.5,38 138.6,0.9 154,18.4 137.9,37.9 169.2,75.2 139.1,111.3 		"/>
		<path fill="#FFFFFF" d="M138.6,1.3l15,17.1l-15.8,19.1l-0.3,0.3l0.3,0.3l31,37L139.1,111l-15-17.1l14.8-18.2l0.3-0.3l-0.3-0.3
			l-31.1-37L138.6,1.3 M138.6,0.5L107.2,38l31.3,37.3l-15.1,18.5l15.7,17.9l30.5-36.5l-31.3-37.3l16-19.5L138.6,0.5L138.6,0.5z"/>
	</g>
</g>
</svg>
