<?xml version="1.0" encoding="utf-8"?>
<!-- Generator: Adobe Illustrator 18.0.0, SVG Export Plug-In . SVG Version: 6.00 Build 0)  -->
<!DOCTYPE svg PUBLIC "-//W3C//DTD SVG 1.1//EN" "http://www.w3.org/Graphics/SVG/1.1/DTD/svg11.dtd">
<svg version="1.1" id="Layer_1" xmlns="http://www.w3.org/2000/svg" xmlns:xlink="http://www.w3.org/1999/xlink" x="0px" y="0px"
	 viewBox="0 184.3 640 111.5" enable-background="new 0 184.3 640 111.5" xml:space="preserve">
<g>
	<path fill="#5A5FBE" d="M26.3,190.5c-6,0-10.6,1.9-13.8,6s-5,9.4-5,16.1c0,7.1,1.7,12.5,5,16.3s7.9,5.8,14,5.8
		c3.8,0,8.3-0.8,13.2-2.1v6c-2.3,0.8-4.6,1.3-6.7,1.7c-2.1,0.4-4.6,0.4-7.5,0.4c-8.1,0-14.2-2.5-18.6-7.3C2.1,228.5,0,221.6,0,212.5
		c0-5.8,1-10.6,3.1-14.8c2.1-4.4,5.2-7.7,9.2-10s8.6-3.5,14-3.5c5.8,0,10.9,1.2,15.2,3.3l-2.7,5.8C34.4,191.4,30.1,190.5,26.3,190.5
		z"/>
	<path fill="#5A5FBE" d="M58.2,217.3V240h-6.9v-54.9h15.2c6.7,0,11.9,1.3,15.2,3.8c3.3,2.5,4.8,6.5,4.8,11.9
		c0,7.3-3.6,12.1-10.9,14.8l15,24.4h-8.1l-13.2-22.7H58.2z M58.2,211.6h8.3c4.4,0,7.7-1,9.8-2.7c2.1-1.7,3.1-4.4,3.1-7.9
		s-1-6-3.1-7.5c-2.1-1.5-5.4-2.3-10.2-2.3h-7.9C58.2,191.2,58.2,211.6,58.2,211.6z"/>
	<path fill="#5A5FBE" d="M146.9,212.5c0,8.8-2.3,15.7-6.7,20.7c-4.4,5-10.6,7.5-18.6,7.5s-14.4-2.5-18.8-7.5s-6.5-11.9-6.5-20.9
		c0-8.8,2.1-15.9,6.5-20.7s10.7-7.3,19-7.3c7.9,0,14.2,2.5,18.6,7.5C144.7,196.8,146.9,203.7,146.9,212.5z M103.5,212.5
		c0,7.3,1.5,12.9,4.6,16.5c3.1,3.6,7.5,5.8,13.4,5.8s10.4-1.9,13.4-5.6c3.1-3.8,4.6-9.2,4.6-16.7c0-7.3-1.5-12.9-4.6-16.5
		c-3.1-3.6-7.5-5.6-13.4-5.6s-10.4,1.9-13.6,5.6C104.6,199.7,103.5,205.3,103.5,212.5z"/>
	<path fill="#5A5FBE" d="M190,225.4c0,4.8-1.7,8.4-5.2,11.3c-3.5,2.9-8.3,4-14.4,4c-6.5,0-11.5-0.8-15.2-2.5v-6.5
		c2.3,1,4.8,1.7,7.7,2.3c2.9,0.6,5.4,0.8,7.7,0.8c4,0,7.1-0.8,9.2-2.3c2.1-1.5,3.1-3.6,3.1-6.5c0-1.9-0.4-3.3-1.2-4.4
		c-0.8-1.2-1.9-2.3-3.8-3.3s-4.4-2.1-8.1-3.5c-5-1.9-8.6-4-10.9-6.5c-2.3-2.5-3.3-5.8-3.3-9.8c0-4.2,1.5-7.7,4.8-10.2
		s7.5-3.8,12.7-3.8c5.6,0,10.6,1,15.2,3.1l-2.1,6c-4.6-1.9-9-2.9-13.1-2.9c-3.3,0-5.8,0.8-7.7,2.1c-1.9,1.3-2.3,3.1-2.3,5.8
		c0,1.7,0.4,3.3,1.2,4.4c0.8,1.2,1.9,2.3,3.5,3.3c1.5,1,4,2.1,7.5,3.3c4,1.5,7.1,2.9,9,4.4s3.5,3.1,4.4,4.8
		C189.7,220.4,190,222.7,190,225.4z"/>
	<path fill="#5A5FBE" d="M232.3,225.4c0,4.8-1.7,8.4-5.2,11.3s-8.3,4-14.4,4c-6.5,0-11.5-0.8-15.2-2.5v-6.5c2.3,1,4.8,1.7,7.7,2.3
		c2.9,0.6,5.4,0.8,7.7,0.8c4,0,7.1-0.8,9.2-2.3c2.1-1.5,3.1-3.6,3.1-6.5c0-1.9-0.4-3.3-1.2-4.4s-1.9-2.3-3.8-3.3s-4.4-2.1-8.1-3.5
		c-5-1.9-8.6-4-10.9-6.5c-2.3-2.5-3.3-5.8-3.3-9.8c0-4.2,1.5-7.7,4.8-10.2s7.5-3.8,12.7-3.8c5.6,0,10.6,1,15.2,3.1l-2.1,6
		c-4.6-1.9-9-2.9-13.1-2.9c-3.3,0-5.8,0.8-7.7,2.1c-1.9,1.3-2.7,3.5-2.7,6c0,1.7,0.4,3.3,1.2,4.4c0.8,1.2,1.9,2.3,3.5,3.3
		c1.5,1,4,2.1,7.5,3.3c4,1.5,7.1,2.9,9,4.4s3.5,3.1,4.4,4.8C231.5,220.6,232.3,222.7,232.3,225.4z"/>
	<path fill="#5A5FBE" d="M239.6,220.4v-6.3h18.6v6.3H239.6z"/>
	<path fill="#5A5FBE" d="M292.9,190.5c-6,0-10.6,1.9-13.8,6c-3.3,4-5,9.4-5,16.1c0,7.1,1.7,12.5,5,16.3c3.3,3.8,7.9,5.8,14,5.8
		c3.8,0,8.3-0.8,13.2-2.1v6c-2.3,0.8-4.6,1.3-6.7,1.7c-2.1,0.4-4.6,0.4-7.5,0.4c-8.1,0-14.2-2.5-18.6-7.3s-6.5-11.9-6.5-20.9
		c0-5.6,1-10.6,3.1-14.8c2.1-4.2,5.2-7.5,9-9.8c3.8-2.3,8.6-3.5,14-3.5c5.8,0,10.9,1.2,15.2,3.3l-2.7,5.8
		C301,191.4,296.8,190.5,292.9,190.5z"/>
	<path fill="#5A5FBE" d="M359.5,185.1v35.5c0,6.3-1.9,11.1-5.6,14.8c-3.6,3.6-9,5.4-15.7,5.4s-11.7-1.7-15.4-5.4
		c-3.6-3.6-5.6-8.6-5.6-14.8v-35.5h6.9v35.7c0,4.4,1.2,7.9,3.6,10.4c2.5,2.5,6,3.6,10.7,3.6c4.6,0,8.1-1.2,10.4-3.6s3.6-6,3.6-10.6
		v-35.5H359.5z"/>
	<path fill="#5A5FBE" d="M373.9,240v-54.9h6.9v48.8h24v6.1H373.9z"/>
	<path fill="#5A5FBE" d="M431,240H424v-48.8H407v-6.1H448v6.1H431V240z"/>
	<path fill="#5A5FBE" d="M497.9,185.1v35.5c0,6.3-1.9,11.1-5.6,14.8s-9,5.4-15.7,5.4s-11.7-1.7-15.4-5.4c-3.6-3.6-5.6-8.6-5.6-14.8
		v-35.5h6.9v35.7c0,4.4,1.2,7.9,3.6,10.4c2.5,2.5,6,3.6,10.7,3.6c4.6,0,8.1-1.2,10.4-3.6c2.3-2.5,3.6-6,3.6-10.6v-35.5H497.9z"/>
	<path fill="#5A5FBE" d="M519.3,217.3V240h-6.9v-54.9h15.2c6.7,0,11.9,1.3,15.2,3.8c3.3,2.5,4.8,6.5,4.8,11.7
		c0,7.3-3.6,12.1-10.9,14.8l15,24.6h-8.1l-13.2-22.7H519.3z M519.3,211.6h8.3c4.4,0,7.7-1,9.8-2.7c2.1-1.7,3.1-4.4,3.1-7.9
		s-1-6-3.1-7.5s-5.4-2.3-10.2-2.3h-7.9V211.6z"/>
	<path fill="#5A5FBE" d="M594.5,240l-6.5-16.9h-21.7l-6.5,16.9h-6.9l21.1-55.1h6.1l21.5,55.1H594.5z M585.9,217l-6.1-16.7L577,192
		c-0.8,3.1-1.5,5.8-2.3,8.3l-6.1,16.7H585.9z"/>
	<path fill="#5A5FBE" d="M609.1,240v-54.9h6.9v48.8h24v6.1H609.1z"/>
</g>
<g>
	<path fill="none" d="M497.1,276.3c1.1-0.9,1.7-2.5,1.7-4.2c0-1.9-0.6-3.4-1.7-4.2c-1.2-0.9-3-1.3-5.9-1.3h-4.1l0,11.1h4.5
		C494.1,277.7,495.9,277.2,497.1,276.3z"/>
	<path fill="none" d="M169.7,266c-3.5,0-6,1.1-7.7,3.3c-1.7,2.3-2.6,5.5-2.6,9.5c0,4.1,0.9,7.4,2.6,9.7c1.6,2.1,4.2,3.3,7.7,3.3
		c3.3,0,5.9-1.1,7.7-3.3c1.8-2.1,2.6-5.2,2.6-9.7c0-4.1-0.9-7.4-2.6-9.7C175.8,267,173.4,266,169.7,266z"/>
	<path fill="#5171E6" d="M141.9,261.4c-3.2,0-6.3,0.8-8.7,2.2c-2.2,1.3-4,3.3-5.6,6.1c-1.4,2.5-2,5.4-2,9.1c0,5.5,1.3,9.8,4,12.8
		c2.6,3,6.6,4.6,11.5,4.6c1.5,0,3.1,0,4.5-0.2c1.4-0.2,2.8-0.4,4.2-1l0.3-0.1v-0.3v-3.6v-0.7l-0.7,0.2c-2.6,0.9-5.3,1.3-7.7,1.3
		c-3.5,0-6.3-1.1-8.1-3.3c-1.8-2.2-2.8-5.4-2.8-9.5c0-3.8,0.9-6.9,3-9.5c1.8-2.3,4.4-3.5,7.9-3.5c2.2,0,4.7,0.6,7.3,1.7l0.4,0.2
		l0.2-0.4l1.7-3.5l0.2-0.4l-0.4-0.2C148.7,262,145.6,261.4,141.9,261.4z"/>
	<path fill="#5171E6" d="M169.7,261.4c-5,0-8.8,1.5-11.7,4.6c-2.8,3-4.2,7.3-4.2,12.8c0,5.5,1.4,9.9,4.2,12.8
		c2.8,3,6.8,4.6,11.7,4.6c5,0,8.8-1.5,11.5-4.6c2.8-3.2,4.2-7.5,4.2-12.8c0-5.5-1.4-9.9-4.2-12.8
		C178.4,262.9,174.5,261.4,169.7,261.4z M179.9,278.8c0,4.5-0.8,7.6-2.6,9.7c-1.8,2.2-4.4,3.3-7.7,3.3c-3.4,0-6.1-1.1-7.7-3.3
		c-1.7-2.3-2.6-5.5-2.6-9.7c0-4,0.9-7.2,2.6-9.5c1.6-2.2,4.2-3.3,7.7-3.3c3.7,0,6.1,1,7.7,3.1C179.1,271.4,179.9,274.6,179.9,278.8z
		"/>
	<path fill="#5171E6" d="M214.2,262h-0.5v0.5v18.6c0,0.9,0,2.7,0.2,4.8c0.1,0.8,0.1,1.6,0.2,2.3l-5-7.8l-10.8-16.7l-1-1.5l-0.1-0.2
		H197h-4.8h-0.5v0.5v32.8v0.5h0.5h3.8h0.5v-0.5v-18.4c0-2,0-4.4-0.2-7.1l0,0l16.7,25.8l0.1,0.2h0.3h4.8v-0.2h0.1v-0.3h0.3v-32.8V262
		h-0.5H214.2z"/>
	<path fill="#5171E6" d="M245.2,282.6c-0.6-1.2-1.6-2-2.7-2.9l-0.1-0.1c-1.2-1-2.9-1.8-5.5-2.8c-2.1-0.6-3.6-1.4-4.3-1.9
		c-0.8-0.5-1.6-1-1.9-1.7c-0.4-0.7-0.5-1.5-0.5-2.5c0-1.2,0.5-2.2,1.5-3.1c1-0.8,2.4-1.2,4.3-1.2c2.4,0,4.8,0.5,7.7,1.7l0.5,0.2
		l0.2-0.5l1.3-3.6l0.2-0.4l-0.4-0.2c-2.6-1.3-5.7-2-9.2-2c-3.3,0-6,0.8-8,2.4c-2,1.6-3.1,3.9-3.1,6.5c0,2.6,0.7,4.8,2.1,6.1
		c1.5,1.5,3.8,2.9,6.7,4c2.1,0.8,3.6,1.5,4.8,2.1c1.1,0.5,1.6,1.1,2.1,1.8c0.5,0.6,0.7,1.3,0.7,2.4c0,1.5-0.6,2.6-1.7,3.4
		c-1.2,0.9-2.8,1.3-5.3,1.3c-0.8,0-1.7-0.1-2.6-0.3c-0.6-0.1-1.3-0.2-1.9-0.3c-1.7-0.2-3.2-0.8-4.5-1.3l-0.7-0.3v0.8v4v0.3l0.3,0.1
		c2.3,1,5.5,1.6,9.2,1.6c3.5,0,6.6-0.9,8.9-2.6c2.2-1.6,3.3-4,3.3-7.1c0-1.5-0.5-2.5-1-3.5L245.2,282.6z"/>
	<path fill="#5171E6" d="M273.5,262H273v0.5v21.1c0,2.8-0.7,4.8-1.9,6c-1.5,1.3-3.5,2-6,2c-2.7,0-4.9-0.7-6.2-2
		c-1.3-1.3-2-3.3-2-5.8v-21.3V262h-0.5h-4.2h-0.5v0.5v21.1c0,3.8,1.2,7,3.4,9.2c2.3,2.3,5.5,3.4,9.6,3.4c4.2,0,7.4-1,9.7-3.2
		c2.4-2.2,3.6-5.2,3.6-9.2v-21.3V262h-0.5H273.5z"/>
	<polygon fill="#5171E6" points="290.9,291.1 290.9,262.5 290.9,262 290.4,262 286.2,262 285.7,262 285.7,262.5 285.7,295.3 
		285.7,295.8 286.2,295.8 304.8,295.8 305.3,295.8 305.3,295.3 305.3,291.6 305.3,291.1 304.8,291.1 	"/>
	<polygon fill="#5171E6" points="305.6,262 305.1,262 305.1,262.5 305.1,266.1 305.1,266.6 305.6,266.6 315.5,266.6 315.5,295.3 
		315.5,295.8 316,295.8 320.2,295.8 320.2,295.5 320.2,295.5 320.2,295.3 320.5,295.3 320.5,266.6 330.2,266.6 330.7,266.6 
		330.7,266.1 330.7,262.5 330.7,262 330.2,262 	"/>
	<polygon fill="#5171E6" points="332.9,262 332.4,262 332.4,262.5 332.4,264.8 332.4,265.2 332.7,265.2 336.2,266.1 336.2,291.6 
		332.7,292.5 332.4,292.6 332.4,293 332.4,295.3 332.4,295.8 332.9,295.8 344.8,295.8 345.3,295.8 345.3,295.3 345.3,293 
		345.3,292.6 344.9,292.5 341.4,291.6 341.4,266.1 344.9,265.2 345.3,265.2 345.3,264.8 345.3,262.5 345.3,262 344.8,262 	"/>
	<path fill="#5171E6" d="M373.2,262h-0.5v0.5v18.6c0,0.9,0,2.7,0.2,4.8c0.1,0.8,0.1,1.6,0.2,2.3l-5-7.8l-10.8-16.7l-1-1.5l-0.1-0.2
		h-0.3h-4.8h-0.5v0.5v32.8v0.5h0.5h3.8h0.5v-0.5v-18.4c0-2,0-4.4-0.2-7.1l0,0l16.7,25.8l0.1,0.2h0.3h4.8v-0.2h0.1v-0.3h0.2v-32.8
		V262H377H373.2z"/>
	<path fill="#5171E6" d="M400.4,277.5h-0.5v0.5v3.8v0.5h0.5h6.8v8.9c-1.7,0.4-3.8,0.7-6,0.7c-3.9,0-6.8-1.1-8.8-3.3
		c-2.1-2.3-3.1-5.5-3.1-9.6c0-4.2,1-7.1,3.1-9.5c2.2-2.3,5.1-3.5,8.8-3.5c2.8,0,5.6,0.6,8.2,1.9l0.5,0.2l0.2-0.5l1.5-3.6l0.2-0.5
		l-0.5-0.2c-3-1.3-6.3-2-10-2c-3.4,0-6.3,0.7-9.2,2.2c-2.6,1.3-4.7,3.4-6.2,6.2c-1.4,2.6-2.2,5.8-2.2,9.3c0,5.8,1.4,10,4.2,12.8
		c3,3,7.1,4.6,12.1,4.6c2.5,0,4.5,0,6.4-0.4c2-0.4,3.7-0.8,5.4-1.4l0.3-0.1v-0.4V278v-0.5h-0.5H400.4z"/>
	<path fill="#5171E6" d="M449.4,282.6c-0.6-1.2-1.6-2-2.7-2.9l-0.1-0.1c-1.2-1-2.9-1.8-5.5-2.8c-2.1-0.6-3.6-1.4-4.3-1.9
		c-0.8-0.5-1.6-1-1.9-1.7c-0.4-0.7-0.5-1.5-0.5-2.5c0-1.2,0.5-2.2,1.5-3.1c1-0.8,2.4-1.2,4.3-1.2c2.4,0,4.8,0.5,7.7,1.7l0.5,0.2
		l0.2-0.5l1.3-3.6l0.2-0.4l-0.4-0.2c-2.6-1.3-5.7-2-9.2-2c-3.3,0-6,0.8-8,2.4c-2,1.6-3.1,3.9-3.1,6.5c0,2.6,0.7,4.8,2.1,6.1
		c1.5,1.5,3.8,2.9,6.7,4c2.1,0.8,3.6,1.5,4.8,2.1c1.1,0.5,1.6,1.1,2.1,1.8c0.5,0.6,0.7,1.3,0.7,2.4c0,1.5-0.6,2.6-1.7,3.4
		c-1.2,0.9-2.8,1.3-5.3,1.3c-0.8,0-1.7-0.1-2.6-0.3c-0.6-0.1-1.3-0.2-1.9-0.3c-1.7-0.2-3.2-0.8-4.5-1.3l-0.7-0.3v0.8v4v0.3l0.3,0.1
		c2.3,1,5.5,1.6,9.2,1.6c3.5,0,6.6-0.9,8.9-2.6c2.2-1.6,3.3-4,3.3-7.1c0-1.5-0.5-2.5-1-3.5L449.4,282.6z"/>
	<polygon fill="#5171E6" points="456.9,262 456.4,262 456.4,262.5 456.4,295.3 456.4,295.8 456.9,295.8 475.3,295.8 475.8,295.8 
		475.8,295.3 475.8,291.6 475.8,291.1 475.3,291.1 461.6,291.1 461.6,280.4 474.5,280.4 475,280.4 475,279.9 475,276.3 475,275.8 
		474.5,275.8 461.6,275.8 461.6,266.6 475.3,266.6 475.8,266.6 475.8,266.1 475.8,262.5 475.8,262 475.3,262 	"/>
	
		<line fill="none" stroke="#5171E6" stroke-width="0" stroke-linecap="round" stroke-linejoin="round" x1="486.6" y1="281.8" x2="486.6" y2="281.7"/>
	<path fill="#5171E6" d="M497.5,281c4.2-1.7,6.3-4.6,6.3-9.1c0-3.4-1-5.8-3.1-7.5c-2-1.6-5.1-2.4-9.3-2.4h-9h-0.5v0.5v32.8v0.5h0.5
		h4.2h0.5v-0.5v-12.9h5.7l7.7,13.4l0.1,0.2h0.3h4.8h0.9l-0.5-0.8L497.5,281z M487.1,266.6h4.1c2.8,0,4.6,0.4,5.9,1.3
		c1.1,0.8,1.7,2.3,1.7,4.2c0,1.7-0.7,3.3-1.7,4.2c-1.1,0.9-3,1.4-5.4,1.4h-4.5L487.1,266.6z M486.6,281.7v0.2V281.7z"/>
	<path fill="#5171E6" d="M530.2,262h-0.4l-0.1,0.3l-7.3,20.9l-0.4,1.4c-0.5,1.5-0.9,2.7-1.2,3.9c-0.4-1.5-1-3.1-1.7-5.1l-7.5-21.1
		l-0.1-0.3h-0.4h-4.4h-0.7l0.2,0.7l11.9,32.8l0.1,0.3h0.4h4.2h0.4l0.1-0.3l11.7-32.8l0.2-0.7h-0.7H530.2z"/>
	<polygon fill="#5171E6" points="536.1,262 535.6,262 535.6,262.5 535.6,264.8 535.6,265.2 536,265.2 539.5,266.1 539.5,291.6 
		536,292.5 535.6,292.6 535.6,293 535.6,295.3 535.6,295.8 536.1,295.8 548.1,295.8 548.6,295.8 548.6,295.3 548.6,293 548.6,292.6 
		548.2,292.5 544.7,291.6 544.7,266.1 548.2,265.2 548.6,265.2 548.6,264.8 548.6,262.5 548.6,262 548.1,262 	"/>
	<path fill="#5171E6" d="M568.8,261.4c-3.2,0-6.3,0.8-8.7,2.2c-2.2,1.3-4,3.3-5.6,6.1c-1.4,2.5-2,5.4-2,9.1c0,5.5,1.3,9.8,4,12.8
		c2.6,3,6.6,4.6,11.5,4.6c1.7,0,3.1,0,4.5-0.2c1.4-0.2,2.8-0.4,4.2-1l0.3-0.1v-0.3v-3.6v-0.7l-0.7,0.2c-2.6,0.9-5.3,1.3-7.7,1.3
		c-3.5,0-6.3-1.1-8.1-3.3c-1.8-2.2-2.8-5.4-2.8-9.5c0-3.8,0.9-6.9,3-9.5c1.8-2.3,4.4-3.5,7.9-3.5c2.2,0,4.7,0.6,7.3,1.7l0.4,0.2
		l0.2-0.4l1.7-3.5l0.2-0.4l-0.4-0.2C575.6,262,572.5,261.4,568.8,261.4z"/>
	<polygon fill="#5171E6" points="583.6,262 583.1,262 583.1,262.5 583.1,295.3 583.1,295.8 583.6,295.8 602,295.8 602.5,295.8 
		602.5,295.3 602.5,291.6 602.5,291.1 602,291.1 588.3,291.1 588.3,280.4 601.2,280.4 601.7,280.4 601.7,279.9 601.7,276.3 
		601.7,275.8 601.2,275.8 588.3,275.8 588.3,266.6 602,266.6 602.5,266.6 602.5,266.1 602.5,262.5 602.5,262 602,262 	"/>
	<path fill="#5171E6" d="M627.2,282.9l-0.2-0.3c-0.6-1.2-1.6-2-2.7-2.9l-0.2-0.1c-1.2-1-2.9-1.8-5.5-2.8c-2.1-0.6-3.6-1.4-4.3-1.9
		c-0.8-0.5-1.6-1-1.9-1.7c-0.4-0.7-0.5-1.5-0.5-2.5c0-1.2,0.5-2.2,1.5-3.1c1-0.8,2.4-1.2,4.3-1.2c2.4,0,4.8,0.5,7.7,1.7l0.5,0.2
		l0.2-0.5l1.3-3.6l0.2-0.4l-0.4-0.2c-2.6-1.3-5.7-2-9.2-2c-3.3,0-6,0.8-8,2.4c-2,1.6-3.1,3.9-3.1,6.5c0,2.6,0.7,4.8,2.1,6.1
		c1.5,1.5,3.8,2.9,6.7,4c2.1,0.8,3.6,1.5,4.8,2.1c1.1,0.5,1.6,1.1,2.1,1.8c0.5,0.6,0.7,1.3,0.7,2.4c0,1.5-0.6,2.6-1.7,3.4
		c-1.2,0.9-2.8,1.3-5.3,1.3c-0.8,0-1.7-0.1-2.6-0.3c-0.6-0.1-1.3-0.2-1.9-0.3c-1.7-0.2-3.2-0.8-4.5-1.3l-0.7-0.3v0.8v4v0.3l0.3,0.1
		c2.3,1,5.5,1.6,9.2,1.6c3.5,0,6.6-0.9,8.9-2.6c2.2-1.6,3.3-4,3.3-7.1C628.2,285,627.7,284,627.2,282.9z"/>
</g>
</svg>
